G04 #@! TF.GenerationSoftware,KiCad,Pcbnew,9.0.0*
G04 #@! TF.CreationDate,2025-07-09T15:47:30-04:00*
G04 #@! TF.ProjectId,SMACAR MAIN BOARD,534d4143-4152-4204-9d41-494e20424f41,rev?*
G04 #@! TF.SameCoordinates,Original*
G04 #@! TF.FileFunction,Copper,L1,Top*
G04 #@! TF.FilePolarity,Positive*
%FSLAX46Y46*%
G04 Gerber Fmt 4.6, Leading zero omitted, Abs format (unit mm)*
G04 Created by KiCad (PCBNEW 9.0.0) date 2025-07-09 15:47:30*
%MOMM*%
%LPD*%
G01*
G04 APERTURE LIST*
G04 Aperture macros list*
%AMRoundRect*
0 Rectangle with rounded corners*
0 $1 Rounding radius*
0 $2 $3 $4 $5 $6 $7 $8 $9 X,Y pos of 4 corners*
0 Add a 4 corners polygon primitive as box body*
4,1,4,$2,$3,$4,$5,$6,$7,$8,$9,$2,$3,0*
0 Add four circle primitives for the rounded corners*
1,1,$1+$1,$2,$3*
1,1,$1+$1,$4,$5*
1,1,$1+$1,$6,$7*
1,1,$1+$1,$8,$9*
0 Add four rect primitives between the rounded corners*
20,1,$1+$1,$2,$3,$4,$5,0*
20,1,$1+$1,$4,$5,$6,$7,0*
20,1,$1+$1,$6,$7,$8,$9,0*
20,1,$1+$1,$8,$9,$2,$3,0*%
G04 Aperture macros list end*
G04 #@! TA.AperFunction,ComponentPad*
%ADD10RoundRect,0.250000X0.845000X-0.620000X0.845000X0.620000X-0.845000X0.620000X-0.845000X-0.620000X0*%
G04 #@! TD*
G04 #@! TA.AperFunction,ComponentPad*
%ADD11O,2.190000X1.740000*%
G04 #@! TD*
G04 #@! TA.AperFunction,ComponentPad*
%ADD12C,3.800000*%
G04 #@! TD*
G04 #@! TA.AperFunction,ComponentPad*
%ADD13RoundRect,0.250000X-0.845000X0.620000X-0.845000X-0.620000X0.845000X-0.620000X0.845000X0.620000X0*%
G04 #@! TD*
G04 #@! TA.AperFunction,SMDPad,CuDef*
%ADD14RoundRect,0.250000X0.450000X-0.350000X0.450000X0.350000X-0.450000X0.350000X-0.450000X-0.350000X0*%
G04 #@! TD*
G04 #@! TA.AperFunction,SMDPad,CuDef*
%ADD15RoundRect,0.250000X0.450000X-0.400000X0.450000X0.400000X-0.450000X0.400000X-0.450000X-0.400000X0*%
G04 #@! TD*
G04 #@! TA.AperFunction,ComponentPad*
%ADD16R,2.000000X1.200000*%
G04 #@! TD*
G04 #@! TA.AperFunction,ComponentPad*
%ADD17O,2.000000X1.200000*%
G04 #@! TD*
G04 #@! TA.AperFunction,ViaPad*
%ADD18C,0.600000*%
G04 #@! TD*
G04 #@! TA.AperFunction,Conductor*
%ADD19C,0.500000*%
G04 #@! TD*
G04 #@! TA.AperFunction,Conductor*
%ADD20C,0.200000*%
G04 #@! TD*
G04 #@! TA.AperFunction,Conductor*
%ADD21C,0.250000*%
G04 #@! TD*
G04 APERTURE END LIST*
D10*
G04 #@! TO.P,MOLEX5,1,1*
G04 #@! TO.N,5V*
X107250000Y-79790000D03*
D11*
G04 #@! TO.P,MOLEX5,2,2*
G04 #@! TO.N,GND*
X107250000Y-77250000D03*
G04 #@! TO.P,MOLEX5,3,3*
G04 #@! TO.N,SCL*
X107250000Y-74710000D03*
G04 #@! TO.P,MOLEX5,4,4*
G04 #@! TO.N,SDA*
X107250000Y-72170000D03*
G04 #@! TD*
D12*
G04 #@! TO.P,REF\u002A\u002A,1*
G04 #@! TO.N,N/C*
X157000000Y-34000000D03*
G04 #@! TD*
D13*
G04 #@! TO.P,J2,1,Pin_1*
G04 #@! TO.N,GND*
X155480000Y-52230000D03*
D11*
G04 #@! TO.P,J2,2,Pin_2*
G04 #@! TO.N,5V*
X155480000Y-54770000D03*
G04 #@! TD*
D14*
G04 #@! TO.P,R4_10k1,1*
G04 #@! TO.N,SDA*
X114500000Y-57500000D03*
G04 #@! TO.P,R4_10k1,2*
G04 #@! TO.N,Net-(D2-A1)*
X114500000Y-55500000D03*
G04 #@! TD*
D12*
G04 #@! TO.P,REF\u002A\u002A,1*
G04 #@! TO.N,N/C*
X106000000Y-98250000D03*
G04 #@! TD*
D15*
G04 #@! TO.P,D2,1,A1*
G04 #@! TO.N,Net-(D2-A1)*
X117000000Y-35450000D03*
G04 #@! TO.P,D2,2,A2*
G04 #@! TO.N,GND*
X117000000Y-32550000D03*
G04 #@! TD*
D10*
G04 #@! TO.P,MOLEX2,1,1*
G04 #@! TO.N,PH SENSOR*
X107000000Y-49290000D03*
D11*
G04 #@! TO.P,MOLEX2,2,2*
G04 #@! TO.N,5V*
X107000000Y-46750000D03*
G04 #@! TO.P,MOLEX2,3,3*
G04 #@! TO.N,GND*
X107000000Y-44210000D03*
G04 #@! TD*
D10*
G04 #@! TO.P,MOLEX4,1,1*
G04 #@! TO.N,TEMP SENSOR*
X107250000Y-68290000D03*
D11*
G04 #@! TO.P,MOLEX4,2,2*
G04 #@! TO.N,5V*
X107250000Y-65750000D03*
G04 #@! TO.P,MOLEX4,3,3*
G04 #@! TO.N,GND*
X107250000Y-63210000D03*
G04 #@! TD*
D14*
G04 #@! TO.P,R3_10k1,1*
G04 #@! TO.N,SCL*
X114750000Y-71062500D03*
G04 #@! TO.P,R3_10k1,2*
G04 #@! TO.N,Net-(D2-A1)*
X114750000Y-69062500D03*
G04 #@! TD*
D16*
G04 #@! TO.P,U2,1,3V3*
G04 #@! TO.N,Net-(D2-A1)*
X121003680Y-32742720D03*
D17*
G04 #@! TO.P,U2,2,3V3*
X121003680Y-35282720D03*
G04 #@! TO.P,U2,3,CHIP_PU*
G04 #@! TO.N,unconnected-(U2-CHIP_PU-Pad3)*
X121003680Y-37822720D03*
G04 #@! TO.P,U2,4,GPIO4/ADC1_CH3*
G04 #@! TO.N,ELECTRICAL CONDUCTIVITY*
X121003680Y-40362720D03*
G04 #@! TO.P,U2,5,GPIO5/ADC1_CH4*
G04 #@! TO.N,PH SENSOR*
X121003680Y-42902720D03*
G04 #@! TO.P,U2,6,GPIO6/ADC1_CH5*
G04 #@! TO.N,TDS SENSOR*
X121003680Y-45442720D03*
G04 #@! TO.P,U2,7,GPIO7/ADC1_CH6*
G04 #@! TO.N,unconnected-(U2-GPIO7{slash}ADC1_CH6-Pad7)*
X121003680Y-47982720D03*
G04 #@! TO.P,U2,8,GPIO15/ADC2_CH4/32K_P*
G04 #@! TO.N,unconnected-(U2-GPIO15{slash}ADC2_CH4{slash}32K_P-Pad8)*
X121003680Y-50522720D03*
G04 #@! TO.P,U2,9,GPIO16/ADC2_CH5/32K_N*
G04 #@! TO.N,unconnected-(U2-GPIO16{slash}ADC2_CH5{slash}32K_N-Pad9)*
X121003680Y-53062720D03*
G04 #@! TO.P,U2,10,GPIO17/ADC2_CH6*
G04 #@! TO.N,unconnected-(U2-GPIO17{slash}ADC2_CH6-Pad10)*
X121003680Y-55602720D03*
G04 #@! TO.P,U2,11,GPIO18/ADC2_CH7*
G04 #@! TO.N,unconnected-(U2-GPIO18{slash}ADC2_CH7-Pad11)*
X121003680Y-58142720D03*
G04 #@! TO.P,U2,12,GPIO8/ADC1_CH7*
G04 #@! TO.N,SDA*
X121003680Y-60682720D03*
G04 #@! TO.P,U2,13,GPIO3/ADC1_CH2*
G04 #@! TO.N,unconnected-(U2-GPIO3{slash}ADC1_CH2-Pad13)*
X121003680Y-63222720D03*
G04 #@! TO.P,U2,14,GPIO46*
G04 #@! TO.N,unconnected-(U2-GPIO46-Pad14)*
X121003680Y-65762720D03*
G04 #@! TO.P,U2,15,GPIO9/ADC1_CH8*
G04 #@! TO.N,SCL*
X121003680Y-68302720D03*
G04 #@! TO.P,U2,16,GPIO10/ADC1_CH9*
G04 #@! TO.N,unconnected-(U2-GPIO10{slash}ADC1_CH9-Pad16)*
X121003680Y-70842720D03*
G04 #@! TO.P,U2,17,GPIO11/ADC2_CH0*
G04 #@! TO.N,unconnected-(U2-GPIO11{slash}ADC2_CH0-Pad17)*
X121003680Y-73382720D03*
G04 #@! TO.P,U2,18,GPIO12/ADC2_CH1*
G04 #@! TO.N,unconnected-(U2-GPIO12{slash}ADC2_CH1-Pad18)*
X121003680Y-75922720D03*
G04 #@! TO.P,U2,19,GPIO13/ADC2_CH2*
G04 #@! TO.N,unconnected-(U2-GPIO13{slash}ADC2_CH2-Pad19)*
X121003680Y-78462720D03*
G04 #@! TO.P,U2,20,GPIO14/ADC2_CH3*
G04 #@! TO.N,unconnected-(U2-GPIO14{slash}ADC2_CH3-Pad20)*
X121000000Y-81000000D03*
G04 #@! TO.P,U2,21,5V*
G04 #@! TO.N,5V*
X121000000Y-83540000D03*
G04 #@! TO.P,U2,22,GND*
G04 #@! TO.N,GND*
X121000000Y-86080000D03*
G04 #@! TO.P,U2,23,GND*
X143863680Y-86082720D03*
G04 #@! TO.P,U2,24,GND*
X143863680Y-83542720D03*
G04 #@! TO.P,U2,25,GPIO19/USB_D-*
G04 #@! TO.N,unconnected-(U2-GPIO19{slash}USB_D--Pad25)*
X143863680Y-81002720D03*
G04 #@! TO.P,U2,26,GPIO20/USB_D+*
G04 #@! TO.N,unconnected-(U2-GPIO20{slash}USB_D+-Pad26)*
X143863680Y-78462720D03*
G04 #@! TO.P,U2,27,GPIO21*
G04 #@! TO.N,unconnected-(U2-GPIO21-Pad27)*
X143863680Y-75922720D03*
G04 #@! TO.P,U2,28,GPIO47*
G04 #@! TO.N,unconnected-(U2-GPIO47-Pad28)*
X143863680Y-73382720D03*
G04 #@! TO.P,U2,29,GPIO48*
G04 #@! TO.N,unconnected-(U2-GPIO48-Pad29)*
X143863680Y-70842720D03*
G04 #@! TO.P,U2,30,GPIO45*
G04 #@! TO.N,unconnected-(U2-GPIO45-Pad30)*
X143863680Y-68302720D03*
G04 #@! TO.P,U2,31,GPIO0*
G04 #@! TO.N,TEMP SENSOR*
X143863680Y-65762720D03*
G04 #@! TO.P,U2,32,GPIO35*
G04 #@! TO.N,unconnected-(U2-GPIO35-Pad32)*
X143863680Y-63222720D03*
G04 #@! TO.P,U2,33,GPIO36*
G04 #@! TO.N,unconnected-(U2-GPIO36-Pad33)*
X143863680Y-60682720D03*
G04 #@! TO.P,U2,34,GPIO37*
G04 #@! TO.N,unconnected-(U2-GPIO37-Pad34)*
X143863680Y-58142720D03*
G04 #@! TO.P,U2,35,GPIO38*
G04 #@! TO.N,unconnected-(U2-GPIO38-Pad35)*
X143863680Y-55602720D03*
G04 #@! TO.P,U2,36,GPIO39/MTCK*
G04 #@! TO.N,unconnected-(U2-GPIO39{slash}MTCK-Pad36)*
X143863680Y-53062720D03*
G04 #@! TO.P,U2,37,GPIO40/MTDO*
G04 #@! TO.N,unconnected-(U2-GPIO40{slash}MTDO-Pad37)*
X143863680Y-50522720D03*
G04 #@! TO.P,U2,38,GPIO41/MTDI*
G04 #@! TO.N,unconnected-(U2-GPIO41{slash}MTDI-Pad38)*
X143863680Y-47982720D03*
G04 #@! TO.P,U2,39,GPIO42/MTMS*
G04 #@! TO.N,unconnected-(U2-GPIO42{slash}MTMS-Pad39)*
X143863680Y-45442720D03*
G04 #@! TO.P,U2,40,GPIO2/ADC1_CH1*
G04 #@! TO.N,unconnected-(U2-GPIO2{slash}ADC1_CH1-Pad40)*
X143863680Y-42902720D03*
G04 #@! TO.P,U2,41,GPIO1/ADC1_CH0*
G04 #@! TO.N,unconnected-(U2-GPIO1{slash}ADC1_CH0-Pad41)*
X143863680Y-40362720D03*
G04 #@! TO.P,U2,42,GPIO44/U0RXD*
G04 #@! TO.N,unconnected-(U2-GPIO44{slash}U0RXD-Pad42)*
X143863680Y-37822720D03*
G04 #@! TO.P,U2,43,GPIO43/U0TXD*
G04 #@! TO.N,unconnected-(U2-GPIO43{slash}U0TXD-Pad43)*
X143863680Y-35282720D03*
G04 #@! TO.P,U2,44,GND*
G04 #@! TO.N,GND*
X143863680Y-32742720D03*
G04 #@! TD*
D12*
G04 #@! TO.P,REF\u002A\u002A,1*
G04 #@! TO.N,N/C*
X157250000Y-98250000D03*
G04 #@! TD*
D10*
G04 #@! TO.P,MOLEX1,1,1*
G04 #@! TO.N,ELECTRICAL CONDUCTIVITY*
X107000000Y-40040000D03*
D11*
G04 #@! TO.P,MOLEX1,2,2*
G04 #@! TO.N,5V*
X107000000Y-37500000D03*
G04 #@! TO.P,MOLEX1,3,3*
G04 #@! TO.N,GND*
X107000000Y-34960000D03*
G04 #@! TD*
D10*
G04 #@! TO.P,MOLEX3,1,1*
G04 #@! TO.N,TDS SENSOR*
X107210000Y-58540000D03*
D11*
G04 #@! TO.P,MOLEX3,2,2*
G04 #@! TO.N,5V*
X107210000Y-56000000D03*
G04 #@! TO.P,MOLEX3,3,3*
G04 #@! TO.N,GND*
X107210000Y-53460000D03*
G04 #@! TD*
D18*
G04 #@! TO.N,TEMP SENSOR*
X114750000Y-82500000D03*
G04 #@! TO.N,Net-(D2-A1)*
X116000000Y-53750000D03*
G04 #@! TD*
D19*
G04 #@! TO.N,5V*
X129000000Y-95500000D02*
X144250000Y-95500000D01*
X149730000Y-54770000D02*
X155480000Y-54770000D01*
X127500000Y-94000000D02*
X129000000Y-95500000D01*
X121000000Y-83540000D02*
X113250000Y-83540000D01*
X144250000Y-95500000D02*
X147000000Y-92750000D01*
D20*
X104000000Y-67000000D02*
X106000000Y-67000000D01*
D19*
X111000000Y-83540000D02*
X107250000Y-79790000D01*
D20*
X104000000Y-40500000D02*
X107000000Y-37500000D01*
X104000000Y-49750000D02*
X104000000Y-40500000D01*
X107250000Y-79790000D02*
X104000000Y-76540000D01*
X104000000Y-67000000D02*
X104000000Y-59210000D01*
X104000000Y-49750000D02*
X107000000Y-46750000D01*
D19*
X147000000Y-57500000D02*
X149730000Y-54770000D01*
X147000000Y-92750000D02*
X147000000Y-57500000D01*
X127500000Y-90040000D02*
X127500000Y-94000000D01*
D20*
X104000000Y-76540000D02*
X104000000Y-67000000D01*
D19*
X121000000Y-83540000D02*
X127500000Y-90040000D01*
D20*
X106000000Y-67000000D02*
X107250000Y-65750000D01*
X104000000Y-59210000D02*
X104000000Y-49750000D01*
X104000000Y-59210000D02*
X107210000Y-56000000D01*
D19*
X113250000Y-83540000D02*
X111000000Y-83540000D01*
D20*
G04 #@! TO.N,ELECTRICAL CONDUCTIVITY*
X120680960Y-40040000D02*
X121003680Y-40362720D01*
X107000000Y-40040000D02*
X120680960Y-40040000D01*
G04 #@! TO.N,PH SENSOR*
X107000000Y-49290000D02*
X114616400Y-49290000D01*
X114616400Y-49290000D02*
X121003680Y-42902720D01*
G04 #@! TO.N,TDS SENSOR*
X120307280Y-45442720D02*
X121003680Y-45442720D01*
X107210000Y-58540000D02*
X120307280Y-45442720D01*
D21*
G04 #@! TO.N,TEMP SENSOR*
X107250000Y-68290000D02*
X114750000Y-75790000D01*
X114750000Y-75790000D02*
X114750000Y-82500000D01*
G04 #@! TO.N,SDA*
X114500000Y-57437500D02*
X117758460Y-57437500D01*
X117758460Y-57437500D02*
X121003680Y-60682720D01*
G04 #@! TO.N,SCL*
X116500000Y-71000000D02*
X119197280Y-68302720D01*
X119197280Y-68302720D02*
X121003680Y-68302720D01*
X114750000Y-71000000D02*
X116500000Y-71000000D01*
G04 #@! TO.N,Net-(D2-A1)*
X112500000Y-68250000D02*
X112500000Y-56500000D01*
X113375000Y-69125000D02*
X112500000Y-68250000D01*
D20*
X117000000Y-35450000D02*
X120836400Y-35450000D01*
D21*
X113437500Y-55562500D02*
X114500000Y-55562500D01*
X116000000Y-54062500D02*
X114500000Y-55562500D01*
X116000000Y-53750000D02*
X116000000Y-54062500D01*
X114750000Y-69125000D02*
X113375000Y-69125000D01*
D20*
X120836400Y-35450000D02*
X121003680Y-35282720D01*
D21*
X112500000Y-56500000D02*
X113437500Y-55562500D01*
G04 #@! TD*
G04 #@! TA.AperFunction,Conductor*
G04 #@! TO.N,GND*
G36*
X105597539Y-67620185D02*
G01*
X105643294Y-67672989D01*
X105654500Y-67724500D01*
X105654500Y-68960001D01*
X105654501Y-68960018D01*
X105665000Y-69062796D01*
X105665001Y-69062799D01*
X105720185Y-69229331D01*
X105720186Y-69229334D01*
X105812288Y-69378656D01*
X105936344Y-69502712D01*
X106085666Y-69594814D01*
X106252203Y-69649999D01*
X106354991Y-69660500D01*
X107684547Y-69660499D01*
X107751586Y-69680184D01*
X107772228Y-69696818D01*
X114088181Y-76012771D01*
X114121666Y-76074094D01*
X114124500Y-76100452D01*
X114124500Y-81957650D01*
X114104815Y-82024689D01*
X114103602Y-82026541D01*
X114040609Y-82120815D01*
X114040602Y-82120828D01*
X113980264Y-82266498D01*
X113980261Y-82266510D01*
X113949500Y-82421153D01*
X113949500Y-82421158D01*
X113949500Y-82578842D01*
X113949500Y-82578844D01*
X113949499Y-82578844D01*
X113961925Y-82641308D01*
X113955698Y-82710900D01*
X113912835Y-82766077D01*
X113846945Y-82789322D01*
X113840308Y-82789500D01*
X111362230Y-82789500D01*
X111295191Y-82769815D01*
X111274549Y-82753181D01*
X108881818Y-80360450D01*
X108848333Y-80299127D01*
X108845499Y-80272769D01*
X108845499Y-79119998D01*
X108845498Y-79119981D01*
X108834999Y-79017203D01*
X108834998Y-79017200D01*
X108832326Y-79009137D01*
X108779814Y-78850666D01*
X108687712Y-78701344D01*
X108563656Y-78577288D01*
X108414334Y-78485186D01*
X108414332Y-78485185D01*
X108414325Y-78485181D01*
X108413165Y-78484640D01*
X108412503Y-78484057D01*
X108408187Y-78481395D01*
X108408642Y-78480657D01*
X108360727Y-78438466D01*
X108341577Y-78371272D01*
X108361795Y-78304392D01*
X108377892Y-78284578D01*
X108519977Y-78142493D01*
X108646728Y-77968036D01*
X108744627Y-77775901D01*
X108811266Y-77570809D01*
X108822481Y-77500000D01*
X107792709Y-77500000D01*
X107804452Y-77479661D01*
X107845000Y-77328333D01*
X107845000Y-77171667D01*
X107804452Y-77020339D01*
X107792709Y-77000000D01*
X108822481Y-77000000D01*
X108811266Y-76929190D01*
X108744627Y-76724098D01*
X108646728Y-76531963D01*
X108519974Y-76357503D01*
X108519974Y-76357502D01*
X108367497Y-76205025D01*
X108196279Y-76080627D01*
X108153614Y-76025297D01*
X108147635Y-75955683D01*
X108180241Y-75893888D01*
X108196280Y-75879991D01*
X108256678Y-75836109D01*
X108367821Y-75755359D01*
X108520359Y-75602821D01*
X108647157Y-75428299D01*
X108745092Y-75236089D01*
X108811754Y-75030926D01*
X108826752Y-74936230D01*
X108845500Y-74817866D01*
X108845500Y-74602133D01*
X108813895Y-74402593D01*
X108811754Y-74389074D01*
X108745092Y-74183911D01*
X108647157Y-73991701D01*
X108520359Y-73817179D01*
X108367821Y-73664641D01*
X108196704Y-73540317D01*
X108154040Y-73484988D01*
X108148061Y-73415374D01*
X108180667Y-73353580D01*
X108196702Y-73339684D01*
X108367821Y-73215359D01*
X108520359Y-73062821D01*
X108647157Y-72888299D01*
X108745092Y-72696089D01*
X108811754Y-72490926D01*
X108826752Y-72396230D01*
X108845500Y-72277866D01*
X108845500Y-72062133D01*
X108813895Y-71862593D01*
X108811754Y-71849074D01*
X108745092Y-71643911D01*
X108647157Y-71451701D01*
X108520359Y-71277179D01*
X108367821Y-71124641D01*
X108193299Y-70997843D01*
X108001089Y-70899908D01*
X107795926Y-70833246D01*
X107795924Y-70833245D01*
X107795922Y-70833245D01*
X107582866Y-70799500D01*
X107582861Y-70799500D01*
X106917139Y-70799500D01*
X106917134Y-70799500D01*
X106704077Y-70833245D01*
X106498908Y-70899909D01*
X106306700Y-70997843D01*
X106207129Y-71070186D01*
X106132179Y-71124641D01*
X106132177Y-71124643D01*
X106132176Y-71124643D01*
X105979643Y-71277176D01*
X105979643Y-71277177D01*
X105979641Y-71277179D01*
X105925186Y-71352129D01*
X105852843Y-71451700D01*
X105754909Y-71643908D01*
X105688245Y-71849077D01*
X105654500Y-72062133D01*
X105654500Y-72277866D01*
X105688245Y-72490922D01*
X105688246Y-72490926D01*
X105754908Y-72696089D01*
X105852843Y-72888299D01*
X105979641Y-73062821D01*
X106132179Y-73215359D01*
X106243322Y-73296109D01*
X106303294Y-73339682D01*
X106345959Y-73395012D01*
X106351938Y-73464626D01*
X106319332Y-73526421D01*
X106303294Y-73540318D01*
X106132179Y-73664641D01*
X106132177Y-73664643D01*
X106132176Y-73664643D01*
X105979643Y-73817176D01*
X105979643Y-73817177D01*
X105979641Y-73817179D01*
X105925186Y-73892129D01*
X105852843Y-73991700D01*
X105754909Y-74183908D01*
X105688245Y-74389077D01*
X105654500Y-74602133D01*
X105654500Y-74817866D01*
X105688245Y-75030922D01*
X105688246Y-75030926D01*
X105754908Y-75236089D01*
X105852843Y-75428299D01*
X105979641Y-75602821D01*
X106132179Y-75755359D01*
X106243322Y-75836109D01*
X106303720Y-75879991D01*
X106346385Y-75935321D01*
X106352364Y-76004935D01*
X106319758Y-76066730D01*
X106303720Y-76080627D01*
X106132503Y-76205024D01*
X105980025Y-76357502D01*
X105980025Y-76357503D01*
X105853271Y-76531963D01*
X105755372Y-76724098D01*
X105688733Y-76929190D01*
X105665234Y-77077562D01*
X105635305Y-77140697D01*
X105575993Y-77177628D01*
X105506131Y-77176630D01*
X105455080Y-77145845D01*
X104636819Y-76327584D01*
X104603334Y-76266261D01*
X104600500Y-76239903D01*
X104600500Y-67724500D01*
X104620185Y-67657461D01*
X104672989Y-67611706D01*
X104724500Y-67600500D01*
X105530500Y-67600500D01*
X105597539Y-67620185D01*
G37*
G04 #@! TD.AperFunction*
G04 #@! TA.AperFunction,Conductor*
G36*
X105323833Y-49377913D02*
G01*
X105379767Y-49419784D01*
X105404184Y-49485249D01*
X105404500Y-49494095D01*
X105404500Y-49960001D01*
X105404501Y-49960019D01*
X105415000Y-50062796D01*
X105415001Y-50062799D01*
X105470185Y-50229331D01*
X105470187Y-50229336D01*
X105492198Y-50265022D01*
X105562288Y-50378656D01*
X105686344Y-50502712D01*
X105835666Y-50594814D01*
X106002203Y-50649999D01*
X106104991Y-50660500D01*
X107895008Y-50660499D01*
X107997797Y-50649999D01*
X108164334Y-50594814D01*
X108313656Y-50502712D01*
X108437712Y-50378656D01*
X108529814Y-50229334D01*
X108584999Y-50062797D01*
X108591221Y-50001897D01*
X108617618Y-49937205D01*
X108674799Y-49897054D01*
X108714579Y-49890500D01*
X114537339Y-49890500D01*
X114537343Y-49890501D01*
X114695457Y-49890501D01*
X114699321Y-49889465D01*
X114711257Y-49889393D01*
X114737683Y-49896978D01*
X114764852Y-49901213D01*
X114770787Y-49906480D01*
X114778415Y-49908670D01*
X114796547Y-49929340D01*
X114817111Y-49947589D01*
X114819256Y-49955227D01*
X114824490Y-49961194D01*
X114828568Y-49988388D01*
X114836002Y-50014856D01*
X114833676Y-50022442D01*
X114834854Y-50030291D01*
X114823584Y-50055370D01*
X114815527Y-50081659D01*
X114807164Y-50091910D01*
X114806216Y-50094022D01*
X114804566Y-50095096D01*
X114799692Y-50101072D01*
X109005357Y-55895407D01*
X108944034Y-55928892D01*
X108874342Y-55923908D01*
X108818409Y-55882036D01*
X108795203Y-55827124D01*
X108785958Y-55768759D01*
X108771754Y-55679074D01*
X108705092Y-55473911D01*
X108607157Y-55281701D01*
X108480359Y-55107179D01*
X108327821Y-54954641D01*
X108156279Y-54830008D01*
X108113614Y-54774678D01*
X108107635Y-54705064D01*
X108140241Y-54643269D01*
X108156280Y-54629372D01*
X108327491Y-54504979D01*
X108327497Y-54504974D01*
X108479974Y-54352497D01*
X108479974Y-54352496D01*
X108606728Y-54178036D01*
X108704627Y-53985901D01*
X108771266Y-53780809D01*
X108782481Y-53710000D01*
X107752709Y-53710000D01*
X107764452Y-53689661D01*
X107805000Y-53538333D01*
X107805000Y-53381667D01*
X107764452Y-53230339D01*
X107752709Y-53210000D01*
X108782481Y-53210000D01*
X108771266Y-53139190D01*
X108704627Y-52934098D01*
X108606728Y-52741963D01*
X108479974Y-52567503D01*
X108479974Y-52567502D01*
X108327497Y-52415025D01*
X108153036Y-52288271D01*
X107960901Y-52190372D01*
X107755809Y-52123734D01*
X107542820Y-52090000D01*
X107460000Y-52090000D01*
X107460000Y-52917290D01*
X107439661Y-52905548D01*
X107288333Y-52865000D01*
X107131667Y-52865000D01*
X106980339Y-52905548D01*
X106960000Y-52917290D01*
X106960000Y-52090000D01*
X106877180Y-52090000D01*
X106664190Y-52123734D01*
X106459098Y-52190372D01*
X106266963Y-52288271D01*
X106092503Y-52415025D01*
X106092502Y-52415025D01*
X105940025Y-52567502D01*
X105940025Y-52567503D01*
X105813271Y-52741963D01*
X105715372Y-52934098D01*
X105648733Y-53139190D01*
X105637519Y-53210000D01*
X106667291Y-53210000D01*
X106655548Y-53230339D01*
X106615000Y-53381667D01*
X106615000Y-53538333D01*
X106655548Y-53689661D01*
X106667291Y-53710000D01*
X105637519Y-53710000D01*
X105648733Y-53780809D01*
X105715372Y-53985901D01*
X105813271Y-54178036D01*
X105940025Y-54352496D01*
X105940025Y-54352497D01*
X106092502Y-54504974D01*
X106263720Y-54629372D01*
X106306385Y-54684702D01*
X106312364Y-54754316D01*
X106279758Y-54816110D01*
X106263720Y-54830008D01*
X106092177Y-54954642D01*
X105939643Y-55107176D01*
X105939643Y-55107177D01*
X105939641Y-55107179D01*
X105898527Y-55163767D01*
X105812843Y-55281700D01*
X105714909Y-55473908D01*
X105648245Y-55679077D01*
X105614500Y-55892133D01*
X105614500Y-56107866D01*
X105648245Y-56320922D01*
X105714910Y-56526096D01*
X105716775Y-56530598D01*
X105715552Y-56531104D01*
X105727328Y-56593841D01*
X105701044Y-56658579D01*
X105691629Y-56669134D01*
X104812181Y-57548583D01*
X104750858Y-57582068D01*
X104681167Y-57577084D01*
X104625233Y-57535212D01*
X104600816Y-57469748D01*
X104600500Y-57460902D01*
X104600500Y-50050096D01*
X104620185Y-49983057D01*
X104636815Y-49962419D01*
X105192821Y-49406412D01*
X105254142Y-49372929D01*
X105323833Y-49377913D01*
G37*
G04 #@! TD.AperFunction*
G04 #@! TA.AperFunction,Conductor*
G36*
X159942539Y-31020185D02*
G01*
X159988294Y-31072989D01*
X159999500Y-31124500D01*
X159999500Y-100875500D01*
X159979815Y-100942539D01*
X159927011Y-100988294D01*
X159875500Y-100999500D01*
X103124500Y-100999500D01*
X103057461Y-100979815D01*
X103011706Y-100927011D01*
X103000500Y-100875500D01*
X103000500Y-98115186D01*
X103599500Y-98115186D01*
X103599500Y-98384813D01*
X103629686Y-98652719D01*
X103629688Y-98652731D01*
X103689684Y-98915594D01*
X103689687Y-98915602D01*
X103778734Y-99170082D01*
X103895714Y-99412994D01*
X103895716Y-99412997D01*
X104039162Y-99641289D01*
X104207266Y-99852085D01*
X104397915Y-100042734D01*
X104608711Y-100210838D01*
X104837003Y-100354284D01*
X105079921Y-100471267D01*
X105271049Y-100538145D01*
X105334397Y-100560312D01*
X105334405Y-100560315D01*
X105334408Y-100560315D01*
X105334409Y-100560316D01*
X105597268Y-100620312D01*
X105865187Y-100650499D01*
X105865188Y-100650500D01*
X105865191Y-100650500D01*
X106134812Y-100650500D01*
X106134812Y-100650499D01*
X106402732Y-100620312D01*
X106665591Y-100560316D01*
X106920079Y-100471267D01*
X107162997Y-100354284D01*
X107391289Y-100210838D01*
X107602085Y-100042734D01*
X107792734Y-99852085D01*
X107960838Y-99641289D01*
X108104284Y-99412997D01*
X108221267Y-99170079D01*
X108310316Y-98915591D01*
X108370312Y-98652732D01*
X108400500Y-98384809D01*
X108400500Y-98115191D01*
X108400499Y-98115186D01*
X154849500Y-98115186D01*
X154849500Y-98384813D01*
X154879686Y-98652719D01*
X154879688Y-98652731D01*
X154939684Y-98915594D01*
X154939687Y-98915602D01*
X155028734Y-99170082D01*
X155145714Y-99412994D01*
X155145716Y-99412997D01*
X155289162Y-99641289D01*
X155457266Y-99852085D01*
X155647915Y-100042734D01*
X155858711Y-100210838D01*
X156087003Y-100354284D01*
X156329921Y-100471267D01*
X156521049Y-100538145D01*
X156584397Y-100560312D01*
X156584405Y-100560315D01*
X156584408Y-100560315D01*
X156584409Y-100560316D01*
X156847268Y-100620312D01*
X157115187Y-100650499D01*
X157115188Y-100650500D01*
X157115191Y-100650500D01*
X157384812Y-100650500D01*
X157384812Y-100650499D01*
X157652732Y-100620312D01*
X157915591Y-100560316D01*
X158170079Y-100471267D01*
X158412997Y-100354284D01*
X158641289Y-100210838D01*
X158852085Y-100042734D01*
X159042734Y-99852085D01*
X159210838Y-99641289D01*
X159354284Y-99412997D01*
X159471267Y-99170079D01*
X159560316Y-98915591D01*
X159620312Y-98652732D01*
X159650500Y-98384809D01*
X159650500Y-98115191D01*
X159620312Y-97847268D01*
X159560316Y-97584409D01*
X159471267Y-97329921D01*
X159354284Y-97087003D01*
X159210838Y-96858711D01*
X159042734Y-96647915D01*
X158852085Y-96457266D01*
X158641289Y-96289162D01*
X158443819Y-96165083D01*
X158412994Y-96145714D01*
X158170082Y-96028734D01*
X157915602Y-95939687D01*
X157915594Y-95939684D01*
X157718446Y-95894687D01*
X157652732Y-95879688D01*
X157652728Y-95879687D01*
X157652719Y-95879686D01*
X157384813Y-95849500D01*
X157384809Y-95849500D01*
X157115191Y-95849500D01*
X157115186Y-95849500D01*
X156847280Y-95879686D01*
X156847268Y-95879688D01*
X156584405Y-95939684D01*
X156584397Y-95939687D01*
X156329917Y-96028734D01*
X156087005Y-96145714D01*
X155858712Y-96289161D01*
X155647915Y-96457265D01*
X155457265Y-96647915D01*
X155289161Y-96858712D01*
X155145714Y-97087005D01*
X155028734Y-97329917D01*
X154939687Y-97584397D01*
X154939684Y-97584405D01*
X154879688Y-97847268D01*
X154879686Y-97847280D01*
X154849500Y-98115186D01*
X108400499Y-98115186D01*
X108370312Y-97847268D01*
X108310316Y-97584409D01*
X108221267Y-97329921D01*
X108104284Y-97087003D01*
X107960838Y-96858711D01*
X107792734Y-96647915D01*
X107602085Y-96457266D01*
X107391289Y-96289162D01*
X107193819Y-96165083D01*
X107162994Y-96145714D01*
X106920082Y-96028734D01*
X106665602Y-95939687D01*
X106665594Y-95939684D01*
X106468446Y-95894687D01*
X106402732Y-95879688D01*
X106402728Y-95879687D01*
X106402719Y-95879686D01*
X106134813Y-95849500D01*
X106134809Y-95849500D01*
X105865191Y-95849500D01*
X105865186Y-95849500D01*
X105597280Y-95879686D01*
X105597268Y-95879688D01*
X105334405Y-95939684D01*
X105334397Y-95939687D01*
X105079917Y-96028734D01*
X104837005Y-96145714D01*
X104608712Y-96289161D01*
X104397915Y-96457265D01*
X104207265Y-96647915D01*
X104039161Y-96858712D01*
X103895714Y-97087005D01*
X103778734Y-97329917D01*
X103689687Y-97584397D01*
X103689684Y-97584405D01*
X103629688Y-97847268D01*
X103629686Y-97847280D01*
X103599500Y-98115186D01*
X103000500Y-98115186D01*
X103000500Y-76619054D01*
X103399498Y-76619054D01*
X103440423Y-76771785D01*
X103469358Y-76821900D01*
X103469359Y-76821904D01*
X103469360Y-76821904D01*
X103519479Y-76908714D01*
X103519481Y-76908717D01*
X103638349Y-77027585D01*
X103638355Y-77027590D01*
X105619902Y-79009137D01*
X105653387Y-79070460D01*
X105655580Y-79109414D01*
X105654500Y-79119985D01*
X105654500Y-80460001D01*
X105654501Y-80460018D01*
X105665000Y-80562796D01*
X105665001Y-80562799D01*
X105720185Y-80729331D01*
X105720187Y-80729336D01*
X105729862Y-80745022D01*
X105812288Y-80878656D01*
X105936344Y-81002712D01*
X106085666Y-81094814D01*
X106252203Y-81149999D01*
X106354991Y-81160500D01*
X107507769Y-81160499D01*
X107574808Y-81180184D01*
X107595450Y-81196818D01*
X110521586Y-84122954D01*
X110551058Y-84142645D01*
X110595270Y-84172186D01*
X110644505Y-84205084D01*
X110644506Y-84205084D01*
X110644507Y-84205085D01*
X110644509Y-84205086D01*
X110775447Y-84259322D01*
X110781087Y-84261658D01*
X110781091Y-84261658D01*
X110781092Y-84261659D01*
X110926079Y-84290500D01*
X110926082Y-84290500D01*
X110926083Y-84290500D01*
X111073918Y-84290500D01*
X113176082Y-84290500D01*
X119742796Y-84290500D01*
X119809835Y-84310185D01*
X119830477Y-84326819D01*
X119883072Y-84379414D01*
X120023212Y-84481232D01*
X120177555Y-84559873D01*
X120342299Y-84613402D01*
X120513389Y-84640500D01*
X120987770Y-84640500D01*
X121017210Y-84649144D01*
X121047197Y-84655668D01*
X121052212Y-84659422D01*
X121054809Y-84660185D01*
X121075451Y-84676819D01*
X121226635Y-84828003D01*
X121260120Y-84889326D01*
X121255136Y-84959018D01*
X121250000Y-84967009D01*
X121250000Y-85764314D01*
X121245606Y-85759920D01*
X121154394Y-85707259D01*
X121052661Y-85680000D01*
X120947339Y-85680000D01*
X120845606Y-85707259D01*
X120754394Y-85759920D01*
X120750000Y-85764314D01*
X120750000Y-84980000D01*
X120513429Y-84980000D01*
X120342415Y-85007085D01*
X120177742Y-85060591D01*
X120023475Y-85139195D01*
X119883397Y-85240967D01*
X119760967Y-85363397D01*
X119659195Y-85503475D01*
X119580591Y-85657744D01*
X119527085Y-85822415D01*
X119525884Y-85829999D01*
X119525885Y-85830000D01*
X120684314Y-85830000D01*
X120679920Y-85834394D01*
X120627259Y-85925606D01*
X120600000Y-86027339D01*
X120600000Y-86132661D01*
X120627259Y-86234394D01*
X120679920Y-86325606D01*
X120684314Y-86330000D01*
X119525885Y-86330000D01*
X119527085Y-86337584D01*
X119580591Y-86502255D01*
X119659195Y-86656524D01*
X119760967Y-86796602D01*
X119883397Y-86919032D01*
X120023475Y-87020804D01*
X120177742Y-87099408D01*
X120342415Y-87152914D01*
X120513429Y-87180000D01*
X120750000Y-87180000D01*
X120750000Y-86395686D01*
X120754394Y-86400080D01*
X120845606Y-86452741D01*
X120947339Y-86480000D01*
X121052661Y-86480000D01*
X121154394Y-86452741D01*
X121245606Y-86400080D01*
X121250000Y-86395686D01*
X121250000Y-87180000D01*
X121486571Y-87180000D01*
X121657584Y-87152914D01*
X121822257Y-87099408D01*
X121976524Y-87020804D01*
X122116602Y-86919032D01*
X122239032Y-86796602D01*
X122340804Y-86656524D01*
X122419408Y-86502257D01*
X122474420Y-86332950D01*
X122476243Y-86333542D01*
X122506944Y-86280009D01*
X122568953Y-86247813D01*
X122638526Y-86254252D01*
X122680452Y-86281820D01*
X125855682Y-89457049D01*
X126713181Y-90314548D01*
X126746666Y-90375871D01*
X126749500Y-90402229D01*
X126749500Y-94073918D01*
X126749500Y-94073920D01*
X126749499Y-94073920D01*
X126778340Y-94218907D01*
X126778343Y-94218917D01*
X126834914Y-94355492D01*
X126867812Y-94404727D01*
X126867813Y-94404730D01*
X126917046Y-94478414D01*
X126917052Y-94478421D01*
X128521580Y-96082948D01*
X128521584Y-96082951D01*
X128644498Y-96165080D01*
X128644511Y-96165087D01*
X128781082Y-96221656D01*
X128781087Y-96221658D01*
X128781091Y-96221658D01*
X128781092Y-96221659D01*
X128926079Y-96250500D01*
X128926082Y-96250500D01*
X144323920Y-96250500D01*
X144421462Y-96231096D01*
X144468913Y-96221658D01*
X144605495Y-96165084D01*
X144654729Y-96132186D01*
X144728416Y-96082952D01*
X147582951Y-93228416D01*
X147665084Y-93105495D01*
X147721658Y-92968913D01*
X147750500Y-92823918D01*
X147750500Y-92676083D01*
X147750500Y-57862230D01*
X147770185Y-57795191D01*
X147786819Y-57774549D01*
X150004549Y-55556819D01*
X150065872Y-55523334D01*
X150092230Y-55520500D01*
X154043057Y-55520500D01*
X154110096Y-55540185D01*
X154143374Y-55571613D01*
X154209641Y-55662821D01*
X154362179Y-55815359D01*
X154536701Y-55942157D01*
X154728911Y-56040092D01*
X154934074Y-56106754D01*
X155013973Y-56119408D01*
X155147134Y-56140500D01*
X155147139Y-56140500D01*
X155812866Y-56140500D01*
X155931230Y-56121752D01*
X156025926Y-56106754D01*
X156231089Y-56040092D01*
X156423299Y-55942157D01*
X156597821Y-55815359D01*
X156750359Y-55662821D01*
X156877157Y-55488299D01*
X156975092Y-55296089D01*
X157041754Y-55090926D01*
X157056752Y-54996230D01*
X157075500Y-54877866D01*
X157075500Y-54662133D01*
X157044306Y-54465186D01*
X157041754Y-54449074D01*
X156975092Y-54243911D01*
X156877157Y-54051701D01*
X156750359Y-53877179D01*
X156607996Y-53734816D01*
X156574511Y-53673493D01*
X156579495Y-53603801D01*
X156621367Y-53547868D01*
X156643289Y-53534745D01*
X156644127Y-53534354D01*
X156793345Y-53442315D01*
X156917315Y-53318345D01*
X157009356Y-53169124D01*
X157009358Y-53169119D01*
X157064505Y-53002697D01*
X157064506Y-53002690D01*
X157074999Y-52899986D01*
X157075000Y-52899973D01*
X157075000Y-52480000D01*
X156022709Y-52480000D01*
X156034452Y-52459661D01*
X156075000Y-52308333D01*
X156075000Y-52151667D01*
X156034452Y-52000339D01*
X156022709Y-51980000D01*
X157074999Y-51980000D01*
X157074999Y-51560028D01*
X157074998Y-51560013D01*
X157064505Y-51457302D01*
X157009358Y-51290880D01*
X157009356Y-51290875D01*
X156917315Y-51141654D01*
X156793345Y-51017684D01*
X156644124Y-50925643D01*
X156644119Y-50925641D01*
X156477697Y-50870494D01*
X156477690Y-50870493D01*
X156374986Y-50860000D01*
X155730000Y-50860000D01*
X155730000Y-51687290D01*
X155709661Y-51675548D01*
X155558333Y-51635000D01*
X155401667Y-51635000D01*
X155250339Y-51675548D01*
X155230000Y-51687290D01*
X155230000Y-50860000D01*
X154585028Y-50860000D01*
X154585012Y-50860001D01*
X154482302Y-50870494D01*
X154315880Y-50925641D01*
X154315875Y-50925643D01*
X154166654Y-51017684D01*
X154042684Y-51141654D01*
X153950643Y-51290875D01*
X153950641Y-51290880D01*
X153895494Y-51457302D01*
X153895493Y-51457309D01*
X153885000Y-51560013D01*
X153885000Y-51980000D01*
X154937291Y-51980000D01*
X154925548Y-52000339D01*
X154885000Y-52151667D01*
X154885000Y-52308333D01*
X154925548Y-52459661D01*
X154937291Y-52480000D01*
X153885001Y-52480000D01*
X153885001Y-52899986D01*
X153895494Y-53002697D01*
X153950641Y-53169119D01*
X153950643Y-53169124D01*
X154042684Y-53318345D01*
X154166654Y-53442315D01*
X154315876Y-53534356D01*
X154316716Y-53534748D01*
X154317195Y-53535170D01*
X154322025Y-53538149D01*
X154321516Y-53538973D01*
X154369160Y-53580915D01*
X154388318Y-53648107D01*
X154368109Y-53714990D01*
X154352004Y-53734816D01*
X154209640Y-53877180D01*
X154143375Y-53968386D01*
X154088044Y-54011051D01*
X154043057Y-54019500D01*
X149656080Y-54019500D01*
X149511092Y-54048340D01*
X149511082Y-54048343D01*
X149374508Y-54104914D01*
X149374505Y-54104915D01*
X149374505Y-54104916D01*
X149345785Y-54124106D01*
X149345784Y-54124105D01*
X149251585Y-54187046D01*
X149251578Y-54187052D01*
X146417049Y-57021581D01*
X146385682Y-57068525D01*
X146385683Y-57068526D01*
X146334914Y-57144508D01*
X146278343Y-57281082D01*
X146278340Y-57281092D01*
X146249500Y-57426079D01*
X146249500Y-92387770D01*
X146229815Y-92454809D01*
X146213181Y-92475451D01*
X143975451Y-94713181D01*
X143914128Y-94746666D01*
X143887770Y-94749500D01*
X129362229Y-94749500D01*
X129295190Y-94729815D01*
X129274548Y-94713181D01*
X128286819Y-93725451D01*
X128253334Y-93664128D01*
X128250500Y-93637770D01*
X128250500Y-89966079D01*
X128221659Y-89821092D01*
X128221658Y-89821091D01*
X128221658Y-89821087D01*
X128221656Y-89821082D01*
X128165087Y-89684511D01*
X128165080Y-89684498D01*
X128082952Y-89561585D01*
X128082951Y-89561584D01*
X127978416Y-89457049D01*
X124904704Y-86383336D01*
X124354087Y-85832719D01*
X142389564Y-85832719D01*
X142389565Y-85832720D01*
X143547994Y-85832720D01*
X143543600Y-85837114D01*
X143490939Y-85928326D01*
X143463680Y-86030059D01*
X143463680Y-86135381D01*
X143490939Y-86237114D01*
X143543600Y-86328326D01*
X143547994Y-86332720D01*
X142389565Y-86332720D01*
X142390765Y-86340304D01*
X142444271Y-86504975D01*
X142522875Y-86659244D01*
X142624647Y-86799322D01*
X142747077Y-86921752D01*
X142887155Y-87023524D01*
X143041422Y-87102128D01*
X143206095Y-87155634D01*
X143377109Y-87182720D01*
X143613680Y-87182720D01*
X143613680Y-86398406D01*
X143618074Y-86402800D01*
X143709286Y-86455461D01*
X143811019Y-86482720D01*
X143916341Y-86482720D01*
X144018074Y-86455461D01*
X144109286Y-86402800D01*
X144113680Y-86398406D01*
X144113680Y-87182720D01*
X144350251Y-87182720D01*
X144521264Y-87155634D01*
X144685937Y-87102128D01*
X144840204Y-87023524D01*
X144980282Y-86921752D01*
X145102712Y-86799322D01*
X145204484Y-86659244D01*
X145283088Y-86504975D01*
X145336594Y-86340304D01*
X145337795Y-86332720D01*
X144179366Y-86332720D01*
X144183760Y-86328326D01*
X144236421Y-86237114D01*
X144263680Y-86135381D01*
X144263680Y-86030059D01*
X144236421Y-85928326D01*
X144183760Y-85837114D01*
X144179366Y-85832720D01*
X145337795Y-85832720D01*
X145337795Y-85832719D01*
X145336594Y-85825135D01*
X145283088Y-85660464D01*
X145204484Y-85506195D01*
X145102712Y-85366117D01*
X144980282Y-85243687D01*
X144840204Y-85141915D01*
X144685937Y-85063311D01*
X144521264Y-85009805D01*
X144350251Y-84982720D01*
X144113680Y-84982720D01*
X144113680Y-85767034D01*
X144109286Y-85762640D01*
X144018074Y-85709979D01*
X143916341Y-85682720D01*
X143811019Y-85682720D01*
X143709286Y-85709979D01*
X143618074Y-85762640D01*
X143613680Y-85767034D01*
X143613680Y-84982720D01*
X143377109Y-84982720D01*
X143206095Y-85009805D01*
X143041422Y-85063311D01*
X142887155Y-85141915D01*
X142747077Y-85243687D01*
X142624647Y-85366117D01*
X142522875Y-85506195D01*
X142444271Y-85660464D01*
X142390765Y-85825135D01*
X142389564Y-85832719D01*
X124354087Y-85832719D01*
X122489284Y-83967916D01*
X122484594Y-83959328D01*
X122476829Y-83953371D01*
X122468123Y-83929164D01*
X122455799Y-83906593D01*
X122455866Y-83895080D01*
X122453185Y-83887623D01*
X122456042Y-83865297D01*
X122456118Y-83852451D01*
X122457341Y-83847127D01*
X122473402Y-83797701D01*
X122500500Y-83626611D01*
X122500500Y-83453389D01*
X122475052Y-83292719D01*
X142389564Y-83292719D01*
X142389565Y-83292720D01*
X143547994Y-83292720D01*
X143543600Y-83297114D01*
X143490939Y-83388326D01*
X143463680Y-83490059D01*
X143463680Y-83595381D01*
X143490939Y-83697114D01*
X143543600Y-83788326D01*
X143547994Y-83792720D01*
X142389565Y-83792720D01*
X142390765Y-83800304D01*
X142444271Y-83964975D01*
X142522875Y-84119244D01*
X142624647Y-84259322D01*
X142747077Y-84381752D01*
X142887155Y-84483524D01*
X143041422Y-84562128D01*
X143206095Y-84615634D01*
X143377109Y-84642720D01*
X143613680Y-84642720D01*
X143613680Y-83858406D01*
X143618074Y-83862800D01*
X143709286Y-83915461D01*
X143811019Y-83942720D01*
X143916341Y-83942720D01*
X144018074Y-83915461D01*
X144109286Y-83862800D01*
X144113680Y-83858406D01*
X144113680Y-84642720D01*
X144350251Y-84642720D01*
X144521264Y-84615634D01*
X144685937Y-84562128D01*
X144840204Y-84483524D01*
X144980282Y-84381752D01*
X145102712Y-84259322D01*
X145204484Y-84119244D01*
X145283088Y-83964975D01*
X145336594Y-83800304D01*
X145337795Y-83792720D01*
X144179366Y-83792720D01*
X144183760Y-83788326D01*
X144236421Y-83697114D01*
X144263680Y-83595381D01*
X144263680Y-83490059D01*
X144236421Y-83388326D01*
X144183760Y-83297114D01*
X144179366Y-83292720D01*
X145337795Y-83292720D01*
X145337795Y-83292719D01*
X145336594Y-83285135D01*
X145283088Y-83120464D01*
X145204484Y-82966195D01*
X145102712Y-82826117D01*
X144980282Y-82703687D01*
X144840204Y-82601915D01*
X144685937Y-82523311D01*
X144521264Y-82469805D01*
X144350251Y-82442720D01*
X144113680Y-82442720D01*
X144113680Y-83227034D01*
X144109286Y-83222640D01*
X144018074Y-83169979D01*
X143916341Y-83142720D01*
X143811019Y-83142720D01*
X143709286Y-83169979D01*
X143618074Y-83222640D01*
X143613680Y-83227034D01*
X143613680Y-82442720D01*
X143377109Y-82442720D01*
X143206095Y-82469805D01*
X143041422Y-82523311D01*
X142887155Y-82601915D01*
X142747077Y-82703687D01*
X142624647Y-82826117D01*
X142522875Y-82966195D01*
X142444271Y-83120464D01*
X142390765Y-83285135D01*
X142389564Y-83292719D01*
X122475052Y-83292719D01*
X122473402Y-83282299D01*
X122419873Y-83117555D01*
X122341232Y-82963212D01*
X122239414Y-82823072D01*
X122116928Y-82700586D01*
X121976788Y-82598768D01*
X121822445Y-82520127D01*
X121657701Y-82466598D01*
X121657699Y-82466597D01*
X121657698Y-82466597D01*
X121506941Y-82442720D01*
X121486611Y-82439500D01*
X120513389Y-82439500D01*
X120493059Y-82442720D01*
X120342302Y-82466597D01*
X120177552Y-82520128D01*
X120023211Y-82598768D01*
X119943256Y-82656859D01*
X119883072Y-82700586D01*
X119883070Y-82700588D01*
X119883069Y-82700588D01*
X119830477Y-82753181D01*
X119769154Y-82786666D01*
X119742796Y-82789500D01*
X115659692Y-82789500D01*
X115592653Y-82769815D01*
X115546898Y-82717011D01*
X115536954Y-82647853D01*
X115538075Y-82641308D01*
X115550500Y-82578844D01*
X115550500Y-82421155D01*
X115550499Y-82421153D01*
X115519738Y-82266510D01*
X115519737Y-82266503D01*
X115459394Y-82120821D01*
X115396397Y-82026539D01*
X115375520Y-81959863D01*
X115375500Y-81957650D01*
X115375500Y-80913389D01*
X119499500Y-80913389D01*
X119499500Y-81086610D01*
X119514320Y-81180184D01*
X119526598Y-81257701D01*
X119580127Y-81422445D01*
X119658768Y-81576788D01*
X119760586Y-81716928D01*
X119883072Y-81839414D01*
X120023212Y-81941232D01*
X120177555Y-82019873D01*
X120342299Y-82073402D01*
X120513389Y-82100500D01*
X120513390Y-82100500D01*
X121486610Y-82100500D01*
X121486611Y-82100500D01*
X121657701Y-82073402D01*
X121822445Y-82019873D01*
X121976788Y-81941232D01*
X122116928Y-81839414D01*
X122239414Y-81716928D01*
X122341232Y-81576788D01*
X122419873Y-81422445D01*
X122473402Y-81257701D01*
X122500500Y-81086611D01*
X122500500Y-80916109D01*
X142363180Y-80916109D01*
X142363180Y-81089331D01*
X142371357Y-81140959D01*
X142389846Y-81257697D01*
X142390278Y-81260421D01*
X142443807Y-81425165D01*
X142522448Y-81579508D01*
X142624266Y-81719648D01*
X142746752Y-81842134D01*
X142886892Y-81943952D01*
X143041235Y-82022593D01*
X143205979Y-82076122D01*
X143377069Y-82103220D01*
X143377070Y-82103220D01*
X144350290Y-82103220D01*
X144350291Y-82103220D01*
X144521381Y-82076122D01*
X144686125Y-82022593D01*
X144840468Y-81943952D01*
X144980608Y-81842134D01*
X145103094Y-81719648D01*
X145204912Y-81579508D01*
X145283553Y-81425165D01*
X145337082Y-81260421D01*
X145364180Y-81089331D01*
X145364180Y-80916109D01*
X145337082Y-80745019D01*
X145283553Y-80580275D01*
X145204912Y-80425932D01*
X145103094Y-80285792D01*
X144980608Y-80163306D01*
X144840468Y-80061488D01*
X144686125Y-79982847D01*
X144521381Y-79929318D01*
X144521379Y-79929317D01*
X144521378Y-79929317D01*
X144389951Y-79908501D01*
X144350291Y-79902220D01*
X143377069Y-79902220D01*
X143337408Y-79908501D01*
X143205982Y-79929317D01*
X143041232Y-79982848D01*
X142886891Y-80061488D01*
X142806936Y-80119579D01*
X142746752Y-80163306D01*
X142746750Y-80163308D01*
X142746749Y-80163308D01*
X142624268Y-80285789D01*
X142624268Y-80285790D01*
X142624266Y-80285792D01*
X142614578Y-80299127D01*
X142522448Y-80425931D01*
X142443808Y-80580272D01*
X142390277Y-80745022D01*
X142369112Y-80878656D01*
X142363180Y-80916109D01*
X122500500Y-80916109D01*
X122500500Y-80913389D01*
X122473402Y-80742299D01*
X122419873Y-80577555D01*
X122341232Y-80423212D01*
X122239414Y-80283072D01*
X122116928Y-80160586D01*
X121976788Y-80058768D01*
X121822445Y-79980127D01*
X121657701Y-79926598D01*
X121657699Y-79926597D01*
X121657698Y-79926597D01*
X121503784Y-79902220D01*
X121486611Y-79899500D01*
X120513389Y-79899500D01*
X120496216Y-79902220D01*
X120342302Y-79926597D01*
X120177552Y-79980128D01*
X120023211Y-80058768D01*
X119943256Y-80116859D01*
X119883072Y-80160586D01*
X119883070Y-80160588D01*
X119883069Y-80160588D01*
X119760588Y-80283069D01*
X119760588Y-80283070D01*
X119760586Y-80283072D01*
X119730755Y-80324131D01*
X119658768Y-80423211D01*
X119580128Y-80577552D01*
X119526597Y-80742302D01*
X119499500Y-80913389D01*
X115375500Y-80913389D01*
X115375500Y-78376109D01*
X119503180Y-78376109D01*
X119503180Y-78549331D01*
X119530278Y-78720421D01*
X119583807Y-78885165D01*
X119662448Y-79039508D01*
X119764266Y-79179648D01*
X119886752Y-79302134D01*
X120026892Y-79403952D01*
X120181235Y-79482593D01*
X120345979Y-79536122D01*
X120517069Y-79563220D01*
X120517070Y-79563220D01*
X121490290Y-79563220D01*
X121490291Y-79563220D01*
X121661381Y-79536122D01*
X121826125Y-79482593D01*
X121980468Y-79403952D01*
X122120608Y-79302134D01*
X122243094Y-79179648D01*
X122344912Y-79039508D01*
X122423553Y-78885165D01*
X122477082Y-78720421D01*
X122504180Y-78549331D01*
X122504180Y-78376109D01*
X142363180Y-78376109D01*
X142363180Y-78549331D01*
X142390278Y-78720421D01*
X142443807Y-78885165D01*
X142522448Y-79039508D01*
X142624266Y-79179648D01*
X142746752Y-79302134D01*
X142886892Y-79403952D01*
X143041235Y-79482593D01*
X143205979Y-79536122D01*
X143377069Y-79563220D01*
X143377070Y-79563220D01*
X144350290Y-79563220D01*
X144350291Y-79563220D01*
X144521381Y-79536122D01*
X144686125Y-79482593D01*
X144840468Y-79403952D01*
X144980608Y-79302134D01*
X145103094Y-79179648D01*
X145204912Y-79039508D01*
X145283553Y-78885165D01*
X145337082Y-78720421D01*
X145364180Y-78549331D01*
X145364180Y-78376109D01*
X145337082Y-78205019D01*
X145283553Y-78040275D01*
X145204912Y-77885932D01*
X145103094Y-77745792D01*
X144980608Y-77623306D01*
X144840468Y-77521488D01*
X144686125Y-77442847D01*
X144521381Y-77389318D01*
X144521379Y-77389317D01*
X144521378Y-77389317D01*
X144389951Y-77368501D01*
X144350291Y-77362220D01*
X143377069Y-77362220D01*
X143337408Y-77368501D01*
X143205982Y-77389317D01*
X143041232Y-77442848D01*
X142886891Y-77521488D01*
X142819008Y-77570809D01*
X142746752Y-77623306D01*
X142746750Y-77623308D01*
X142746749Y-77623308D01*
X142624268Y-77745789D01*
X142624268Y-77745790D01*
X142624266Y-77745792D01*
X142581647Y-77804452D01*
X142522448Y-77885931D01*
X142443808Y-78040272D01*
X142390277Y-78205022D01*
X142377677Y-78284578D01*
X142363180Y-78376109D01*
X122504180Y-78376109D01*
X122477082Y-78205019D01*
X122423553Y-78040275D01*
X122344912Y-77885932D01*
X122243094Y-77745792D01*
X122120608Y-77623306D01*
X121980468Y-77521488D01*
X121826125Y-77442847D01*
X121661381Y-77389318D01*
X121661379Y-77389317D01*
X121661378Y-77389317D01*
X121529951Y-77368501D01*
X121490291Y-77362220D01*
X120517069Y-77362220D01*
X120477408Y-77368501D01*
X120345982Y-77389317D01*
X120181232Y-77442848D01*
X120026891Y-77521488D01*
X119959008Y-77570809D01*
X119886752Y-77623306D01*
X119886750Y-77623308D01*
X119886749Y-77623308D01*
X119764268Y-77745789D01*
X119764268Y-77745790D01*
X119764266Y-77745792D01*
X119721647Y-77804452D01*
X119662448Y-77885931D01*
X119583808Y-78040272D01*
X119530277Y-78205022D01*
X119517677Y-78284578D01*
X119503180Y-78376109D01*
X115375500Y-78376109D01*
X115375500Y-75836109D01*
X119503180Y-75836109D01*
X119503180Y-76009331D01*
X119530278Y-76180421D01*
X119583807Y-76345165D01*
X119662448Y-76499508D01*
X119764266Y-76639648D01*
X119886752Y-76762134D01*
X120026892Y-76863952D01*
X120181235Y-76942593D01*
X120345979Y-76996122D01*
X120517069Y-77023220D01*
X120517070Y-77023220D01*
X121490290Y-77023220D01*
X121490291Y-77023220D01*
X121661381Y-76996122D01*
X121826125Y-76942593D01*
X121980468Y-76863952D01*
X122120608Y-76762134D01*
X122243094Y-76639648D01*
X122344912Y-76499508D01*
X122423553Y-76345165D01*
X122477082Y-76180421D01*
X122504180Y-76009331D01*
X122504180Y-75836109D01*
X142363180Y-75836109D01*
X142363180Y-76009331D01*
X142390278Y-76180421D01*
X142443807Y-76345165D01*
X142522448Y-76499508D01*
X142624266Y-76639648D01*
X142746752Y-76762134D01*
X142886892Y-76863952D01*
X143041235Y-76942593D01*
X143205979Y-76996122D01*
X143377069Y-77023220D01*
X143377070Y-77023220D01*
X144350290Y-77023220D01*
X144350291Y-77023220D01*
X144521381Y-76996122D01*
X144686125Y-76942593D01*
X144840468Y-76863952D01*
X144980608Y-76762134D01*
X145103094Y-76639648D01*
X145204912Y-76499508D01*
X145283553Y-76345165D01*
X145337082Y-76180421D01*
X145364180Y-76009331D01*
X145364180Y-75836109D01*
X145337082Y-75665019D01*
X145283553Y-75500275D01*
X145204912Y-75345932D01*
X145103094Y-75205792D01*
X144980608Y-75083306D01*
X144840468Y-74981488D01*
X144686125Y-74902847D01*
X144521381Y-74849318D01*
X144521379Y-74849317D01*
X144521378Y-74849317D01*
X144389951Y-74828501D01*
X144350291Y-74822220D01*
X143377069Y-74822220D01*
X143337408Y-74828501D01*
X143205982Y-74849317D01*
X143041232Y-74902848D01*
X142886891Y-74981488D01*
X142818852Y-75030922D01*
X142746752Y-75083306D01*
X142746750Y-75083308D01*
X142746749Y-75083308D01*
X142624268Y-75205789D01*
X142624268Y-75205790D01*
X142624266Y-75205792D01*
X142580539Y-75265976D01*
X142522448Y-75345931D01*
X142443808Y-75500272D01*
X142390277Y-75665022D01*
X142375969Y-75755361D01*
X142363180Y-75836109D01*
X122504180Y-75836109D01*
X122477082Y-75665019D01*
X122423553Y-75500275D01*
X122344912Y-75345932D01*
X122243094Y-75205792D01*
X122120608Y-75083306D01*
X121980468Y-74981488D01*
X121826125Y-74902847D01*
X121661381Y-74849318D01*
X121661379Y-74849317D01*
X121661378Y-74849317D01*
X121529951Y-74828501D01*
X121490291Y-74822220D01*
X120517069Y-74822220D01*
X120477408Y-74828501D01*
X120345982Y-74849317D01*
X120181232Y-74902848D01*
X120026891Y-74981488D01*
X119958852Y-75030922D01*
X119886752Y-75083306D01*
X119886750Y-75083308D01*
X119886749Y-75083308D01*
X119764268Y-75205789D01*
X119764268Y-75205790D01*
X119764266Y-75205792D01*
X119720539Y-75265976D01*
X119662448Y-75345931D01*
X119583808Y-75500272D01*
X119530277Y-75665022D01*
X119515969Y-75755361D01*
X119503180Y-75836109D01*
X115375500Y-75836109D01*
X115375500Y-75728396D01*
X115375500Y-75728394D01*
X115351463Y-75607548D01*
X115349506Y-75602823D01*
X115331962Y-75560468D01*
X115331947Y-75560435D01*
X115331932Y-75560397D01*
X115304312Y-75493715D01*
X115235858Y-75391267D01*
X115235855Y-75391263D01*
X113223509Y-73378918D01*
X113140700Y-73296109D01*
X119503180Y-73296109D01*
X119503180Y-73469331D01*
X119530278Y-73640421D01*
X119583807Y-73805165D01*
X119662448Y-73959508D01*
X119764266Y-74099648D01*
X119886752Y-74222134D01*
X120026892Y-74323952D01*
X120181235Y-74402593D01*
X120345979Y-74456122D01*
X120517069Y-74483220D01*
X120517070Y-74483220D01*
X121490290Y-74483220D01*
X121490291Y-74483220D01*
X121661381Y-74456122D01*
X121826125Y-74402593D01*
X121980468Y-74323952D01*
X122120608Y-74222134D01*
X122243094Y-74099648D01*
X122344912Y-73959508D01*
X122423553Y-73805165D01*
X122477082Y-73640421D01*
X122504180Y-73469331D01*
X122504180Y-73296109D01*
X142363180Y-73296109D01*
X142363180Y-73469331D01*
X142390278Y-73640421D01*
X142443807Y-73805165D01*
X142522448Y-73959508D01*
X142624266Y-74099648D01*
X142746752Y-74222134D01*
X142886892Y-74323952D01*
X143041235Y-74402593D01*
X143205979Y-74456122D01*
X143377069Y-74483220D01*
X143377070Y-74483220D01*
X144350290Y-74483220D01*
X144350291Y-74483220D01*
X144521381Y-74456122D01*
X144686125Y-74402593D01*
X144840468Y-74323952D01*
X144980608Y-74222134D01*
X145103094Y-74099648D01*
X145204912Y-73959508D01*
X145283553Y-73805165D01*
X145337082Y-73640421D01*
X145364180Y-73469331D01*
X145364180Y-73296109D01*
X145337082Y-73125019D01*
X145283553Y-72960275D01*
X145204912Y-72805932D01*
X145103094Y-72665792D01*
X144980608Y-72543306D01*
X144840468Y-72441488D01*
X144686125Y-72362847D01*
X144521381Y-72309318D01*
X144521379Y-72309317D01*
X144521378Y-72309317D01*
X144389951Y-72288501D01*
X144350291Y-72282220D01*
X143377069Y-72282220D01*
X143337408Y-72288501D01*
X143205982Y-72309317D01*
X143041232Y-72362848D01*
X142886891Y-72441488D01*
X142818852Y-72490922D01*
X142746752Y-72543306D01*
X142746750Y-72543308D01*
X142746749Y-72543308D01*
X142624268Y-72665789D01*
X142624268Y-72665790D01*
X142624266Y-72665792D01*
X142580539Y-72725976D01*
X142522448Y-72805931D01*
X142443808Y-72960272D01*
X142390277Y-73125022D01*
X142363180Y-73296109D01*
X122504180Y-73296109D01*
X122477082Y-73125019D01*
X122423553Y-72960275D01*
X122344912Y-72805932D01*
X122243094Y-72665792D01*
X122120608Y-72543306D01*
X121980468Y-72441488D01*
X121826125Y-72362847D01*
X121661381Y-72309318D01*
X121661379Y-72309317D01*
X121661378Y-72309317D01*
X121529951Y-72288501D01*
X121490291Y-72282220D01*
X120517069Y-72282220D01*
X120477408Y-72288501D01*
X120345982Y-72309317D01*
X120181232Y-72362848D01*
X120026891Y-72441488D01*
X119958852Y-72490922D01*
X119886752Y-72543306D01*
X119886750Y-72543308D01*
X119886749Y-72543308D01*
X119764268Y-72665789D01*
X119764268Y-72665790D01*
X119764266Y-72665792D01*
X119720539Y-72725976D01*
X119662448Y-72805931D01*
X119583808Y-72960272D01*
X119530277Y-73125022D01*
X119503180Y-73296109D01*
X113140700Y-73296109D01*
X108881818Y-69037228D01*
X108848333Y-68975905D01*
X108845499Y-68949556D01*
X108845499Y-67619992D01*
X108842005Y-67585792D01*
X108834999Y-67517203D01*
X108834998Y-67517200D01*
X108817139Y-67463306D01*
X108779814Y-67350666D01*
X108687712Y-67201344D01*
X108563656Y-67077288D01*
X108414334Y-66985186D01*
X108414326Y-66985181D01*
X108413645Y-66984864D01*
X108413256Y-66984521D01*
X108408187Y-66981395D01*
X108408721Y-66980528D01*
X108361208Y-66938688D01*
X108342060Y-66871494D01*
X108362280Y-66804614D01*
X108378366Y-66784813D01*
X108520359Y-66642821D01*
X108647157Y-66468299D01*
X108745092Y-66276089D01*
X108811754Y-66070926D01*
X108826752Y-65976230D01*
X108845500Y-65857866D01*
X108845500Y-65642133D01*
X108811754Y-65429077D01*
X108811754Y-65429074D01*
X108745092Y-65223911D01*
X108647157Y-65031701D01*
X108520359Y-64857179D01*
X108367821Y-64704641D01*
X108196279Y-64580008D01*
X108153614Y-64524678D01*
X108147635Y-64455064D01*
X108180241Y-64393269D01*
X108196280Y-64379372D01*
X108367491Y-64254979D01*
X108367497Y-64254974D01*
X108519974Y-64102497D01*
X108519974Y-64102496D01*
X108646728Y-63928036D01*
X108744627Y-63735901D01*
X108811266Y-63530809D01*
X108822481Y-63460000D01*
X107792709Y-63460000D01*
X107804452Y-63439661D01*
X107845000Y-63288333D01*
X107845000Y-63131667D01*
X107804452Y-62980339D01*
X107792709Y-62960000D01*
X108822481Y-62960000D01*
X108811266Y-62889190D01*
X108744627Y-62684098D01*
X108646728Y-62491963D01*
X108519974Y-62317503D01*
X108519974Y-62317502D01*
X108367497Y-62165025D01*
X108193036Y-62038271D01*
X108000901Y-61940372D01*
X107795809Y-61873734D01*
X107582820Y-61840000D01*
X107500000Y-61840000D01*
X107500000Y-62667290D01*
X107479661Y-62655548D01*
X107328333Y-62615000D01*
X107171667Y-62615000D01*
X107020339Y-62655548D01*
X107000000Y-62667290D01*
X107000000Y-61840000D01*
X106917180Y-61840000D01*
X106704190Y-61873734D01*
X106499098Y-61940372D01*
X106306963Y-62038271D01*
X106132503Y-62165025D01*
X106132502Y-62165025D01*
X105980025Y-62317502D01*
X105980025Y-62317503D01*
X105853271Y-62491963D01*
X105755372Y-62684098D01*
X105688733Y-62889190D01*
X105677519Y-62960000D01*
X106707291Y-62960000D01*
X106695548Y-62980339D01*
X106655000Y-63131667D01*
X106655000Y-63288333D01*
X106695548Y-63439661D01*
X106707291Y-63460000D01*
X105677519Y-63460000D01*
X105688733Y-63530809D01*
X105755372Y-63735901D01*
X105853271Y-63928036D01*
X105980025Y-64102496D01*
X105980025Y-64102497D01*
X106132502Y-64254974D01*
X106303720Y-64379372D01*
X106346385Y-64434702D01*
X106352364Y-64504316D01*
X106319758Y-64566110D01*
X106303720Y-64580008D01*
X106132177Y-64704642D01*
X105979643Y-64857176D01*
X105979643Y-64857177D01*
X105979641Y-64857179D01*
X105931597Y-64923306D01*
X105852843Y-65031700D01*
X105754909Y-65223908D01*
X105688245Y-65429077D01*
X105654500Y-65642133D01*
X105654500Y-65857866D01*
X105680246Y-66020417D01*
X105688246Y-66070926D01*
X105742267Y-66237184D01*
X105744262Y-66307023D01*
X105708182Y-66366856D01*
X105645481Y-66397684D01*
X105624336Y-66399500D01*
X104724500Y-66399500D01*
X104657461Y-66379815D01*
X104611706Y-66327011D01*
X104600500Y-66275500D01*
X104600500Y-59510096D01*
X104620185Y-59443057D01*
X104636814Y-59422419D01*
X105402821Y-58656412D01*
X105464142Y-58622929D01*
X105533833Y-58627913D01*
X105589767Y-58669785D01*
X105614184Y-58735249D01*
X105614500Y-58744095D01*
X105614500Y-59210001D01*
X105614501Y-59210019D01*
X105625000Y-59312796D01*
X105625001Y-59312799D01*
X105651769Y-59393578D01*
X105680186Y-59479334D01*
X105772288Y-59628656D01*
X105896344Y-59752712D01*
X106045666Y-59844814D01*
X106212203Y-59899999D01*
X106314991Y-59910500D01*
X108105008Y-59910499D01*
X108207797Y-59899999D01*
X108374334Y-59844814D01*
X108523656Y-59752712D01*
X108647712Y-59628656D01*
X108739814Y-59479334D01*
X108794999Y-59312797D01*
X108805500Y-59210009D01*
X108805499Y-57869992D01*
X108804419Y-57859420D01*
X108817188Y-57790728D01*
X108840093Y-57759140D01*
X110160839Y-56438394D01*
X111874500Y-56438394D01*
X111874500Y-56442933D01*
X111874500Y-68311611D01*
X111898535Y-68432444D01*
X111898540Y-68432461D01*
X111945685Y-68546281D01*
X111945688Y-68546286D01*
X111972416Y-68586286D01*
X112014142Y-68648733D01*
X112101267Y-68735858D01*
X112101270Y-68735860D01*
X112108895Y-68743485D01*
X112886016Y-69520606D01*
X112886045Y-69520637D01*
X112976264Y-69610856D01*
X112976267Y-69610858D01*
X113034846Y-69649999D01*
X113078715Y-69679312D01*
X113145397Y-69706932D01*
X113150294Y-69708960D01*
X113150299Y-69708963D01*
X113185254Y-69723441D01*
X113192548Y-69726463D01*
X113219551Y-69731834D01*
X113313391Y-69750499D01*
X113313392Y-69750500D01*
X113313393Y-69750500D01*
X113313394Y-69750500D01*
X113557492Y-69750500D01*
X113558854Y-69750900D01*
X113560227Y-69750530D01*
X113592298Y-69760720D01*
X113624531Y-69770185D01*
X113625898Y-69771396D01*
X113626816Y-69771688D01*
X113630170Y-69775181D01*
X113652973Y-69795384D01*
X113658491Y-69802043D01*
X113707288Y-69881156D01*
X113805052Y-69978920D01*
X113808751Y-69983384D01*
X113820360Y-70010365D01*
X113834436Y-70036142D01*
X113834010Y-70042088D01*
X113836367Y-70047564D01*
X113831547Y-70076535D01*
X113829452Y-70105834D01*
X113825702Y-70111667D01*
X113824901Y-70116487D01*
X113817000Y-70125208D01*
X113800951Y-70150181D01*
X113707289Y-70243842D01*
X113615187Y-70393163D01*
X113615186Y-70393166D01*
X113560001Y-70559703D01*
X113560001Y-70559704D01*
X113560000Y-70559704D01*
X113549500Y-70662483D01*
X113549500Y-71462501D01*
X113549501Y-71462519D01*
X113560000Y-71565296D01*
X113560001Y-71565299D01*
X113598716Y-71682131D01*
X113615186Y-71731834D01*
X113707288Y-71881156D01*
X113831344Y-72005212D01*
X113980666Y-72097314D01*
X114147203Y-72152499D01*
X114249991Y-72163000D01*
X115250008Y-72162999D01*
X115250016Y-72162998D01*
X115250019Y-72162998D01*
X115306302Y-72157248D01*
X115352797Y-72152499D01*
X115519334Y-72097314D01*
X115668656Y-72005212D01*
X115792712Y-71881156D01*
X115884814Y-71731834D01*
X115884815Y-71731831D01*
X115891886Y-71710494D01*
X115931659Y-71653050D01*
X115996175Y-71626228D01*
X116009591Y-71625500D01*
X116561607Y-71625500D01*
X116622029Y-71613481D01*
X116682452Y-71601463D01*
X116715792Y-71587652D01*
X116796286Y-71554312D01*
X116847509Y-71520084D01*
X116898733Y-71485858D01*
X116985858Y-71398733D01*
X116985859Y-71398731D01*
X116992925Y-71391665D01*
X116992927Y-71391661D01*
X117628480Y-70756109D01*
X119503180Y-70756109D01*
X119503180Y-70929331D01*
X119530278Y-71100421D01*
X119583807Y-71265165D01*
X119662448Y-71419508D01*
X119764266Y-71559648D01*
X119886752Y-71682134D01*
X120026892Y-71783952D01*
X120181235Y-71862593D01*
X120345979Y-71916122D01*
X120517069Y-71943220D01*
X120517070Y-71943220D01*
X121490290Y-71943220D01*
X121490291Y-71943220D01*
X121661381Y-71916122D01*
X121826125Y-71862593D01*
X121980468Y-71783952D01*
X122120608Y-71682134D01*
X122243094Y-71559648D01*
X122344912Y-71419508D01*
X122423553Y-71265165D01*
X122477082Y-71100421D01*
X122504180Y-70929331D01*
X122504180Y-70756109D01*
X142363180Y-70756109D01*
X142363180Y-70929331D01*
X142390278Y-71100421D01*
X142443807Y-71265165D01*
X142522448Y-71419508D01*
X142624266Y-71559648D01*
X142746752Y-71682134D01*
X142886892Y-71783952D01*
X143041235Y-71862593D01*
X143205979Y-71916122D01*
X143377069Y-71943220D01*
X143377070Y-71943220D01*
X144350290Y-71943220D01*
X144350291Y-71943220D01*
X144521381Y-71916122D01*
X144686125Y-71862593D01*
X144840468Y-71783952D01*
X144980608Y-71682134D01*
X145103094Y-71559648D01*
X145204912Y-71419508D01*
X145283553Y-71265165D01*
X145337082Y-71100421D01*
X145364180Y-70929331D01*
X145364180Y-70756109D01*
X145337082Y-70585019D01*
X145283553Y-70420275D01*
X145204912Y-70265932D01*
X145103094Y-70125792D01*
X144980608Y-70003306D01*
X144840468Y-69901488D01*
X144686125Y-69822847D01*
X144521381Y-69769318D01*
X144521379Y-69769317D01*
X144521378Y-69769317D01*
X144389951Y-69748501D01*
X144350291Y-69742220D01*
X143377069Y-69742220D01*
X143337408Y-69748501D01*
X143205982Y-69769317D01*
X143041232Y-69822848D01*
X142886891Y-69901488D01*
X142806936Y-69959579D01*
X142746752Y-70003306D01*
X142746750Y-70003308D01*
X142746749Y-70003308D01*
X142624268Y-70125789D01*
X142624268Y-70125790D01*
X142624266Y-70125792D01*
X142580539Y-70185976D01*
X142522448Y-70265931D01*
X142443808Y-70420272D01*
X142390277Y-70585022D01*
X142377839Y-70663556D01*
X142363180Y-70756109D01*
X122504180Y-70756109D01*
X122477082Y-70585019D01*
X122423553Y-70420275D01*
X122344912Y-70265932D01*
X122243094Y-70125792D01*
X122120608Y-70003306D01*
X121980468Y-69901488D01*
X121826125Y-69822847D01*
X121661381Y-69769318D01*
X121661379Y-69769317D01*
X121661378Y-69769317D01*
X121529951Y-69748501D01*
X121490291Y-69742220D01*
X120517069Y-69742220D01*
X120477408Y-69748501D01*
X120345982Y-69769317D01*
X120181232Y-69822848D01*
X120026891Y-69901488D01*
X119946936Y-69959579D01*
X119886752Y-70003306D01*
X119886750Y-70003308D01*
X119886749Y-70003308D01*
X119764268Y-70125789D01*
X119764268Y-70125790D01*
X119764266Y-70125792D01*
X119720539Y-70185976D01*
X119662448Y-70265931D01*
X119583808Y-70420272D01*
X119530277Y-70585022D01*
X119517839Y-70663556D01*
X119503180Y-70756109D01*
X117628480Y-70756109D01*
X119420051Y-68964539D01*
X119446978Y-68949835D01*
X119472797Y-68933243D01*
X119478997Y-68932351D01*
X119481374Y-68931054D01*
X119507732Y-68928220D01*
X119634658Y-68928220D01*
X119701697Y-68947905D01*
X119734975Y-68979333D01*
X119764266Y-69019648D01*
X119886752Y-69142134D01*
X120026892Y-69243952D01*
X120181235Y-69322593D01*
X120345979Y-69376122D01*
X120517069Y-69403220D01*
X120517070Y-69403220D01*
X121490290Y-69403220D01*
X121490291Y-69403220D01*
X121661381Y-69376122D01*
X121826125Y-69322593D01*
X121980468Y-69243952D01*
X122120608Y-69142134D01*
X122243094Y-69019648D01*
X122344912Y-68879508D01*
X122423553Y-68725165D01*
X122477082Y-68560421D01*
X122504180Y-68389331D01*
X122504180Y-68216109D01*
X142363180Y-68216109D01*
X142363180Y-68389331D01*
X142363788Y-68393168D01*
X142390163Y-68559700D01*
X142390278Y-68560421D01*
X142443807Y-68725165D01*
X142522448Y-68879508D01*
X142624266Y-69019648D01*
X142746752Y-69142134D01*
X142886892Y-69243952D01*
X143041235Y-69322593D01*
X143205979Y-69376122D01*
X143377069Y-69403220D01*
X143377070Y-69403220D01*
X144350290Y-69403220D01*
X144350291Y-69403220D01*
X144521381Y-69376122D01*
X144686125Y-69322593D01*
X144840468Y-69243952D01*
X144980608Y-69142134D01*
X145103094Y-69019648D01*
X145204912Y-68879508D01*
X145283553Y-68725165D01*
X145337082Y-68560421D01*
X145364180Y-68389331D01*
X145364180Y-68216109D01*
X145337082Y-68045019D01*
X145283553Y-67880275D01*
X145204912Y-67725932D01*
X145103094Y-67585792D01*
X144980608Y-67463306D01*
X144840468Y-67361488D01*
X144686125Y-67282847D01*
X144521381Y-67229318D01*
X144521379Y-67229317D01*
X144521378Y-67229317D01*
X144389951Y-67208501D01*
X144350291Y-67202220D01*
X143377069Y-67202220D01*
X143337408Y-67208501D01*
X143205982Y-67229317D01*
X143041232Y-67282848D01*
X142886891Y-67361488D01*
X142806936Y-67419579D01*
X142746752Y-67463306D01*
X142746750Y-67463308D01*
X142746749Y-67463308D01*
X142624268Y-67585789D01*
X142624268Y-67585790D01*
X142624266Y-67585792D01*
X142580539Y-67645976D01*
X142522448Y-67725931D01*
X142443808Y-67880272D01*
X142390277Y-68045022D01*
X142367570Y-68188393D01*
X142363180Y-68216109D01*
X122504180Y-68216109D01*
X122477082Y-68045019D01*
X122423553Y-67880275D01*
X122344912Y-67725932D01*
X122243094Y-67585792D01*
X122120608Y-67463306D01*
X121980468Y-67361488D01*
X121826125Y-67282847D01*
X121661381Y-67229318D01*
X121661379Y-67229317D01*
X121661378Y-67229317D01*
X121529951Y-67208501D01*
X121490291Y-67202220D01*
X120517069Y-67202220D01*
X120477408Y-67208501D01*
X120345982Y-67229317D01*
X120181232Y-67282848D01*
X120026891Y-67361488D01*
X119946936Y-67419579D01*
X119886752Y-67463306D01*
X119886750Y-67463308D01*
X119886749Y-67463308D01*
X119764265Y-67585792D01*
X119734975Y-67626107D01*
X119679645Y-67668772D01*
X119634658Y-67677220D01*
X119258887Y-67677220D01*
X119135673Y-67677220D01*
X119078778Y-67688537D01*
X119078777Y-67688536D01*
X119014835Y-67701255D01*
X119014825Y-67701258D01*
X118981877Y-67714905D01*
X118981856Y-67714914D01*
X118979639Y-67715833D01*
X118900995Y-67748408D01*
X118900994Y-67748409D01*
X118882791Y-67760571D01*
X118882786Y-67760574D01*
X118798548Y-67816860D01*
X118754985Y-67860423D01*
X118711422Y-67903987D01*
X118711419Y-67903990D01*
X116277229Y-70338181D01*
X116250301Y-70352884D01*
X116224483Y-70369477D01*
X116218282Y-70370368D01*
X116215906Y-70371666D01*
X116189548Y-70374500D01*
X115942508Y-70374500D01*
X115875469Y-70354815D01*
X115836969Y-70315597D01*
X115792712Y-70243844D01*
X115699049Y-70150181D01*
X115665564Y-70088858D01*
X115670548Y-70019166D01*
X115699049Y-69974819D01*
X115792712Y-69881156D01*
X115884814Y-69731834D01*
X115939999Y-69565297D01*
X115950500Y-69462509D01*
X115950499Y-68662492D01*
X115942714Y-68586286D01*
X115939999Y-68559703D01*
X115939998Y-68559700D01*
X115935551Y-68546281D01*
X115884814Y-68393166D01*
X115792712Y-68243844D01*
X115668656Y-68119788D01*
X115547440Y-68045022D01*
X115519336Y-68027687D01*
X115519331Y-68027685D01*
X115517862Y-68027198D01*
X115352797Y-67972501D01*
X115352795Y-67972500D01*
X115250010Y-67962000D01*
X114249998Y-67962000D01*
X114249980Y-67962001D01*
X114147203Y-67972500D01*
X114147200Y-67972501D01*
X113980668Y-68027685D01*
X113980663Y-68027687D01*
X113831342Y-68119789D01*
X113707289Y-68243842D01*
X113664160Y-68313766D01*
X113612212Y-68360491D01*
X113543249Y-68371712D01*
X113479167Y-68343869D01*
X113470940Y-68336350D01*
X113161819Y-68027229D01*
X113128334Y-67965906D01*
X113125500Y-67939548D01*
X113125500Y-65676109D01*
X119503180Y-65676109D01*
X119503180Y-65849331D01*
X119530278Y-66020421D01*
X119583807Y-66185165D01*
X119662448Y-66339508D01*
X119764266Y-66479648D01*
X119886752Y-66602134D01*
X120026892Y-66703952D01*
X120181235Y-66782593D01*
X120345979Y-66836122D01*
X120517069Y-66863220D01*
X120517070Y-66863220D01*
X121490290Y-66863220D01*
X121490291Y-66863220D01*
X121661381Y-66836122D01*
X121826125Y-66782593D01*
X121980468Y-66703952D01*
X122120608Y-66602134D01*
X122243094Y-66479648D01*
X122344912Y-66339508D01*
X122423553Y-66185165D01*
X122477082Y-66020421D01*
X122504180Y-65849331D01*
X122504180Y-65676109D01*
X142363180Y-65676109D01*
X142363180Y-65849331D01*
X142390278Y-66020421D01*
X142443807Y-66185165D01*
X142522448Y-66339508D01*
X142624266Y-66479648D01*
X142746752Y-66602134D01*
X142886892Y-66703952D01*
X143041235Y-66782593D01*
X143205979Y-66836122D01*
X143377069Y-66863220D01*
X143377070Y-66863220D01*
X144350290Y-66863220D01*
X144350291Y-66863220D01*
X144521381Y-66836122D01*
X144686125Y-66782593D01*
X144840468Y-66703952D01*
X144980608Y-66602134D01*
X145103094Y-66479648D01*
X145204912Y-66339508D01*
X145283553Y-66185165D01*
X145337082Y-66020421D01*
X145364180Y-65849331D01*
X145364180Y-65676109D01*
X145337082Y-65505019D01*
X145283553Y-65340275D01*
X145204912Y-65185932D01*
X145103094Y-65045792D01*
X144980608Y-64923306D01*
X144840468Y-64821488D01*
X144686125Y-64742847D01*
X144521381Y-64689318D01*
X144521379Y-64689317D01*
X144521378Y-64689317D01*
X144389951Y-64668501D01*
X144350291Y-64662220D01*
X143377069Y-64662220D01*
X143337408Y-64668501D01*
X143205982Y-64689317D01*
X143041232Y-64742848D01*
X142886891Y-64821488D01*
X142806936Y-64879579D01*
X142746752Y-64923306D01*
X142746750Y-64923308D01*
X142746749Y-64923308D01*
X142624268Y-65045789D01*
X142624268Y-65045790D01*
X142624266Y-65045792D01*
X142580539Y-65105976D01*
X142522448Y-65185931D01*
X142443808Y-65340272D01*
X142390277Y-65505022D01*
X142368561Y-65642133D01*
X142363180Y-65676109D01*
X122504180Y-65676109D01*
X122477082Y-65505019D01*
X122423553Y-65340275D01*
X122344912Y-65185932D01*
X122243094Y-65045792D01*
X122120608Y-64923306D01*
X121980468Y-64821488D01*
X121826125Y-64742847D01*
X121661381Y-64689318D01*
X121661379Y-64689317D01*
X121661378Y-64689317D01*
X121529951Y-64668501D01*
X121490291Y-64662220D01*
X120517069Y-64662220D01*
X120477408Y-64668501D01*
X120345982Y-64689317D01*
X120181232Y-64742848D01*
X120026891Y-64821488D01*
X119946936Y-64879579D01*
X119886752Y-64923306D01*
X119886750Y-64923308D01*
X119886749Y-64923308D01*
X119764268Y-65045789D01*
X119764268Y-65045790D01*
X119764266Y-65045792D01*
X119720539Y-65105976D01*
X119662448Y-65185931D01*
X119583808Y-65340272D01*
X119530277Y-65505022D01*
X119508561Y-65642133D01*
X119503180Y-65676109D01*
X113125500Y-65676109D01*
X113125500Y-63136109D01*
X119503180Y-63136109D01*
X119503180Y-63309330D01*
X119527043Y-63460000D01*
X119530278Y-63480421D01*
X119583807Y-63645165D01*
X119662448Y-63799508D01*
X119764266Y-63939648D01*
X119886752Y-64062134D01*
X120026892Y-64163952D01*
X120181235Y-64242593D01*
X120345979Y-64296122D01*
X120517069Y-64323220D01*
X120517070Y-64323220D01*
X121490290Y-64323220D01*
X121490291Y-64323220D01*
X121661381Y-64296122D01*
X121826125Y-64242593D01*
X121980468Y-64163952D01*
X122120608Y-64062134D01*
X122243094Y-63939648D01*
X122344912Y-63799508D01*
X122423553Y-63645165D01*
X122477082Y-63480421D01*
X122504180Y-63309331D01*
X122504180Y-63136109D01*
X142363180Y-63136109D01*
X142363180Y-63309330D01*
X142387043Y-63460000D01*
X142390278Y-63480421D01*
X142443807Y-63645165D01*
X142522448Y-63799508D01*
X142624266Y-63939648D01*
X142746752Y-64062134D01*
X142886892Y-64163952D01*
X143041235Y-64242593D01*
X143205979Y-64296122D01*
X143377069Y-64323220D01*
X143377070Y-64323220D01*
X144350290Y-64323220D01*
X144350291Y-64323220D01*
X144521381Y-64296122D01*
X144686125Y-64242593D01*
X144840468Y-64163952D01*
X144980608Y-64062134D01*
X145103094Y-63939648D01*
X145204912Y-63799508D01*
X145283553Y-63645165D01*
X145337082Y-63480421D01*
X145364180Y-63309331D01*
X145364180Y-63136109D01*
X145337082Y-62965019D01*
X145283553Y-62800275D01*
X145204912Y-62645932D01*
X145103094Y-62505792D01*
X144980608Y-62383306D01*
X144840468Y-62281488D01*
X144686125Y-62202847D01*
X144521381Y-62149318D01*
X144521379Y-62149317D01*
X144521378Y-62149317D01*
X144389951Y-62128501D01*
X144350291Y-62122220D01*
X143377069Y-62122220D01*
X143337408Y-62128501D01*
X143205982Y-62149317D01*
X143041232Y-62202848D01*
X142886891Y-62281488D01*
X142806936Y-62339579D01*
X142746752Y-62383306D01*
X142746750Y-62383308D01*
X142746749Y-62383308D01*
X142624268Y-62505789D01*
X142624268Y-62505790D01*
X142624266Y-62505792D01*
X142580539Y-62565976D01*
X142522448Y-62645931D01*
X142443808Y-62800272D01*
X142390277Y-62965022D01*
X142363180Y-63136109D01*
X122504180Y-63136109D01*
X122477082Y-62965019D01*
X122423553Y-62800275D01*
X122344912Y-62645932D01*
X122243094Y-62505792D01*
X122120608Y-62383306D01*
X121980468Y-62281488D01*
X121826125Y-62202847D01*
X121661381Y-62149318D01*
X121661379Y-62149317D01*
X121661378Y-62149317D01*
X121529951Y-62128501D01*
X121490291Y-62122220D01*
X120517069Y-62122220D01*
X120477408Y-62128501D01*
X120345982Y-62149317D01*
X120181232Y-62202848D01*
X120026891Y-62281488D01*
X119946936Y-62339579D01*
X119886752Y-62383306D01*
X119886750Y-62383308D01*
X119886749Y-62383308D01*
X119764268Y-62505789D01*
X119764268Y-62505790D01*
X119764266Y-62505792D01*
X119720539Y-62565976D01*
X119662448Y-62645931D01*
X119583808Y-62800272D01*
X119530277Y-62965022D01*
X119503180Y-63136109D01*
X113125500Y-63136109D01*
X113125500Y-58214432D01*
X113145185Y-58147393D01*
X113197989Y-58101638D01*
X113267147Y-58091694D01*
X113330703Y-58120719D01*
X113359567Y-58163988D01*
X113362136Y-58162791D01*
X113365187Y-58169336D01*
X113400069Y-58225888D01*
X113457288Y-58318656D01*
X113581344Y-58442712D01*
X113730666Y-58534814D01*
X113897203Y-58589999D01*
X113999991Y-58600500D01*
X115000008Y-58600499D01*
X115000016Y-58600498D01*
X115000019Y-58600498D01*
X115056302Y-58594748D01*
X115102797Y-58589999D01*
X115269334Y-58534814D01*
X115418656Y-58442712D01*
X115542712Y-58318656D01*
X115634814Y-58169334D01*
X115636982Y-58162791D01*
X115641886Y-58147994D01*
X115681659Y-58090550D01*
X115746175Y-58063728D01*
X115759591Y-58063000D01*
X117448008Y-58063000D01*
X117515047Y-58082685D01*
X117535689Y-58099319D01*
X119558269Y-60121899D01*
X119591754Y-60183222D01*
X119586770Y-60252914D01*
X119585156Y-60257017D01*
X119583808Y-60260271D01*
X119530277Y-60425022D01*
X119503180Y-60596109D01*
X119503180Y-60769331D01*
X119530278Y-60940421D01*
X119583807Y-61105165D01*
X119662448Y-61259508D01*
X119764266Y-61399648D01*
X119886752Y-61522134D01*
X120026892Y-61623952D01*
X120181235Y-61702593D01*
X120345979Y-61756122D01*
X120517069Y-61783220D01*
X120517070Y-61783220D01*
X121490290Y-61783220D01*
X121490291Y-61783220D01*
X121661381Y-61756122D01*
X121826125Y-61702593D01*
X121980468Y-61623952D01*
X122120608Y-61522134D01*
X122243094Y-61399648D01*
X122344912Y-61259508D01*
X122423553Y-61105165D01*
X122477082Y-60940421D01*
X122504180Y-60769331D01*
X122504180Y-60596109D01*
X142363180Y-60596109D01*
X142363180Y-60769331D01*
X142390278Y-60940421D01*
X142443807Y-61105165D01*
X142522448Y-61259508D01*
X142624266Y-61399648D01*
X142746752Y-61522134D01*
X142886892Y-61623952D01*
X143041235Y-61702593D01*
X143205979Y-61756122D01*
X143377069Y-61783220D01*
X143377070Y-61783220D01*
X144350290Y-61783220D01*
X144350291Y-61783220D01*
X144521381Y-61756122D01*
X144686125Y-61702593D01*
X144840468Y-61623952D01*
X144980608Y-61522134D01*
X145103094Y-61399648D01*
X145204912Y-61259508D01*
X145283553Y-61105165D01*
X145337082Y-60940421D01*
X145364180Y-60769331D01*
X145364180Y-60596109D01*
X145337082Y-60425019D01*
X145283553Y-60260275D01*
X145204912Y-60105932D01*
X145103094Y-59965792D01*
X144980608Y-59843306D01*
X144840468Y-59741488D01*
X144686125Y-59662847D01*
X144521381Y-59609318D01*
X144521379Y-59609317D01*
X144521378Y-59609317D01*
X144389951Y-59588501D01*
X144350291Y-59582220D01*
X143377069Y-59582220D01*
X143337408Y-59588501D01*
X143205982Y-59609317D01*
X143041232Y-59662848D01*
X142886891Y-59741488D01*
X142806936Y-59799579D01*
X142746752Y-59843306D01*
X142746750Y-59843308D01*
X142746749Y-59843308D01*
X142624268Y-59965789D01*
X142624268Y-59965790D01*
X142624266Y-59965792D01*
X142580539Y-60025976D01*
X142522448Y-60105931D01*
X142443808Y-60260272D01*
X142390277Y-60425022D01*
X142363180Y-60596109D01*
X122504180Y-60596109D01*
X122477082Y-60425019D01*
X122423553Y-60260275D01*
X122344912Y-60105932D01*
X122243094Y-59965792D01*
X122120608Y-59843306D01*
X121980468Y-59741488D01*
X121826125Y-59662847D01*
X121661381Y-59609318D01*
X121661379Y-59609317D01*
X121661378Y-59609317D01*
X121529951Y-59588501D01*
X121490291Y-59582220D01*
X121490290Y-59582220D01*
X120839132Y-59582220D01*
X120809691Y-59573575D01*
X120779705Y-59567052D01*
X120774689Y-59563297D01*
X120772093Y-59562535D01*
X120751451Y-59545901D01*
X120660451Y-59454901D01*
X120626966Y-59393578D01*
X120631950Y-59323886D01*
X120673822Y-59267953D01*
X120739286Y-59243536D01*
X120748132Y-59243220D01*
X121490290Y-59243220D01*
X121490291Y-59243220D01*
X121661381Y-59216122D01*
X121826125Y-59162593D01*
X121980468Y-59083952D01*
X122120608Y-58982134D01*
X122243094Y-58859648D01*
X122344912Y-58719508D01*
X122423553Y-58565165D01*
X122477082Y-58400421D01*
X122504180Y-58229331D01*
X122504180Y-58056109D01*
X142363180Y-58056109D01*
X142363180Y-58229331D01*
X142390278Y-58400421D01*
X142443807Y-58565165D01*
X142522448Y-58719508D01*
X142624266Y-58859648D01*
X142746752Y-58982134D01*
X142886892Y-59083952D01*
X143041235Y-59162593D01*
X143205979Y-59216122D01*
X143377069Y-59243220D01*
X143377070Y-59243220D01*
X144350290Y-59243220D01*
X144350291Y-59243220D01*
X144521381Y-59216122D01*
X144686125Y-59162593D01*
X144840468Y-59083952D01*
X144980608Y-58982134D01*
X145103094Y-58859648D01*
X145204912Y-58719508D01*
X145283553Y-58565165D01*
X145337082Y-58400421D01*
X145364180Y-58229331D01*
X145364180Y-58056109D01*
X145337082Y-57885019D01*
X145283553Y-57720275D01*
X145204912Y-57565932D01*
X145103094Y-57425792D01*
X144980608Y-57303306D01*
X144840468Y-57201488D01*
X144686127Y-57122848D01*
X144686126Y-57122847D01*
X144686125Y-57122847D01*
X144521381Y-57069318D01*
X144521379Y-57069317D01*
X144521378Y-57069317D01*
X144389951Y-57048501D01*
X144350291Y-57042220D01*
X143377069Y-57042220D01*
X143337408Y-57048501D01*
X143205982Y-57069317D01*
X143041232Y-57122848D01*
X142886891Y-57201488D01*
X142806936Y-57259579D01*
X142746752Y-57303306D01*
X142746750Y-57303308D01*
X142746749Y-57303308D01*
X142624268Y-57425789D01*
X142624268Y-57425790D01*
X142624266Y-57425792D01*
X142598757Y-57460902D01*
X142522448Y-57565931D01*
X142443808Y-57720272D01*
X142390277Y-57885022D01*
X142363180Y-58056109D01*
X122504180Y-58056109D01*
X122477082Y-57885019D01*
X122423553Y-57720275D01*
X122344912Y-57565932D01*
X122243094Y-57425792D01*
X122120608Y-57303306D01*
X121980468Y-57201488D01*
X121826127Y-57122848D01*
X121826126Y-57122847D01*
X121826125Y-57122847D01*
X121661381Y-57069318D01*
X121661379Y-57069317D01*
X121661378Y-57069317D01*
X121529951Y-57048501D01*
X121490291Y-57042220D01*
X120517069Y-57042220D01*
X120477408Y-57048501D01*
X120345982Y-57069317D01*
X120181232Y-57122848D01*
X120026891Y-57201488D01*
X119946936Y-57259579D01*
X119886752Y-57303306D01*
X119886750Y-57303308D01*
X119886749Y-57303308D01*
X119764268Y-57425789D01*
X119764268Y-57425790D01*
X119764266Y-57425792D01*
X119738757Y-57460902D01*
X119662448Y-57565931D01*
X119583808Y-57720272D01*
X119530277Y-57885022D01*
X119508227Y-58024240D01*
X119478298Y-58087375D01*
X119418986Y-58124306D01*
X119349123Y-58123308D01*
X119298073Y-58092523D01*
X118251625Y-57046075D01*
X118244320Y-57038770D01*
X118244318Y-57038767D01*
X118157193Y-56951642D01*
X118105421Y-56917049D01*
X118098777Y-56912609D01*
X118098772Y-56912605D01*
X118054750Y-56883190D01*
X118054746Y-56883188D01*
X117974252Y-56849847D01*
X117940912Y-56836037D01*
X117880489Y-56824018D01*
X117875766Y-56823078D01*
X117875764Y-56823078D01*
X117820070Y-56812000D01*
X117820067Y-56812000D01*
X117820066Y-56812000D01*
X115692508Y-56812000D01*
X115691145Y-56811599D01*
X115689773Y-56811970D01*
X115657701Y-56801779D01*
X115625469Y-56792315D01*
X115624101Y-56791103D01*
X115623184Y-56790812D01*
X115619829Y-56787318D01*
X115597027Y-56767116D01*
X115591508Y-56760456D01*
X115542712Y-56681344D01*
X115444947Y-56583579D01*
X115441249Y-56579116D01*
X115429639Y-56552134D01*
X115415564Y-56526358D01*
X115415989Y-56520411D01*
X115413633Y-56514936D01*
X115418452Y-56485964D01*
X115420548Y-56456666D01*
X115424297Y-56450832D01*
X115425099Y-56446013D01*
X115432999Y-56437291D01*
X115449049Y-56412319D01*
X115488389Y-56372979D01*
X115542712Y-56318656D01*
X115634814Y-56169334D01*
X115689999Y-56002797D01*
X115700500Y-55900009D01*
X115700499Y-55516109D01*
X119503180Y-55516109D01*
X119503180Y-55689331D01*
X119530278Y-55860421D01*
X119583807Y-56025165D01*
X119662448Y-56179508D01*
X119764266Y-56319648D01*
X119886752Y-56442134D01*
X120026892Y-56543952D01*
X120181235Y-56622593D01*
X120345979Y-56676122D01*
X120517069Y-56703220D01*
X120517070Y-56703220D01*
X121490290Y-56703220D01*
X121490291Y-56703220D01*
X121661381Y-56676122D01*
X121826125Y-56622593D01*
X121980468Y-56543952D01*
X122120608Y-56442134D01*
X122243094Y-56319648D01*
X122344912Y-56179508D01*
X122423553Y-56025165D01*
X122477082Y-55860421D01*
X122504180Y-55689331D01*
X122504180Y-55516109D01*
X142363180Y-55516109D01*
X142363180Y-55689331D01*
X142390278Y-55860421D01*
X142443807Y-56025165D01*
X142522448Y-56179508D01*
X142624266Y-56319648D01*
X142746752Y-56442134D01*
X142886892Y-56543952D01*
X143041235Y-56622593D01*
X143205979Y-56676122D01*
X143377069Y-56703220D01*
X143377070Y-56703220D01*
X144350290Y-56703220D01*
X144350291Y-56703220D01*
X144521381Y-56676122D01*
X144686125Y-56622593D01*
X144840468Y-56543952D01*
X144980608Y-56442134D01*
X145103094Y-56319648D01*
X145204912Y-56179508D01*
X145283553Y-56025165D01*
X145337082Y-55860421D01*
X145364180Y-55689331D01*
X145364180Y-55516109D01*
X145337082Y-55345019D01*
X145283553Y-55180275D01*
X145204912Y-55025932D01*
X145103094Y-54885792D01*
X144980608Y-54763306D01*
X144840468Y-54661488D01*
X144686125Y-54582847D01*
X144521381Y-54529318D01*
X144521379Y-54529317D01*
X144521378Y-54529317D01*
X144389951Y-54508501D01*
X144350291Y-54502220D01*
X143377069Y-54502220D01*
X143337408Y-54508501D01*
X143205982Y-54529317D01*
X143041232Y-54582848D01*
X142886891Y-54661488D01*
X142826915Y-54705064D01*
X142746752Y-54763306D01*
X142746750Y-54763308D01*
X142746749Y-54763308D01*
X142624268Y-54885789D01*
X142624268Y-54885790D01*
X142624266Y-54885792D01*
X142588006Y-54935700D01*
X142522448Y-55025931D01*
X142443808Y-55180272D01*
X142390277Y-55345022D01*
X142367585Y-55488299D01*
X142363180Y-55516109D01*
X122504180Y-55516109D01*
X122477082Y-55345019D01*
X122423553Y-55180275D01*
X122344912Y-55025932D01*
X122243094Y-54885792D01*
X122120608Y-54763306D01*
X121980468Y-54661488D01*
X121826125Y-54582847D01*
X121661381Y-54529318D01*
X121661379Y-54529317D01*
X121661378Y-54529317D01*
X121529951Y-54508501D01*
X121490291Y-54502220D01*
X120517069Y-54502220D01*
X120477408Y-54508501D01*
X120345982Y-54529317D01*
X120181232Y-54582848D01*
X120026891Y-54661488D01*
X119966915Y-54705064D01*
X119886752Y-54763306D01*
X119886750Y-54763308D01*
X119886749Y-54763308D01*
X119764268Y-54885789D01*
X119764268Y-54885790D01*
X119764266Y-54885792D01*
X119728006Y-54935700D01*
X119662448Y-55025931D01*
X119583808Y-55180272D01*
X119530277Y-55345022D01*
X119507585Y-55488299D01*
X119503180Y-55516109D01*
X115700499Y-55516109D01*
X115700499Y-55297951D01*
X115720184Y-55230913D01*
X115736813Y-55210276D01*
X116485857Y-54461234D01*
X116487087Y-54459394D01*
X116554311Y-54358786D01*
X116566806Y-54328619D01*
X116593684Y-54288393D01*
X116621789Y-54260289D01*
X116709394Y-54129179D01*
X116769737Y-53983497D01*
X116800500Y-53828842D01*
X116800500Y-53671158D01*
X116800500Y-53671155D01*
X116800499Y-53671153D01*
X116787102Y-53603801D01*
X116769737Y-53516503D01*
X116756757Y-53485167D01*
X116709397Y-53370827D01*
X116709390Y-53370814D01*
X116621789Y-53239711D01*
X116621786Y-53239707D01*
X116510292Y-53128213D01*
X116510288Y-53128210D01*
X116429665Y-53074339D01*
X116379185Y-53040609D01*
X116379172Y-53040602D01*
X116233501Y-52980264D01*
X116233489Y-52980261D01*
X116212616Y-52976109D01*
X119503180Y-52976109D01*
X119503180Y-53149331D01*
X119530278Y-53320421D01*
X119583807Y-53485165D01*
X119662448Y-53639508D01*
X119764266Y-53779648D01*
X119886752Y-53902134D01*
X120026892Y-54003952D01*
X120181235Y-54082593D01*
X120345979Y-54136122D01*
X120517069Y-54163220D01*
X120517070Y-54163220D01*
X121490290Y-54163220D01*
X121490291Y-54163220D01*
X121661381Y-54136122D01*
X121826125Y-54082593D01*
X121980468Y-54003952D01*
X122120608Y-53902134D01*
X122243094Y-53779648D01*
X122344912Y-53639508D01*
X122423553Y-53485165D01*
X122477082Y-53320421D01*
X122504180Y-53149331D01*
X122504180Y-52976109D01*
X142363180Y-52976109D01*
X142363180Y-53149331D01*
X142390278Y-53320421D01*
X142443807Y-53485165D01*
X142522448Y-53639508D01*
X142624266Y-53779648D01*
X142746752Y-53902134D01*
X142886892Y-54003952D01*
X143041235Y-54082593D01*
X143205979Y-54136122D01*
X143377069Y-54163220D01*
X143377070Y-54163220D01*
X144350290Y-54163220D01*
X144350291Y-54163220D01*
X144521381Y-54136122D01*
X144686125Y-54082593D01*
X144840468Y-54003952D01*
X144980608Y-53902134D01*
X145103094Y-53779648D01*
X145204912Y-53639508D01*
X145283553Y-53485165D01*
X145337082Y-53320421D01*
X145364180Y-53149331D01*
X145364180Y-52976109D01*
X145337082Y-52805019D01*
X145283553Y-52640275D01*
X145204912Y-52485932D01*
X145103094Y-52345792D01*
X144980608Y-52223306D01*
X144840468Y-52121488D01*
X144686125Y-52042847D01*
X144521381Y-51989318D01*
X144521379Y-51989317D01*
X144521378Y-51989317D01*
X144389951Y-51968501D01*
X144350291Y-51962220D01*
X143377069Y-51962220D01*
X143337408Y-51968501D01*
X143205982Y-51989317D01*
X143041232Y-52042848D01*
X142886891Y-52121488D01*
X142845354Y-52151667D01*
X142746752Y-52223306D01*
X142746750Y-52223308D01*
X142746749Y-52223308D01*
X142624268Y-52345789D01*
X142624268Y-52345790D01*
X142624266Y-52345792D01*
X142580539Y-52405976D01*
X142522448Y-52485931D01*
X142443808Y-52640272D01*
X142390277Y-52805022D01*
X142374356Y-52905548D01*
X142363180Y-52976109D01*
X122504180Y-52976109D01*
X122477082Y-52805019D01*
X122423553Y-52640275D01*
X122344912Y-52485932D01*
X122243094Y-52345792D01*
X122120608Y-52223306D01*
X121980468Y-52121488D01*
X121826125Y-52042847D01*
X121661381Y-51989318D01*
X121661379Y-51989317D01*
X121661378Y-51989317D01*
X121529951Y-51968501D01*
X121490291Y-51962220D01*
X120517069Y-51962220D01*
X120477408Y-51968501D01*
X120345982Y-51989317D01*
X120181232Y-52042848D01*
X120026891Y-52121488D01*
X119985354Y-52151667D01*
X119886752Y-52223306D01*
X119886750Y-52223308D01*
X119886749Y-52223308D01*
X119764268Y-52345789D01*
X119764268Y-52345790D01*
X119764266Y-52345792D01*
X119720539Y-52405976D01*
X119662448Y-52485931D01*
X119583808Y-52640272D01*
X119530277Y-52805022D01*
X119514356Y-52905548D01*
X119503180Y-52976109D01*
X116212616Y-52976109D01*
X116078845Y-52949500D01*
X116078842Y-52949500D01*
X115921158Y-52949500D01*
X115921155Y-52949500D01*
X115766510Y-52980261D01*
X115766498Y-52980264D01*
X115620827Y-53040602D01*
X115620814Y-53040609D01*
X115489711Y-53128210D01*
X115489707Y-53128213D01*
X115378213Y-53239707D01*
X115378210Y-53239711D01*
X115290609Y-53370814D01*
X115290602Y-53370827D01*
X115230264Y-53516498D01*
X115230261Y-53516510D01*
X115199500Y-53671153D01*
X115199500Y-53671158D01*
X115199500Y-53828842D01*
X115199501Y-53828846D01*
X115211384Y-53888589D01*
X115205155Y-53958181D01*
X115177447Y-54000460D01*
X114814727Y-54363181D01*
X114753404Y-54396666D01*
X114727046Y-54399500D01*
X113999998Y-54399500D01*
X113999980Y-54399501D01*
X113897203Y-54410000D01*
X113897200Y-54410001D01*
X113730668Y-54465185D01*
X113730663Y-54465187D01*
X113581342Y-54557289D01*
X113457289Y-54681342D01*
X113365185Y-54830667D01*
X113349415Y-54878256D01*
X113309641Y-54935700D01*
X113260686Y-54958629D01*
X113260880Y-54959268D01*
X113256459Y-54960609D01*
X113255915Y-54960864D01*
X113255054Y-54961035D01*
X113255047Y-54961037D01*
X113141216Y-55008187D01*
X113141207Y-55008192D01*
X113038768Y-55076640D01*
X113008233Y-55107176D01*
X112951642Y-55163767D01*
X112014144Y-56101264D01*
X112014138Y-56101272D01*
X111945690Y-56203708D01*
X111945688Y-56203713D01*
X111898540Y-56317538D01*
X111898535Y-56317554D01*
X111880458Y-56408437D01*
X111880450Y-56408478D01*
X111880148Y-56410001D01*
X111874500Y-56438394D01*
X110160839Y-56438394D01*
X116163124Y-50436109D01*
X119503180Y-50436109D01*
X119503180Y-50609331D01*
X119530278Y-50780421D01*
X119583807Y-50945165D01*
X119662448Y-51099508D01*
X119764266Y-51239648D01*
X119886752Y-51362134D01*
X120026892Y-51463952D01*
X120181235Y-51542593D01*
X120345979Y-51596122D01*
X120517069Y-51623220D01*
X120517070Y-51623220D01*
X121490290Y-51623220D01*
X121490291Y-51623220D01*
X121661381Y-51596122D01*
X121826125Y-51542593D01*
X121980468Y-51463952D01*
X122120608Y-51362134D01*
X122243094Y-51239648D01*
X122344912Y-51099508D01*
X122423553Y-50945165D01*
X122477082Y-50780421D01*
X122504180Y-50609331D01*
X122504180Y-50436109D01*
X142363180Y-50436109D01*
X142363180Y-50609331D01*
X142390278Y-50780421D01*
X142443807Y-50945165D01*
X142522448Y-51099508D01*
X142624266Y-51239648D01*
X142746752Y-51362134D01*
X142886892Y-51463952D01*
X143041235Y-51542593D01*
X143205979Y-51596122D01*
X143377069Y-51623220D01*
X143377070Y-51623220D01*
X144350290Y-51623220D01*
X144350291Y-51623220D01*
X144521381Y-51596122D01*
X144686125Y-51542593D01*
X144840468Y-51463952D01*
X144980608Y-51362134D01*
X145103094Y-51239648D01*
X145204912Y-51099508D01*
X145283553Y-50945165D01*
X145337082Y-50780421D01*
X145364180Y-50609331D01*
X145364180Y-50436109D01*
X145337082Y-50265019D01*
X145283553Y-50100275D01*
X145204912Y-49945932D01*
X145103094Y-49805792D01*
X144980608Y-49683306D01*
X144840468Y-49581488D01*
X144686125Y-49502847D01*
X144521381Y-49449318D01*
X144521379Y-49449317D01*
X144521378Y-49449317D01*
X144389951Y-49428501D01*
X144350291Y-49422220D01*
X143377069Y-49422220D01*
X143337408Y-49428501D01*
X143205982Y-49449317D01*
X143041232Y-49502848D01*
X142886891Y-49581488D01*
X142806936Y-49639579D01*
X142746752Y-49683306D01*
X142746750Y-49683308D01*
X142746749Y-49683308D01*
X142624268Y-49805789D01*
X142624268Y-49805790D01*
X142624266Y-49805792D01*
X142613479Y-49820639D01*
X142522448Y-49945931D01*
X142443808Y-50100272D01*
X142390277Y-50265022D01*
X142363180Y-50436109D01*
X122504180Y-50436109D01*
X122477082Y-50265019D01*
X122423553Y-50100275D01*
X122344912Y-49945932D01*
X122243094Y-49805792D01*
X122120608Y-49683306D01*
X121980468Y-49581488D01*
X121826125Y-49502847D01*
X121661381Y-49449318D01*
X121661379Y-49449317D01*
X121661378Y-49449317D01*
X121529951Y-49428501D01*
X121490291Y-49422220D01*
X120517069Y-49422220D01*
X120477408Y-49428501D01*
X120345982Y-49449317D01*
X120181232Y-49502848D01*
X120026891Y-49581488D01*
X119946936Y-49639579D01*
X119886752Y-49683306D01*
X119886750Y-49683308D01*
X119886749Y-49683308D01*
X119764268Y-49805789D01*
X119764268Y-49805790D01*
X119764266Y-49805792D01*
X119753479Y-49820639D01*
X119662448Y-49945931D01*
X119583808Y-50100272D01*
X119530277Y-50265022D01*
X119503180Y-50436109D01*
X116163124Y-50436109D01*
X118703124Y-47896109D01*
X119503180Y-47896109D01*
X119503180Y-48069331D01*
X119530278Y-48240421D01*
X119583807Y-48405165D01*
X119662448Y-48559508D01*
X119764266Y-48699648D01*
X119886752Y-48822134D01*
X120026892Y-48923952D01*
X120181235Y-49002593D01*
X120345979Y-49056122D01*
X120517069Y-49083220D01*
X120517070Y-49083220D01*
X121490290Y-49083220D01*
X121490291Y-49083220D01*
X121661381Y-49056122D01*
X121826125Y-49002593D01*
X121980468Y-48923952D01*
X122120608Y-48822134D01*
X122243094Y-48699648D01*
X122344912Y-48559508D01*
X122423553Y-48405165D01*
X122477082Y-48240421D01*
X122504180Y-48069331D01*
X122504180Y-47896109D01*
X142363180Y-47896109D01*
X142363180Y-48069331D01*
X142390278Y-48240421D01*
X142443807Y-48405165D01*
X142522448Y-48559508D01*
X142624266Y-48699648D01*
X142746752Y-48822134D01*
X142886892Y-48923952D01*
X143041235Y-49002593D01*
X143205979Y-49056122D01*
X143377069Y-49083220D01*
X143377070Y-49083220D01*
X144350290Y-49083220D01*
X144350291Y-49083220D01*
X144521381Y-49056122D01*
X144686125Y-49002593D01*
X144840468Y-48923952D01*
X144980608Y-48822134D01*
X145103094Y-48699648D01*
X145204912Y-48559508D01*
X145283553Y-48405165D01*
X145337082Y-48240421D01*
X145364180Y-48069331D01*
X145364180Y-47896109D01*
X145337082Y-47725019D01*
X145283553Y-47560275D01*
X145204912Y-47405932D01*
X145103094Y-47265792D01*
X144980608Y-47143306D01*
X144840468Y-47041488D01*
X144686125Y-46962847D01*
X144521381Y-46909318D01*
X144521379Y-46909317D01*
X144521378Y-46909317D01*
X144389951Y-46888501D01*
X144350291Y-46882220D01*
X143377069Y-46882220D01*
X143337408Y-46888501D01*
X143205982Y-46909317D01*
X143041232Y-46962848D01*
X142886891Y-47041488D01*
X142846374Y-47070926D01*
X142746752Y-47143306D01*
X142746750Y-47143308D01*
X142746749Y-47143308D01*
X142624268Y-47265789D01*
X142624268Y-47265790D01*
X142624266Y-47265792D01*
X142580539Y-47325976D01*
X142522448Y-47405931D01*
X142443808Y-47560272D01*
X142390277Y-47725022D01*
X142380809Y-47784803D01*
X142363180Y-47896109D01*
X122504180Y-47896109D01*
X122477082Y-47725019D01*
X122423553Y-47560275D01*
X122344912Y-47405932D01*
X122243094Y-47265792D01*
X122120608Y-47143306D01*
X121980468Y-47041488D01*
X121826125Y-46962847D01*
X121661381Y-46909318D01*
X121661379Y-46909317D01*
X121661378Y-46909317D01*
X121529951Y-46888501D01*
X121490291Y-46882220D01*
X120517069Y-46882220D01*
X120477408Y-46888501D01*
X120345982Y-46909317D01*
X120181232Y-46962848D01*
X120026891Y-47041488D01*
X119986374Y-47070926D01*
X119886752Y-47143306D01*
X119886750Y-47143308D01*
X119886749Y-47143308D01*
X119764268Y-47265789D01*
X119764268Y-47265790D01*
X119764266Y-47265792D01*
X119720539Y-47325976D01*
X119662448Y-47405931D01*
X119583808Y-47560272D01*
X119530277Y-47725022D01*
X119520809Y-47784803D01*
X119503180Y-47896109D01*
X118703124Y-47896109D01*
X120093847Y-46505386D01*
X120155168Y-46471903D01*
X120219844Y-46475138D01*
X120345979Y-46516122D01*
X120517069Y-46543220D01*
X120517070Y-46543220D01*
X121490290Y-46543220D01*
X121490291Y-46543220D01*
X121661381Y-46516122D01*
X121826125Y-46462593D01*
X121980468Y-46383952D01*
X122120608Y-46282134D01*
X122243094Y-46159648D01*
X122344912Y-46019508D01*
X122423553Y-45865165D01*
X122477082Y-45700421D01*
X122504180Y-45529331D01*
X122504180Y-45356109D01*
X142363180Y-45356109D01*
X142363180Y-45529331D01*
X142390278Y-45700421D01*
X142443807Y-45865165D01*
X142522448Y-46019508D01*
X142624266Y-46159648D01*
X142746752Y-46282134D01*
X142886892Y-46383952D01*
X143041235Y-46462593D01*
X143205979Y-46516122D01*
X143377069Y-46543220D01*
X143377070Y-46543220D01*
X144350290Y-46543220D01*
X144350291Y-46543220D01*
X144521381Y-46516122D01*
X144686125Y-46462593D01*
X144840468Y-46383952D01*
X144980608Y-46282134D01*
X145103094Y-46159648D01*
X145204912Y-46019508D01*
X145283553Y-45865165D01*
X145337082Y-45700421D01*
X145364180Y-45529331D01*
X145364180Y-45356109D01*
X145337082Y-45185019D01*
X145283553Y-45020275D01*
X145204912Y-44865932D01*
X145103094Y-44725792D01*
X144980608Y-44603306D01*
X144840468Y-44501488D01*
X144686125Y-44422847D01*
X144521381Y-44369318D01*
X144521379Y-44369317D01*
X144521378Y-44369317D01*
X144389951Y-44348501D01*
X144350291Y-44342220D01*
X143377069Y-44342220D01*
X143337408Y-44348501D01*
X143205982Y-44369317D01*
X143041232Y-44422848D01*
X142886891Y-44501488D01*
X142846535Y-44530809D01*
X142746752Y-44603306D01*
X142746750Y-44603308D01*
X142746749Y-44603308D01*
X142624268Y-44725789D01*
X142624268Y-44725790D01*
X142624266Y-44725792D01*
X142596178Y-44764452D01*
X142522448Y-44865931D01*
X142443808Y-45020272D01*
X142390277Y-45185022D01*
X142379198Y-45254974D01*
X142363180Y-45356109D01*
X122504180Y-45356109D01*
X122477082Y-45185019D01*
X122423553Y-45020275D01*
X122344912Y-44865932D01*
X122243094Y-44725792D01*
X122120608Y-44603306D01*
X121980468Y-44501488D01*
X121826125Y-44422847D01*
X121661381Y-44369318D01*
X121661379Y-44369317D01*
X121661378Y-44369317D01*
X121529951Y-44348501D01*
X121490291Y-44342220D01*
X120712777Y-44342220D01*
X120691531Y-44335981D01*
X120669443Y-44334402D01*
X120658659Y-44326329D01*
X120645738Y-44322535D01*
X120631238Y-44305801D01*
X120613510Y-44292530D01*
X120608802Y-44279909D01*
X120599983Y-44269731D01*
X120596831Y-44247813D01*
X120589093Y-44227066D01*
X120591955Y-44213905D01*
X120590039Y-44200573D01*
X120599238Y-44180429D01*
X120603945Y-44158793D01*
X120617213Y-44141067D01*
X120619064Y-44137017D01*
X120625096Y-44130539D01*
X120716096Y-44039539D01*
X120777419Y-44006054D01*
X120803777Y-44003220D01*
X121490290Y-44003220D01*
X121490291Y-44003220D01*
X121661381Y-43976122D01*
X121826125Y-43922593D01*
X121980468Y-43843952D01*
X122120608Y-43742134D01*
X122243094Y-43619648D01*
X122344912Y-43479508D01*
X122423553Y-43325165D01*
X122477082Y-43160421D01*
X122504180Y-42989331D01*
X122504180Y-42816109D01*
X142363180Y-42816109D01*
X142363180Y-42989331D01*
X142390278Y-43160421D01*
X142443807Y-43325165D01*
X142522448Y-43479508D01*
X142624266Y-43619648D01*
X142746752Y-43742134D01*
X142886892Y-43843952D01*
X143041235Y-43922593D01*
X143205979Y-43976122D01*
X143377069Y-44003220D01*
X143377070Y-44003220D01*
X144350290Y-44003220D01*
X144350291Y-44003220D01*
X144521381Y-43976122D01*
X144686125Y-43922593D01*
X144840468Y-43843952D01*
X144980608Y-43742134D01*
X145103094Y-43619648D01*
X145204912Y-43479508D01*
X145283553Y-43325165D01*
X145337082Y-43160421D01*
X145364180Y-42989331D01*
X145364180Y-42816109D01*
X145337082Y-42645019D01*
X145283553Y-42480275D01*
X145204912Y-42325932D01*
X145103094Y-42185792D01*
X144980608Y-42063306D01*
X144840468Y-41961488D01*
X144686125Y-41882847D01*
X144521381Y-41829318D01*
X144521379Y-41829317D01*
X144521378Y-41829317D01*
X144389951Y-41808501D01*
X144350291Y-41802220D01*
X143377069Y-41802220D01*
X143337408Y-41808501D01*
X143205982Y-41829317D01*
X143041232Y-41882848D01*
X142886891Y-41961488D01*
X142806936Y-42019579D01*
X142746752Y-42063306D01*
X142746750Y-42063308D01*
X142746749Y-42063308D01*
X142624268Y-42185789D01*
X142624268Y-42185790D01*
X142624266Y-42185792D01*
X142580539Y-42245976D01*
X142522448Y-42325931D01*
X142443808Y-42480272D01*
X142390277Y-42645022D01*
X142363180Y-42816109D01*
X122504180Y-42816109D01*
X122477082Y-42645019D01*
X122423553Y-42480275D01*
X122344912Y-42325932D01*
X122243094Y-42185792D01*
X122120608Y-42063306D01*
X121980468Y-41961488D01*
X121826125Y-41882847D01*
X121661381Y-41829318D01*
X121661379Y-41829317D01*
X121661378Y-41829317D01*
X121529951Y-41808501D01*
X121490291Y-41802220D01*
X120517069Y-41802220D01*
X120477408Y-41808501D01*
X120345982Y-41829317D01*
X120181232Y-41882848D01*
X120026891Y-41961488D01*
X119946936Y-42019579D01*
X119886752Y-42063306D01*
X119886750Y-42063308D01*
X119886749Y-42063308D01*
X119764268Y-42185789D01*
X119764268Y-42185790D01*
X119764266Y-42185792D01*
X119720539Y-42245976D01*
X119662448Y-42325931D01*
X119583808Y-42480272D01*
X119530277Y-42645022D01*
X119503180Y-42816109D01*
X119503180Y-42989330D01*
X119530277Y-43160417D01*
X119583806Y-43325162D01*
X119583808Y-43325167D01*
X119592928Y-43343066D01*
X119605823Y-43411735D01*
X119579546Y-43476475D01*
X119570123Y-43487040D01*
X114403984Y-48653181D01*
X114342661Y-48686666D01*
X114316303Y-48689500D01*
X108714578Y-48689500D01*
X108647539Y-48669815D01*
X108601784Y-48617011D01*
X108591220Y-48578102D01*
X108589320Y-48559508D01*
X108584999Y-48517203D01*
X108529814Y-48350666D01*
X108437712Y-48201344D01*
X108313656Y-48077288D01*
X108164334Y-47985186D01*
X108164326Y-47985181D01*
X108163645Y-47984864D01*
X108163256Y-47984521D01*
X108158187Y-47981395D01*
X108158721Y-47980528D01*
X108111208Y-47938688D01*
X108092060Y-47871494D01*
X108112280Y-47804614D01*
X108128366Y-47784813D01*
X108270359Y-47642821D01*
X108397157Y-47468299D01*
X108495092Y-47276089D01*
X108561754Y-47070926D01*
X108578872Y-46962847D01*
X108595500Y-46857866D01*
X108595500Y-46642133D01*
X108567063Y-46462593D01*
X108561754Y-46429074D01*
X108495092Y-46223911D01*
X108397157Y-46031701D01*
X108270359Y-45857179D01*
X108117821Y-45704641D01*
X107946279Y-45580008D01*
X107903614Y-45524678D01*
X107897635Y-45455064D01*
X107930241Y-45393269D01*
X107946280Y-45379372D01*
X108117491Y-45254979D01*
X108117497Y-45254974D01*
X108269974Y-45102497D01*
X108269974Y-45102496D01*
X108396728Y-44928036D01*
X108494627Y-44735901D01*
X108561266Y-44530809D01*
X108572481Y-44460000D01*
X107542709Y-44460000D01*
X107554452Y-44439661D01*
X107595000Y-44288333D01*
X107595000Y-44131667D01*
X107554452Y-43980339D01*
X107542709Y-43960000D01*
X108572481Y-43960000D01*
X108561266Y-43889190D01*
X108494627Y-43684098D01*
X108396728Y-43491963D01*
X108269974Y-43317503D01*
X108269974Y-43317502D01*
X108117497Y-43165025D01*
X107943036Y-43038271D01*
X107750901Y-42940372D01*
X107545809Y-42873734D01*
X107332820Y-42840000D01*
X107250000Y-42840000D01*
X107250000Y-43667290D01*
X107229661Y-43655548D01*
X107078333Y-43615000D01*
X106921667Y-43615000D01*
X106770339Y-43655548D01*
X106750000Y-43667290D01*
X106750000Y-42840000D01*
X106667180Y-42840000D01*
X106454190Y-42873734D01*
X106249098Y-42940372D01*
X106056963Y-43038271D01*
X105882503Y-43165025D01*
X105882502Y-43165025D01*
X105730025Y-43317502D01*
X105730025Y-43317503D01*
X105603271Y-43491963D01*
X105505372Y-43684098D01*
X105438733Y-43889190D01*
X105427519Y-43960000D01*
X106457291Y-43960000D01*
X106445548Y-43980339D01*
X106405000Y-44131667D01*
X106405000Y-44288333D01*
X106445548Y-44439661D01*
X106457291Y-44460000D01*
X105427519Y-44460000D01*
X105438733Y-44530809D01*
X105505372Y-44735901D01*
X105603271Y-44928036D01*
X105730025Y-45102496D01*
X105730025Y-45102497D01*
X105882502Y-45254974D01*
X106053720Y-45379372D01*
X106096385Y-45434702D01*
X106102364Y-45504316D01*
X106069758Y-45566110D01*
X106053720Y-45580008D01*
X105882177Y-45704642D01*
X105729643Y-45857176D01*
X105729643Y-45857177D01*
X105729641Y-45857179D01*
X105675186Y-45932129D01*
X105602843Y-46031700D01*
X105504909Y-46223908D01*
X105438245Y-46429077D01*
X105404500Y-46642133D01*
X105404500Y-46857866D01*
X105438245Y-47070922D01*
X105504910Y-47276096D01*
X105506775Y-47280598D01*
X105505552Y-47281104D01*
X105517328Y-47343841D01*
X105491044Y-47408579D01*
X105481629Y-47419134D01*
X104812181Y-48088583D01*
X104750858Y-48122068D01*
X104681167Y-48117084D01*
X104625233Y-48075213D01*
X104600816Y-48009748D01*
X104600500Y-48000902D01*
X104600500Y-40800096D01*
X104620185Y-40733057D01*
X104636815Y-40712419D01*
X105192821Y-40156412D01*
X105254142Y-40122929D01*
X105323833Y-40127913D01*
X105379767Y-40169784D01*
X105404184Y-40235249D01*
X105404500Y-40244095D01*
X105404500Y-40710001D01*
X105404501Y-40710019D01*
X105415000Y-40812796D01*
X105415001Y-40812799D01*
X105456989Y-40939508D01*
X105470186Y-40979334D01*
X105562288Y-41128656D01*
X105686344Y-41252712D01*
X105835666Y-41344814D01*
X106002203Y-41399999D01*
X106104991Y-41410500D01*
X107895008Y-41410499D01*
X107997797Y-41399999D01*
X108164334Y-41344814D01*
X108313656Y-41252712D01*
X108437712Y-41128656D01*
X108529814Y-40979334D01*
X108584999Y-40812797D01*
X108591221Y-40751897D01*
X108617618Y-40687205D01*
X108674799Y-40647054D01*
X108714579Y-40640500D01*
X119446711Y-40640500D01*
X119513750Y-40660185D01*
X119559505Y-40712989D01*
X119564642Y-40726181D01*
X119583808Y-40785169D01*
X119662448Y-40939508D01*
X119764266Y-41079648D01*
X119886752Y-41202134D01*
X120026892Y-41303952D01*
X120181235Y-41382593D01*
X120345979Y-41436122D01*
X120517069Y-41463220D01*
X120517070Y-41463220D01*
X121490290Y-41463220D01*
X121490291Y-41463220D01*
X121661381Y-41436122D01*
X121826125Y-41382593D01*
X121980468Y-41303952D01*
X122120608Y-41202134D01*
X122243094Y-41079648D01*
X122344912Y-40939508D01*
X122423553Y-40785165D01*
X122477082Y-40620421D01*
X122504180Y-40449331D01*
X122504180Y-40276109D01*
X142363180Y-40276109D01*
X142363180Y-40449330D01*
X142385310Y-40589059D01*
X142390278Y-40620421D01*
X142443807Y-40785165D01*
X142522448Y-40939508D01*
X142624266Y-41079648D01*
X142746752Y-41202134D01*
X142886892Y-41303952D01*
X143041235Y-41382593D01*
X143205979Y-41436122D01*
X143377069Y-41463220D01*
X143377070Y-41463220D01*
X144350290Y-41463220D01*
X144350291Y-41463220D01*
X144521381Y-41436122D01*
X144686125Y-41382593D01*
X144840468Y-41303952D01*
X144980608Y-41202134D01*
X145103094Y-41079648D01*
X145204912Y-40939508D01*
X145283553Y-40785165D01*
X145337082Y-40620421D01*
X145364180Y-40449331D01*
X145364180Y-40276109D01*
X145337082Y-40105019D01*
X145283553Y-39940275D01*
X145204912Y-39785932D01*
X145103094Y-39645792D01*
X144980608Y-39523306D01*
X144840468Y-39421488D01*
X144686125Y-39342847D01*
X144521381Y-39289318D01*
X144521379Y-39289317D01*
X144521378Y-39289317D01*
X144381733Y-39267200D01*
X144350291Y-39262220D01*
X143377069Y-39262220D01*
X143345627Y-39267200D01*
X143205982Y-39289317D01*
X143041232Y-39342848D01*
X142886891Y-39421488D01*
X142806936Y-39479579D01*
X142746752Y-39523306D01*
X142746750Y-39523308D01*
X142746749Y-39523308D01*
X142624268Y-39645789D01*
X142624268Y-39645790D01*
X142624266Y-39645792D01*
X142580539Y-39705976D01*
X142522448Y-39785931D01*
X142443808Y-39940272D01*
X142390277Y-40105022D01*
X142363180Y-40276109D01*
X122504180Y-40276109D01*
X122477082Y-40105019D01*
X122423553Y-39940275D01*
X122344912Y-39785932D01*
X122243094Y-39645792D01*
X122120608Y-39523306D01*
X121980468Y-39421488D01*
X121826125Y-39342847D01*
X121661381Y-39289318D01*
X121661379Y-39289317D01*
X121661378Y-39289317D01*
X121521733Y-39267200D01*
X121490291Y-39262220D01*
X120517069Y-39262220D01*
X120485627Y-39267200D01*
X120345982Y-39289317D01*
X120181232Y-39342848D01*
X120127959Y-39369992D01*
X120030176Y-39419815D01*
X120022551Y-39423700D01*
X120022046Y-39422710D01*
X119962528Y-39439500D01*
X108714578Y-39439500D01*
X108647539Y-39419815D01*
X108601784Y-39367011D01*
X108591220Y-39328102D01*
X108587258Y-39289318D01*
X108584999Y-39267203D01*
X108529814Y-39100666D01*
X108437712Y-38951344D01*
X108313656Y-38827288D01*
X108164334Y-38735186D01*
X108164326Y-38735181D01*
X108163645Y-38734864D01*
X108163256Y-38734521D01*
X108158187Y-38731395D01*
X108158721Y-38730528D01*
X108111208Y-38688688D01*
X108092060Y-38621494D01*
X108112280Y-38554614D01*
X108128366Y-38534813D01*
X108270359Y-38392821D01*
X108397157Y-38218299D01*
X108495092Y-38026089D01*
X108561754Y-37820926D01*
X108575188Y-37736109D01*
X119503180Y-37736109D01*
X119503180Y-37909330D01*
X119521672Y-38026089D01*
X119530278Y-38080421D01*
X119583807Y-38245165D01*
X119662448Y-38399508D01*
X119764266Y-38539648D01*
X119886752Y-38662134D01*
X120026892Y-38763952D01*
X120181235Y-38842593D01*
X120345979Y-38896122D01*
X120517069Y-38923220D01*
X120517070Y-38923220D01*
X121490290Y-38923220D01*
X121490291Y-38923220D01*
X121661381Y-38896122D01*
X121826125Y-38842593D01*
X121980468Y-38763952D01*
X122120608Y-38662134D01*
X122243094Y-38539648D01*
X122344912Y-38399508D01*
X122423553Y-38245165D01*
X122477082Y-38080421D01*
X122504180Y-37909331D01*
X122504180Y-37736109D01*
X142363180Y-37736109D01*
X142363180Y-37909330D01*
X142381672Y-38026089D01*
X142390278Y-38080421D01*
X142443807Y-38245165D01*
X142522448Y-38399508D01*
X142624266Y-38539648D01*
X142746752Y-38662134D01*
X142886892Y-38763952D01*
X143041235Y-38842593D01*
X143205979Y-38896122D01*
X143377069Y-38923220D01*
X143377070Y-38923220D01*
X144350290Y-38923220D01*
X144350291Y-38923220D01*
X144521381Y-38896122D01*
X144686125Y-38842593D01*
X144840468Y-38763952D01*
X144980608Y-38662134D01*
X145103094Y-38539648D01*
X145204912Y-38399508D01*
X145283553Y-38245165D01*
X145337082Y-38080421D01*
X145364180Y-37909331D01*
X145364180Y-37736109D01*
X145337082Y-37565019D01*
X145283553Y-37400275D01*
X145204912Y-37245932D01*
X145103094Y-37105792D01*
X144980608Y-36983306D01*
X144840468Y-36881488D01*
X144686125Y-36802847D01*
X144521381Y-36749318D01*
X144521379Y-36749317D01*
X144521378Y-36749317D01*
X144389951Y-36728501D01*
X144350291Y-36722220D01*
X143377069Y-36722220D01*
X143337408Y-36728501D01*
X143205982Y-36749317D01*
X143041232Y-36802848D01*
X142886891Y-36881488D01*
X142806936Y-36939579D01*
X142746752Y-36983306D01*
X142746750Y-36983308D01*
X142746749Y-36983308D01*
X142624268Y-37105789D01*
X142624268Y-37105790D01*
X142624266Y-37105792D01*
X142580539Y-37165976D01*
X142522448Y-37245931D01*
X142443808Y-37400272D01*
X142390277Y-37565022D01*
X142363180Y-37736109D01*
X122504180Y-37736109D01*
X122477082Y-37565019D01*
X122423553Y-37400275D01*
X122344912Y-37245932D01*
X122243094Y-37105792D01*
X122120608Y-36983306D01*
X121980468Y-36881488D01*
X121826125Y-36802847D01*
X121661381Y-36749318D01*
X121661379Y-36749317D01*
X121661378Y-36749317D01*
X121529951Y-36728501D01*
X121490291Y-36722220D01*
X120517069Y-36722220D01*
X120477408Y-36728501D01*
X120345982Y-36749317D01*
X120181232Y-36802848D01*
X120026891Y-36881488D01*
X119946936Y-36939579D01*
X119886752Y-36983306D01*
X119886750Y-36983308D01*
X119886749Y-36983308D01*
X119764268Y-37105789D01*
X119764268Y-37105790D01*
X119764266Y-37105792D01*
X119720539Y-37165976D01*
X119662448Y-37245931D01*
X119583808Y-37400272D01*
X119530277Y-37565022D01*
X119503180Y-37736109D01*
X108575188Y-37736109D01*
X108579032Y-37711839D01*
X108595500Y-37607866D01*
X108595500Y-37392133D01*
X108561754Y-37179077D01*
X108561754Y-37179074D01*
X108495092Y-36973911D01*
X108397157Y-36781701D01*
X108270359Y-36607179D01*
X108117821Y-36454641D01*
X107946279Y-36330008D01*
X107903614Y-36274678D01*
X107897635Y-36205064D01*
X107930241Y-36143269D01*
X107946280Y-36129372D01*
X108117491Y-36004979D01*
X108117497Y-36004974D01*
X108269974Y-35852497D01*
X108269974Y-35852496D01*
X108396728Y-35678036D01*
X108494627Y-35485901D01*
X108561266Y-35280809D01*
X108572481Y-35210000D01*
X107542709Y-35210000D01*
X107554452Y-35189661D01*
X107595000Y-35038333D01*
X107595000Y-34999983D01*
X115799500Y-34999983D01*
X115799500Y-35900001D01*
X115799501Y-35900019D01*
X115810000Y-36002796D01*
X115810001Y-36002799D01*
X115856549Y-36143269D01*
X115865186Y-36169334D01*
X115957288Y-36318656D01*
X116081344Y-36442712D01*
X116230666Y-36534814D01*
X116397203Y-36589999D01*
X116499991Y-36600500D01*
X117500008Y-36600499D01*
X117500016Y-36600498D01*
X117500019Y-36600498D01*
X117556302Y-36594748D01*
X117602797Y-36589999D01*
X117769334Y-36534814D01*
X117918656Y-36442712D01*
X118042712Y-36318656D01*
X118134814Y-36169334D01*
X118146028Y-36135494D01*
X118185801Y-36078050D01*
X118250317Y-36051228D01*
X118263733Y-36050500D01*
X119763756Y-36050500D01*
X119830795Y-36070185D01*
X119851437Y-36086819D01*
X119886752Y-36122134D01*
X120026892Y-36223952D01*
X120181235Y-36302593D01*
X120345979Y-36356122D01*
X120517069Y-36383220D01*
X120517070Y-36383220D01*
X121490290Y-36383220D01*
X121490291Y-36383220D01*
X121661381Y-36356122D01*
X121826125Y-36302593D01*
X121980468Y-36223952D01*
X122120608Y-36122134D01*
X122243094Y-35999648D01*
X122344912Y-35859508D01*
X122423553Y-35705165D01*
X122477082Y-35540421D01*
X122504180Y-35369331D01*
X122504180Y-35196109D01*
X142363180Y-35196109D01*
X142363180Y-35369331D01*
X142390278Y-35540421D01*
X142443807Y-35705165D01*
X142522448Y-35859508D01*
X142624266Y-35999648D01*
X142746752Y-36122134D01*
X142886892Y-36223952D01*
X143041235Y-36302593D01*
X143205979Y-36356122D01*
X143377069Y-36383220D01*
X143377070Y-36383220D01*
X144350290Y-36383220D01*
X144350291Y-36383220D01*
X144521381Y-36356122D01*
X144686125Y-36302593D01*
X144840468Y-36223952D01*
X144980608Y-36122134D01*
X145103094Y-35999648D01*
X145204912Y-35859508D01*
X145283553Y-35705165D01*
X145337082Y-35540421D01*
X145364180Y-35369331D01*
X145364180Y-35196109D01*
X145337082Y-35025019D01*
X145283553Y-34860275D01*
X145204912Y-34705932D01*
X145103094Y-34565792D01*
X144980608Y-34443306D01*
X144840468Y-34341488D01*
X144686125Y-34262847D01*
X144521381Y-34209318D01*
X144521379Y-34209317D01*
X144521378Y-34209317D01*
X144389951Y-34188501D01*
X144350291Y-34182220D01*
X143377069Y-34182220D01*
X143337408Y-34188501D01*
X143205982Y-34209317D01*
X143041232Y-34262848D01*
X142886891Y-34341488D01*
X142854273Y-34365187D01*
X142746752Y-34443306D01*
X142746750Y-34443308D01*
X142746749Y-34443308D01*
X142624268Y-34565789D01*
X142624268Y-34565790D01*
X142624266Y-34565792D01*
X142612967Y-34581344D01*
X142522448Y-34705931D01*
X142443808Y-34860272D01*
X142390277Y-35025022D01*
X142388169Y-35038333D01*
X142363180Y-35196109D01*
X122504180Y-35196109D01*
X122477082Y-35025019D01*
X122423553Y-34860275D01*
X122344912Y-34705932D01*
X122243094Y-34565792D01*
X122120608Y-34443306D01*
X121980468Y-34341488D01*
X121826125Y-34262847D01*
X121661381Y-34209318D01*
X121661379Y-34209317D01*
X121661378Y-34209317D01*
X121529951Y-34188501D01*
X121490291Y-34182220D01*
X120517069Y-34182220D01*
X120477408Y-34188501D01*
X120345982Y-34209317D01*
X120181232Y-34262848D01*
X120026891Y-34341488D01*
X119994273Y-34365187D01*
X119886752Y-34443306D01*
X119886750Y-34443308D01*
X119886749Y-34443308D01*
X119764268Y-34565789D01*
X119764268Y-34565790D01*
X119764266Y-34565792D01*
X119752967Y-34581344D01*
X119662446Y-34705933D01*
X119623795Y-34781794D01*
X119575821Y-34832590D01*
X119513310Y-34849500D01*
X118263733Y-34849500D01*
X118196694Y-34829815D01*
X118150939Y-34777011D01*
X118146028Y-34764506D01*
X118141495Y-34750829D01*
X118134814Y-34730666D01*
X118042712Y-34581344D01*
X117918656Y-34457288D01*
X117769334Y-34365186D01*
X117602797Y-34310001D01*
X117602795Y-34310000D01*
X117500010Y-34299500D01*
X116499998Y-34299500D01*
X116499980Y-34299501D01*
X116397203Y-34310000D01*
X116397200Y-34310001D01*
X116230668Y-34365185D01*
X116230663Y-34365187D01*
X116081342Y-34457289D01*
X115957289Y-34581342D01*
X115865187Y-34730663D01*
X115865185Y-34730668D01*
X115849829Y-34777011D01*
X115810001Y-34897203D01*
X115810001Y-34897204D01*
X115810000Y-34897204D01*
X115799500Y-34999983D01*
X107595000Y-34999983D01*
X107595000Y-34881667D01*
X107554452Y-34730339D01*
X107542709Y-34710000D01*
X108572481Y-34710000D01*
X108561266Y-34639190D01*
X108494627Y-34434098D01*
X108396728Y-34241963D01*
X108269974Y-34067503D01*
X108269974Y-34067502D01*
X108117497Y-33915025D01*
X108048900Y-33865186D01*
X154599500Y-33865186D01*
X154599500Y-34134813D01*
X154629686Y-34402719D01*
X154629688Y-34402731D01*
X154689684Y-34665594D01*
X154689687Y-34665602D01*
X154778734Y-34920082D01*
X154895714Y-35162994D01*
X154895716Y-35162997D01*
X155039162Y-35391289D01*
X155207266Y-35602085D01*
X155397915Y-35792734D01*
X155608711Y-35960838D01*
X155837003Y-36104284D01*
X156079921Y-36221267D01*
X156271049Y-36288145D01*
X156334397Y-36310312D01*
X156334405Y-36310315D01*
X156334408Y-36310315D01*
X156334409Y-36310316D01*
X156597268Y-36370312D01*
X156865187Y-36400499D01*
X156865188Y-36400500D01*
X156865191Y-36400500D01*
X157134812Y-36400500D01*
X157134812Y-36400499D01*
X157402732Y-36370312D01*
X157665591Y-36310316D01*
X157920079Y-36221267D01*
X158162997Y-36104284D01*
X158391289Y-35960838D01*
X158602085Y-35792734D01*
X158792734Y-35602085D01*
X158960838Y-35391289D01*
X159104284Y-35162997D01*
X159221267Y-34920079D01*
X159310316Y-34665591D01*
X159370312Y-34402732D01*
X159400500Y-34134809D01*
X159400500Y-33865191D01*
X159370312Y-33597268D01*
X159310316Y-33334409D01*
X159221267Y-33079921D01*
X159104284Y-32837003D01*
X158960838Y-32608711D01*
X158792734Y-32397915D01*
X158602085Y-32207266D01*
X158391289Y-32039162D01*
X158162997Y-31895716D01*
X158162994Y-31895714D01*
X157920082Y-31778734D01*
X157665602Y-31689687D01*
X157665594Y-31689684D01*
X157459829Y-31642720D01*
X157402732Y-31629688D01*
X157402728Y-31629687D01*
X157402719Y-31629686D01*
X157134813Y-31599500D01*
X157134809Y-31599500D01*
X156865191Y-31599500D01*
X156865186Y-31599500D01*
X156597280Y-31629686D01*
X156597268Y-31629688D01*
X156334405Y-31689684D01*
X156334397Y-31689687D01*
X156079917Y-31778734D01*
X155837005Y-31895714D01*
X155608712Y-32039161D01*
X155397915Y-32207265D01*
X155207265Y-32397915D01*
X155039161Y-32608712D01*
X154895714Y-32837005D01*
X154778734Y-33079917D01*
X154689687Y-33334397D01*
X154689684Y-33334405D01*
X154629688Y-33597268D01*
X154629686Y-33597280D01*
X154599500Y-33865186D01*
X108048900Y-33865186D01*
X107943036Y-33788271D01*
X107750901Y-33690372D01*
X107545809Y-33623734D01*
X107332820Y-33590000D01*
X107250000Y-33590000D01*
X107250000Y-34417290D01*
X107229661Y-34405548D01*
X107078333Y-34365000D01*
X106921667Y-34365000D01*
X106770339Y-34405548D01*
X106750000Y-34417290D01*
X106750000Y-33590000D01*
X106667180Y-33590000D01*
X106454190Y-33623734D01*
X106249098Y-33690372D01*
X106056963Y-33788271D01*
X105882503Y-33915025D01*
X105882502Y-33915025D01*
X105730025Y-34067502D01*
X105730025Y-34067503D01*
X105603271Y-34241963D01*
X105505372Y-34434098D01*
X105438733Y-34639190D01*
X105427519Y-34710000D01*
X106457291Y-34710000D01*
X106445548Y-34730339D01*
X106405000Y-34881667D01*
X106405000Y-35038333D01*
X106445548Y-35189661D01*
X106457291Y-35210000D01*
X105427519Y-35210000D01*
X105438733Y-35280809D01*
X105505372Y-35485901D01*
X105603271Y-35678036D01*
X105730025Y-35852496D01*
X105730025Y-35852497D01*
X105882502Y-36004974D01*
X106053720Y-36129372D01*
X106096385Y-36184702D01*
X106102364Y-36254316D01*
X106069758Y-36316110D01*
X106053720Y-36330008D01*
X105882177Y-36454642D01*
X105729643Y-36607176D01*
X105729643Y-36607177D01*
X105729641Y-36607179D01*
X105675186Y-36682129D01*
X105602843Y-36781700D01*
X105504909Y-36973908D01*
X105438245Y-37179077D01*
X105404500Y-37392133D01*
X105404500Y-37607866D01*
X105438245Y-37820922D01*
X105504910Y-38026096D01*
X105506775Y-38030598D01*
X105505552Y-38031104D01*
X105517328Y-38093841D01*
X105491044Y-38158579D01*
X105481629Y-38169134D01*
X103631286Y-40019478D01*
X103519481Y-40131282D01*
X103519479Y-40131285D01*
X103469361Y-40218094D01*
X103469359Y-40218096D01*
X103440425Y-40268209D01*
X103440424Y-40268210D01*
X103424544Y-40327472D01*
X103399499Y-40420943D01*
X103399499Y-40420945D01*
X103399499Y-40589046D01*
X103399500Y-40589059D01*
X103399500Y-49670939D01*
X103399499Y-49670943D01*
X103399499Y-49829057D01*
X103399500Y-49829060D01*
X103399500Y-59123330D01*
X103399499Y-59123348D01*
X103399499Y-59299046D01*
X103399500Y-59299059D01*
X103399500Y-76453330D01*
X103399499Y-76453348D01*
X103399499Y-76619054D01*
X103399498Y-76619054D01*
X103000500Y-76619054D01*
X103000500Y-32999986D01*
X115800001Y-32999986D01*
X115810494Y-33102697D01*
X115865641Y-33269119D01*
X115865643Y-33269124D01*
X115957684Y-33418345D01*
X116081654Y-33542315D01*
X116230875Y-33634356D01*
X116230880Y-33634358D01*
X116397302Y-33689505D01*
X116397309Y-33689506D01*
X116500019Y-33699999D01*
X116749999Y-33699999D01*
X117250000Y-33699999D01*
X117499972Y-33699999D01*
X117499986Y-33699998D01*
X117602697Y-33689505D01*
X117769119Y-33634358D01*
X117769124Y-33634356D01*
X117918345Y-33542315D01*
X118042315Y-33418345D01*
X118134356Y-33269124D01*
X118134358Y-33269119D01*
X118189505Y-33102697D01*
X118189506Y-33102690D01*
X118199999Y-32999986D01*
X118200000Y-32999973D01*
X118200000Y-32800000D01*
X117250000Y-32800000D01*
X117250000Y-33699999D01*
X116749999Y-33699999D01*
X116750000Y-33699998D01*
X116750000Y-32800000D01*
X115800001Y-32800000D01*
X115800001Y-32999986D01*
X103000500Y-32999986D01*
X103000500Y-32100013D01*
X115800000Y-32100013D01*
X115800000Y-32300000D01*
X116750000Y-32300000D01*
X117250000Y-32300000D01*
X118199999Y-32300000D01*
X118199999Y-32100020D01*
X118199471Y-32094855D01*
X119503180Y-32094855D01*
X119503180Y-33390590D01*
X119503181Y-33390596D01*
X119509588Y-33450203D01*
X119559882Y-33585048D01*
X119559886Y-33585055D01*
X119646132Y-33700264D01*
X119646135Y-33700267D01*
X119761344Y-33786513D01*
X119761351Y-33786517D01*
X119896197Y-33836811D01*
X119896196Y-33836811D01*
X119903124Y-33837555D01*
X119955807Y-33843220D01*
X122051552Y-33843219D01*
X122111163Y-33836811D01*
X122246011Y-33786516D01*
X122361226Y-33700266D01*
X122447476Y-33585051D01*
X122497771Y-33450203D01*
X122504180Y-33390593D01*
X122504179Y-32492719D01*
X142389564Y-32492719D01*
X142389565Y-32492720D01*
X143547994Y-32492720D01*
X143543600Y-32497114D01*
X143490939Y-32588326D01*
X143463680Y-32690059D01*
X143463680Y-32795381D01*
X143490939Y-32897114D01*
X143543600Y-32988326D01*
X143547994Y-32992720D01*
X142389565Y-32992720D01*
X142390765Y-33000304D01*
X142444271Y-33164975D01*
X142522875Y-33319244D01*
X142624647Y-33459322D01*
X142747077Y-33581752D01*
X142887155Y-33683524D01*
X143041422Y-33762128D01*
X143206095Y-33815634D01*
X143377109Y-33842720D01*
X143613680Y-33842720D01*
X143613680Y-33058406D01*
X143618074Y-33062800D01*
X143709286Y-33115461D01*
X143811019Y-33142720D01*
X143916341Y-33142720D01*
X144018074Y-33115461D01*
X144109286Y-33062800D01*
X144113680Y-33058406D01*
X144113680Y-33842720D01*
X144350251Y-33842720D01*
X144521264Y-33815634D01*
X144685939Y-33762127D01*
X144707330Y-33751228D01*
X144707331Y-33751227D01*
X144840204Y-33683524D01*
X144980282Y-33581752D01*
X145102712Y-33459322D01*
X145204484Y-33319244D01*
X145283088Y-33164975D01*
X145336594Y-33000304D01*
X145337795Y-32992720D01*
X144179366Y-32992720D01*
X144183760Y-32988326D01*
X144236421Y-32897114D01*
X144263680Y-32795381D01*
X144263680Y-32690059D01*
X144236421Y-32588326D01*
X144183760Y-32497114D01*
X144179366Y-32492720D01*
X145337795Y-32492720D01*
X145337795Y-32492719D01*
X145336594Y-32485135D01*
X145283088Y-32320464D01*
X145204484Y-32166195D01*
X145102712Y-32026117D01*
X144980282Y-31903687D01*
X144840204Y-31801915D01*
X144685937Y-31723311D01*
X144521264Y-31669805D01*
X144350251Y-31642720D01*
X144113680Y-31642720D01*
X144113680Y-32427034D01*
X144109286Y-32422640D01*
X144018074Y-32369979D01*
X143916341Y-32342720D01*
X143811019Y-32342720D01*
X143709286Y-32369979D01*
X143618074Y-32422640D01*
X143613680Y-32427034D01*
X143613680Y-31642720D01*
X143377109Y-31642720D01*
X143206095Y-31669805D01*
X143041422Y-31723311D01*
X142887155Y-31801915D01*
X142747077Y-31903687D01*
X142624647Y-32026117D01*
X142522875Y-32166195D01*
X142444271Y-32320464D01*
X142390765Y-32485135D01*
X142389564Y-32492719D01*
X122504179Y-32492719D01*
X122504179Y-32094848D01*
X122497771Y-32035237D01*
X122494369Y-32026117D01*
X122447477Y-31900391D01*
X122447473Y-31900384D01*
X122361227Y-31785175D01*
X122361224Y-31785172D01*
X122246015Y-31698926D01*
X122246008Y-31698922D01*
X122111162Y-31648628D01*
X122111163Y-31648628D01*
X122051563Y-31642221D01*
X122051561Y-31642220D01*
X122051553Y-31642220D01*
X122051544Y-31642220D01*
X119955809Y-31642220D01*
X119955803Y-31642221D01*
X119896196Y-31648628D01*
X119761351Y-31698922D01*
X119761344Y-31698926D01*
X119646135Y-31785172D01*
X119646132Y-31785175D01*
X119559886Y-31900384D01*
X119559882Y-31900391D01*
X119509588Y-32035237D01*
X119503181Y-32094836D01*
X119503181Y-32094843D01*
X119503180Y-32094855D01*
X118199471Y-32094855D01*
X118189505Y-31997302D01*
X118134358Y-31830880D01*
X118134356Y-31830875D01*
X118042315Y-31681654D01*
X117918345Y-31557684D01*
X117769124Y-31465643D01*
X117769119Y-31465641D01*
X117602697Y-31410494D01*
X117602690Y-31410493D01*
X117499986Y-31400000D01*
X117250000Y-31400000D01*
X117250000Y-32300000D01*
X116750000Y-32300000D01*
X116750000Y-31400000D01*
X116500029Y-31400000D01*
X116500012Y-31400001D01*
X116397302Y-31410494D01*
X116230880Y-31465641D01*
X116230875Y-31465643D01*
X116081654Y-31557684D01*
X115957684Y-31681654D01*
X115865643Y-31830875D01*
X115865641Y-31830880D01*
X115810494Y-31997302D01*
X115810493Y-31997309D01*
X115800000Y-32100013D01*
X103000500Y-32100013D01*
X103000500Y-31124500D01*
X103020185Y-31057461D01*
X103072989Y-31011706D01*
X103124500Y-31000500D01*
X159875500Y-31000500D01*
X159942539Y-31020185D01*
G37*
G04 #@! TD.AperFunction*
G04 #@! TD*
M02*
