G04 #@! TF.GenerationSoftware,KiCad,Pcbnew,9.0.0*
G04 #@! TF.CreationDate,2025-07-09T15:47:30-04:00*
G04 #@! TF.ProjectId,SMACAR MAIN BOARD,534d4143-4152-4204-9d41-494e20424f41,rev?*
G04 #@! TF.SameCoordinates,Original*
G04 #@! TF.FileFunction,Soldermask,Top*
G04 #@! TF.FilePolarity,Negative*
%FSLAX46Y46*%
G04 Gerber Fmt 4.6, Leading zero omitted, Abs format (unit mm)*
G04 Created by KiCad (PCBNEW 9.0.0) date 2025-07-09 15:47:30*
%MOMM*%
%LPD*%
G01*
G04 APERTURE LIST*
G04 Aperture macros list*
%AMRoundRect*
0 Rectangle with rounded corners*
0 $1 Rounding radius*
0 $2 $3 $4 $5 $6 $7 $8 $9 X,Y pos of 4 corners*
0 Add a 4 corners polygon primitive as box body*
4,1,4,$2,$3,$4,$5,$6,$7,$8,$9,$2,$3,0*
0 Add four circle primitives for the rounded corners*
1,1,$1+$1,$2,$3*
1,1,$1+$1,$4,$5*
1,1,$1+$1,$6,$7*
1,1,$1+$1,$8,$9*
0 Add four rect primitives between the rounded corners*
20,1,$1+$1,$2,$3,$4,$5,0*
20,1,$1+$1,$4,$5,$6,$7,0*
20,1,$1+$1,$6,$7,$8,$9,0*
20,1,$1+$1,$8,$9,$2,$3,0*%
G04 Aperture macros list end*
%ADD10RoundRect,0.250000X0.845000X-0.620000X0.845000X0.620000X-0.845000X0.620000X-0.845000X-0.620000X0*%
%ADD11O,2.190000X1.740000*%
%ADD12C,3.800000*%
%ADD13RoundRect,0.250000X-0.845000X0.620000X-0.845000X-0.620000X0.845000X-0.620000X0.845000X0.620000X0*%
%ADD14RoundRect,0.250000X0.450000X-0.350000X0.450000X0.350000X-0.450000X0.350000X-0.450000X-0.350000X0*%
%ADD15RoundRect,0.250000X0.450000X-0.400000X0.450000X0.400000X-0.450000X0.400000X-0.450000X-0.400000X0*%
%ADD16R,2.000000X1.200000*%
%ADD17O,2.000000X1.200000*%
G04 APERTURE END LIST*
D10*
G04 #@! TO.C,MOLEX5*
X107250000Y-79790000D03*
D11*
X107250000Y-77250000D03*
X107250000Y-74710000D03*
X107250000Y-72170000D03*
G04 #@! TD*
D12*
G04 #@! TO.C,REF\u002A\u002A*
X157000000Y-34000000D03*
G04 #@! TD*
D13*
G04 #@! TO.C,J2*
X155480000Y-52230000D03*
D11*
X155480000Y-54770000D03*
G04 #@! TD*
D14*
G04 #@! TO.C,R4_10k1*
X114500000Y-57500000D03*
X114500000Y-55500000D03*
G04 #@! TD*
D12*
G04 #@! TO.C,REF\u002A\u002A*
X106000000Y-98250000D03*
G04 #@! TD*
D15*
G04 #@! TO.C,D2*
X117000000Y-35450000D03*
X117000000Y-32550000D03*
G04 #@! TD*
D10*
G04 #@! TO.C,MOLEX2*
X107000000Y-49290000D03*
D11*
X107000000Y-46750000D03*
X107000000Y-44210000D03*
G04 #@! TD*
D10*
G04 #@! TO.C,MOLEX4*
X107250000Y-68290000D03*
D11*
X107250000Y-65750000D03*
X107250000Y-63210000D03*
G04 #@! TD*
D14*
G04 #@! TO.C,R3_10k1*
X114750000Y-71062500D03*
X114750000Y-69062500D03*
G04 #@! TD*
D16*
G04 #@! TO.C,U2*
X121003680Y-32742720D03*
D17*
X121003680Y-35282720D03*
X121003680Y-37822720D03*
X121003680Y-40362720D03*
X121003680Y-42902720D03*
X121003680Y-45442720D03*
X121003680Y-47982720D03*
X121003680Y-50522720D03*
X121003680Y-53062720D03*
X121003680Y-55602720D03*
X121003680Y-58142720D03*
X121003680Y-60682720D03*
X121003680Y-63222720D03*
X121003680Y-65762720D03*
X121003680Y-68302720D03*
X121003680Y-70842720D03*
X121003680Y-73382720D03*
X121003680Y-75922720D03*
X121003680Y-78462720D03*
X121000000Y-81000000D03*
X121000000Y-83540000D03*
X121000000Y-86080000D03*
X143863680Y-86082720D03*
X143863680Y-83542720D03*
X143863680Y-81002720D03*
X143863680Y-78462720D03*
X143863680Y-75922720D03*
X143863680Y-73382720D03*
X143863680Y-70842720D03*
X143863680Y-68302720D03*
X143863680Y-65762720D03*
X143863680Y-63222720D03*
X143863680Y-60682720D03*
X143863680Y-58142720D03*
X143863680Y-55602720D03*
X143863680Y-53062720D03*
X143863680Y-50522720D03*
X143863680Y-47982720D03*
X143863680Y-45442720D03*
X143863680Y-42902720D03*
X143863680Y-40362720D03*
X143863680Y-37822720D03*
X143863680Y-35282720D03*
X143863680Y-32742720D03*
G04 #@! TD*
D12*
G04 #@! TO.C,REF\u002A\u002A*
X157250000Y-98250000D03*
G04 #@! TD*
D10*
G04 #@! TO.C,MOLEX1*
X107000000Y-40040000D03*
D11*
X107000000Y-37500000D03*
X107000000Y-34960000D03*
G04 #@! TD*
D10*
G04 #@! TO.C,MOLEX3*
X107210000Y-58540000D03*
D11*
X107210000Y-56000000D03*
X107210000Y-53460000D03*
G04 #@! TD*
M02*
