M48
; DRILL file {KiCad 9.0.0} date 2025-07-09T15:47:30-0400
; FORMAT={-:-/ absolute / metric / decimal}
; #@! TF.CreationDate,2025-07-09T15:47:30-04:00
; #@! TF.GenerationSoftware,Kicad,Pcbnew,9.0.0
; #@! TF.FileFunction,Plated,1,2,PTH
FMAT,2
METRIC
; #@! TA.AperFunction,Plated,PTH,ViaDrill
T1C0.300
; #@! TA.AperFunction,Plated,PTH,ComponentDrill
T2C0.800
; #@! TA.AperFunction,Plated,PTH,ComponentDrill
T3C1.190
; #@! TA.AperFunction,Plated,PTH,ComponentDrill
T4C2.200
%
G90
G05
T1
X114.75Y-82.5
X116.0Y-53.75
T2
X121.0Y-81.0
X121.0Y-83.54
X121.0Y-86.08
X121.004Y-32.743
X121.004Y-35.283
X121.004Y-37.823
X121.004Y-40.363
X121.004Y-42.903
X121.004Y-45.443
X121.004Y-47.983
X121.004Y-50.523
X121.004Y-53.063
X121.004Y-55.603
X121.004Y-58.143
X121.004Y-60.683
X121.004Y-63.223
X121.004Y-65.763
X121.004Y-68.303
X121.004Y-70.843
X121.004Y-73.383
X121.004Y-75.923
X121.004Y-78.463
X143.864Y-32.743
X143.864Y-35.283
X143.864Y-37.823
X143.864Y-40.363
X143.864Y-42.903
X143.864Y-45.443
X143.864Y-47.983
X143.864Y-50.523
X143.864Y-53.063
X143.864Y-55.603
X143.864Y-58.143
X143.864Y-60.683
X143.864Y-63.223
X143.864Y-65.763
X143.864Y-68.303
X143.864Y-70.843
X143.864Y-73.383
X143.864Y-75.923
X143.864Y-78.463
X143.864Y-81.003
X143.864Y-83.543
X143.864Y-86.083
T3
X107.0Y-34.96
X107.0Y-37.5
X107.0Y-40.04
X107.0Y-44.21
X107.0Y-46.75
X107.0Y-49.29
X107.21Y-53.46
X107.21Y-56.0
X107.21Y-58.54
X107.25Y-63.21
X107.25Y-65.75
X107.25Y-68.29
X107.25Y-72.17
X107.25Y-74.71
X107.25Y-77.25
X107.25Y-79.79
X155.48Y-52.23
X155.48Y-54.77
T4
X106.0Y-98.25
X157.0Y-34.0
X157.25Y-98.25
M30
