%TF.GenerationSoftware,KiCad,Pcbnew,9.0.0*%
%TF.CreationDate,2025-07-09T15:47:30-04:00*%
%TF.ProjectId,SMACAR MAIN BOARD,534d4143-4152-4204-9d41-494e20424f41,rev?*%
%TF.SameCoordinates,Original*%
%TF.FileFunction,Drillmap*%
%TF.FilePolarity,Positive*%
%FSLAX45Y45*%
G04 Gerber Fmt 4.5, Leading zero omitted, Abs format (unit mm)*
G04 Created by KiCad (PCBNEW 9.0.0) date 2025-07-09 15:47:30*
%MOMM*%
%LPD*%
G01*
G04 APERTURE LIST*
%ADD10C,0.050000*%
%ADD11C,0.200000*%
G04 APERTURE END LIST*
D10*
X10250000Y-3050000D02*
X16050000Y-3050000D01*
X16050000Y-10150000D01*
X10250000Y-10150000D01*
X10250000Y-3050000D01*
D11*
X10508277Y-10463984D02*
X10508277Y-10263984D01*
X10508277Y-10263984D02*
X10555896Y-10263984D01*
X10555896Y-10263984D02*
X10584467Y-10273508D01*
X10584467Y-10273508D02*
X10603515Y-10292555D01*
X10603515Y-10292555D02*
X10613039Y-10311603D01*
X10613039Y-10311603D02*
X10622563Y-10349698D01*
X10622563Y-10349698D02*
X10622563Y-10378270D01*
X10622563Y-10378270D02*
X10613039Y-10416365D01*
X10613039Y-10416365D02*
X10603515Y-10435412D01*
X10603515Y-10435412D02*
X10584467Y-10454460D01*
X10584467Y-10454460D02*
X10555896Y-10463984D01*
X10555896Y-10463984D02*
X10508277Y-10463984D01*
X10708277Y-10463984D02*
X10708277Y-10330650D01*
X10708277Y-10368746D02*
X10717801Y-10349698D01*
X10717801Y-10349698D02*
X10727324Y-10340174D01*
X10727324Y-10340174D02*
X10746372Y-10330650D01*
X10746372Y-10330650D02*
X10765420Y-10330650D01*
X10832086Y-10463984D02*
X10832086Y-10330650D01*
X10832086Y-10263984D02*
X10822563Y-10273508D01*
X10822563Y-10273508D02*
X10832086Y-10283031D01*
X10832086Y-10283031D02*
X10841610Y-10273508D01*
X10841610Y-10273508D02*
X10832086Y-10263984D01*
X10832086Y-10263984D02*
X10832086Y-10283031D01*
X10955896Y-10463984D02*
X10936848Y-10454460D01*
X10936848Y-10454460D02*
X10927324Y-10435412D01*
X10927324Y-10435412D02*
X10927324Y-10263984D01*
X11060658Y-10463984D02*
X11041610Y-10454460D01*
X11041610Y-10454460D02*
X11032086Y-10435412D01*
X11032086Y-10435412D02*
X11032086Y-10263984D01*
X11289229Y-10463984D02*
X11289229Y-10263984D01*
X11289229Y-10263984D02*
X11355896Y-10406841D01*
X11355896Y-10406841D02*
X11422562Y-10263984D01*
X11422562Y-10263984D02*
X11422562Y-10463984D01*
X11603515Y-10463984D02*
X11603515Y-10359222D01*
X11603515Y-10359222D02*
X11593991Y-10340174D01*
X11593991Y-10340174D02*
X11574943Y-10330650D01*
X11574943Y-10330650D02*
X11536848Y-10330650D01*
X11536848Y-10330650D02*
X11517801Y-10340174D01*
X11603515Y-10454460D02*
X11584467Y-10463984D01*
X11584467Y-10463984D02*
X11536848Y-10463984D01*
X11536848Y-10463984D02*
X11517801Y-10454460D01*
X11517801Y-10454460D02*
X11508277Y-10435412D01*
X11508277Y-10435412D02*
X11508277Y-10416365D01*
X11508277Y-10416365D02*
X11517801Y-10397317D01*
X11517801Y-10397317D02*
X11536848Y-10387793D01*
X11536848Y-10387793D02*
X11584467Y-10387793D01*
X11584467Y-10387793D02*
X11603515Y-10378270D01*
X11698753Y-10330650D02*
X11698753Y-10530650D01*
X11698753Y-10340174D02*
X11717801Y-10330650D01*
X11717801Y-10330650D02*
X11755896Y-10330650D01*
X11755896Y-10330650D02*
X11774943Y-10340174D01*
X11774943Y-10340174D02*
X11784467Y-10349698D01*
X11784467Y-10349698D02*
X11793991Y-10368746D01*
X11793991Y-10368746D02*
X11793991Y-10425889D01*
X11793991Y-10425889D02*
X11784467Y-10444936D01*
X11784467Y-10444936D02*
X11774943Y-10454460D01*
X11774943Y-10454460D02*
X11755896Y-10463984D01*
X11755896Y-10463984D02*
X11717801Y-10463984D01*
X11717801Y-10463984D02*
X11698753Y-10454460D01*
X11879705Y-10444936D02*
X11889229Y-10454460D01*
X11889229Y-10454460D02*
X11879705Y-10463984D01*
X11879705Y-10463984D02*
X11870182Y-10454460D01*
X11870182Y-10454460D02*
X11879705Y-10444936D01*
X11879705Y-10444936D02*
X11879705Y-10463984D01*
X11879705Y-10340174D02*
X11889229Y-10349698D01*
X11889229Y-10349698D02*
X11879705Y-10359222D01*
X11879705Y-10359222D02*
X11870182Y-10349698D01*
X11870182Y-10349698D02*
X11879705Y-10340174D01*
X11879705Y-10340174D02*
X11879705Y-10359222D01*
M02*
