M48
; DRILL file {KiCad 9.0.0} date 2025-07-09T15:49:07-0400
; FORMAT={-:-/ absolute / metric / decimal}
; #@! TF.CreationDate,2025-07-09T15:49:07-04:00
; #@! TF.GenerationSoftware,Kicad,Pcbnew,9.0.0
; #@! TF.FileFunction,Plated,1,2,PTH
FMAT,2
METRIC
; #@! TA.AperFunction,Plated,PTH,ComponentDrill
T1C0.800
; #@! TA.AperFunction,Plated,PTH,ComponentDrill
T2C1.190
; #@! TA.AperFunction,Plated,PTH,ComponentDrill
T3C2.200
%
G90
G05
T1
X138.666Y-99.415
X138.666Y-101.955
X138.666Y-104.495
X138.67Y-51.158
X138.67Y-53.698
X138.67Y-56.238
X138.67Y-58.778
X138.67Y-61.318
X138.67Y-63.858
X138.67Y-66.398
X138.67Y-68.938
X138.67Y-71.478
X138.67Y-74.018
X138.67Y-76.558
X138.67Y-79.098
X138.67Y-81.638
X138.67Y-84.178
X138.67Y-86.718
X138.67Y-89.258
X138.67Y-91.798
X138.67Y-94.338
X138.67Y-96.878
X161.53Y-51.158
X161.53Y-53.698
X161.53Y-56.238
X161.53Y-58.778
X161.53Y-61.318
X161.53Y-63.858
X161.53Y-66.398
X161.53Y-68.938
X161.53Y-71.478
X161.53Y-74.018
X161.53Y-76.558
X161.53Y-79.098
X161.53Y-81.638
X161.53Y-84.178
X161.53Y-86.718
X161.53Y-89.258
X161.53Y-91.798
X161.53Y-94.338
X161.53Y-96.878
X161.53Y-99.418
X161.53Y-101.958
X161.53Y-104.498
T2
X127.02Y-78.69
X127.02Y-81.23
X127.02Y-83.77
X127.02Y-86.31
X128.02Y-94.73
X128.02Y-97.27
T3
X126.5Y-52.5
X126.75Y-116.75
X162.0Y-117.0
M30
