G04 #@! TF.GenerationSoftware,KiCad,Pcbnew,9.0.0*
G04 #@! TF.CreationDate,2025-07-09T15:49:06-04:00*
G04 #@! TF.ProjectId,SMACAR RECEIVER BOARD,534d4143-4152-4205-9245-434549564552,rev?*
G04 #@! TF.SameCoordinates,Original*
G04 #@! TF.FileFunction,Copper,L1,Top*
G04 #@! TF.FilePolarity,Positive*
%FSLAX46Y46*%
G04 Gerber Fmt 4.6, Leading zero omitted, Abs format (unit mm)*
G04 Created by KiCad (PCBNEW 9.0.0) date 2025-07-09 15:49:06*
%MOMM*%
%LPD*%
G01*
G04 APERTURE LIST*
G04 Aperture macros list*
%AMRoundRect*
0 Rectangle with rounded corners*
0 $1 Rounding radius*
0 $2 $3 $4 $5 $6 $7 $8 $9 X,Y pos of 4 corners*
0 Add a 4 corners polygon primitive as box body*
4,1,4,$2,$3,$4,$5,$6,$7,$8,$9,$2,$3,0*
0 Add four circle primitives for the rounded corners*
1,1,$1+$1,$2,$3*
1,1,$1+$1,$4,$5*
1,1,$1+$1,$6,$7*
1,1,$1+$1,$8,$9*
0 Add four rect primitives between the rounded corners*
20,1,$1+$1,$2,$3,$4,$5,0*
20,1,$1+$1,$4,$5,$6,$7,0*
20,1,$1+$1,$6,$7,$8,$9,0*
20,1,$1+$1,$8,$9,$2,$3,0*%
G04 Aperture macros list end*
G04 #@! TA.AperFunction,ComponentPad*
%ADD10C,3.800000*%
G04 #@! TD*
G04 #@! TA.AperFunction,SMDPad,CuDef*
%ADD11RoundRect,0.250000X0.262500X0.450000X-0.262500X0.450000X-0.262500X-0.450000X0.262500X-0.450000X0*%
G04 #@! TD*
G04 #@! TA.AperFunction,ComponentPad*
%ADD12RoundRect,0.250000X0.845000X-0.620000X0.845000X0.620000X-0.845000X0.620000X-0.845000X-0.620000X0*%
G04 #@! TD*
G04 #@! TA.AperFunction,ComponentPad*
%ADD13O,2.190000X1.740000*%
G04 #@! TD*
G04 #@! TA.AperFunction,ComponentPad*
%ADD14R,2.000000X1.200000*%
G04 #@! TD*
G04 #@! TA.AperFunction,ComponentPad*
%ADD15O,2.000000X1.200000*%
G04 #@! TD*
G04 #@! TA.AperFunction,Conductor*
%ADD16C,0.200000*%
G04 #@! TD*
G04 APERTURE END LIST*
D10*
G04 #@! TO.P,REF\u002A\u002A,1*
G04 #@! TO.N,N/C*
X126750000Y-116750000D03*
G04 #@! TD*
D11*
G04 #@! TO.P,R3,1*
G04 #@! TO.N,SDA*
X134912500Y-79000000D03*
G04 #@! TO.P,R3,2*
G04 #@! TO.N,Net-(D2-A1)*
X133087500Y-79000000D03*
G04 #@! TD*
D10*
G04 #@! TO.P,REF\u002A\u002A,1*
G04 #@! TO.N,N/C*
X162000000Y-117000000D03*
G04 #@! TD*
G04 #@! TO.P,REF\u002A\u002A,1*
G04 #@! TO.N,N/C*
X126500000Y-52500000D03*
G04 #@! TD*
D12*
G04 #@! TO.P,J1,1,1*
G04 #@! TO.N,5V*
X127020000Y-86310000D03*
D13*
G04 #@! TO.P,J1,2,2*
G04 #@! TO.N,GND*
X127020000Y-83770000D03*
G04 #@! TO.P,J1,3,3*
G04 #@! TO.N,SCL*
X127020000Y-81230000D03*
G04 #@! TO.P,J1,4,4*
G04 #@! TO.N,SDA*
X127020000Y-78690000D03*
G04 #@! TD*
D14*
G04 #@! TO.P,U1,1,3V3*
G04 #@! TO.N,Net-(D2-A1)*
X138670000Y-51157920D03*
D15*
G04 #@! TO.P,U1,2,3V3*
X138670000Y-53697920D03*
G04 #@! TO.P,U1,3,CHIP_PU*
G04 #@! TO.N,unconnected-(U1-CHIP_PU-Pad3)*
X138670000Y-56237920D03*
G04 #@! TO.P,U1,4,GPIO4/ADC1_CH3*
G04 #@! TO.N,unconnected-(U1-GPIO4{slash}ADC1_CH3-Pad4)*
X138670000Y-58777920D03*
G04 #@! TO.P,U1,5,GPIO5/ADC1_CH4*
G04 #@! TO.N,unconnected-(U1-GPIO5{slash}ADC1_CH4-Pad5)*
X138670000Y-61317920D03*
G04 #@! TO.P,U1,6,GPIO6/ADC1_CH5*
G04 #@! TO.N,unconnected-(U1-GPIO6{slash}ADC1_CH5-Pad6)*
X138670000Y-63857920D03*
G04 #@! TO.P,U1,7,GPIO7/ADC1_CH6*
G04 #@! TO.N,unconnected-(U1-GPIO7{slash}ADC1_CH6-Pad7)*
X138670000Y-66397920D03*
G04 #@! TO.P,U1,8,GPIO15/ADC2_CH4/32K_P*
G04 #@! TO.N,unconnected-(U1-GPIO15{slash}ADC2_CH4{slash}32K_P-Pad8)*
X138670000Y-68937920D03*
G04 #@! TO.P,U1,9,GPIO16/ADC2_CH5/32K_N*
G04 #@! TO.N,unconnected-(U1-GPIO16{slash}ADC2_CH5{slash}32K_N-Pad9)*
X138670000Y-71477920D03*
G04 #@! TO.P,U1,10,GPIO17/ADC2_CH6*
G04 #@! TO.N,unconnected-(U1-GPIO17{slash}ADC2_CH6-Pad10)*
X138670000Y-74017920D03*
G04 #@! TO.P,U1,11,GPIO18/ADC2_CH7*
G04 #@! TO.N,unconnected-(U1-GPIO18{slash}ADC2_CH7-Pad11)*
X138670000Y-76557920D03*
G04 #@! TO.P,U1,12,GPIO8/ADC1_CH7*
G04 #@! TO.N,SDA*
X138670000Y-79097920D03*
G04 #@! TO.P,U1,13,GPIO3/ADC1_CH2*
G04 #@! TO.N,unconnected-(U1-GPIO3{slash}ADC1_CH2-Pad13)*
X138670000Y-81637920D03*
G04 #@! TO.P,U1,14,GPIO46*
G04 #@! TO.N,unconnected-(U1-GPIO46-Pad14)*
X138670000Y-84177920D03*
G04 #@! TO.P,U1,15,GPIO9/ADC1_CH8*
G04 #@! TO.N,SCL*
X138670000Y-86717920D03*
G04 #@! TO.P,U1,16,GPIO10/ADC1_CH9*
G04 #@! TO.N,unconnected-(U1-GPIO10{slash}ADC1_CH9-Pad16)*
X138670000Y-89257920D03*
G04 #@! TO.P,U1,17,GPIO11/ADC2_CH0*
G04 #@! TO.N,unconnected-(U1-GPIO11{slash}ADC2_CH0-Pad17)*
X138670000Y-91797920D03*
G04 #@! TO.P,U1,18,GPIO12/ADC2_CH1*
G04 #@! TO.N,unconnected-(U1-GPIO12{slash}ADC2_CH1-Pad18)*
X138670000Y-94337920D03*
G04 #@! TO.P,U1,19,GPIO13/ADC2_CH2*
G04 #@! TO.N,unconnected-(U1-GPIO13{slash}ADC2_CH2-Pad19)*
X138670000Y-96877920D03*
G04 #@! TO.P,U1,20,GPIO14/ADC2_CH3*
G04 #@! TO.N,unconnected-(U1-GPIO14{slash}ADC2_CH3-Pad20)*
X138666320Y-99415200D03*
G04 #@! TO.P,U1,21,5V*
G04 #@! TO.N,5V*
X138666320Y-101955200D03*
G04 #@! TO.P,U1,22,GND*
G04 #@! TO.N,GND*
X138666320Y-104495200D03*
G04 #@! TO.P,U1,23,GND*
X161530000Y-104497920D03*
G04 #@! TO.P,U1,24,GND*
X161530000Y-101957920D03*
G04 #@! TO.P,U1,25,GPIO19/USB_D-*
G04 #@! TO.N,unconnected-(U1-GPIO19{slash}USB_D--Pad25)*
X161530000Y-99417920D03*
G04 #@! TO.P,U1,26,GPIO20/USB_D+*
G04 #@! TO.N,unconnected-(U1-GPIO20{slash}USB_D+-Pad26)*
X161530000Y-96877920D03*
G04 #@! TO.P,U1,27,GPIO21*
G04 #@! TO.N,unconnected-(U1-GPIO21-Pad27)*
X161530000Y-94337920D03*
G04 #@! TO.P,U1,28,GPIO47*
G04 #@! TO.N,unconnected-(U1-GPIO47-Pad28)*
X161530000Y-91797920D03*
G04 #@! TO.P,U1,29,GPIO48*
G04 #@! TO.N,unconnected-(U1-GPIO48-Pad29)*
X161530000Y-89257920D03*
G04 #@! TO.P,U1,30,GPIO45*
G04 #@! TO.N,unconnected-(U1-GPIO45-Pad30)*
X161530000Y-86717920D03*
G04 #@! TO.P,U1,31,GPIO0*
G04 #@! TO.N,unconnected-(U1-GPIO0-Pad31)*
X161530000Y-84177920D03*
G04 #@! TO.P,U1,32,GPIO35*
G04 #@! TO.N,unconnected-(U1-GPIO35-Pad32)*
X161530000Y-81637920D03*
G04 #@! TO.P,U1,33,GPIO36*
G04 #@! TO.N,unconnected-(U1-GPIO36-Pad33)*
X161530000Y-79097920D03*
G04 #@! TO.P,U1,34,GPIO37*
G04 #@! TO.N,unconnected-(U1-GPIO37-Pad34)*
X161530000Y-76557920D03*
G04 #@! TO.P,U1,35,GPIO38*
G04 #@! TO.N,unconnected-(U1-GPIO38-Pad35)*
X161530000Y-74017920D03*
G04 #@! TO.P,U1,36,GPIO39/MTCK*
G04 #@! TO.N,unconnected-(U1-GPIO39{slash}MTCK-Pad36)*
X161530000Y-71477920D03*
G04 #@! TO.P,U1,37,GPIO40/MTDO*
G04 #@! TO.N,unconnected-(U1-GPIO40{slash}MTDO-Pad37)*
X161530000Y-68937920D03*
G04 #@! TO.P,U1,38,GPIO41/MTDI*
G04 #@! TO.N,unconnected-(U1-GPIO41{slash}MTDI-Pad38)*
X161530000Y-66397920D03*
G04 #@! TO.P,U1,39,GPIO42/MTMS*
G04 #@! TO.N,unconnected-(U1-GPIO42{slash}MTMS-Pad39)*
X161530000Y-63857920D03*
G04 #@! TO.P,U1,40,GPIO2/ADC1_CH1*
G04 #@! TO.N,unconnected-(U1-GPIO2{slash}ADC1_CH1-Pad40)*
X161530000Y-61317920D03*
G04 #@! TO.P,U1,41,GPIO1/ADC1_CH0*
G04 #@! TO.N,unconnected-(U1-GPIO1{slash}ADC1_CH0-Pad41)*
X161530000Y-58777920D03*
G04 #@! TO.P,U1,42,GPIO44/U0RXD*
G04 #@! TO.N,unconnected-(U1-GPIO44{slash}U0RXD-Pad42)*
X161530000Y-56237920D03*
G04 #@! TO.P,U1,43,GPIO43/U0TXD*
G04 #@! TO.N,unconnected-(U1-GPIO43{slash}U0TXD-Pad43)*
X161530000Y-53697920D03*
G04 #@! TO.P,U1,44,GND*
G04 #@! TO.N,GND*
X161530000Y-51157920D03*
G04 #@! TD*
D12*
G04 #@! TO.P,J2,1,Pin_1*
G04 #@! TO.N,GND*
X128020000Y-97270000D03*
D13*
G04 #@! TO.P,J2,2,Pin_2*
G04 #@! TO.N,5V*
X128020000Y-94730000D03*
G04 #@! TD*
D11*
G04 #@! TO.P,R4,1*
G04 #@! TO.N,SCL*
X134912500Y-87000000D03*
G04 #@! TO.P,R4,2*
G04 #@! TO.N,Net-(D2-A1)*
X133087500Y-87000000D03*
G04 #@! TD*
D16*
G04 #@! TO.N,5V*
X128020000Y-94730000D02*
X131441120Y-94730000D01*
X128020000Y-87310000D02*
X127020000Y-86310000D01*
X128020000Y-94730000D02*
X128020000Y-87310000D01*
X131441120Y-94730000D02*
X138666320Y-101955200D01*
G04 #@! TO.N,SCL*
X134912500Y-87000000D02*
X138387920Y-87000000D01*
X138387920Y-87000000D02*
X138670000Y-86717920D01*
G04 #@! TO.N,SDA*
X134912500Y-79000000D02*
X138572080Y-79000000D01*
X138572080Y-79000000D02*
X138670000Y-79097920D01*
G04 #@! TO.N,Net-(D2-A1)*
X133087500Y-87000000D02*
X133000000Y-86912500D01*
X138670000Y-51157920D02*
X138670000Y-53697920D01*
X133087500Y-87000000D02*
X133087500Y-79000000D01*
X134342080Y-51157920D02*
X133087500Y-52412500D01*
X133087500Y-52412500D02*
X133087500Y-79000000D01*
X138670000Y-51157920D02*
X134342080Y-51157920D01*
G04 #@! TD*
G04 #@! TA.AperFunction,Conductor*
G04 #@! TO.N,GND*
G36*
X137281397Y-50020185D02*
G01*
X137327152Y-50072989D01*
X137337096Y-50142147D01*
X137313624Y-50198812D01*
X137312455Y-50200372D01*
X137312454Y-50200374D01*
X137271817Y-50254656D01*
X137226204Y-50315588D01*
X137226202Y-50315591D01*
X137175908Y-50450437D01*
X137174126Y-50457982D01*
X137171853Y-50457445D01*
X137149571Y-50511232D01*
X137092177Y-50551077D01*
X137053024Y-50557420D01*
X134421137Y-50557420D01*
X134263023Y-50557420D01*
X134110295Y-50598343D01*
X134110294Y-50598343D01*
X134110292Y-50598344D01*
X134110289Y-50598345D01*
X134060176Y-50627279D01*
X134060175Y-50627280D01*
X134016769Y-50652340D01*
X133973365Y-50677399D01*
X133973362Y-50677401D01*
X132606981Y-52043782D01*
X132606977Y-52043787D01*
X132565595Y-52115465D01*
X132565595Y-52115466D01*
X132527923Y-52180714D01*
X132522296Y-52201716D01*
X132486999Y-52333443D01*
X132486999Y-52333445D01*
X132486999Y-52501546D01*
X132487000Y-52501559D01*
X132487000Y-77807491D01*
X132467315Y-77874530D01*
X132428098Y-77913029D01*
X132356344Y-77957287D01*
X132232289Y-78081342D01*
X132140187Y-78230663D01*
X132140185Y-78230668D01*
X132130960Y-78258508D01*
X132085001Y-78397203D01*
X132085001Y-78397204D01*
X132085000Y-78397204D01*
X132074500Y-78499983D01*
X132074500Y-79500001D01*
X132074501Y-79500019D01*
X132085000Y-79602796D01*
X132085001Y-79602799D01*
X132128927Y-79735356D01*
X132140186Y-79769334D01*
X132232288Y-79918656D01*
X132356344Y-80042712D01*
X132428096Y-80086968D01*
X132474821Y-80138915D01*
X132487000Y-80192507D01*
X132487000Y-85807491D01*
X132467315Y-85874530D01*
X132428098Y-85913029D01*
X132356344Y-85957287D01*
X132232289Y-86081342D01*
X132140187Y-86230663D01*
X132140186Y-86230666D01*
X132085001Y-86397203D01*
X132085001Y-86397204D01*
X132085000Y-86397204D01*
X132074500Y-86499983D01*
X132074500Y-87500001D01*
X132074501Y-87500019D01*
X132085000Y-87602796D01*
X132085001Y-87602799D01*
X132117272Y-87700184D01*
X132140186Y-87769334D01*
X132232288Y-87918656D01*
X132356344Y-88042712D01*
X132505666Y-88134814D01*
X132672203Y-88189999D01*
X132774991Y-88200500D01*
X133400008Y-88200499D01*
X133400016Y-88200498D01*
X133400019Y-88200498D01*
X133456302Y-88194748D01*
X133502797Y-88189999D01*
X133669334Y-88134814D01*
X133818656Y-88042712D01*
X133912319Y-87949049D01*
X133973642Y-87915564D01*
X134043334Y-87920548D01*
X134087681Y-87949049D01*
X134181344Y-88042712D01*
X134330666Y-88134814D01*
X134497203Y-88189999D01*
X134599991Y-88200500D01*
X135225008Y-88200499D01*
X135225016Y-88200498D01*
X135225019Y-88200498D01*
X135281302Y-88194748D01*
X135327797Y-88189999D01*
X135494334Y-88134814D01*
X135643656Y-88042712D01*
X135767712Y-87918656D01*
X135859814Y-87769334D01*
X135887595Y-87685495D01*
X135927368Y-87628051D01*
X135991884Y-87601228D01*
X136005301Y-87600500D01*
X137572194Y-87600500D01*
X137639233Y-87620185D01*
X137645079Y-87624182D01*
X137688713Y-87655883D01*
X137693212Y-87659152D01*
X137847555Y-87737793D01*
X138012299Y-87791322D01*
X138183389Y-87818420D01*
X138183390Y-87818420D01*
X139156610Y-87818420D01*
X139156611Y-87818420D01*
X139327701Y-87791322D01*
X139492445Y-87737793D01*
X139646788Y-87659152D01*
X139786928Y-87557334D01*
X139909414Y-87434848D01*
X140011232Y-87294708D01*
X140089873Y-87140365D01*
X140143402Y-86975621D01*
X140170500Y-86804531D01*
X140170500Y-86631309D01*
X160029500Y-86631309D01*
X160029500Y-86804531D01*
X160056598Y-86975621D01*
X160110127Y-87140365D01*
X160188768Y-87294708D01*
X160290586Y-87434848D01*
X160413072Y-87557334D01*
X160553212Y-87659152D01*
X160707555Y-87737793D01*
X160872299Y-87791322D01*
X161043389Y-87818420D01*
X161043390Y-87818420D01*
X162016610Y-87818420D01*
X162016611Y-87818420D01*
X162187701Y-87791322D01*
X162352445Y-87737793D01*
X162506788Y-87659152D01*
X162646928Y-87557334D01*
X162769414Y-87434848D01*
X162871232Y-87294708D01*
X162949873Y-87140365D01*
X163003402Y-86975621D01*
X163030500Y-86804531D01*
X163030500Y-86631309D01*
X163003402Y-86460219D01*
X162949873Y-86295475D01*
X162871232Y-86141132D01*
X162769414Y-86000992D01*
X162646928Y-85878506D01*
X162506788Y-85776688D01*
X162352445Y-85698047D01*
X162187701Y-85644518D01*
X162187699Y-85644517D01*
X162187698Y-85644517D01*
X162056271Y-85623701D01*
X162016611Y-85617420D01*
X161043389Y-85617420D01*
X161003728Y-85623701D01*
X160872302Y-85644517D01*
X160707552Y-85698048D01*
X160553211Y-85776688D01*
X160473256Y-85834779D01*
X160413072Y-85878506D01*
X160413070Y-85878508D01*
X160413069Y-85878508D01*
X160290588Y-86000989D01*
X160290588Y-86000990D01*
X160290586Y-86000992D01*
X160246859Y-86061176D01*
X160188768Y-86141131D01*
X160110128Y-86295472D01*
X160056597Y-86460222D01*
X160029500Y-86631309D01*
X140170500Y-86631309D01*
X140143402Y-86460219D01*
X140089873Y-86295475D01*
X140011232Y-86141132D01*
X139909414Y-86000992D01*
X139786928Y-85878506D01*
X139646788Y-85776688D01*
X139492445Y-85698047D01*
X139327701Y-85644518D01*
X139327699Y-85644517D01*
X139327698Y-85644517D01*
X139196271Y-85623701D01*
X139156611Y-85617420D01*
X138183389Y-85617420D01*
X138143728Y-85623701D01*
X138012302Y-85644517D01*
X137847552Y-85698048D01*
X137693211Y-85776688D01*
X137613256Y-85834779D01*
X137553072Y-85878506D01*
X137553070Y-85878508D01*
X137553069Y-85878508D01*
X137430588Y-86000989D01*
X137430588Y-86000990D01*
X137430586Y-86000992D01*
X137386859Y-86061176D01*
X137328768Y-86141131D01*
X137250129Y-86295469D01*
X137250127Y-86295474D01*
X137250127Y-86295475D01*
X137244165Y-86313821D01*
X137204728Y-86371495D01*
X137140369Y-86398692D01*
X137126236Y-86399500D01*
X136005301Y-86399500D01*
X135938262Y-86379815D01*
X135892507Y-86327011D01*
X135887595Y-86314504D01*
X135859814Y-86230666D01*
X135767712Y-86081344D01*
X135643656Y-85957288D01*
X135515933Y-85878508D01*
X135494336Y-85865187D01*
X135494331Y-85865185D01*
X135451840Y-85851105D01*
X135327797Y-85810001D01*
X135327795Y-85810000D01*
X135225010Y-85799500D01*
X134599998Y-85799500D01*
X134599980Y-85799501D01*
X134497203Y-85810000D01*
X134497200Y-85810001D01*
X134330668Y-85865185D01*
X134330663Y-85865187D01*
X134181342Y-85957289D01*
X134087681Y-86050951D01*
X134084902Y-86052468D01*
X134083249Y-86055170D01*
X134054435Y-86069104D01*
X134026358Y-86084436D01*
X134023200Y-86084210D01*
X134020349Y-86085589D01*
X133988580Y-86081734D01*
X133956666Y-86079452D01*
X133953188Y-86077439D01*
X133950988Y-86077173D01*
X133940886Y-86070323D01*
X133920884Y-86058751D01*
X133916420Y-86055052D01*
X133818656Y-85957288D01*
X133739548Y-85908494D01*
X133732884Y-85902972D01*
X133717992Y-85880887D01*
X133700178Y-85861081D01*
X133697911Y-85851105D01*
X133693822Y-85845041D01*
X133693530Y-85831828D01*
X133688000Y-85807491D01*
X133688000Y-84091309D01*
X137169500Y-84091309D01*
X137169500Y-84264531D01*
X137196598Y-84435621D01*
X137250127Y-84600365D01*
X137328768Y-84754708D01*
X137430586Y-84894848D01*
X137553072Y-85017334D01*
X137693212Y-85119152D01*
X137847555Y-85197793D01*
X138012299Y-85251322D01*
X138183389Y-85278420D01*
X138183390Y-85278420D01*
X139156610Y-85278420D01*
X139156611Y-85278420D01*
X139327701Y-85251322D01*
X139492445Y-85197793D01*
X139646788Y-85119152D01*
X139786928Y-85017334D01*
X139909414Y-84894848D01*
X140011232Y-84754708D01*
X140089873Y-84600365D01*
X140143402Y-84435621D01*
X140170500Y-84264531D01*
X140170500Y-84091309D01*
X160029500Y-84091309D01*
X160029500Y-84264531D01*
X160056598Y-84435621D01*
X160110127Y-84600365D01*
X160188768Y-84754708D01*
X160290586Y-84894848D01*
X160413072Y-85017334D01*
X160553212Y-85119152D01*
X160707555Y-85197793D01*
X160872299Y-85251322D01*
X161043389Y-85278420D01*
X161043390Y-85278420D01*
X162016610Y-85278420D01*
X162016611Y-85278420D01*
X162187701Y-85251322D01*
X162352445Y-85197793D01*
X162506788Y-85119152D01*
X162646928Y-85017334D01*
X162769414Y-84894848D01*
X162871232Y-84754708D01*
X162949873Y-84600365D01*
X163003402Y-84435621D01*
X163030500Y-84264531D01*
X163030500Y-84091309D01*
X163003402Y-83920219D01*
X162949873Y-83755475D01*
X162871232Y-83601132D01*
X162769414Y-83460992D01*
X162646928Y-83338506D01*
X162506788Y-83236688D01*
X162352445Y-83158047D01*
X162187701Y-83104518D01*
X162187699Y-83104517D01*
X162187698Y-83104517D01*
X162056271Y-83083701D01*
X162016611Y-83077420D01*
X161043389Y-83077420D01*
X161003728Y-83083701D01*
X160872302Y-83104517D01*
X160707552Y-83158048D01*
X160553211Y-83236688D01*
X160474491Y-83293882D01*
X160413072Y-83338506D01*
X160413070Y-83338508D01*
X160413069Y-83338508D01*
X160290588Y-83460989D01*
X160290588Y-83460990D01*
X160290586Y-83460992D01*
X160247714Y-83520000D01*
X160188768Y-83601131D01*
X160110128Y-83755472D01*
X160056597Y-83920222D01*
X160040794Y-84020000D01*
X160029500Y-84091309D01*
X140170500Y-84091309D01*
X140143402Y-83920219D01*
X140089873Y-83755475D01*
X140011232Y-83601132D01*
X139909414Y-83460992D01*
X139786928Y-83338506D01*
X139646788Y-83236688D01*
X139492445Y-83158047D01*
X139327701Y-83104518D01*
X139327699Y-83104517D01*
X139327698Y-83104517D01*
X139196271Y-83083701D01*
X139156611Y-83077420D01*
X138183389Y-83077420D01*
X138143728Y-83083701D01*
X138012302Y-83104517D01*
X137847552Y-83158048D01*
X137693211Y-83236688D01*
X137614491Y-83293882D01*
X137553072Y-83338506D01*
X137553070Y-83338508D01*
X137553069Y-83338508D01*
X137430588Y-83460989D01*
X137430588Y-83460990D01*
X137430586Y-83460992D01*
X137387714Y-83520000D01*
X137328768Y-83601131D01*
X137250128Y-83755472D01*
X137196597Y-83920222D01*
X137180794Y-84020000D01*
X137169500Y-84091309D01*
X133688000Y-84091309D01*
X133688000Y-81551309D01*
X137169500Y-81551309D01*
X137169500Y-81724531D01*
X137196598Y-81895621D01*
X137250127Y-82060365D01*
X137328768Y-82214708D01*
X137430586Y-82354848D01*
X137553072Y-82477334D01*
X137693212Y-82579152D01*
X137847555Y-82657793D01*
X138012299Y-82711322D01*
X138183389Y-82738420D01*
X138183390Y-82738420D01*
X139156610Y-82738420D01*
X139156611Y-82738420D01*
X139327701Y-82711322D01*
X139492445Y-82657793D01*
X139646788Y-82579152D01*
X139786928Y-82477334D01*
X139909414Y-82354848D01*
X140011232Y-82214708D01*
X140089873Y-82060365D01*
X140143402Y-81895621D01*
X140170500Y-81724531D01*
X140170500Y-81551309D01*
X160029500Y-81551309D01*
X160029500Y-81724531D01*
X160056598Y-81895621D01*
X160110127Y-82060365D01*
X160188768Y-82214708D01*
X160290586Y-82354848D01*
X160413072Y-82477334D01*
X160553212Y-82579152D01*
X160707555Y-82657793D01*
X160872299Y-82711322D01*
X161043389Y-82738420D01*
X161043390Y-82738420D01*
X162016610Y-82738420D01*
X162016611Y-82738420D01*
X162187701Y-82711322D01*
X162352445Y-82657793D01*
X162506788Y-82579152D01*
X162646928Y-82477334D01*
X162769414Y-82354848D01*
X162871232Y-82214708D01*
X162949873Y-82060365D01*
X163003402Y-81895621D01*
X163030500Y-81724531D01*
X163030500Y-81551309D01*
X163003402Y-81380219D01*
X162949873Y-81215475D01*
X162871232Y-81061132D01*
X162769414Y-80920992D01*
X162646928Y-80798506D01*
X162506788Y-80696688D01*
X162352445Y-80618047D01*
X162187701Y-80564518D01*
X162187699Y-80564517D01*
X162187698Y-80564517D01*
X162056271Y-80543701D01*
X162016611Y-80537420D01*
X161043389Y-80537420D01*
X161003728Y-80543701D01*
X160872302Y-80564517D01*
X160707552Y-80618048D01*
X160553211Y-80696688D01*
X160543270Y-80703911D01*
X160413072Y-80798506D01*
X160413070Y-80798508D01*
X160413069Y-80798508D01*
X160290588Y-80920989D01*
X160290588Y-80920990D01*
X160290586Y-80920992D01*
X160246859Y-80981176D01*
X160188768Y-81061131D01*
X160110128Y-81215472D01*
X160056597Y-81380222D01*
X160029561Y-81550922D01*
X160029500Y-81551309D01*
X140170500Y-81551309D01*
X140143402Y-81380219D01*
X140089873Y-81215475D01*
X140011232Y-81061132D01*
X139909414Y-80920992D01*
X139786928Y-80798506D01*
X139646788Y-80696688D01*
X139492445Y-80618047D01*
X139327701Y-80564518D01*
X139327699Y-80564517D01*
X139327698Y-80564517D01*
X139196271Y-80543701D01*
X139156611Y-80537420D01*
X138183389Y-80537420D01*
X138143728Y-80543701D01*
X138012302Y-80564517D01*
X137847552Y-80618048D01*
X137693211Y-80696688D01*
X137683270Y-80703911D01*
X137553072Y-80798506D01*
X137553070Y-80798508D01*
X137553069Y-80798508D01*
X137430588Y-80920989D01*
X137430588Y-80920990D01*
X137430586Y-80920992D01*
X137386859Y-80981176D01*
X137328768Y-81061131D01*
X137250128Y-81215472D01*
X137196597Y-81380222D01*
X137169561Y-81550922D01*
X137169500Y-81551309D01*
X133688000Y-81551309D01*
X133688000Y-80192507D01*
X133688400Y-80191144D01*
X133688030Y-80189772D01*
X133698214Y-80157720D01*
X133707685Y-80125468D01*
X133708897Y-80124098D01*
X133709189Y-80123183D01*
X133712675Y-80119834D01*
X133732884Y-80097026D01*
X133739542Y-80091509D01*
X133818656Y-80042712D01*
X133916420Y-79944947D01*
X133920884Y-79941249D01*
X133947863Y-79929640D01*
X133973642Y-79915564D01*
X133979588Y-79915989D01*
X133985065Y-79913633D01*
X134014036Y-79918452D01*
X134043334Y-79920548D01*
X134049167Y-79924297D01*
X134053987Y-79925099D01*
X134062708Y-79932999D01*
X134087681Y-79949049D01*
X134181344Y-80042712D01*
X134330666Y-80134814D01*
X134497203Y-80189999D01*
X134599991Y-80200500D01*
X135225008Y-80200499D01*
X135225016Y-80200498D01*
X135225019Y-80200498D01*
X135303245Y-80192507D01*
X135327797Y-80189999D01*
X135494334Y-80134814D01*
X135643656Y-80042712D01*
X135767712Y-79918656D01*
X135859814Y-79769334D01*
X135887595Y-79685495D01*
X135927368Y-79628051D01*
X135991884Y-79601228D01*
X136005301Y-79600500D01*
X137214970Y-79600500D01*
X137282009Y-79620185D01*
X137325456Y-79668208D01*
X137328766Y-79674706D01*
X137336606Y-79685496D01*
X137430586Y-79814848D01*
X137553072Y-79937334D01*
X137693212Y-80039152D01*
X137847555Y-80117793D01*
X138012299Y-80171322D01*
X138183389Y-80198420D01*
X138183390Y-80198420D01*
X139156610Y-80198420D01*
X139156611Y-80198420D01*
X139327701Y-80171322D01*
X139492445Y-80117793D01*
X139646788Y-80039152D01*
X139786928Y-79937334D01*
X139909414Y-79814848D01*
X140011232Y-79674708D01*
X140089873Y-79520365D01*
X140143402Y-79355621D01*
X140170500Y-79184531D01*
X140170500Y-79011309D01*
X160029500Y-79011309D01*
X160029500Y-79184531D01*
X160056598Y-79355621D01*
X160110127Y-79520365D01*
X160188768Y-79674708D01*
X160290586Y-79814848D01*
X160413072Y-79937334D01*
X160553212Y-80039152D01*
X160707555Y-80117793D01*
X160872299Y-80171322D01*
X161043389Y-80198420D01*
X161043390Y-80198420D01*
X162016610Y-80198420D01*
X162016611Y-80198420D01*
X162187701Y-80171322D01*
X162352445Y-80117793D01*
X162506788Y-80039152D01*
X162646928Y-79937334D01*
X162769414Y-79814848D01*
X162871232Y-79674708D01*
X162949873Y-79520365D01*
X163003402Y-79355621D01*
X163030500Y-79184531D01*
X163030500Y-79011309D01*
X163003402Y-78840219D01*
X162949873Y-78675475D01*
X162871232Y-78521132D01*
X162769414Y-78380992D01*
X162646928Y-78258506D01*
X162506788Y-78156688D01*
X162358912Y-78081342D01*
X162352447Y-78078048D01*
X162352446Y-78078047D01*
X162352445Y-78078047D01*
X162187701Y-78024518D01*
X162187699Y-78024517D01*
X162187698Y-78024517D01*
X162056271Y-78003701D01*
X162016611Y-77997420D01*
X161043389Y-77997420D01*
X161003728Y-78003701D01*
X160872302Y-78024517D01*
X160707552Y-78078048D01*
X160553211Y-78156688D01*
X160543270Y-78163911D01*
X160413072Y-78258506D01*
X160413070Y-78258508D01*
X160413069Y-78258508D01*
X160290588Y-78380989D01*
X160290588Y-78380990D01*
X160290586Y-78380992D01*
X160277139Y-78399500D01*
X160188768Y-78521131D01*
X160110128Y-78675472D01*
X160056597Y-78840222D01*
X160029561Y-79010922D01*
X160029500Y-79011309D01*
X140170500Y-79011309D01*
X140143402Y-78840219D01*
X140089873Y-78675475D01*
X140011232Y-78521132D01*
X139909414Y-78380992D01*
X139786928Y-78258506D01*
X139646788Y-78156688D01*
X139498912Y-78081342D01*
X139492447Y-78078048D01*
X139492446Y-78078047D01*
X139492445Y-78078047D01*
X139327701Y-78024518D01*
X139327699Y-78024517D01*
X139327698Y-78024517D01*
X139196271Y-78003701D01*
X139156611Y-77997420D01*
X138183389Y-77997420D01*
X138143728Y-78003701D01*
X138012302Y-78024517D01*
X137847552Y-78078048D01*
X137693211Y-78156688D01*
X137683270Y-78163911D01*
X137553072Y-78258506D01*
X137553070Y-78258508D01*
X137553069Y-78258508D01*
X137448397Y-78363181D01*
X137387074Y-78396666D01*
X137360716Y-78399500D01*
X136005301Y-78399500D01*
X135938262Y-78379815D01*
X135892507Y-78327011D01*
X135887595Y-78314504D01*
X135859814Y-78230666D01*
X135767712Y-78081344D01*
X135643656Y-77957288D01*
X135494334Y-77865186D01*
X135327797Y-77810001D01*
X135327795Y-77810000D01*
X135225010Y-77799500D01*
X134599998Y-77799500D01*
X134599980Y-77799501D01*
X134497203Y-77810000D01*
X134497200Y-77810001D01*
X134330668Y-77865185D01*
X134330663Y-77865187D01*
X134181342Y-77957289D01*
X134087681Y-78050951D01*
X134084902Y-78052468D01*
X134083249Y-78055170D01*
X134054435Y-78069104D01*
X134026358Y-78084436D01*
X134023200Y-78084210D01*
X134020349Y-78085589D01*
X133988580Y-78081734D01*
X133956666Y-78079452D01*
X133953188Y-78077439D01*
X133950988Y-78077173D01*
X133940886Y-78070323D01*
X133920884Y-78058751D01*
X133916420Y-78055052D01*
X133818656Y-77957288D01*
X133739548Y-77908494D01*
X133732884Y-77902972D01*
X133717992Y-77880887D01*
X133700178Y-77861081D01*
X133697911Y-77851105D01*
X133693822Y-77845041D01*
X133693530Y-77831828D01*
X133688000Y-77807491D01*
X133688000Y-76471309D01*
X137169500Y-76471309D01*
X137169500Y-76644531D01*
X137196598Y-76815621D01*
X137250127Y-76980365D01*
X137328768Y-77134708D01*
X137430586Y-77274848D01*
X137553072Y-77397334D01*
X137693212Y-77499152D01*
X137847555Y-77577793D01*
X138012299Y-77631322D01*
X138183389Y-77658420D01*
X138183390Y-77658420D01*
X139156610Y-77658420D01*
X139156611Y-77658420D01*
X139327701Y-77631322D01*
X139492445Y-77577793D01*
X139646788Y-77499152D01*
X139786928Y-77397334D01*
X139909414Y-77274848D01*
X140011232Y-77134708D01*
X140089873Y-76980365D01*
X140143402Y-76815621D01*
X140170500Y-76644531D01*
X140170500Y-76471309D01*
X160029500Y-76471309D01*
X160029500Y-76644531D01*
X160056598Y-76815621D01*
X160110127Y-76980365D01*
X160188768Y-77134708D01*
X160290586Y-77274848D01*
X160413072Y-77397334D01*
X160553212Y-77499152D01*
X160707555Y-77577793D01*
X160872299Y-77631322D01*
X161043389Y-77658420D01*
X161043390Y-77658420D01*
X162016610Y-77658420D01*
X162016611Y-77658420D01*
X162187701Y-77631322D01*
X162352445Y-77577793D01*
X162506788Y-77499152D01*
X162646928Y-77397334D01*
X162769414Y-77274848D01*
X162871232Y-77134708D01*
X162949873Y-76980365D01*
X163003402Y-76815621D01*
X163030500Y-76644531D01*
X163030500Y-76471309D01*
X163003402Y-76300219D01*
X162949873Y-76135475D01*
X162871232Y-75981132D01*
X162769414Y-75840992D01*
X162646928Y-75718506D01*
X162506788Y-75616688D01*
X162352445Y-75538047D01*
X162187701Y-75484518D01*
X162187699Y-75484517D01*
X162187698Y-75484517D01*
X162056271Y-75463701D01*
X162016611Y-75457420D01*
X161043389Y-75457420D01*
X161003728Y-75463701D01*
X160872302Y-75484517D01*
X160707552Y-75538048D01*
X160553211Y-75616688D01*
X160473256Y-75674779D01*
X160413072Y-75718506D01*
X160413070Y-75718508D01*
X160413069Y-75718508D01*
X160290588Y-75840989D01*
X160290588Y-75840990D01*
X160290586Y-75840992D01*
X160246859Y-75901176D01*
X160188768Y-75981131D01*
X160110128Y-76135472D01*
X160056597Y-76300222D01*
X160029500Y-76471309D01*
X140170500Y-76471309D01*
X140143402Y-76300219D01*
X140089873Y-76135475D01*
X140011232Y-75981132D01*
X139909414Y-75840992D01*
X139786928Y-75718506D01*
X139646788Y-75616688D01*
X139492445Y-75538047D01*
X139327701Y-75484518D01*
X139327699Y-75484517D01*
X139327698Y-75484517D01*
X139196271Y-75463701D01*
X139156611Y-75457420D01*
X138183389Y-75457420D01*
X138143728Y-75463701D01*
X138012302Y-75484517D01*
X137847552Y-75538048D01*
X137693211Y-75616688D01*
X137613256Y-75674779D01*
X137553072Y-75718506D01*
X137553070Y-75718508D01*
X137553069Y-75718508D01*
X137430588Y-75840989D01*
X137430588Y-75840990D01*
X137430586Y-75840992D01*
X137386859Y-75901176D01*
X137328768Y-75981131D01*
X137250128Y-76135472D01*
X137196597Y-76300222D01*
X137169500Y-76471309D01*
X133688000Y-76471309D01*
X133688000Y-73931309D01*
X137169500Y-73931309D01*
X137169500Y-74104531D01*
X137196598Y-74275621D01*
X137250127Y-74440365D01*
X137328768Y-74594708D01*
X137430586Y-74734848D01*
X137553072Y-74857334D01*
X137693212Y-74959152D01*
X137847555Y-75037793D01*
X138012299Y-75091322D01*
X138183389Y-75118420D01*
X138183390Y-75118420D01*
X139156610Y-75118420D01*
X139156611Y-75118420D01*
X139327701Y-75091322D01*
X139492445Y-75037793D01*
X139646788Y-74959152D01*
X139786928Y-74857334D01*
X139909414Y-74734848D01*
X140011232Y-74594708D01*
X140089873Y-74440365D01*
X140143402Y-74275621D01*
X140170500Y-74104531D01*
X140170500Y-73931309D01*
X160029500Y-73931309D01*
X160029500Y-74104531D01*
X160056598Y-74275621D01*
X160110127Y-74440365D01*
X160188768Y-74594708D01*
X160290586Y-74734848D01*
X160413072Y-74857334D01*
X160553212Y-74959152D01*
X160707555Y-75037793D01*
X160872299Y-75091322D01*
X161043389Y-75118420D01*
X161043390Y-75118420D01*
X162016610Y-75118420D01*
X162016611Y-75118420D01*
X162187701Y-75091322D01*
X162352445Y-75037793D01*
X162506788Y-74959152D01*
X162646928Y-74857334D01*
X162769414Y-74734848D01*
X162871232Y-74594708D01*
X162949873Y-74440365D01*
X163003402Y-74275621D01*
X163030500Y-74104531D01*
X163030500Y-73931309D01*
X163003402Y-73760219D01*
X162949873Y-73595475D01*
X162871232Y-73441132D01*
X162769414Y-73300992D01*
X162646928Y-73178506D01*
X162506788Y-73076688D01*
X162352445Y-72998047D01*
X162187701Y-72944518D01*
X162187699Y-72944517D01*
X162187698Y-72944517D01*
X162056271Y-72923701D01*
X162016611Y-72917420D01*
X161043389Y-72917420D01*
X161003728Y-72923701D01*
X160872302Y-72944517D01*
X160707552Y-72998048D01*
X160553211Y-73076688D01*
X160473256Y-73134779D01*
X160413072Y-73178506D01*
X160413070Y-73178508D01*
X160413069Y-73178508D01*
X160290588Y-73300989D01*
X160290588Y-73300990D01*
X160290586Y-73300992D01*
X160246859Y-73361176D01*
X160188768Y-73441131D01*
X160110128Y-73595472D01*
X160056597Y-73760222D01*
X160029500Y-73931309D01*
X140170500Y-73931309D01*
X140143402Y-73760219D01*
X140089873Y-73595475D01*
X140011232Y-73441132D01*
X139909414Y-73300992D01*
X139786928Y-73178506D01*
X139646788Y-73076688D01*
X139492445Y-72998047D01*
X139327701Y-72944518D01*
X139327699Y-72944517D01*
X139327698Y-72944517D01*
X139196271Y-72923701D01*
X139156611Y-72917420D01*
X138183389Y-72917420D01*
X138143728Y-72923701D01*
X138012302Y-72944517D01*
X137847552Y-72998048D01*
X137693211Y-73076688D01*
X137613256Y-73134779D01*
X137553072Y-73178506D01*
X137553070Y-73178508D01*
X137553069Y-73178508D01*
X137430588Y-73300989D01*
X137430588Y-73300990D01*
X137430586Y-73300992D01*
X137386859Y-73361176D01*
X137328768Y-73441131D01*
X137250128Y-73595472D01*
X137196597Y-73760222D01*
X137169500Y-73931309D01*
X133688000Y-73931309D01*
X133688000Y-71391309D01*
X137169500Y-71391309D01*
X137169500Y-71564531D01*
X137196598Y-71735621D01*
X137250127Y-71900365D01*
X137328768Y-72054708D01*
X137430586Y-72194848D01*
X137553072Y-72317334D01*
X137693212Y-72419152D01*
X137847555Y-72497793D01*
X138012299Y-72551322D01*
X138183389Y-72578420D01*
X138183390Y-72578420D01*
X139156610Y-72578420D01*
X139156611Y-72578420D01*
X139327701Y-72551322D01*
X139492445Y-72497793D01*
X139646788Y-72419152D01*
X139786928Y-72317334D01*
X139909414Y-72194848D01*
X140011232Y-72054708D01*
X140089873Y-71900365D01*
X140143402Y-71735621D01*
X140170500Y-71564531D01*
X140170500Y-71391309D01*
X160029500Y-71391309D01*
X160029500Y-71564531D01*
X160056598Y-71735621D01*
X160110127Y-71900365D01*
X160188768Y-72054708D01*
X160290586Y-72194848D01*
X160413072Y-72317334D01*
X160553212Y-72419152D01*
X160707555Y-72497793D01*
X160872299Y-72551322D01*
X161043389Y-72578420D01*
X161043390Y-72578420D01*
X162016610Y-72578420D01*
X162016611Y-72578420D01*
X162187701Y-72551322D01*
X162352445Y-72497793D01*
X162506788Y-72419152D01*
X162646928Y-72317334D01*
X162769414Y-72194848D01*
X162871232Y-72054708D01*
X162949873Y-71900365D01*
X163003402Y-71735621D01*
X163030500Y-71564531D01*
X163030500Y-71391309D01*
X163003402Y-71220219D01*
X162949873Y-71055475D01*
X162871232Y-70901132D01*
X162769414Y-70760992D01*
X162646928Y-70638506D01*
X162506788Y-70536688D01*
X162352445Y-70458047D01*
X162187701Y-70404518D01*
X162187699Y-70404517D01*
X162187698Y-70404517D01*
X162056271Y-70383701D01*
X162016611Y-70377420D01*
X161043389Y-70377420D01*
X161003728Y-70383701D01*
X160872302Y-70404517D01*
X160707552Y-70458048D01*
X160553211Y-70536688D01*
X160473256Y-70594779D01*
X160413072Y-70638506D01*
X160413070Y-70638508D01*
X160413069Y-70638508D01*
X160290588Y-70760989D01*
X160290588Y-70760990D01*
X160290586Y-70760992D01*
X160246859Y-70821176D01*
X160188768Y-70901131D01*
X160110128Y-71055472D01*
X160056597Y-71220222D01*
X160029500Y-71391309D01*
X140170500Y-71391309D01*
X140143402Y-71220219D01*
X140089873Y-71055475D01*
X140011232Y-70901132D01*
X139909414Y-70760992D01*
X139786928Y-70638506D01*
X139646788Y-70536688D01*
X139492445Y-70458047D01*
X139327701Y-70404518D01*
X139327699Y-70404517D01*
X139327698Y-70404517D01*
X139196271Y-70383701D01*
X139156611Y-70377420D01*
X138183389Y-70377420D01*
X138143728Y-70383701D01*
X138012302Y-70404517D01*
X137847552Y-70458048D01*
X137693211Y-70536688D01*
X137613256Y-70594779D01*
X137553072Y-70638506D01*
X137553070Y-70638508D01*
X137553069Y-70638508D01*
X137430588Y-70760989D01*
X137430588Y-70760990D01*
X137430586Y-70760992D01*
X137386859Y-70821176D01*
X137328768Y-70901131D01*
X137250128Y-71055472D01*
X137196597Y-71220222D01*
X137169500Y-71391309D01*
X133688000Y-71391309D01*
X133688000Y-68851309D01*
X137169500Y-68851309D01*
X137169500Y-69024531D01*
X137196598Y-69195621D01*
X137250127Y-69360365D01*
X137328768Y-69514708D01*
X137430586Y-69654848D01*
X137553072Y-69777334D01*
X137693212Y-69879152D01*
X137847555Y-69957793D01*
X138012299Y-70011322D01*
X138183389Y-70038420D01*
X138183390Y-70038420D01*
X139156610Y-70038420D01*
X139156611Y-70038420D01*
X139327701Y-70011322D01*
X139492445Y-69957793D01*
X139646788Y-69879152D01*
X139786928Y-69777334D01*
X139909414Y-69654848D01*
X140011232Y-69514708D01*
X140089873Y-69360365D01*
X140143402Y-69195621D01*
X140170500Y-69024531D01*
X140170500Y-68851309D01*
X160029500Y-68851309D01*
X160029500Y-69024531D01*
X160056598Y-69195621D01*
X160110127Y-69360365D01*
X160188768Y-69514708D01*
X160290586Y-69654848D01*
X160413072Y-69777334D01*
X160553212Y-69879152D01*
X160707555Y-69957793D01*
X160872299Y-70011322D01*
X161043389Y-70038420D01*
X161043390Y-70038420D01*
X162016610Y-70038420D01*
X162016611Y-70038420D01*
X162187701Y-70011322D01*
X162352445Y-69957793D01*
X162506788Y-69879152D01*
X162646928Y-69777334D01*
X162769414Y-69654848D01*
X162871232Y-69514708D01*
X162949873Y-69360365D01*
X163003402Y-69195621D01*
X163030500Y-69024531D01*
X163030500Y-68851309D01*
X163003402Y-68680219D01*
X162949873Y-68515475D01*
X162871232Y-68361132D01*
X162769414Y-68220992D01*
X162646928Y-68098506D01*
X162506788Y-67996688D01*
X162352445Y-67918047D01*
X162187701Y-67864518D01*
X162187699Y-67864517D01*
X162187698Y-67864517D01*
X162056271Y-67843701D01*
X162016611Y-67837420D01*
X161043389Y-67837420D01*
X161003728Y-67843701D01*
X160872302Y-67864517D01*
X160707552Y-67918048D01*
X160553211Y-67996688D01*
X160473256Y-68054779D01*
X160413072Y-68098506D01*
X160413070Y-68098508D01*
X160413069Y-68098508D01*
X160290588Y-68220989D01*
X160290588Y-68220990D01*
X160290586Y-68220992D01*
X160246859Y-68281176D01*
X160188768Y-68361131D01*
X160110128Y-68515472D01*
X160056597Y-68680222D01*
X160029500Y-68851309D01*
X140170500Y-68851309D01*
X140143402Y-68680219D01*
X140089873Y-68515475D01*
X140011232Y-68361132D01*
X139909414Y-68220992D01*
X139786928Y-68098506D01*
X139646788Y-67996688D01*
X139492445Y-67918047D01*
X139327701Y-67864518D01*
X139327699Y-67864517D01*
X139327698Y-67864517D01*
X139196271Y-67843701D01*
X139156611Y-67837420D01*
X138183389Y-67837420D01*
X138143728Y-67843701D01*
X138012302Y-67864517D01*
X137847552Y-67918048D01*
X137693211Y-67996688D01*
X137613256Y-68054779D01*
X137553072Y-68098506D01*
X137553070Y-68098508D01*
X137553069Y-68098508D01*
X137430588Y-68220989D01*
X137430588Y-68220990D01*
X137430586Y-68220992D01*
X137386859Y-68281176D01*
X137328768Y-68361131D01*
X137250128Y-68515472D01*
X137196597Y-68680222D01*
X137169500Y-68851309D01*
X133688000Y-68851309D01*
X133688000Y-66311309D01*
X137169500Y-66311309D01*
X137169500Y-66484531D01*
X137196598Y-66655621D01*
X137250127Y-66820365D01*
X137328768Y-66974708D01*
X137430586Y-67114848D01*
X137553072Y-67237334D01*
X137693212Y-67339152D01*
X137847555Y-67417793D01*
X138012299Y-67471322D01*
X138183389Y-67498420D01*
X138183390Y-67498420D01*
X139156610Y-67498420D01*
X139156611Y-67498420D01*
X139327701Y-67471322D01*
X139492445Y-67417793D01*
X139646788Y-67339152D01*
X139786928Y-67237334D01*
X139909414Y-67114848D01*
X140011232Y-66974708D01*
X140089873Y-66820365D01*
X140143402Y-66655621D01*
X140170500Y-66484531D01*
X140170500Y-66311309D01*
X160029500Y-66311309D01*
X160029500Y-66484531D01*
X160056598Y-66655621D01*
X160110127Y-66820365D01*
X160188768Y-66974708D01*
X160290586Y-67114848D01*
X160413072Y-67237334D01*
X160553212Y-67339152D01*
X160707555Y-67417793D01*
X160872299Y-67471322D01*
X161043389Y-67498420D01*
X161043390Y-67498420D01*
X162016610Y-67498420D01*
X162016611Y-67498420D01*
X162187701Y-67471322D01*
X162352445Y-67417793D01*
X162506788Y-67339152D01*
X162646928Y-67237334D01*
X162769414Y-67114848D01*
X162871232Y-66974708D01*
X162949873Y-66820365D01*
X163003402Y-66655621D01*
X163030500Y-66484531D01*
X163030500Y-66311309D01*
X163003402Y-66140219D01*
X162949873Y-65975475D01*
X162871232Y-65821132D01*
X162769414Y-65680992D01*
X162646928Y-65558506D01*
X162506788Y-65456688D01*
X162352445Y-65378047D01*
X162187701Y-65324518D01*
X162187699Y-65324517D01*
X162187698Y-65324517D01*
X162056271Y-65303701D01*
X162016611Y-65297420D01*
X161043389Y-65297420D01*
X161003728Y-65303701D01*
X160872302Y-65324517D01*
X160707552Y-65378048D01*
X160553211Y-65456688D01*
X160473256Y-65514779D01*
X160413072Y-65558506D01*
X160413070Y-65558508D01*
X160413069Y-65558508D01*
X160290588Y-65680989D01*
X160290588Y-65680990D01*
X160290586Y-65680992D01*
X160246859Y-65741176D01*
X160188768Y-65821131D01*
X160110128Y-65975472D01*
X160056597Y-66140222D01*
X160029500Y-66311309D01*
X140170500Y-66311309D01*
X140143402Y-66140219D01*
X140089873Y-65975475D01*
X140011232Y-65821132D01*
X139909414Y-65680992D01*
X139786928Y-65558506D01*
X139646788Y-65456688D01*
X139492445Y-65378047D01*
X139327701Y-65324518D01*
X139327699Y-65324517D01*
X139327698Y-65324517D01*
X139196271Y-65303701D01*
X139156611Y-65297420D01*
X138183389Y-65297420D01*
X138143728Y-65303701D01*
X138012302Y-65324517D01*
X137847552Y-65378048D01*
X137693211Y-65456688D01*
X137613256Y-65514779D01*
X137553072Y-65558506D01*
X137553070Y-65558508D01*
X137553069Y-65558508D01*
X137430588Y-65680989D01*
X137430588Y-65680990D01*
X137430586Y-65680992D01*
X137386859Y-65741176D01*
X137328768Y-65821131D01*
X137250128Y-65975472D01*
X137196597Y-66140222D01*
X137169500Y-66311309D01*
X133688000Y-66311309D01*
X133688000Y-63771309D01*
X137169500Y-63771309D01*
X137169500Y-63944531D01*
X137196598Y-64115621D01*
X137250127Y-64280365D01*
X137328768Y-64434708D01*
X137430586Y-64574848D01*
X137553072Y-64697334D01*
X137693212Y-64799152D01*
X137847555Y-64877793D01*
X138012299Y-64931322D01*
X138183389Y-64958420D01*
X138183390Y-64958420D01*
X139156610Y-64958420D01*
X139156611Y-64958420D01*
X139327701Y-64931322D01*
X139492445Y-64877793D01*
X139646788Y-64799152D01*
X139786928Y-64697334D01*
X139909414Y-64574848D01*
X140011232Y-64434708D01*
X140089873Y-64280365D01*
X140143402Y-64115621D01*
X140170500Y-63944531D01*
X140170500Y-63771309D01*
X160029500Y-63771309D01*
X160029500Y-63944531D01*
X160056598Y-64115621D01*
X160110127Y-64280365D01*
X160188768Y-64434708D01*
X160290586Y-64574848D01*
X160413072Y-64697334D01*
X160553212Y-64799152D01*
X160707555Y-64877793D01*
X160872299Y-64931322D01*
X161043389Y-64958420D01*
X161043390Y-64958420D01*
X162016610Y-64958420D01*
X162016611Y-64958420D01*
X162187701Y-64931322D01*
X162352445Y-64877793D01*
X162506788Y-64799152D01*
X162646928Y-64697334D01*
X162769414Y-64574848D01*
X162871232Y-64434708D01*
X162949873Y-64280365D01*
X163003402Y-64115621D01*
X163030500Y-63944531D01*
X163030500Y-63771309D01*
X163003402Y-63600219D01*
X162949873Y-63435475D01*
X162871232Y-63281132D01*
X162769414Y-63140992D01*
X162646928Y-63018506D01*
X162506788Y-62916688D01*
X162352445Y-62838047D01*
X162187701Y-62784518D01*
X162187699Y-62784517D01*
X162187698Y-62784517D01*
X162056271Y-62763701D01*
X162016611Y-62757420D01*
X161043389Y-62757420D01*
X161003728Y-62763701D01*
X160872302Y-62784517D01*
X160707552Y-62838048D01*
X160553211Y-62916688D01*
X160473256Y-62974779D01*
X160413072Y-63018506D01*
X160413070Y-63018508D01*
X160413069Y-63018508D01*
X160290588Y-63140989D01*
X160290588Y-63140990D01*
X160290586Y-63140992D01*
X160246859Y-63201176D01*
X160188768Y-63281131D01*
X160110128Y-63435472D01*
X160056597Y-63600222D01*
X160029500Y-63771309D01*
X140170500Y-63771309D01*
X140143402Y-63600219D01*
X140089873Y-63435475D01*
X140011232Y-63281132D01*
X139909414Y-63140992D01*
X139786928Y-63018506D01*
X139646788Y-62916688D01*
X139492445Y-62838047D01*
X139327701Y-62784518D01*
X139327699Y-62784517D01*
X139327698Y-62784517D01*
X139196271Y-62763701D01*
X139156611Y-62757420D01*
X138183389Y-62757420D01*
X138143728Y-62763701D01*
X138012302Y-62784517D01*
X137847552Y-62838048D01*
X137693211Y-62916688D01*
X137613256Y-62974779D01*
X137553072Y-63018506D01*
X137553070Y-63018508D01*
X137553069Y-63018508D01*
X137430588Y-63140989D01*
X137430588Y-63140990D01*
X137430586Y-63140992D01*
X137386859Y-63201176D01*
X137328768Y-63281131D01*
X137250128Y-63435472D01*
X137196597Y-63600222D01*
X137169500Y-63771309D01*
X133688000Y-63771309D01*
X133688000Y-61231309D01*
X137169500Y-61231309D01*
X137169500Y-61404531D01*
X137196598Y-61575621D01*
X137250127Y-61740365D01*
X137328768Y-61894708D01*
X137430586Y-62034848D01*
X137553072Y-62157334D01*
X137693212Y-62259152D01*
X137847555Y-62337793D01*
X138012299Y-62391322D01*
X138183389Y-62418420D01*
X138183390Y-62418420D01*
X139156610Y-62418420D01*
X139156611Y-62418420D01*
X139327701Y-62391322D01*
X139492445Y-62337793D01*
X139646788Y-62259152D01*
X139786928Y-62157334D01*
X139909414Y-62034848D01*
X140011232Y-61894708D01*
X140089873Y-61740365D01*
X140143402Y-61575621D01*
X140170500Y-61404531D01*
X140170500Y-61231309D01*
X160029500Y-61231309D01*
X160029500Y-61404531D01*
X160056598Y-61575621D01*
X160110127Y-61740365D01*
X160188768Y-61894708D01*
X160290586Y-62034848D01*
X160413072Y-62157334D01*
X160553212Y-62259152D01*
X160707555Y-62337793D01*
X160872299Y-62391322D01*
X161043389Y-62418420D01*
X161043390Y-62418420D01*
X162016610Y-62418420D01*
X162016611Y-62418420D01*
X162187701Y-62391322D01*
X162352445Y-62337793D01*
X162506788Y-62259152D01*
X162646928Y-62157334D01*
X162769414Y-62034848D01*
X162871232Y-61894708D01*
X162949873Y-61740365D01*
X163003402Y-61575621D01*
X163030500Y-61404531D01*
X163030500Y-61231309D01*
X163003402Y-61060219D01*
X162949873Y-60895475D01*
X162871232Y-60741132D01*
X162769414Y-60600992D01*
X162646928Y-60478506D01*
X162506788Y-60376688D01*
X162352445Y-60298047D01*
X162187701Y-60244518D01*
X162187699Y-60244517D01*
X162187698Y-60244517D01*
X162056271Y-60223701D01*
X162016611Y-60217420D01*
X161043389Y-60217420D01*
X161003728Y-60223701D01*
X160872302Y-60244517D01*
X160707552Y-60298048D01*
X160553211Y-60376688D01*
X160473256Y-60434779D01*
X160413072Y-60478506D01*
X160413070Y-60478508D01*
X160413069Y-60478508D01*
X160290588Y-60600989D01*
X160290588Y-60600990D01*
X160290586Y-60600992D01*
X160246859Y-60661176D01*
X160188768Y-60741131D01*
X160110128Y-60895472D01*
X160056597Y-61060222D01*
X160029500Y-61231309D01*
X140170500Y-61231309D01*
X140143402Y-61060219D01*
X140089873Y-60895475D01*
X140011232Y-60741132D01*
X139909414Y-60600992D01*
X139786928Y-60478506D01*
X139646788Y-60376688D01*
X139492445Y-60298047D01*
X139327701Y-60244518D01*
X139327699Y-60244517D01*
X139327698Y-60244517D01*
X139196271Y-60223701D01*
X139156611Y-60217420D01*
X138183389Y-60217420D01*
X138143728Y-60223701D01*
X138012302Y-60244517D01*
X137847552Y-60298048D01*
X137693211Y-60376688D01*
X137613256Y-60434779D01*
X137553072Y-60478506D01*
X137553070Y-60478508D01*
X137553069Y-60478508D01*
X137430588Y-60600989D01*
X137430588Y-60600990D01*
X137430586Y-60600992D01*
X137386859Y-60661176D01*
X137328768Y-60741131D01*
X137250128Y-60895472D01*
X137196597Y-61060222D01*
X137169500Y-61231309D01*
X133688000Y-61231309D01*
X133688000Y-58691309D01*
X137169500Y-58691309D01*
X137169500Y-58864531D01*
X137196598Y-59035621D01*
X137250127Y-59200365D01*
X137328768Y-59354708D01*
X137430586Y-59494848D01*
X137553072Y-59617334D01*
X137693212Y-59719152D01*
X137847555Y-59797793D01*
X138012299Y-59851322D01*
X138183389Y-59878420D01*
X138183390Y-59878420D01*
X139156610Y-59878420D01*
X139156611Y-59878420D01*
X139327701Y-59851322D01*
X139492445Y-59797793D01*
X139646788Y-59719152D01*
X139786928Y-59617334D01*
X139909414Y-59494848D01*
X140011232Y-59354708D01*
X140089873Y-59200365D01*
X140143402Y-59035621D01*
X140170500Y-58864531D01*
X140170500Y-58691309D01*
X160029500Y-58691309D01*
X160029500Y-58864531D01*
X160056598Y-59035621D01*
X160110127Y-59200365D01*
X160188768Y-59354708D01*
X160290586Y-59494848D01*
X160413072Y-59617334D01*
X160553212Y-59719152D01*
X160707555Y-59797793D01*
X160872299Y-59851322D01*
X161043389Y-59878420D01*
X161043390Y-59878420D01*
X162016610Y-59878420D01*
X162016611Y-59878420D01*
X162187701Y-59851322D01*
X162352445Y-59797793D01*
X162506788Y-59719152D01*
X162646928Y-59617334D01*
X162769414Y-59494848D01*
X162871232Y-59354708D01*
X162949873Y-59200365D01*
X163003402Y-59035621D01*
X163030500Y-58864531D01*
X163030500Y-58691309D01*
X163003402Y-58520219D01*
X162949873Y-58355475D01*
X162871232Y-58201132D01*
X162769414Y-58060992D01*
X162646928Y-57938506D01*
X162506788Y-57836688D01*
X162352445Y-57758047D01*
X162187701Y-57704518D01*
X162187699Y-57704517D01*
X162187698Y-57704517D01*
X162056271Y-57683701D01*
X162016611Y-57677420D01*
X161043389Y-57677420D01*
X161003728Y-57683701D01*
X160872302Y-57704517D01*
X160707552Y-57758048D01*
X160553211Y-57836688D01*
X160473256Y-57894779D01*
X160413072Y-57938506D01*
X160413070Y-57938508D01*
X160413069Y-57938508D01*
X160290588Y-58060989D01*
X160290588Y-58060990D01*
X160290586Y-58060992D01*
X160246859Y-58121176D01*
X160188768Y-58201131D01*
X160110128Y-58355472D01*
X160056597Y-58520222D01*
X160029500Y-58691309D01*
X140170500Y-58691309D01*
X140143402Y-58520219D01*
X140089873Y-58355475D01*
X140011232Y-58201132D01*
X139909414Y-58060992D01*
X139786928Y-57938506D01*
X139646788Y-57836688D01*
X139492445Y-57758047D01*
X139327701Y-57704518D01*
X139327699Y-57704517D01*
X139327698Y-57704517D01*
X139196271Y-57683701D01*
X139156611Y-57677420D01*
X138183389Y-57677420D01*
X138143728Y-57683701D01*
X138012302Y-57704517D01*
X137847552Y-57758048D01*
X137693211Y-57836688D01*
X137613256Y-57894779D01*
X137553072Y-57938506D01*
X137553070Y-57938508D01*
X137553069Y-57938508D01*
X137430588Y-58060989D01*
X137430588Y-58060990D01*
X137430586Y-58060992D01*
X137386859Y-58121176D01*
X137328768Y-58201131D01*
X137250128Y-58355472D01*
X137196597Y-58520222D01*
X137169500Y-58691309D01*
X133688000Y-58691309D01*
X133688000Y-56151309D01*
X137169500Y-56151309D01*
X137169500Y-56324531D01*
X137196598Y-56495621D01*
X137250127Y-56660365D01*
X137328768Y-56814708D01*
X137430586Y-56954848D01*
X137553072Y-57077334D01*
X137693212Y-57179152D01*
X137847555Y-57257793D01*
X138012299Y-57311322D01*
X138183389Y-57338420D01*
X138183390Y-57338420D01*
X139156610Y-57338420D01*
X139156611Y-57338420D01*
X139327701Y-57311322D01*
X139492445Y-57257793D01*
X139646788Y-57179152D01*
X139786928Y-57077334D01*
X139909414Y-56954848D01*
X140011232Y-56814708D01*
X140089873Y-56660365D01*
X140143402Y-56495621D01*
X140170500Y-56324531D01*
X140170500Y-56151309D01*
X160029500Y-56151309D01*
X160029500Y-56324531D01*
X160056598Y-56495621D01*
X160110127Y-56660365D01*
X160188768Y-56814708D01*
X160290586Y-56954848D01*
X160413072Y-57077334D01*
X160553212Y-57179152D01*
X160707555Y-57257793D01*
X160872299Y-57311322D01*
X161043389Y-57338420D01*
X161043390Y-57338420D01*
X162016610Y-57338420D01*
X162016611Y-57338420D01*
X162187701Y-57311322D01*
X162352445Y-57257793D01*
X162506788Y-57179152D01*
X162646928Y-57077334D01*
X162769414Y-56954848D01*
X162871232Y-56814708D01*
X162949873Y-56660365D01*
X163003402Y-56495621D01*
X163030500Y-56324531D01*
X163030500Y-56151309D01*
X163003402Y-55980219D01*
X162949873Y-55815475D01*
X162871232Y-55661132D01*
X162769414Y-55520992D01*
X162646928Y-55398506D01*
X162506788Y-55296688D01*
X162352445Y-55218047D01*
X162187701Y-55164518D01*
X162187699Y-55164517D01*
X162187698Y-55164517D01*
X162056271Y-55143701D01*
X162016611Y-55137420D01*
X161043389Y-55137420D01*
X161003728Y-55143701D01*
X160872302Y-55164517D01*
X160707552Y-55218048D01*
X160553211Y-55296688D01*
X160473256Y-55354779D01*
X160413072Y-55398506D01*
X160413070Y-55398508D01*
X160413069Y-55398508D01*
X160290588Y-55520989D01*
X160290588Y-55520990D01*
X160290586Y-55520992D01*
X160246859Y-55581176D01*
X160188768Y-55661131D01*
X160110128Y-55815472D01*
X160056597Y-55980222D01*
X160029500Y-56151309D01*
X140170500Y-56151309D01*
X140143402Y-55980219D01*
X140089873Y-55815475D01*
X140011232Y-55661132D01*
X139909414Y-55520992D01*
X139786928Y-55398506D01*
X139646788Y-55296688D01*
X139492445Y-55218047D01*
X139327701Y-55164518D01*
X139327699Y-55164517D01*
X139327698Y-55164517D01*
X139196271Y-55143701D01*
X139156611Y-55137420D01*
X138183389Y-55137420D01*
X138143728Y-55143701D01*
X138012302Y-55164517D01*
X137847552Y-55218048D01*
X137693211Y-55296688D01*
X137613256Y-55354779D01*
X137553072Y-55398506D01*
X137553070Y-55398508D01*
X137553069Y-55398508D01*
X137430588Y-55520989D01*
X137430588Y-55520990D01*
X137430586Y-55520992D01*
X137386859Y-55581176D01*
X137328768Y-55661131D01*
X137250128Y-55815472D01*
X137196597Y-55980222D01*
X137169500Y-56151309D01*
X133688000Y-56151309D01*
X133688000Y-52712597D01*
X133707685Y-52645558D01*
X133724319Y-52624916D01*
X134554496Y-51794739D01*
X134615819Y-51761254D01*
X134642177Y-51758420D01*
X137053023Y-51758420D01*
X137120062Y-51778105D01*
X137165817Y-51830909D01*
X137173266Y-51858054D01*
X137174124Y-51857852D01*
X137175907Y-51865399D01*
X137226202Y-52000248D01*
X137226206Y-52000255D01*
X137312452Y-52115464D01*
X137312454Y-52115466D01*
X137427664Y-52201713D01*
X137427671Y-52201717D01*
X137472618Y-52218481D01*
X137562517Y-52252011D01*
X137622127Y-52258420D01*
X137945500Y-52258419D01*
X137954186Y-52260969D01*
X137963147Y-52259681D01*
X137987183Y-52270658D01*
X138012539Y-52278103D01*
X138018467Y-52284945D01*
X138026703Y-52288706D01*
X138040989Y-52310937D01*
X138058294Y-52330907D01*
X138060581Y-52341422D01*
X138064477Y-52347484D01*
X138069500Y-52382419D01*
X138069500Y-52515841D01*
X138049815Y-52582880D01*
X137997011Y-52628635D01*
X137983822Y-52633770D01*
X137980627Y-52634809D01*
X137847550Y-52678048D01*
X137693211Y-52756688D01*
X137613256Y-52814779D01*
X137553072Y-52858506D01*
X137553070Y-52858508D01*
X137553069Y-52858508D01*
X137430588Y-52980989D01*
X137430588Y-52980990D01*
X137430586Y-52980992D01*
X137386859Y-53041176D01*
X137328768Y-53121131D01*
X137250128Y-53275472D01*
X137196597Y-53440222D01*
X137169500Y-53611309D01*
X137169500Y-53784531D01*
X137196598Y-53955621D01*
X137250127Y-54120365D01*
X137328768Y-54274708D01*
X137430586Y-54414848D01*
X137553072Y-54537334D01*
X137693212Y-54639152D01*
X137847555Y-54717793D01*
X138012299Y-54771322D01*
X138183389Y-54798420D01*
X138183390Y-54798420D01*
X139156610Y-54798420D01*
X139156611Y-54798420D01*
X139327701Y-54771322D01*
X139492445Y-54717793D01*
X139646788Y-54639152D01*
X139786928Y-54537334D01*
X139909414Y-54414848D01*
X140011232Y-54274708D01*
X140089873Y-54120365D01*
X140143402Y-53955621D01*
X140170500Y-53784531D01*
X140170500Y-53611309D01*
X160029500Y-53611309D01*
X160029500Y-53784531D01*
X160056598Y-53955621D01*
X160110127Y-54120365D01*
X160188768Y-54274708D01*
X160290586Y-54414848D01*
X160413072Y-54537334D01*
X160553212Y-54639152D01*
X160707555Y-54717793D01*
X160872299Y-54771322D01*
X161043389Y-54798420D01*
X161043390Y-54798420D01*
X162016610Y-54798420D01*
X162016611Y-54798420D01*
X162187701Y-54771322D01*
X162352445Y-54717793D01*
X162506788Y-54639152D01*
X162646928Y-54537334D01*
X162769414Y-54414848D01*
X162871232Y-54274708D01*
X162949873Y-54120365D01*
X163003402Y-53955621D01*
X163030500Y-53784531D01*
X163030500Y-53611309D01*
X163003402Y-53440219D01*
X162949873Y-53275475D01*
X162871232Y-53121132D01*
X162769414Y-52980992D01*
X162646928Y-52858506D01*
X162506788Y-52756688D01*
X162352445Y-52678047D01*
X162187701Y-52624518D01*
X162187699Y-52624517D01*
X162187698Y-52624517D01*
X162035710Y-52600445D01*
X162016611Y-52597420D01*
X161043389Y-52597420D01*
X161024290Y-52600445D01*
X160872302Y-52624517D01*
X160707552Y-52678048D01*
X160553211Y-52756688D01*
X160473256Y-52814779D01*
X160413072Y-52858506D01*
X160413070Y-52858508D01*
X160413069Y-52858508D01*
X160290588Y-52980989D01*
X160290588Y-52980990D01*
X160290586Y-52980992D01*
X160246859Y-53041176D01*
X160188768Y-53121131D01*
X160110128Y-53275472D01*
X160056597Y-53440222D01*
X160029500Y-53611309D01*
X140170500Y-53611309D01*
X140143402Y-53440219D01*
X140089873Y-53275475D01*
X140011232Y-53121132D01*
X139909414Y-52980992D01*
X139786928Y-52858506D01*
X139646788Y-52756688D01*
X139492449Y-52678048D01*
X139359373Y-52634809D01*
X139356180Y-52633771D01*
X139335778Y-52619821D01*
X139313297Y-52609554D01*
X139307443Y-52600445D01*
X139298506Y-52594334D01*
X139288885Y-52571568D01*
X139275523Y-52550776D01*
X139273163Y-52534365D01*
X139271308Y-52529975D01*
X139270500Y-52515841D01*
X139270500Y-52382419D01*
X139290185Y-52315380D01*
X139342989Y-52269625D01*
X139394500Y-52258419D01*
X139717871Y-52258419D01*
X139717872Y-52258419D01*
X139777483Y-52252011D01*
X139912331Y-52201716D01*
X140027546Y-52115466D01*
X140113796Y-52000251D01*
X140164091Y-51865403D01*
X140170500Y-51805793D01*
X140170499Y-51108712D01*
X140170499Y-50510049D01*
X140170498Y-50510043D01*
X140164091Y-50450436D01*
X140113797Y-50315591D01*
X140113795Y-50315588D01*
X140086206Y-50278734D01*
X140027546Y-50200374D01*
X140027544Y-50200372D01*
X140026376Y-50198812D01*
X140001958Y-50133347D01*
X140016809Y-50065074D01*
X140066214Y-50015668D01*
X140125642Y-50000500D01*
X160469988Y-50000500D01*
X160537027Y-50020185D01*
X160582782Y-50072989D01*
X160592726Y-50142147D01*
X160563701Y-50205703D01*
X160542873Y-50224819D01*
X160413397Y-50318887D01*
X160290967Y-50441317D01*
X160189195Y-50581395D01*
X160110591Y-50735664D01*
X160057085Y-50900335D01*
X160055884Y-50907919D01*
X160055885Y-50907920D01*
X161214314Y-50907920D01*
X161209920Y-50912314D01*
X161157259Y-51003526D01*
X161130000Y-51105259D01*
X161130000Y-51210581D01*
X161157259Y-51312314D01*
X161209920Y-51403526D01*
X161214314Y-51407920D01*
X160055885Y-51407920D01*
X160057085Y-51415504D01*
X160110591Y-51580175D01*
X160189195Y-51734444D01*
X160290967Y-51874522D01*
X160413397Y-51996952D01*
X160553475Y-52098724D01*
X160707742Y-52177328D01*
X160872415Y-52230834D01*
X161043429Y-52257920D01*
X161280000Y-52257920D01*
X161280000Y-51473606D01*
X161284394Y-51478000D01*
X161375606Y-51530661D01*
X161477339Y-51557920D01*
X161582661Y-51557920D01*
X161684394Y-51530661D01*
X161775606Y-51478000D01*
X161780000Y-51473606D01*
X161780000Y-52257920D01*
X162016571Y-52257920D01*
X162187584Y-52230834D01*
X162352257Y-52177328D01*
X162506524Y-52098724D01*
X162646602Y-51996952D01*
X162769032Y-51874522D01*
X162870804Y-51734444D01*
X162949408Y-51580175D01*
X163002914Y-51415504D01*
X163004115Y-51407920D01*
X161845686Y-51407920D01*
X161850080Y-51403526D01*
X161902741Y-51312314D01*
X161930000Y-51210581D01*
X161930000Y-51105259D01*
X161902741Y-51003526D01*
X161850080Y-50912314D01*
X161845686Y-50907920D01*
X163004115Y-50907920D01*
X163004115Y-50907919D01*
X163002914Y-50900335D01*
X162949408Y-50735664D01*
X162870804Y-50581395D01*
X162769032Y-50441317D01*
X162646602Y-50318887D01*
X162517127Y-50224819D01*
X162474461Y-50169489D01*
X162468482Y-50099875D01*
X162501087Y-50038080D01*
X162561926Y-50003723D01*
X162590012Y-50000500D01*
X164350500Y-50000500D01*
X164417539Y-50020185D01*
X164463294Y-50072989D01*
X164474500Y-50124500D01*
X164474500Y-116073809D01*
X164454815Y-116140848D01*
X164402011Y-116186603D01*
X164332853Y-116196547D01*
X164269297Y-116167522D01*
X164233459Y-116114764D01*
X164222837Y-116084409D01*
X164221267Y-116079921D01*
X164104284Y-115837003D01*
X163960838Y-115608711D01*
X163792734Y-115397915D01*
X163602085Y-115207266D01*
X163391289Y-115039162D01*
X163162997Y-114895716D01*
X163162994Y-114895714D01*
X162920082Y-114778734D01*
X162665602Y-114689687D01*
X162665594Y-114689684D01*
X162468446Y-114644687D01*
X162402732Y-114629688D01*
X162402728Y-114629687D01*
X162402719Y-114629686D01*
X162134813Y-114599500D01*
X162134809Y-114599500D01*
X161865191Y-114599500D01*
X161865186Y-114599500D01*
X161597280Y-114629686D01*
X161597268Y-114629688D01*
X161334405Y-114689684D01*
X161334397Y-114689687D01*
X161079917Y-114778734D01*
X160837005Y-114895714D01*
X160608712Y-115039161D01*
X160397915Y-115207265D01*
X160207265Y-115397915D01*
X160039161Y-115608712D01*
X159895714Y-115837005D01*
X159778734Y-116079917D01*
X159689687Y-116334397D01*
X159689684Y-116334405D01*
X159629688Y-116597268D01*
X159629686Y-116597280D01*
X159599500Y-116865186D01*
X159599500Y-117134813D01*
X159629686Y-117402719D01*
X159629688Y-117402731D01*
X159689684Y-117665594D01*
X159689687Y-117665602D01*
X159778734Y-117920082D01*
X159895714Y-118162994D01*
X159895716Y-118162997D01*
X160039162Y-118391289D01*
X160159935Y-118542734D01*
X160207265Y-118602084D01*
X160393000Y-118787819D01*
X160426485Y-118849142D01*
X160421501Y-118918834D01*
X160379629Y-118974767D01*
X160314165Y-118999184D01*
X160305319Y-118999500D01*
X128112300Y-118999500D01*
X128045261Y-118979815D01*
X127999506Y-118927011D01*
X127989562Y-118857853D01*
X128018587Y-118794297D01*
X128046328Y-118770506D01*
X128141289Y-118710838D01*
X128352085Y-118542734D01*
X128542734Y-118352085D01*
X128710838Y-118141289D01*
X128854284Y-117912997D01*
X128971267Y-117670079D01*
X129060316Y-117415591D01*
X129120312Y-117152732D01*
X129150500Y-116884809D01*
X129150500Y-116615191D01*
X129120312Y-116347268D01*
X129060316Y-116084409D01*
X128971267Y-115829921D01*
X128893278Y-115667975D01*
X128854285Y-115587005D01*
X128854284Y-115587003D01*
X128710838Y-115358711D01*
X128542734Y-115147915D01*
X128352085Y-114957266D01*
X128141289Y-114789162D01*
X127912997Y-114645716D01*
X127912994Y-114645714D01*
X127670082Y-114528734D01*
X127415602Y-114439687D01*
X127415594Y-114439684D01*
X127218446Y-114394687D01*
X127152732Y-114379688D01*
X127152728Y-114379687D01*
X127152719Y-114379686D01*
X126884813Y-114349500D01*
X126884809Y-114349500D01*
X126615191Y-114349500D01*
X126615186Y-114349500D01*
X126347280Y-114379686D01*
X126347268Y-114379688D01*
X126084405Y-114439684D01*
X126084397Y-114439687D01*
X125829917Y-114528734D01*
X125587005Y-114645714D01*
X125358712Y-114789161D01*
X125147915Y-114957265D01*
X124957265Y-115147915D01*
X124789161Y-115358712D01*
X124645714Y-115587005D01*
X124528734Y-115829917D01*
X124439687Y-116084397D01*
X124439684Y-116084405D01*
X124379688Y-116347268D01*
X124379686Y-116347280D01*
X124349500Y-116615186D01*
X124349500Y-116884813D01*
X124379686Y-117152719D01*
X124379688Y-117152731D01*
X124439684Y-117415594D01*
X124439687Y-117415602D01*
X124528734Y-117670082D01*
X124645714Y-117912994D01*
X124645716Y-117912997D01*
X124789162Y-118141289D01*
X124957266Y-118352085D01*
X125147915Y-118542734D01*
X125358711Y-118710838D01*
X125453672Y-118770506D01*
X125499963Y-118822841D01*
X125510611Y-118891894D01*
X125482236Y-118955743D01*
X125423847Y-118994115D01*
X125387700Y-118999500D01*
X124124500Y-118999500D01*
X124057461Y-118979815D01*
X124011706Y-118927011D01*
X124000500Y-118875500D01*
X124000500Y-104245199D01*
X137192204Y-104245199D01*
X137192205Y-104245200D01*
X138350634Y-104245200D01*
X138346240Y-104249594D01*
X138293579Y-104340806D01*
X138266320Y-104442539D01*
X138266320Y-104547861D01*
X138293579Y-104649594D01*
X138346240Y-104740806D01*
X138350634Y-104745200D01*
X137192205Y-104745200D01*
X137193405Y-104752784D01*
X137246911Y-104917455D01*
X137325515Y-105071724D01*
X137427287Y-105211802D01*
X137549717Y-105334232D01*
X137689795Y-105436004D01*
X137844062Y-105514608D01*
X138008735Y-105568114D01*
X138179749Y-105595200D01*
X138416320Y-105595200D01*
X138416320Y-104810886D01*
X138420714Y-104815280D01*
X138511926Y-104867941D01*
X138613659Y-104895200D01*
X138718981Y-104895200D01*
X138820714Y-104867941D01*
X138911926Y-104815280D01*
X138916320Y-104810886D01*
X138916320Y-105595200D01*
X139152891Y-105595200D01*
X139323904Y-105568114D01*
X139488577Y-105514608D01*
X139642844Y-105436004D01*
X139782922Y-105334232D01*
X139905352Y-105211802D01*
X140007124Y-105071724D01*
X140085728Y-104917455D01*
X140139234Y-104752784D01*
X140139234Y-104752783D01*
X140140435Y-104745200D01*
X138982006Y-104745200D01*
X138986400Y-104740806D01*
X139039061Y-104649594D01*
X139066320Y-104547861D01*
X139066320Y-104442539D01*
X139039061Y-104340806D01*
X138986400Y-104249594D01*
X138984725Y-104247919D01*
X160055884Y-104247919D01*
X160055885Y-104247920D01*
X161214314Y-104247920D01*
X161209920Y-104252314D01*
X161157259Y-104343526D01*
X161130000Y-104445259D01*
X161130000Y-104550581D01*
X161157259Y-104652314D01*
X161209920Y-104743526D01*
X161214314Y-104747920D01*
X160055885Y-104747920D01*
X160057085Y-104755504D01*
X160110591Y-104920175D01*
X160189195Y-105074444D01*
X160290967Y-105214522D01*
X160413397Y-105336952D01*
X160553475Y-105438724D01*
X160707742Y-105517328D01*
X160872415Y-105570834D01*
X161043429Y-105597920D01*
X161280000Y-105597920D01*
X161280000Y-104813606D01*
X161284394Y-104818000D01*
X161375606Y-104870661D01*
X161477339Y-104897920D01*
X161582661Y-104897920D01*
X161684394Y-104870661D01*
X161775606Y-104818000D01*
X161780000Y-104813606D01*
X161780000Y-105597920D01*
X162016571Y-105597920D01*
X162187584Y-105570834D01*
X162352257Y-105517328D01*
X162506524Y-105438724D01*
X162646602Y-105336952D01*
X162769032Y-105214522D01*
X162870804Y-105074444D01*
X162949408Y-104920175D01*
X163002914Y-104755504D01*
X163004115Y-104747920D01*
X161845686Y-104747920D01*
X161850080Y-104743526D01*
X161902741Y-104652314D01*
X161930000Y-104550581D01*
X161930000Y-104445259D01*
X161902741Y-104343526D01*
X161850080Y-104252314D01*
X161845686Y-104247920D01*
X163004115Y-104247920D01*
X163004115Y-104247919D01*
X163002914Y-104240335D01*
X162949408Y-104075664D01*
X162870804Y-103921395D01*
X162769032Y-103781317D01*
X162646602Y-103658887D01*
X162506524Y-103557115D01*
X162352257Y-103478511D01*
X162187584Y-103425005D01*
X162016571Y-103397920D01*
X161780000Y-103397920D01*
X161780000Y-104182234D01*
X161775606Y-104177840D01*
X161684394Y-104125179D01*
X161582661Y-104097920D01*
X161477339Y-104097920D01*
X161375606Y-104125179D01*
X161284394Y-104177840D01*
X161280000Y-104182234D01*
X161280000Y-103397920D01*
X161043429Y-103397920D01*
X160872415Y-103425005D01*
X160707742Y-103478511D01*
X160553475Y-103557115D01*
X160413397Y-103658887D01*
X160290967Y-103781317D01*
X160189195Y-103921395D01*
X160110591Y-104075664D01*
X160057085Y-104240335D01*
X160055884Y-104247919D01*
X138984725Y-104247919D01*
X138982006Y-104245200D01*
X140140435Y-104245200D01*
X140140435Y-104245199D01*
X140139234Y-104237615D01*
X140085728Y-104072944D01*
X140007124Y-103918675D01*
X139905352Y-103778597D01*
X139782922Y-103656167D01*
X139642844Y-103554395D01*
X139488577Y-103475791D01*
X139323904Y-103422285D01*
X139152891Y-103395200D01*
X138916320Y-103395200D01*
X138916320Y-104179514D01*
X138911926Y-104175120D01*
X138820714Y-104122459D01*
X138718981Y-104095200D01*
X138613659Y-104095200D01*
X138511926Y-104122459D01*
X138420714Y-104175120D01*
X138416320Y-104179514D01*
X138416320Y-103395200D01*
X138179749Y-103395200D01*
X138008735Y-103422285D01*
X137844062Y-103475791D01*
X137689795Y-103554395D01*
X137549717Y-103656167D01*
X137427287Y-103778597D01*
X137325515Y-103918675D01*
X137246911Y-104072944D01*
X137193405Y-104237615D01*
X137192204Y-104245199D01*
X124000500Y-104245199D01*
X124000500Y-78582133D01*
X125424500Y-78582133D01*
X125424500Y-78797866D01*
X125431209Y-78840222D01*
X125458246Y-79010926D01*
X125524908Y-79216089D01*
X125622843Y-79408299D01*
X125749641Y-79582821D01*
X125902179Y-79735359D01*
X126011586Y-79814848D01*
X126073294Y-79859682D01*
X126115959Y-79915012D01*
X126121938Y-79984626D01*
X126089332Y-80046421D01*
X126073294Y-80060318D01*
X125902179Y-80184641D01*
X125902177Y-80184643D01*
X125902176Y-80184643D01*
X125749643Y-80337176D01*
X125749643Y-80337177D01*
X125749641Y-80337179D01*
X125695186Y-80412129D01*
X125622843Y-80511700D01*
X125524909Y-80703908D01*
X125458245Y-80909077D01*
X125424500Y-81122133D01*
X125424500Y-81337866D01*
X125431209Y-81380222D01*
X125458246Y-81550926D01*
X125524908Y-81756089D01*
X125622843Y-81948299D01*
X125749641Y-82122821D01*
X125902179Y-82275359D01*
X126011589Y-82354850D01*
X126073720Y-82399991D01*
X126116385Y-82455321D01*
X126122364Y-82524935D01*
X126089758Y-82586730D01*
X126073720Y-82600627D01*
X125902503Y-82725024D01*
X125750025Y-82877502D01*
X125750025Y-82877503D01*
X125623271Y-83051963D01*
X125525372Y-83244098D01*
X125458733Y-83449190D01*
X125447519Y-83520000D01*
X126477291Y-83520000D01*
X126465548Y-83540339D01*
X126425000Y-83691667D01*
X126425000Y-83848333D01*
X126465548Y-83999661D01*
X126477291Y-84020000D01*
X125447519Y-84020000D01*
X125458733Y-84090809D01*
X125525372Y-84295901D01*
X125623271Y-84488036D01*
X125750025Y-84662496D01*
X125750025Y-84662497D01*
X125892107Y-84804579D01*
X125925592Y-84865902D01*
X125920608Y-84935594D01*
X125878736Y-84991527D01*
X125856840Y-85004638D01*
X125855672Y-85005182D01*
X125706342Y-85097289D01*
X125582289Y-85221342D01*
X125490187Y-85370663D01*
X125490186Y-85370666D01*
X125435001Y-85537203D01*
X125435001Y-85537204D01*
X125435000Y-85537204D01*
X125424500Y-85639983D01*
X125424500Y-86980001D01*
X125424501Y-86980018D01*
X125435000Y-87082796D01*
X125435001Y-87082799D01*
X125460261Y-87159028D01*
X125490186Y-87249334D01*
X125582288Y-87398656D01*
X125706344Y-87522712D01*
X125855666Y-87614814D01*
X126022203Y-87669999D01*
X126124991Y-87680500D01*
X127295500Y-87680499D01*
X127362539Y-87700184D01*
X127408294Y-87752987D01*
X127419500Y-87804499D01*
X127419500Y-93320887D01*
X127399815Y-93387926D01*
X127347011Y-93433681D01*
X127333821Y-93438816D01*
X127319580Y-93443444D01*
X127268906Y-93459909D01*
X127076700Y-93557843D01*
X126989788Y-93620989D01*
X126902179Y-93684641D01*
X126902177Y-93684643D01*
X126902176Y-93684643D01*
X126749643Y-93837176D01*
X126749643Y-93837177D01*
X126749641Y-93837179D01*
X126695186Y-93912129D01*
X126622843Y-94011700D01*
X126524909Y-94203908D01*
X126458245Y-94409077D01*
X126424500Y-94622133D01*
X126424500Y-94837866D01*
X126436671Y-94914708D01*
X126458246Y-95050926D01*
X126524908Y-95256089D01*
X126622843Y-95448299D01*
X126749641Y-95622821D01*
X126749643Y-95622823D01*
X126892003Y-95765183D01*
X126925488Y-95826506D01*
X126920504Y-95896198D01*
X126878632Y-95952131D01*
X126856728Y-95965245D01*
X126855885Y-95965637D01*
X126706654Y-96057684D01*
X126582684Y-96181654D01*
X126490643Y-96330875D01*
X126490641Y-96330880D01*
X126435494Y-96497302D01*
X126435493Y-96497309D01*
X126425000Y-96600013D01*
X126425000Y-97020000D01*
X127477291Y-97020000D01*
X127465548Y-97040339D01*
X127425000Y-97191667D01*
X127425000Y-97348333D01*
X127465548Y-97499661D01*
X127477291Y-97520000D01*
X126425001Y-97520000D01*
X126425001Y-97939986D01*
X126435494Y-98042697D01*
X126490641Y-98209119D01*
X126490643Y-98209124D01*
X126582684Y-98358345D01*
X126706654Y-98482315D01*
X126855875Y-98574356D01*
X126855880Y-98574358D01*
X127022302Y-98629505D01*
X127022309Y-98629506D01*
X127125019Y-98639999D01*
X127769999Y-98639999D01*
X127770000Y-98639998D01*
X127770000Y-97812709D01*
X127790339Y-97824452D01*
X127941667Y-97865000D01*
X128098333Y-97865000D01*
X128249661Y-97824452D01*
X128270000Y-97812709D01*
X128270000Y-98639999D01*
X128914972Y-98639999D01*
X128914986Y-98639998D01*
X129017697Y-98629505D01*
X129184119Y-98574358D01*
X129184124Y-98574356D01*
X129333345Y-98482315D01*
X129457315Y-98358345D01*
X129549356Y-98209124D01*
X129549358Y-98209119D01*
X129604505Y-98042697D01*
X129604506Y-98042690D01*
X129614999Y-97939986D01*
X129615000Y-97939973D01*
X129615000Y-97520000D01*
X128562709Y-97520000D01*
X128574452Y-97499661D01*
X128615000Y-97348333D01*
X128615000Y-97191667D01*
X128574452Y-97040339D01*
X128562709Y-97020000D01*
X129614999Y-97020000D01*
X129614999Y-96600028D01*
X129614998Y-96600013D01*
X129604505Y-96497302D01*
X129549358Y-96330880D01*
X129549356Y-96330875D01*
X129457315Y-96181654D01*
X129333345Y-96057684D01*
X129184118Y-95965640D01*
X129183277Y-95965248D01*
X129182796Y-95964824D01*
X129177975Y-95961851D01*
X129178483Y-95961027D01*
X129130836Y-95919078D01*
X129111681Y-95851885D01*
X129131894Y-95785003D01*
X129147987Y-95765192D01*
X129290359Y-95622821D01*
X129417157Y-95448299D01*
X129442680Y-95398205D01*
X129490654Y-95347410D01*
X129553165Y-95330500D01*
X131141023Y-95330500D01*
X131208062Y-95350185D01*
X131228704Y-95366819D01*
X137232763Y-101370878D01*
X137266248Y-101432201D01*
X137261264Y-101501893D01*
X137255570Y-101514848D01*
X137246445Y-101532757D01*
X137192917Y-101697501D01*
X137176125Y-101803526D01*
X137165820Y-101868589D01*
X137165820Y-102041811D01*
X137192918Y-102212901D01*
X137246447Y-102377645D01*
X137325088Y-102531988D01*
X137426906Y-102672128D01*
X137549392Y-102794614D01*
X137689532Y-102896432D01*
X137843875Y-102975073D01*
X138008619Y-103028602D01*
X138179709Y-103055700D01*
X138179710Y-103055700D01*
X139152930Y-103055700D01*
X139152931Y-103055700D01*
X139324021Y-103028602D01*
X139488765Y-102975073D01*
X139643108Y-102896432D01*
X139783248Y-102794614D01*
X139905734Y-102672128D01*
X140007552Y-102531988D01*
X140086193Y-102377645D01*
X140139722Y-102212901D01*
X140166820Y-102041811D01*
X140166820Y-101868589D01*
X140141372Y-101707919D01*
X160055884Y-101707919D01*
X160055885Y-101707920D01*
X161214314Y-101707920D01*
X161209920Y-101712314D01*
X161157259Y-101803526D01*
X161130000Y-101905259D01*
X161130000Y-102010581D01*
X161157259Y-102112314D01*
X161209920Y-102203526D01*
X161214314Y-102207920D01*
X160055885Y-102207920D01*
X160057085Y-102215504D01*
X160110591Y-102380175D01*
X160189195Y-102534444D01*
X160290967Y-102674522D01*
X160413397Y-102796952D01*
X160553475Y-102898724D01*
X160707742Y-102977328D01*
X160872415Y-103030834D01*
X161043429Y-103057920D01*
X161280000Y-103057920D01*
X161280000Y-102273606D01*
X161284394Y-102278000D01*
X161375606Y-102330661D01*
X161477339Y-102357920D01*
X161582661Y-102357920D01*
X161684394Y-102330661D01*
X161775606Y-102278000D01*
X161780000Y-102273606D01*
X161780000Y-103057920D01*
X162016571Y-103057920D01*
X162187584Y-103030834D01*
X162352257Y-102977328D01*
X162506524Y-102898724D01*
X162646602Y-102796952D01*
X162769032Y-102674522D01*
X162870804Y-102534444D01*
X162949408Y-102380175D01*
X163002914Y-102215504D01*
X163004115Y-102207920D01*
X161845686Y-102207920D01*
X161850080Y-102203526D01*
X161902741Y-102112314D01*
X161930000Y-102010581D01*
X161930000Y-101905259D01*
X161902741Y-101803526D01*
X161850080Y-101712314D01*
X161845686Y-101707920D01*
X163004115Y-101707920D01*
X163004115Y-101707919D01*
X163002914Y-101700335D01*
X162949408Y-101535664D01*
X162870804Y-101381395D01*
X162769032Y-101241317D01*
X162646602Y-101118887D01*
X162506524Y-101017115D01*
X162352257Y-100938511D01*
X162187584Y-100885005D01*
X162016571Y-100857920D01*
X161780000Y-100857920D01*
X161780000Y-101642234D01*
X161775606Y-101637840D01*
X161684394Y-101585179D01*
X161582661Y-101557920D01*
X161477339Y-101557920D01*
X161375606Y-101585179D01*
X161284394Y-101637840D01*
X161280000Y-101642234D01*
X161280000Y-100857920D01*
X161043429Y-100857920D01*
X160872415Y-100885005D01*
X160707742Y-100938511D01*
X160553475Y-101017115D01*
X160413397Y-101118887D01*
X160290967Y-101241317D01*
X160189195Y-101381395D01*
X160110591Y-101535664D01*
X160057085Y-101700335D01*
X160055884Y-101707919D01*
X140141372Y-101707919D01*
X140139722Y-101697499D01*
X140086193Y-101532755D01*
X140007552Y-101378412D01*
X139905734Y-101238272D01*
X139783248Y-101115786D01*
X139643108Y-101013968D01*
X139488765Y-100935327D01*
X139324021Y-100881798D01*
X139324019Y-100881797D01*
X139324018Y-100881797D01*
X139173261Y-100857920D01*
X139152931Y-100854700D01*
X139152930Y-100854700D01*
X138466417Y-100854700D01*
X138436976Y-100846055D01*
X138406990Y-100839532D01*
X138401974Y-100835777D01*
X138399378Y-100835015D01*
X138378736Y-100818381D01*
X138287736Y-100727381D01*
X138254251Y-100666058D01*
X138259235Y-100596366D01*
X138301107Y-100540433D01*
X138366571Y-100516016D01*
X138375417Y-100515700D01*
X139152930Y-100515700D01*
X139152931Y-100515700D01*
X139324021Y-100488602D01*
X139488765Y-100435073D01*
X139643108Y-100356432D01*
X139783248Y-100254614D01*
X139905734Y-100132128D01*
X140007552Y-99991988D01*
X140086193Y-99837645D01*
X140139722Y-99672901D01*
X140166820Y-99501811D01*
X140166820Y-99331309D01*
X160029500Y-99331309D01*
X160029500Y-99504530D01*
X160056166Y-99672897D01*
X160056598Y-99675621D01*
X160110127Y-99840365D01*
X160188768Y-99994708D01*
X160290586Y-100134848D01*
X160413072Y-100257334D01*
X160553212Y-100359152D01*
X160707555Y-100437793D01*
X160872299Y-100491322D01*
X161043389Y-100518420D01*
X161043390Y-100518420D01*
X162016610Y-100518420D01*
X162016611Y-100518420D01*
X162187701Y-100491322D01*
X162352445Y-100437793D01*
X162506788Y-100359152D01*
X162646928Y-100257334D01*
X162769414Y-100134848D01*
X162871232Y-99994708D01*
X162949873Y-99840365D01*
X163003402Y-99675621D01*
X163030500Y-99504531D01*
X163030500Y-99331309D01*
X163003402Y-99160219D01*
X162949873Y-98995475D01*
X162871232Y-98841132D01*
X162769414Y-98700992D01*
X162646928Y-98578506D01*
X162506788Y-98476688D01*
X162352445Y-98398047D01*
X162187701Y-98344518D01*
X162187699Y-98344517D01*
X162187698Y-98344517D01*
X162056271Y-98323701D01*
X162016611Y-98317420D01*
X161043389Y-98317420D01*
X161003728Y-98323701D01*
X160872302Y-98344517D01*
X160707552Y-98398048D01*
X160553211Y-98476688D01*
X160473256Y-98534779D01*
X160413072Y-98578506D01*
X160413070Y-98578508D01*
X160413069Y-98578508D01*
X160290588Y-98700989D01*
X160290588Y-98700990D01*
X160290586Y-98700992D01*
X160246859Y-98761176D01*
X160188768Y-98841131D01*
X160110128Y-98995472D01*
X160056597Y-99160222D01*
X160029500Y-99331309D01*
X140166820Y-99331309D01*
X140166820Y-99328589D01*
X140139722Y-99157499D01*
X140086193Y-98992755D01*
X140007552Y-98838412D01*
X139905734Y-98698272D01*
X139783248Y-98575786D01*
X139643108Y-98473968D01*
X139488765Y-98395327D01*
X139324021Y-98341798D01*
X139324019Y-98341797D01*
X139324018Y-98341797D01*
X139170104Y-98317420D01*
X139152931Y-98314700D01*
X138179709Y-98314700D01*
X138162536Y-98317420D01*
X138008622Y-98341797D01*
X137843872Y-98395328D01*
X137689531Y-98473968D01*
X137678043Y-98482315D01*
X137549392Y-98575786D01*
X137549390Y-98575788D01*
X137549389Y-98575788D01*
X137426908Y-98698269D01*
X137426908Y-98698270D01*
X137426906Y-98698272D01*
X137424930Y-98700992D01*
X137325088Y-98838411D01*
X137246448Y-98992752D01*
X137192917Y-99157502D01*
X137166033Y-99327241D01*
X137136104Y-99390376D01*
X137076792Y-99427307D01*
X137006930Y-99426309D01*
X136955879Y-99395524D01*
X134351664Y-96791309D01*
X137169500Y-96791309D01*
X137169500Y-96964531D01*
X137196598Y-97135621D01*
X137250127Y-97300365D01*
X137328768Y-97454708D01*
X137430586Y-97594848D01*
X137553072Y-97717334D01*
X137693212Y-97819152D01*
X137847555Y-97897793D01*
X138012299Y-97951322D01*
X138183389Y-97978420D01*
X138183390Y-97978420D01*
X139156610Y-97978420D01*
X139156611Y-97978420D01*
X139327701Y-97951322D01*
X139492445Y-97897793D01*
X139646788Y-97819152D01*
X139786928Y-97717334D01*
X139909414Y-97594848D01*
X140011232Y-97454708D01*
X140089873Y-97300365D01*
X140143402Y-97135621D01*
X140170500Y-96964531D01*
X140170500Y-96791309D01*
X160029500Y-96791309D01*
X160029500Y-96964531D01*
X160056598Y-97135621D01*
X160110127Y-97300365D01*
X160188768Y-97454708D01*
X160290586Y-97594848D01*
X160413072Y-97717334D01*
X160553212Y-97819152D01*
X160707555Y-97897793D01*
X160872299Y-97951322D01*
X161043389Y-97978420D01*
X161043390Y-97978420D01*
X162016610Y-97978420D01*
X162016611Y-97978420D01*
X162187701Y-97951322D01*
X162352445Y-97897793D01*
X162506788Y-97819152D01*
X162646928Y-97717334D01*
X162769414Y-97594848D01*
X162871232Y-97454708D01*
X162949873Y-97300365D01*
X163003402Y-97135621D01*
X163030500Y-96964531D01*
X163030500Y-96791309D01*
X163003402Y-96620219D01*
X162949873Y-96455475D01*
X162871232Y-96301132D01*
X162769414Y-96160992D01*
X162646928Y-96038506D01*
X162506788Y-95936688D01*
X162352445Y-95858047D01*
X162187701Y-95804518D01*
X162187699Y-95804517D01*
X162187698Y-95804517D01*
X162056271Y-95783701D01*
X162016611Y-95777420D01*
X161043389Y-95777420D01*
X161003728Y-95783701D01*
X160872302Y-95804517D01*
X160707552Y-95858048D01*
X160553211Y-95936688D01*
X160513367Y-95965637D01*
X160413072Y-96038506D01*
X160413070Y-96038508D01*
X160413069Y-96038508D01*
X160290588Y-96160989D01*
X160290588Y-96160990D01*
X160290586Y-96160992D01*
X160275574Y-96181654D01*
X160188768Y-96301131D01*
X160110128Y-96455472D01*
X160056597Y-96620222D01*
X160041499Y-96715548D01*
X160029500Y-96791309D01*
X140170500Y-96791309D01*
X140143402Y-96620219D01*
X140089873Y-96455475D01*
X140011232Y-96301132D01*
X139909414Y-96160992D01*
X139786928Y-96038506D01*
X139646788Y-95936688D01*
X139492445Y-95858047D01*
X139327701Y-95804518D01*
X139327699Y-95804517D01*
X139327698Y-95804517D01*
X139196271Y-95783701D01*
X139156611Y-95777420D01*
X138183389Y-95777420D01*
X138143728Y-95783701D01*
X138012302Y-95804517D01*
X137847552Y-95858048D01*
X137693211Y-95936688D01*
X137653367Y-95965637D01*
X137553072Y-96038506D01*
X137553070Y-96038508D01*
X137553069Y-96038508D01*
X137430588Y-96160989D01*
X137430588Y-96160990D01*
X137430586Y-96160992D01*
X137415574Y-96181654D01*
X137328768Y-96301131D01*
X137250128Y-96455472D01*
X137196597Y-96620222D01*
X137181499Y-96715548D01*
X137169500Y-96791309D01*
X134351664Y-96791309D01*
X131928710Y-94368355D01*
X131921641Y-94361286D01*
X131921640Y-94361284D01*
X131811665Y-94251309D01*
X137169500Y-94251309D01*
X137169500Y-94424531D01*
X137196598Y-94595621D01*
X137250127Y-94760365D01*
X137328768Y-94914708D01*
X137430586Y-95054848D01*
X137553072Y-95177334D01*
X137693212Y-95279152D01*
X137847555Y-95357793D01*
X138012299Y-95411322D01*
X138183389Y-95438420D01*
X138183390Y-95438420D01*
X139156610Y-95438420D01*
X139156611Y-95438420D01*
X139327701Y-95411322D01*
X139492445Y-95357793D01*
X139646788Y-95279152D01*
X139786928Y-95177334D01*
X139909414Y-95054848D01*
X140011232Y-94914708D01*
X140089873Y-94760365D01*
X140143402Y-94595621D01*
X140170500Y-94424531D01*
X140170500Y-94251309D01*
X160029500Y-94251309D01*
X160029500Y-94424531D01*
X160056598Y-94595621D01*
X160110127Y-94760365D01*
X160188768Y-94914708D01*
X160290586Y-95054848D01*
X160413072Y-95177334D01*
X160553212Y-95279152D01*
X160707555Y-95357793D01*
X160872299Y-95411322D01*
X161043389Y-95438420D01*
X161043390Y-95438420D01*
X162016610Y-95438420D01*
X162016611Y-95438420D01*
X162187701Y-95411322D01*
X162352445Y-95357793D01*
X162506788Y-95279152D01*
X162646928Y-95177334D01*
X162769414Y-95054848D01*
X162871232Y-94914708D01*
X162949873Y-94760365D01*
X163003402Y-94595621D01*
X163030500Y-94424531D01*
X163030500Y-94251309D01*
X163003402Y-94080219D01*
X162949873Y-93915475D01*
X162871232Y-93761132D01*
X162769414Y-93620992D01*
X162646928Y-93498506D01*
X162506788Y-93396688D01*
X162352445Y-93318047D01*
X162187701Y-93264518D01*
X162187699Y-93264517D01*
X162187698Y-93264517D01*
X162056271Y-93243701D01*
X162016611Y-93237420D01*
X161043389Y-93237420D01*
X161003728Y-93243701D01*
X160872302Y-93264517D01*
X160707552Y-93318048D01*
X160553211Y-93396688D01*
X160495225Y-93438818D01*
X160413072Y-93498506D01*
X160413070Y-93498508D01*
X160413069Y-93498508D01*
X160290588Y-93620989D01*
X160290588Y-93620990D01*
X160290586Y-93620992D01*
X160246859Y-93681176D01*
X160188768Y-93761131D01*
X160110128Y-93915472D01*
X160056597Y-94080222D01*
X160037007Y-94203911D01*
X160029500Y-94251309D01*
X140170500Y-94251309D01*
X140143402Y-94080219D01*
X140089873Y-93915475D01*
X140011232Y-93761132D01*
X139909414Y-93620992D01*
X139786928Y-93498506D01*
X139646788Y-93396688D01*
X139492445Y-93318047D01*
X139327701Y-93264518D01*
X139327699Y-93264517D01*
X139327698Y-93264517D01*
X139196271Y-93243701D01*
X139156611Y-93237420D01*
X138183389Y-93237420D01*
X138143728Y-93243701D01*
X138012302Y-93264517D01*
X137847552Y-93318048D01*
X137693211Y-93396688D01*
X137635225Y-93438818D01*
X137553072Y-93498506D01*
X137553070Y-93498508D01*
X137553069Y-93498508D01*
X137430588Y-93620989D01*
X137430588Y-93620990D01*
X137430586Y-93620992D01*
X137386859Y-93681176D01*
X137328768Y-93761131D01*
X137250128Y-93915472D01*
X137196597Y-94080222D01*
X137177007Y-94203911D01*
X137169500Y-94251309D01*
X131811665Y-94251309D01*
X131809836Y-94249480D01*
X131723024Y-94199360D01*
X131723024Y-94199359D01*
X131723020Y-94199358D01*
X131672905Y-94170423D01*
X131520177Y-94129499D01*
X131362063Y-94129499D01*
X131354467Y-94129499D01*
X131354451Y-94129500D01*
X129553165Y-94129500D01*
X129486126Y-94109815D01*
X129442680Y-94061794D01*
X129417157Y-94011701D01*
X129290359Y-93837179D01*
X129137821Y-93684641D01*
X128963299Y-93557843D01*
X128771093Y-93459909D01*
X128730155Y-93446607D01*
X128706180Y-93438817D01*
X128648506Y-93399380D01*
X128621308Y-93335021D01*
X128620500Y-93320887D01*
X128620500Y-91711309D01*
X137169500Y-91711309D01*
X137169500Y-91884531D01*
X137196598Y-92055621D01*
X137250127Y-92220365D01*
X137328768Y-92374708D01*
X137430586Y-92514848D01*
X137553072Y-92637334D01*
X137693212Y-92739152D01*
X137847555Y-92817793D01*
X138012299Y-92871322D01*
X138183389Y-92898420D01*
X138183390Y-92898420D01*
X139156610Y-92898420D01*
X139156611Y-92898420D01*
X139327701Y-92871322D01*
X139492445Y-92817793D01*
X139646788Y-92739152D01*
X139786928Y-92637334D01*
X139909414Y-92514848D01*
X140011232Y-92374708D01*
X140089873Y-92220365D01*
X140143402Y-92055621D01*
X140170500Y-91884531D01*
X140170500Y-91711309D01*
X160029500Y-91711309D01*
X160029500Y-91884531D01*
X160056598Y-92055621D01*
X160110127Y-92220365D01*
X160188768Y-92374708D01*
X160290586Y-92514848D01*
X160413072Y-92637334D01*
X160553212Y-92739152D01*
X160707555Y-92817793D01*
X160872299Y-92871322D01*
X161043389Y-92898420D01*
X161043390Y-92898420D01*
X162016610Y-92898420D01*
X162016611Y-92898420D01*
X162187701Y-92871322D01*
X162352445Y-92817793D01*
X162506788Y-92739152D01*
X162646928Y-92637334D01*
X162769414Y-92514848D01*
X162871232Y-92374708D01*
X162949873Y-92220365D01*
X163003402Y-92055621D01*
X163030500Y-91884531D01*
X163030500Y-91711309D01*
X163003402Y-91540219D01*
X162949873Y-91375475D01*
X162871232Y-91221132D01*
X162769414Y-91080992D01*
X162646928Y-90958506D01*
X162506788Y-90856688D01*
X162352445Y-90778047D01*
X162187701Y-90724518D01*
X162187699Y-90724517D01*
X162187698Y-90724517D01*
X162056271Y-90703701D01*
X162016611Y-90697420D01*
X161043389Y-90697420D01*
X161003728Y-90703701D01*
X160872302Y-90724517D01*
X160707552Y-90778048D01*
X160553211Y-90856688D01*
X160473256Y-90914779D01*
X160413072Y-90958506D01*
X160413070Y-90958508D01*
X160413069Y-90958508D01*
X160290588Y-91080989D01*
X160290588Y-91080990D01*
X160290586Y-91080992D01*
X160246859Y-91141176D01*
X160188768Y-91221131D01*
X160110128Y-91375472D01*
X160056597Y-91540222D01*
X160029500Y-91711309D01*
X140170500Y-91711309D01*
X140143402Y-91540219D01*
X140089873Y-91375475D01*
X140011232Y-91221132D01*
X139909414Y-91080992D01*
X139786928Y-90958506D01*
X139646788Y-90856688D01*
X139492445Y-90778047D01*
X139327701Y-90724518D01*
X139327699Y-90724517D01*
X139327698Y-90724517D01*
X139196271Y-90703701D01*
X139156611Y-90697420D01*
X138183389Y-90697420D01*
X138143728Y-90703701D01*
X138012302Y-90724517D01*
X137847552Y-90778048D01*
X137693211Y-90856688D01*
X137613256Y-90914779D01*
X137553072Y-90958506D01*
X137553070Y-90958508D01*
X137553069Y-90958508D01*
X137430588Y-91080989D01*
X137430588Y-91080990D01*
X137430586Y-91080992D01*
X137386859Y-91141176D01*
X137328768Y-91221131D01*
X137250128Y-91375472D01*
X137196597Y-91540222D01*
X137169500Y-91711309D01*
X128620500Y-91711309D01*
X128620500Y-89171309D01*
X137169500Y-89171309D01*
X137169500Y-89344531D01*
X137196598Y-89515621D01*
X137250127Y-89680365D01*
X137328768Y-89834708D01*
X137430586Y-89974848D01*
X137553072Y-90097334D01*
X137693212Y-90199152D01*
X137847555Y-90277793D01*
X138012299Y-90331322D01*
X138183389Y-90358420D01*
X138183390Y-90358420D01*
X139156610Y-90358420D01*
X139156611Y-90358420D01*
X139327701Y-90331322D01*
X139492445Y-90277793D01*
X139646788Y-90199152D01*
X139786928Y-90097334D01*
X139909414Y-89974848D01*
X140011232Y-89834708D01*
X140089873Y-89680365D01*
X140143402Y-89515621D01*
X140170500Y-89344531D01*
X140170500Y-89171309D01*
X160029500Y-89171309D01*
X160029500Y-89344531D01*
X160056598Y-89515621D01*
X160110127Y-89680365D01*
X160188768Y-89834708D01*
X160290586Y-89974848D01*
X160413072Y-90097334D01*
X160553212Y-90199152D01*
X160707555Y-90277793D01*
X160872299Y-90331322D01*
X161043389Y-90358420D01*
X161043390Y-90358420D01*
X162016610Y-90358420D01*
X162016611Y-90358420D01*
X162187701Y-90331322D01*
X162352445Y-90277793D01*
X162506788Y-90199152D01*
X162646928Y-90097334D01*
X162769414Y-89974848D01*
X162871232Y-89834708D01*
X162949873Y-89680365D01*
X163003402Y-89515621D01*
X163030500Y-89344531D01*
X163030500Y-89171309D01*
X163003402Y-89000219D01*
X162949873Y-88835475D01*
X162871232Y-88681132D01*
X162769414Y-88540992D01*
X162646928Y-88418506D01*
X162506788Y-88316688D01*
X162352445Y-88238047D01*
X162187701Y-88184518D01*
X162187699Y-88184517D01*
X162187698Y-88184517D01*
X162056271Y-88163701D01*
X162016611Y-88157420D01*
X161043389Y-88157420D01*
X161003728Y-88163701D01*
X160872302Y-88184517D01*
X160707552Y-88238048D01*
X160553211Y-88316688D01*
X160473256Y-88374779D01*
X160413072Y-88418506D01*
X160413070Y-88418508D01*
X160413069Y-88418508D01*
X160290588Y-88540989D01*
X160290588Y-88540990D01*
X160290586Y-88540992D01*
X160246859Y-88601176D01*
X160188768Y-88681131D01*
X160110128Y-88835472D01*
X160056597Y-89000222D01*
X160029500Y-89171309D01*
X140170500Y-89171309D01*
X140143402Y-89000219D01*
X140089873Y-88835475D01*
X140011232Y-88681132D01*
X139909414Y-88540992D01*
X139786928Y-88418506D01*
X139646788Y-88316688D01*
X139492445Y-88238047D01*
X139327701Y-88184518D01*
X139327699Y-88184517D01*
X139327698Y-88184517D01*
X139196271Y-88163701D01*
X139156611Y-88157420D01*
X138183389Y-88157420D01*
X138143728Y-88163701D01*
X138012302Y-88184517D01*
X137847552Y-88238048D01*
X137693211Y-88316688D01*
X137613256Y-88374779D01*
X137553072Y-88418506D01*
X137553070Y-88418508D01*
X137553069Y-88418508D01*
X137430588Y-88540989D01*
X137430588Y-88540990D01*
X137430586Y-88540992D01*
X137386859Y-88601176D01*
X137328768Y-88681131D01*
X137250128Y-88835472D01*
X137196597Y-89000222D01*
X137169500Y-89171309D01*
X128620500Y-89171309D01*
X128620500Y-87399060D01*
X128620501Y-87399047D01*
X128620501Y-87230944D01*
X128620501Y-87230943D01*
X128601230Y-87159025D01*
X128602891Y-87089178D01*
X128603250Y-87088074D01*
X128604999Y-87082797D01*
X128615500Y-86980009D01*
X128615499Y-85639992D01*
X128604999Y-85537203D01*
X128549814Y-85370666D01*
X128457712Y-85221344D01*
X128333656Y-85097288D01*
X128184334Y-85005186D01*
X128184332Y-85005185D01*
X128184325Y-85005181D01*
X128183165Y-85004640D01*
X128182503Y-85004057D01*
X128178187Y-85001395D01*
X128178642Y-85000657D01*
X128130727Y-84958466D01*
X128111577Y-84891272D01*
X128131795Y-84824392D01*
X128147892Y-84804578D01*
X128289977Y-84662493D01*
X128416728Y-84488036D01*
X128514627Y-84295901D01*
X128581266Y-84090809D01*
X128592481Y-84020000D01*
X127562709Y-84020000D01*
X127574452Y-83999661D01*
X127615000Y-83848333D01*
X127615000Y-83691667D01*
X127574452Y-83540339D01*
X127562709Y-83520000D01*
X128592481Y-83520000D01*
X128581266Y-83449190D01*
X128514627Y-83244098D01*
X128416728Y-83051963D01*
X128289974Y-82877503D01*
X128289974Y-82877502D01*
X128137497Y-82725025D01*
X127966279Y-82600627D01*
X127923614Y-82545297D01*
X127917635Y-82475683D01*
X127950241Y-82413888D01*
X127966280Y-82399991D01*
X128028411Y-82354850D01*
X128137821Y-82275359D01*
X128290359Y-82122821D01*
X128417157Y-81948299D01*
X128515092Y-81756089D01*
X128581754Y-81550926D01*
X128608791Y-81380222D01*
X128615500Y-81337866D01*
X128615500Y-81122133D01*
X128593002Y-80980095D01*
X128581754Y-80909074D01*
X128515092Y-80703911D01*
X128417157Y-80511701D01*
X128290359Y-80337179D01*
X128137821Y-80184641D01*
X127966704Y-80060317D01*
X127924040Y-80004988D01*
X127918061Y-79935374D01*
X127950667Y-79873580D01*
X127966702Y-79859684D01*
X128137821Y-79735359D01*
X128290359Y-79582821D01*
X128417157Y-79408299D01*
X128515092Y-79216089D01*
X128581754Y-79010926D01*
X128608791Y-78840222D01*
X128615500Y-78797866D01*
X128615500Y-78582133D01*
X128586124Y-78396666D01*
X128581754Y-78369074D01*
X128515092Y-78163911D01*
X128417157Y-77971701D01*
X128290359Y-77797179D01*
X128137821Y-77644641D01*
X127963299Y-77517843D01*
X127771089Y-77419908D01*
X127565926Y-77353246D01*
X127565924Y-77353245D01*
X127565922Y-77353245D01*
X127352866Y-77319500D01*
X127352861Y-77319500D01*
X126687139Y-77319500D01*
X126687134Y-77319500D01*
X126474077Y-77353245D01*
X126268908Y-77419909D01*
X126076700Y-77517843D01*
X125994190Y-77577791D01*
X125902179Y-77644641D01*
X125902177Y-77644643D01*
X125902176Y-77644643D01*
X125749643Y-77797176D01*
X125749643Y-77797177D01*
X125749641Y-77797179D01*
X125703213Y-77861081D01*
X125622843Y-77971700D01*
X125524909Y-78163908D01*
X125458245Y-78369077D01*
X125424500Y-78582133D01*
X124000500Y-78582133D01*
X124000500Y-53354745D01*
X124020185Y-53287706D01*
X124072989Y-53241951D01*
X124142147Y-53232007D01*
X124205703Y-53261032D01*
X124241539Y-53313786D01*
X124278733Y-53420079D01*
X124278737Y-53420087D01*
X124278738Y-53420090D01*
X124395714Y-53662994D01*
X124395716Y-53662997D01*
X124539162Y-53891289D01*
X124707266Y-54102085D01*
X124897915Y-54292734D01*
X125108711Y-54460838D01*
X125337003Y-54604284D01*
X125579921Y-54721267D01*
X125771049Y-54788145D01*
X125834397Y-54810312D01*
X125834405Y-54810315D01*
X125834408Y-54810315D01*
X125834409Y-54810316D01*
X126097268Y-54870312D01*
X126365187Y-54900499D01*
X126365188Y-54900500D01*
X126365191Y-54900500D01*
X126634812Y-54900500D01*
X126634812Y-54900499D01*
X126902732Y-54870312D01*
X127165591Y-54810316D01*
X127420079Y-54721267D01*
X127662997Y-54604284D01*
X127891289Y-54460838D01*
X128102085Y-54292734D01*
X128292734Y-54102085D01*
X128460838Y-53891289D01*
X128604284Y-53662997D01*
X128721267Y-53420079D01*
X128810316Y-53165591D01*
X128870312Y-52902732D01*
X128900500Y-52634809D01*
X128900500Y-52365191D01*
X128870312Y-52097268D01*
X128810316Y-51834409D01*
X128721267Y-51579921D01*
X128604284Y-51337003D01*
X128460838Y-51108711D01*
X128292734Y-50897915D01*
X128102085Y-50707266D01*
X128064635Y-50677401D01*
X128001787Y-50627281D01*
X127891289Y-50539162D01*
X127662997Y-50395716D01*
X127662994Y-50395714D01*
X127420082Y-50278734D01*
X127313791Y-50241541D01*
X127257015Y-50200820D01*
X127231268Y-50135867D01*
X127244724Y-50067305D01*
X127293112Y-50016902D01*
X127354746Y-50000500D01*
X137214358Y-50000500D01*
X137281397Y-50020185D01*
G37*
G04 #@! TD.AperFunction*
G04 #@! TD*
M02*
