G04 #@! TF.GenerationSoftware,KiCad,Pcbnew,9.0.0*
G04 #@! TF.CreationDate,2025-07-09T15:49:06-04:00*
G04 #@! TF.ProjectId,SMACAR RECEIVER BOARD,534d4143-4152-4205-9245-434549564552,rev?*
G04 #@! TF.SameCoordinates,Original*
G04 #@! TF.FileFunction,Legend,Top*
G04 #@! TF.FilePolarity,Positive*
%FSLAX46Y46*%
G04 Gerber Fmt 4.6, Leading zero omitted, Abs format (unit mm)*
G04 Created by KiCad (PCBNEW 9.0.0) date 2025-07-09 15:49:06*
%MOMM*%
%LPD*%
G01*
G04 APERTURE LIST*
G04 Aperture macros list*
%AMRoundRect*
0 Rectangle with rounded corners*
0 $1 Rounding radius*
0 $2 $3 $4 $5 $6 $7 $8 $9 X,Y pos of 4 corners*
0 Add a 4 corners polygon primitive as box body*
4,1,4,$2,$3,$4,$5,$6,$7,$8,$9,$2,$3,0*
0 Add four circle primitives for the rounded corners*
1,1,$1+$1,$2,$3*
1,1,$1+$1,$4,$5*
1,1,$1+$1,$6,$7*
1,1,$1+$1,$8,$9*
0 Add four rect primitives between the rounded corners*
20,1,$1+$1,$2,$3,$4,$5,0*
20,1,$1+$1,$4,$5,$6,$7,0*
20,1,$1+$1,$6,$7,$8,$9,0*
20,1,$1+$1,$8,$9,$2,$3,0*%
G04 Aperture macros list end*
%ADD10C,0.150000*%
%ADD11C,0.120000*%
%ADD12C,3.800000*%
%ADD13RoundRect,0.250000X0.262500X0.450000X-0.262500X0.450000X-0.262500X-0.450000X0.262500X-0.450000X0*%
%ADD14RoundRect,0.250000X0.845000X-0.620000X0.845000X0.620000X-0.845000X0.620000X-0.845000X-0.620000X0*%
%ADD15O,2.190000X1.740000*%
%ADD16R,2.000000X1.200000*%
%ADD17O,2.000000X1.200000*%
G04 APERTURE END LIST*
D10*
X133833333Y-81104819D02*
X133500000Y-80628628D01*
X133261905Y-81104819D02*
X133261905Y-80104819D01*
X133261905Y-80104819D02*
X133642857Y-80104819D01*
X133642857Y-80104819D02*
X133738095Y-80152438D01*
X133738095Y-80152438D02*
X133785714Y-80200057D01*
X133785714Y-80200057D02*
X133833333Y-80295295D01*
X133833333Y-80295295D02*
X133833333Y-80438152D01*
X133833333Y-80438152D02*
X133785714Y-80533390D01*
X133785714Y-80533390D02*
X133738095Y-80581009D01*
X133738095Y-80581009D02*
X133642857Y-80628628D01*
X133642857Y-80628628D02*
X133261905Y-80628628D01*
X134166667Y-80104819D02*
X134785714Y-80104819D01*
X134785714Y-80104819D02*
X134452381Y-80485771D01*
X134452381Y-80485771D02*
X134595238Y-80485771D01*
X134595238Y-80485771D02*
X134690476Y-80533390D01*
X134690476Y-80533390D02*
X134738095Y-80581009D01*
X134738095Y-80581009D02*
X134785714Y-80676247D01*
X134785714Y-80676247D02*
X134785714Y-80914342D01*
X134785714Y-80914342D02*
X134738095Y-81009580D01*
X134738095Y-81009580D02*
X134690476Y-81057200D01*
X134690476Y-81057200D02*
X134595238Y-81104819D01*
X134595238Y-81104819D02*
X134309524Y-81104819D01*
X134309524Y-81104819D02*
X134214286Y-81057200D01*
X134214286Y-81057200D02*
X134166667Y-81009580D01*
X130974819Y-79523333D02*
X131689104Y-79523333D01*
X131689104Y-79523333D02*
X131831961Y-79570952D01*
X131831961Y-79570952D02*
X131927200Y-79666190D01*
X131927200Y-79666190D02*
X131974819Y-79809047D01*
X131974819Y-79809047D02*
X131974819Y-79904285D01*
X131974819Y-78523333D02*
X131974819Y-79094761D01*
X131974819Y-78809047D02*
X130974819Y-78809047D01*
X130974819Y-78809047D02*
X131117676Y-78904285D01*
X131117676Y-78904285D02*
X131212914Y-78999523D01*
X131212914Y-78999523D02*
X131260533Y-79094761D01*
X150608095Y-48512739D02*
X150608095Y-49322262D01*
X150608095Y-49322262D02*
X150655714Y-49417500D01*
X150655714Y-49417500D02*
X150703333Y-49465120D01*
X150703333Y-49465120D02*
X150798571Y-49512739D01*
X150798571Y-49512739D02*
X150989047Y-49512739D01*
X150989047Y-49512739D02*
X151084285Y-49465120D01*
X151084285Y-49465120D02*
X151131904Y-49417500D01*
X151131904Y-49417500D02*
X151179523Y-49322262D01*
X151179523Y-49322262D02*
X151179523Y-48512739D01*
X152179523Y-49512739D02*
X151608095Y-49512739D01*
X151893809Y-49512739D02*
X151893809Y-48512739D01*
X151893809Y-48512739D02*
X151798571Y-48655596D01*
X151798571Y-48655596D02*
X151703333Y-48750834D01*
X151703333Y-48750834D02*
X151608095Y-48798453D01*
X150027329Y-87785866D02*
X150027329Y-87452533D01*
X150551139Y-87309676D02*
X150551139Y-87785866D01*
X150551139Y-87785866D02*
X149551139Y-87785866D01*
X149551139Y-87785866D02*
X149551139Y-87309676D01*
X150503520Y-86928723D02*
X150551139Y-86785866D01*
X150551139Y-86785866D02*
X150551139Y-86547771D01*
X150551139Y-86547771D02*
X150503520Y-86452533D01*
X150503520Y-86452533D02*
X150455900Y-86404914D01*
X150455900Y-86404914D02*
X150360662Y-86357295D01*
X150360662Y-86357295D02*
X150265424Y-86357295D01*
X150265424Y-86357295D02*
X150170186Y-86404914D01*
X150170186Y-86404914D02*
X150122567Y-86452533D01*
X150122567Y-86452533D02*
X150074948Y-86547771D01*
X150074948Y-86547771D02*
X150027329Y-86738247D01*
X150027329Y-86738247D02*
X149979710Y-86833485D01*
X149979710Y-86833485D02*
X149932091Y-86881104D01*
X149932091Y-86881104D02*
X149836853Y-86928723D01*
X149836853Y-86928723D02*
X149741615Y-86928723D01*
X149741615Y-86928723D02*
X149646377Y-86881104D01*
X149646377Y-86881104D02*
X149598758Y-86833485D01*
X149598758Y-86833485D02*
X149551139Y-86738247D01*
X149551139Y-86738247D02*
X149551139Y-86500152D01*
X149551139Y-86500152D02*
X149598758Y-86357295D01*
X150551139Y-85928723D02*
X149551139Y-85928723D01*
X149551139Y-85928723D02*
X149551139Y-85547771D01*
X149551139Y-85547771D02*
X149598758Y-85452533D01*
X149598758Y-85452533D02*
X149646377Y-85404914D01*
X149646377Y-85404914D02*
X149741615Y-85357295D01*
X149741615Y-85357295D02*
X149884472Y-85357295D01*
X149884472Y-85357295D02*
X149979710Y-85404914D01*
X149979710Y-85404914D02*
X150027329Y-85452533D01*
X150027329Y-85452533D02*
X150074948Y-85547771D01*
X150074948Y-85547771D02*
X150074948Y-85928723D01*
X149551139Y-85023961D02*
X149551139Y-84404914D01*
X149551139Y-84404914D02*
X149932091Y-84738247D01*
X149932091Y-84738247D02*
X149932091Y-84595390D01*
X149932091Y-84595390D02*
X149979710Y-84500152D01*
X149979710Y-84500152D02*
X150027329Y-84452533D01*
X150027329Y-84452533D02*
X150122567Y-84404914D01*
X150122567Y-84404914D02*
X150360662Y-84404914D01*
X150360662Y-84404914D02*
X150455900Y-84452533D01*
X150455900Y-84452533D02*
X150503520Y-84500152D01*
X150503520Y-84500152D02*
X150551139Y-84595390D01*
X150551139Y-84595390D02*
X150551139Y-84881104D01*
X150551139Y-84881104D02*
X150503520Y-84976342D01*
X150503520Y-84976342D02*
X150455900Y-85023961D01*
X149646377Y-84023961D02*
X149598758Y-83976342D01*
X149598758Y-83976342D02*
X149551139Y-83881104D01*
X149551139Y-83881104D02*
X149551139Y-83643009D01*
X149551139Y-83643009D02*
X149598758Y-83547771D01*
X149598758Y-83547771D02*
X149646377Y-83500152D01*
X149646377Y-83500152D02*
X149741615Y-83452533D01*
X149741615Y-83452533D02*
X149836853Y-83452533D01*
X149836853Y-83452533D02*
X149979710Y-83500152D01*
X149979710Y-83500152D02*
X150551139Y-84071580D01*
X150551139Y-84071580D02*
X150551139Y-83452533D01*
X150170186Y-83023961D02*
X150170186Y-82262057D01*
X150503520Y-81833485D02*
X150551139Y-81690628D01*
X150551139Y-81690628D02*
X150551139Y-81452533D01*
X150551139Y-81452533D02*
X150503520Y-81357295D01*
X150503520Y-81357295D02*
X150455900Y-81309676D01*
X150455900Y-81309676D02*
X150360662Y-81262057D01*
X150360662Y-81262057D02*
X150265424Y-81262057D01*
X150265424Y-81262057D02*
X150170186Y-81309676D01*
X150170186Y-81309676D02*
X150122567Y-81357295D01*
X150122567Y-81357295D02*
X150074948Y-81452533D01*
X150074948Y-81452533D02*
X150027329Y-81643009D01*
X150027329Y-81643009D02*
X149979710Y-81738247D01*
X149979710Y-81738247D02*
X149932091Y-81785866D01*
X149932091Y-81785866D02*
X149836853Y-81833485D01*
X149836853Y-81833485D02*
X149741615Y-81833485D01*
X149741615Y-81833485D02*
X149646377Y-81785866D01*
X149646377Y-81785866D02*
X149598758Y-81738247D01*
X149598758Y-81738247D02*
X149551139Y-81643009D01*
X149551139Y-81643009D02*
X149551139Y-81404914D01*
X149551139Y-81404914D02*
X149598758Y-81262057D01*
X149551139Y-80928723D02*
X149551139Y-80309676D01*
X149551139Y-80309676D02*
X149932091Y-80643009D01*
X149932091Y-80643009D02*
X149932091Y-80500152D01*
X149932091Y-80500152D02*
X149979710Y-80404914D01*
X149979710Y-80404914D02*
X150027329Y-80357295D01*
X150027329Y-80357295D02*
X150122567Y-80309676D01*
X150122567Y-80309676D02*
X150360662Y-80309676D01*
X150360662Y-80309676D02*
X150455900Y-80357295D01*
X150455900Y-80357295D02*
X150503520Y-80404914D01*
X150503520Y-80404914D02*
X150551139Y-80500152D01*
X150551139Y-80500152D02*
X150551139Y-80785866D01*
X150551139Y-80785866D02*
X150503520Y-80881104D01*
X150503520Y-80881104D02*
X150455900Y-80928723D01*
X150170186Y-79881104D02*
X150170186Y-79119200D01*
X150551139Y-78643009D02*
X149551139Y-78643009D01*
X149551139Y-78643009D02*
X149551139Y-78404914D01*
X149551139Y-78404914D02*
X149598758Y-78262057D01*
X149598758Y-78262057D02*
X149693996Y-78166819D01*
X149693996Y-78166819D02*
X149789234Y-78119200D01*
X149789234Y-78119200D02*
X149979710Y-78071581D01*
X149979710Y-78071581D02*
X150122567Y-78071581D01*
X150122567Y-78071581D02*
X150313043Y-78119200D01*
X150313043Y-78119200D02*
X150408281Y-78166819D01*
X150408281Y-78166819D02*
X150503520Y-78262057D01*
X150503520Y-78262057D02*
X150551139Y-78404914D01*
X150551139Y-78404914D02*
X150551139Y-78643009D01*
X150503520Y-77262057D02*
X150551139Y-77357295D01*
X150551139Y-77357295D02*
X150551139Y-77547771D01*
X150551139Y-77547771D02*
X150503520Y-77643009D01*
X150503520Y-77643009D02*
X150408281Y-77690628D01*
X150408281Y-77690628D02*
X150027329Y-77690628D01*
X150027329Y-77690628D02*
X149932091Y-77643009D01*
X149932091Y-77643009D02*
X149884472Y-77547771D01*
X149884472Y-77547771D02*
X149884472Y-77357295D01*
X149884472Y-77357295D02*
X149932091Y-77262057D01*
X149932091Y-77262057D02*
X150027329Y-77214438D01*
X150027329Y-77214438D02*
X150122567Y-77214438D01*
X150122567Y-77214438D02*
X150217805Y-77690628D01*
X149884472Y-76881104D02*
X150551139Y-76643009D01*
X150551139Y-76643009D02*
X149884472Y-76404914D01*
X150551139Y-76023961D02*
X149551139Y-76023961D01*
X150551139Y-75452533D02*
X149979710Y-75881104D01*
X149551139Y-75452533D02*
X150122567Y-76023961D01*
X150551139Y-75023961D02*
X149884472Y-75023961D01*
X149551139Y-75023961D02*
X149598758Y-75071580D01*
X149598758Y-75071580D02*
X149646377Y-75023961D01*
X149646377Y-75023961D02*
X149598758Y-74976342D01*
X149598758Y-74976342D02*
X149551139Y-75023961D01*
X149551139Y-75023961D02*
X149646377Y-75023961D01*
X149884472Y-74690628D02*
X149884472Y-74309676D01*
X149551139Y-74547771D02*
X150408281Y-74547771D01*
X150408281Y-74547771D02*
X150503520Y-74500152D01*
X150503520Y-74500152D02*
X150551139Y-74404914D01*
X150551139Y-74404914D02*
X150551139Y-74309676D01*
X150455900Y-73404914D02*
X150503520Y-73452533D01*
X150503520Y-73452533D02*
X150551139Y-73595390D01*
X150551139Y-73595390D02*
X150551139Y-73690628D01*
X150551139Y-73690628D02*
X150503520Y-73833485D01*
X150503520Y-73833485D02*
X150408281Y-73928723D01*
X150408281Y-73928723D02*
X150313043Y-73976342D01*
X150313043Y-73976342D02*
X150122567Y-74023961D01*
X150122567Y-74023961D02*
X149979710Y-74023961D01*
X149979710Y-74023961D02*
X149789234Y-73976342D01*
X149789234Y-73976342D02*
X149693996Y-73928723D01*
X149693996Y-73928723D02*
X149598758Y-73833485D01*
X149598758Y-73833485D02*
X149551139Y-73690628D01*
X149551139Y-73690628D02*
X149551139Y-73595390D01*
X149551139Y-73595390D02*
X149598758Y-73452533D01*
X149598758Y-73452533D02*
X149646377Y-73404914D01*
X140800588Y-98920358D02*
X140705350Y-98872739D01*
X140705350Y-98872739D02*
X140562493Y-98872739D01*
X140562493Y-98872739D02*
X140419636Y-98920358D01*
X140419636Y-98920358D02*
X140324398Y-99015596D01*
X140324398Y-99015596D02*
X140276779Y-99110834D01*
X140276779Y-99110834D02*
X140229160Y-99301310D01*
X140229160Y-99301310D02*
X140229160Y-99444167D01*
X140229160Y-99444167D02*
X140276779Y-99634643D01*
X140276779Y-99634643D02*
X140324398Y-99729881D01*
X140324398Y-99729881D02*
X140419636Y-99825120D01*
X140419636Y-99825120D02*
X140562493Y-99872739D01*
X140562493Y-99872739D02*
X140657731Y-99872739D01*
X140657731Y-99872739D02*
X140800588Y-99825120D01*
X140800588Y-99825120D02*
X140848207Y-99777500D01*
X140848207Y-99777500D02*
X140848207Y-99444167D01*
X140848207Y-99444167D02*
X140657731Y-99444167D01*
X141276779Y-99872739D02*
X141276779Y-98872739D01*
X141276779Y-98872739D02*
X141657731Y-98872739D01*
X141657731Y-98872739D02*
X141752969Y-98920358D01*
X141752969Y-98920358D02*
X141800588Y-98967977D01*
X141800588Y-98967977D02*
X141848207Y-99063215D01*
X141848207Y-99063215D02*
X141848207Y-99206072D01*
X141848207Y-99206072D02*
X141800588Y-99301310D01*
X141800588Y-99301310D02*
X141752969Y-99348929D01*
X141752969Y-99348929D02*
X141657731Y-99396548D01*
X141657731Y-99396548D02*
X141276779Y-99396548D01*
X142276779Y-99872739D02*
X142276779Y-98872739D01*
X142943445Y-98872739D02*
X143133921Y-98872739D01*
X143133921Y-98872739D02*
X143229159Y-98920358D01*
X143229159Y-98920358D02*
X143324397Y-99015596D01*
X143324397Y-99015596D02*
X143372016Y-99206072D01*
X143372016Y-99206072D02*
X143372016Y-99539405D01*
X143372016Y-99539405D02*
X143324397Y-99729881D01*
X143324397Y-99729881D02*
X143229159Y-99825120D01*
X143229159Y-99825120D02*
X143133921Y-99872739D01*
X143133921Y-99872739D02*
X142943445Y-99872739D01*
X142943445Y-99872739D02*
X142848207Y-99825120D01*
X142848207Y-99825120D02*
X142752969Y-99729881D01*
X142752969Y-99729881D02*
X142705350Y-99539405D01*
X142705350Y-99539405D02*
X142705350Y-99206072D01*
X142705350Y-99206072D02*
X142752969Y-99015596D01*
X142752969Y-99015596D02*
X142848207Y-98920358D01*
X142848207Y-98920358D02*
X142943445Y-98872739D01*
X144324397Y-99872739D02*
X143752969Y-99872739D01*
X144038683Y-99872739D02*
X144038683Y-98872739D01*
X144038683Y-98872739D02*
X143943445Y-99015596D01*
X143943445Y-99015596D02*
X143848207Y-99110834D01*
X143848207Y-99110834D02*
X143752969Y-99158453D01*
X145181540Y-99206072D02*
X145181540Y-99872739D01*
X144943445Y-98825120D02*
X144705350Y-99539405D01*
X144705350Y-99539405D02*
X145324397Y-99539405D01*
X149732744Y-53200358D02*
X149637506Y-53152739D01*
X149637506Y-53152739D02*
X149494649Y-53152739D01*
X149494649Y-53152739D02*
X149351792Y-53200358D01*
X149351792Y-53200358D02*
X149256554Y-53295596D01*
X149256554Y-53295596D02*
X149208935Y-53390834D01*
X149208935Y-53390834D02*
X149161316Y-53581310D01*
X149161316Y-53581310D02*
X149161316Y-53724167D01*
X149161316Y-53724167D02*
X149208935Y-53914643D01*
X149208935Y-53914643D02*
X149256554Y-54009881D01*
X149256554Y-54009881D02*
X149351792Y-54105120D01*
X149351792Y-54105120D02*
X149494649Y-54152739D01*
X149494649Y-54152739D02*
X149589887Y-54152739D01*
X149589887Y-54152739D02*
X149732744Y-54105120D01*
X149732744Y-54105120D02*
X149780363Y-54057500D01*
X149780363Y-54057500D02*
X149780363Y-53724167D01*
X149780363Y-53724167D02*
X149589887Y-53724167D01*
X150208935Y-54152739D02*
X150208935Y-53152739D01*
X150208935Y-53152739D02*
X150589887Y-53152739D01*
X150589887Y-53152739D02*
X150685125Y-53200358D01*
X150685125Y-53200358D02*
X150732744Y-53247977D01*
X150732744Y-53247977D02*
X150780363Y-53343215D01*
X150780363Y-53343215D02*
X150780363Y-53486072D01*
X150780363Y-53486072D02*
X150732744Y-53581310D01*
X150732744Y-53581310D02*
X150685125Y-53628929D01*
X150685125Y-53628929D02*
X150589887Y-53676548D01*
X150589887Y-53676548D02*
X150208935Y-53676548D01*
X151208935Y-54152739D02*
X151208935Y-53152739D01*
X151875601Y-53152739D02*
X152066077Y-53152739D01*
X152066077Y-53152739D02*
X152161315Y-53200358D01*
X152161315Y-53200358D02*
X152256553Y-53295596D01*
X152256553Y-53295596D02*
X152304172Y-53486072D01*
X152304172Y-53486072D02*
X152304172Y-53819405D01*
X152304172Y-53819405D02*
X152256553Y-54009881D01*
X152256553Y-54009881D02*
X152161315Y-54105120D01*
X152161315Y-54105120D02*
X152066077Y-54152739D01*
X152066077Y-54152739D02*
X151875601Y-54152739D01*
X151875601Y-54152739D02*
X151780363Y-54105120D01*
X151780363Y-54105120D02*
X151685125Y-54009881D01*
X151685125Y-54009881D02*
X151637506Y-53819405D01*
X151637506Y-53819405D02*
X151637506Y-53486072D01*
X151637506Y-53486072D02*
X151685125Y-53295596D01*
X151685125Y-53295596D02*
X151780363Y-53200358D01*
X151780363Y-53200358D02*
X151875601Y-53152739D01*
X153161315Y-53486072D02*
X153161315Y-54152739D01*
X152923220Y-53105120D02*
X152685125Y-53819405D01*
X152685125Y-53819405D02*
X153304172Y-53819405D01*
X153589887Y-53152739D02*
X154208934Y-53152739D01*
X154208934Y-53152739D02*
X153875601Y-53533691D01*
X153875601Y-53533691D02*
X154018458Y-53533691D01*
X154018458Y-53533691D02*
X154113696Y-53581310D01*
X154113696Y-53581310D02*
X154161315Y-53628929D01*
X154161315Y-53628929D02*
X154208934Y-53724167D01*
X154208934Y-53724167D02*
X154208934Y-53962262D01*
X154208934Y-53962262D02*
X154161315Y-54057500D01*
X154161315Y-54057500D02*
X154113696Y-54105120D01*
X154113696Y-54105120D02*
X154018458Y-54152739D01*
X154018458Y-54152739D02*
X153732744Y-54152739D01*
X153732744Y-54152739D02*
X153637506Y-54105120D01*
X153637506Y-54105120D02*
X153589887Y-54057500D01*
X155351791Y-53105120D02*
X154494649Y-54390834D01*
X155685125Y-53152739D02*
X155685125Y-53962262D01*
X155685125Y-53962262D02*
X155732744Y-54057500D01*
X155732744Y-54057500D02*
X155780363Y-54105120D01*
X155780363Y-54105120D02*
X155875601Y-54152739D01*
X155875601Y-54152739D02*
X156066077Y-54152739D01*
X156066077Y-54152739D02*
X156161315Y-54105120D01*
X156161315Y-54105120D02*
X156208934Y-54057500D01*
X156208934Y-54057500D02*
X156256553Y-53962262D01*
X156256553Y-53962262D02*
X156256553Y-53152739D01*
X156923220Y-53152739D02*
X157018458Y-53152739D01*
X157018458Y-53152739D02*
X157113696Y-53200358D01*
X157113696Y-53200358D02*
X157161315Y-53247977D01*
X157161315Y-53247977D02*
X157208934Y-53343215D01*
X157208934Y-53343215D02*
X157256553Y-53533691D01*
X157256553Y-53533691D02*
X157256553Y-53771786D01*
X157256553Y-53771786D02*
X157208934Y-53962262D01*
X157208934Y-53962262D02*
X157161315Y-54057500D01*
X157161315Y-54057500D02*
X157113696Y-54105120D01*
X157113696Y-54105120D02*
X157018458Y-54152739D01*
X157018458Y-54152739D02*
X156923220Y-54152739D01*
X156923220Y-54152739D02*
X156827982Y-54105120D01*
X156827982Y-54105120D02*
X156780363Y-54057500D01*
X156780363Y-54057500D02*
X156732744Y-53962262D01*
X156732744Y-53962262D02*
X156685125Y-53771786D01*
X156685125Y-53771786D02*
X156685125Y-53533691D01*
X156685125Y-53533691D02*
X156732744Y-53343215D01*
X156732744Y-53343215D02*
X156780363Y-53247977D01*
X156780363Y-53247977D02*
X156827982Y-53200358D01*
X156827982Y-53200358D02*
X156923220Y-53152739D01*
X157542268Y-53152739D02*
X158113696Y-53152739D01*
X157827982Y-54152739D02*
X157827982Y-53152739D01*
X158351792Y-53152739D02*
X159018458Y-54152739D01*
X159018458Y-53152739D02*
X158351792Y-54152739D01*
X159399411Y-54152739D02*
X159399411Y-53152739D01*
X159399411Y-53152739D02*
X159637506Y-53152739D01*
X159637506Y-53152739D02*
X159780363Y-53200358D01*
X159780363Y-53200358D02*
X159875601Y-53295596D01*
X159875601Y-53295596D02*
X159923220Y-53390834D01*
X159923220Y-53390834D02*
X159970839Y-53581310D01*
X159970839Y-53581310D02*
X159970839Y-53724167D01*
X159970839Y-53724167D02*
X159923220Y-53914643D01*
X159923220Y-53914643D02*
X159875601Y-54009881D01*
X159875601Y-54009881D02*
X159780363Y-54105120D01*
X159780363Y-54105120D02*
X159637506Y-54152739D01*
X159637506Y-54152739D02*
X159399411Y-54152739D01*
X149494649Y-55740358D02*
X149399411Y-55692739D01*
X149399411Y-55692739D02*
X149256554Y-55692739D01*
X149256554Y-55692739D02*
X149113697Y-55740358D01*
X149113697Y-55740358D02*
X149018459Y-55835596D01*
X149018459Y-55835596D02*
X148970840Y-55930834D01*
X148970840Y-55930834D02*
X148923221Y-56121310D01*
X148923221Y-56121310D02*
X148923221Y-56264167D01*
X148923221Y-56264167D02*
X148970840Y-56454643D01*
X148970840Y-56454643D02*
X149018459Y-56549881D01*
X149018459Y-56549881D02*
X149113697Y-56645120D01*
X149113697Y-56645120D02*
X149256554Y-56692739D01*
X149256554Y-56692739D02*
X149351792Y-56692739D01*
X149351792Y-56692739D02*
X149494649Y-56645120D01*
X149494649Y-56645120D02*
X149542268Y-56597500D01*
X149542268Y-56597500D02*
X149542268Y-56264167D01*
X149542268Y-56264167D02*
X149351792Y-56264167D01*
X149970840Y-56692739D02*
X149970840Y-55692739D01*
X149970840Y-55692739D02*
X150351792Y-55692739D01*
X150351792Y-55692739D02*
X150447030Y-55740358D01*
X150447030Y-55740358D02*
X150494649Y-55787977D01*
X150494649Y-55787977D02*
X150542268Y-55883215D01*
X150542268Y-55883215D02*
X150542268Y-56026072D01*
X150542268Y-56026072D02*
X150494649Y-56121310D01*
X150494649Y-56121310D02*
X150447030Y-56168929D01*
X150447030Y-56168929D02*
X150351792Y-56216548D01*
X150351792Y-56216548D02*
X149970840Y-56216548D01*
X150970840Y-56692739D02*
X150970840Y-55692739D01*
X151637506Y-55692739D02*
X151827982Y-55692739D01*
X151827982Y-55692739D02*
X151923220Y-55740358D01*
X151923220Y-55740358D02*
X152018458Y-55835596D01*
X152018458Y-55835596D02*
X152066077Y-56026072D01*
X152066077Y-56026072D02*
X152066077Y-56359405D01*
X152066077Y-56359405D02*
X152018458Y-56549881D01*
X152018458Y-56549881D02*
X151923220Y-56645120D01*
X151923220Y-56645120D02*
X151827982Y-56692739D01*
X151827982Y-56692739D02*
X151637506Y-56692739D01*
X151637506Y-56692739D02*
X151542268Y-56645120D01*
X151542268Y-56645120D02*
X151447030Y-56549881D01*
X151447030Y-56549881D02*
X151399411Y-56359405D01*
X151399411Y-56359405D02*
X151399411Y-56026072D01*
X151399411Y-56026072D02*
X151447030Y-55835596D01*
X151447030Y-55835596D02*
X151542268Y-55740358D01*
X151542268Y-55740358D02*
X151637506Y-55692739D01*
X152923220Y-56026072D02*
X152923220Y-56692739D01*
X152685125Y-55645120D02*
X152447030Y-56359405D01*
X152447030Y-56359405D02*
X153066077Y-56359405D01*
X153875601Y-56026072D02*
X153875601Y-56692739D01*
X153637506Y-55645120D02*
X153399411Y-56359405D01*
X153399411Y-56359405D02*
X154018458Y-56359405D01*
X155113696Y-55645120D02*
X154256554Y-56930834D01*
X155447030Y-55692739D02*
X155447030Y-56502262D01*
X155447030Y-56502262D02*
X155494649Y-56597500D01*
X155494649Y-56597500D02*
X155542268Y-56645120D01*
X155542268Y-56645120D02*
X155637506Y-56692739D01*
X155637506Y-56692739D02*
X155827982Y-56692739D01*
X155827982Y-56692739D02*
X155923220Y-56645120D01*
X155923220Y-56645120D02*
X155970839Y-56597500D01*
X155970839Y-56597500D02*
X156018458Y-56502262D01*
X156018458Y-56502262D02*
X156018458Y-55692739D01*
X156685125Y-55692739D02*
X156780363Y-55692739D01*
X156780363Y-55692739D02*
X156875601Y-55740358D01*
X156875601Y-55740358D02*
X156923220Y-55787977D01*
X156923220Y-55787977D02*
X156970839Y-55883215D01*
X156970839Y-55883215D02*
X157018458Y-56073691D01*
X157018458Y-56073691D02*
X157018458Y-56311786D01*
X157018458Y-56311786D02*
X156970839Y-56502262D01*
X156970839Y-56502262D02*
X156923220Y-56597500D01*
X156923220Y-56597500D02*
X156875601Y-56645120D01*
X156875601Y-56645120D02*
X156780363Y-56692739D01*
X156780363Y-56692739D02*
X156685125Y-56692739D01*
X156685125Y-56692739D02*
X156589887Y-56645120D01*
X156589887Y-56645120D02*
X156542268Y-56597500D01*
X156542268Y-56597500D02*
X156494649Y-56502262D01*
X156494649Y-56502262D02*
X156447030Y-56311786D01*
X156447030Y-56311786D02*
X156447030Y-56073691D01*
X156447030Y-56073691D02*
X156494649Y-55883215D01*
X156494649Y-55883215D02*
X156542268Y-55787977D01*
X156542268Y-55787977D02*
X156589887Y-55740358D01*
X156589887Y-55740358D02*
X156685125Y-55692739D01*
X158018458Y-56692739D02*
X157685125Y-56216548D01*
X157447030Y-56692739D02*
X157447030Y-55692739D01*
X157447030Y-55692739D02*
X157827982Y-55692739D01*
X157827982Y-55692739D02*
X157923220Y-55740358D01*
X157923220Y-55740358D02*
X157970839Y-55787977D01*
X157970839Y-55787977D02*
X158018458Y-55883215D01*
X158018458Y-55883215D02*
X158018458Y-56026072D01*
X158018458Y-56026072D02*
X157970839Y-56121310D01*
X157970839Y-56121310D02*
X157923220Y-56168929D01*
X157923220Y-56168929D02*
X157827982Y-56216548D01*
X157827982Y-56216548D02*
X157447030Y-56216548D01*
X158351792Y-55692739D02*
X159018458Y-56692739D01*
X159018458Y-55692739D02*
X158351792Y-56692739D01*
X159399411Y-56692739D02*
X159399411Y-55692739D01*
X159399411Y-55692739D02*
X159637506Y-55692739D01*
X159637506Y-55692739D02*
X159780363Y-55740358D01*
X159780363Y-55740358D02*
X159875601Y-55835596D01*
X159875601Y-55835596D02*
X159923220Y-55930834D01*
X159923220Y-55930834D02*
X159970839Y-56121310D01*
X159970839Y-56121310D02*
X159970839Y-56264167D01*
X159970839Y-56264167D02*
X159923220Y-56454643D01*
X159923220Y-56454643D02*
X159875601Y-56549881D01*
X159875601Y-56549881D02*
X159780363Y-56645120D01*
X159780363Y-56645120D02*
X159637506Y-56692739D01*
X159637506Y-56692739D02*
X159399411Y-56692739D01*
X140800588Y-78600358D02*
X140705350Y-78552739D01*
X140705350Y-78552739D02*
X140562493Y-78552739D01*
X140562493Y-78552739D02*
X140419636Y-78600358D01*
X140419636Y-78600358D02*
X140324398Y-78695596D01*
X140324398Y-78695596D02*
X140276779Y-78790834D01*
X140276779Y-78790834D02*
X140229160Y-78981310D01*
X140229160Y-78981310D02*
X140229160Y-79124167D01*
X140229160Y-79124167D02*
X140276779Y-79314643D01*
X140276779Y-79314643D02*
X140324398Y-79409881D01*
X140324398Y-79409881D02*
X140419636Y-79505120D01*
X140419636Y-79505120D02*
X140562493Y-79552739D01*
X140562493Y-79552739D02*
X140657731Y-79552739D01*
X140657731Y-79552739D02*
X140800588Y-79505120D01*
X140800588Y-79505120D02*
X140848207Y-79457500D01*
X140848207Y-79457500D02*
X140848207Y-79124167D01*
X140848207Y-79124167D02*
X140657731Y-79124167D01*
X141276779Y-79552739D02*
X141276779Y-78552739D01*
X141276779Y-78552739D02*
X141657731Y-78552739D01*
X141657731Y-78552739D02*
X141752969Y-78600358D01*
X141752969Y-78600358D02*
X141800588Y-78647977D01*
X141800588Y-78647977D02*
X141848207Y-78743215D01*
X141848207Y-78743215D02*
X141848207Y-78886072D01*
X141848207Y-78886072D02*
X141800588Y-78981310D01*
X141800588Y-78981310D02*
X141752969Y-79028929D01*
X141752969Y-79028929D02*
X141657731Y-79076548D01*
X141657731Y-79076548D02*
X141276779Y-79076548D01*
X142276779Y-79552739D02*
X142276779Y-78552739D01*
X142943445Y-78552739D02*
X143133921Y-78552739D01*
X143133921Y-78552739D02*
X143229159Y-78600358D01*
X143229159Y-78600358D02*
X143324397Y-78695596D01*
X143324397Y-78695596D02*
X143372016Y-78886072D01*
X143372016Y-78886072D02*
X143372016Y-79219405D01*
X143372016Y-79219405D02*
X143324397Y-79409881D01*
X143324397Y-79409881D02*
X143229159Y-79505120D01*
X143229159Y-79505120D02*
X143133921Y-79552739D01*
X143133921Y-79552739D02*
X142943445Y-79552739D01*
X142943445Y-79552739D02*
X142848207Y-79505120D01*
X142848207Y-79505120D02*
X142752969Y-79409881D01*
X142752969Y-79409881D02*
X142705350Y-79219405D01*
X142705350Y-79219405D02*
X142705350Y-78886072D01*
X142705350Y-78886072D02*
X142752969Y-78695596D01*
X142752969Y-78695596D02*
X142848207Y-78600358D01*
X142848207Y-78600358D02*
X142943445Y-78552739D01*
X143943445Y-78981310D02*
X143848207Y-78933691D01*
X143848207Y-78933691D02*
X143800588Y-78886072D01*
X143800588Y-78886072D02*
X143752969Y-78790834D01*
X143752969Y-78790834D02*
X143752969Y-78743215D01*
X143752969Y-78743215D02*
X143800588Y-78647977D01*
X143800588Y-78647977D02*
X143848207Y-78600358D01*
X143848207Y-78600358D02*
X143943445Y-78552739D01*
X143943445Y-78552739D02*
X144133921Y-78552739D01*
X144133921Y-78552739D02*
X144229159Y-78600358D01*
X144229159Y-78600358D02*
X144276778Y-78647977D01*
X144276778Y-78647977D02*
X144324397Y-78743215D01*
X144324397Y-78743215D02*
X144324397Y-78790834D01*
X144324397Y-78790834D02*
X144276778Y-78886072D01*
X144276778Y-78886072D02*
X144229159Y-78933691D01*
X144229159Y-78933691D02*
X144133921Y-78981310D01*
X144133921Y-78981310D02*
X143943445Y-78981310D01*
X143943445Y-78981310D02*
X143848207Y-79028929D01*
X143848207Y-79028929D02*
X143800588Y-79076548D01*
X143800588Y-79076548D02*
X143752969Y-79171786D01*
X143752969Y-79171786D02*
X143752969Y-79362262D01*
X143752969Y-79362262D02*
X143800588Y-79457500D01*
X143800588Y-79457500D02*
X143848207Y-79505120D01*
X143848207Y-79505120D02*
X143943445Y-79552739D01*
X143943445Y-79552739D02*
X144133921Y-79552739D01*
X144133921Y-79552739D02*
X144229159Y-79505120D01*
X144229159Y-79505120D02*
X144276778Y-79457500D01*
X144276778Y-79457500D02*
X144324397Y-79362262D01*
X144324397Y-79362262D02*
X144324397Y-79171786D01*
X144324397Y-79171786D02*
X144276778Y-79076548D01*
X144276778Y-79076548D02*
X144229159Y-79028929D01*
X144229159Y-79028929D02*
X144133921Y-78981310D01*
X140181541Y-50612739D02*
X140800588Y-50612739D01*
X140800588Y-50612739D02*
X140467255Y-50993691D01*
X140467255Y-50993691D02*
X140610112Y-50993691D01*
X140610112Y-50993691D02*
X140705350Y-51041310D01*
X140705350Y-51041310D02*
X140752969Y-51088929D01*
X140752969Y-51088929D02*
X140800588Y-51184167D01*
X140800588Y-51184167D02*
X140800588Y-51422262D01*
X140800588Y-51422262D02*
X140752969Y-51517500D01*
X140752969Y-51517500D02*
X140705350Y-51565120D01*
X140705350Y-51565120D02*
X140610112Y-51612739D01*
X140610112Y-51612739D02*
X140324398Y-51612739D01*
X140324398Y-51612739D02*
X140229160Y-51565120D01*
X140229160Y-51565120D02*
X140181541Y-51517500D01*
X141086303Y-50612739D02*
X141419636Y-51612739D01*
X141419636Y-51612739D02*
X141752969Y-50612739D01*
X141991065Y-50612739D02*
X142610112Y-50612739D01*
X142610112Y-50612739D02*
X142276779Y-50993691D01*
X142276779Y-50993691D02*
X142419636Y-50993691D01*
X142419636Y-50993691D02*
X142514874Y-51041310D01*
X142514874Y-51041310D02*
X142562493Y-51088929D01*
X142562493Y-51088929D02*
X142610112Y-51184167D01*
X142610112Y-51184167D02*
X142610112Y-51422262D01*
X142610112Y-51422262D02*
X142562493Y-51517500D01*
X142562493Y-51517500D02*
X142514874Y-51565120D01*
X142514874Y-51565120D02*
X142419636Y-51612739D01*
X142419636Y-51612739D02*
X142133922Y-51612739D01*
X142133922Y-51612739D02*
X142038684Y-51565120D01*
X142038684Y-51565120D02*
X141991065Y-51517500D01*
X140800588Y-70980358D02*
X140705350Y-70932739D01*
X140705350Y-70932739D02*
X140562493Y-70932739D01*
X140562493Y-70932739D02*
X140419636Y-70980358D01*
X140419636Y-70980358D02*
X140324398Y-71075596D01*
X140324398Y-71075596D02*
X140276779Y-71170834D01*
X140276779Y-71170834D02*
X140229160Y-71361310D01*
X140229160Y-71361310D02*
X140229160Y-71504167D01*
X140229160Y-71504167D02*
X140276779Y-71694643D01*
X140276779Y-71694643D02*
X140324398Y-71789881D01*
X140324398Y-71789881D02*
X140419636Y-71885120D01*
X140419636Y-71885120D02*
X140562493Y-71932739D01*
X140562493Y-71932739D02*
X140657731Y-71932739D01*
X140657731Y-71932739D02*
X140800588Y-71885120D01*
X140800588Y-71885120D02*
X140848207Y-71837500D01*
X140848207Y-71837500D02*
X140848207Y-71504167D01*
X140848207Y-71504167D02*
X140657731Y-71504167D01*
X141276779Y-71932739D02*
X141276779Y-70932739D01*
X141276779Y-70932739D02*
X141657731Y-70932739D01*
X141657731Y-70932739D02*
X141752969Y-70980358D01*
X141752969Y-70980358D02*
X141800588Y-71027977D01*
X141800588Y-71027977D02*
X141848207Y-71123215D01*
X141848207Y-71123215D02*
X141848207Y-71266072D01*
X141848207Y-71266072D02*
X141800588Y-71361310D01*
X141800588Y-71361310D02*
X141752969Y-71408929D01*
X141752969Y-71408929D02*
X141657731Y-71456548D01*
X141657731Y-71456548D02*
X141276779Y-71456548D01*
X142276779Y-71932739D02*
X142276779Y-70932739D01*
X142943445Y-70932739D02*
X143133921Y-70932739D01*
X143133921Y-70932739D02*
X143229159Y-70980358D01*
X143229159Y-70980358D02*
X143324397Y-71075596D01*
X143324397Y-71075596D02*
X143372016Y-71266072D01*
X143372016Y-71266072D02*
X143372016Y-71599405D01*
X143372016Y-71599405D02*
X143324397Y-71789881D01*
X143324397Y-71789881D02*
X143229159Y-71885120D01*
X143229159Y-71885120D02*
X143133921Y-71932739D01*
X143133921Y-71932739D02*
X142943445Y-71932739D01*
X142943445Y-71932739D02*
X142848207Y-71885120D01*
X142848207Y-71885120D02*
X142752969Y-71789881D01*
X142752969Y-71789881D02*
X142705350Y-71599405D01*
X142705350Y-71599405D02*
X142705350Y-71266072D01*
X142705350Y-71266072D02*
X142752969Y-71075596D01*
X142752969Y-71075596D02*
X142848207Y-70980358D01*
X142848207Y-70980358D02*
X142943445Y-70932739D01*
X144324397Y-71932739D02*
X143752969Y-71932739D01*
X144038683Y-71932739D02*
X144038683Y-70932739D01*
X144038683Y-70932739D02*
X143943445Y-71075596D01*
X143943445Y-71075596D02*
X143848207Y-71170834D01*
X143848207Y-71170834D02*
X143752969Y-71218453D01*
X145181540Y-70932739D02*
X144991064Y-70932739D01*
X144991064Y-70932739D02*
X144895826Y-70980358D01*
X144895826Y-70980358D02*
X144848207Y-71027977D01*
X144848207Y-71027977D02*
X144752969Y-71170834D01*
X144752969Y-71170834D02*
X144705350Y-71361310D01*
X144705350Y-71361310D02*
X144705350Y-71742262D01*
X144705350Y-71742262D02*
X144752969Y-71837500D01*
X144752969Y-71837500D02*
X144800588Y-71885120D01*
X144800588Y-71885120D02*
X144895826Y-71932739D01*
X144895826Y-71932739D02*
X145086302Y-71932739D01*
X145086302Y-71932739D02*
X145181540Y-71885120D01*
X145181540Y-71885120D02*
X145229159Y-71837500D01*
X145229159Y-71837500D02*
X145276778Y-71742262D01*
X145276778Y-71742262D02*
X145276778Y-71504167D01*
X145276778Y-71504167D02*
X145229159Y-71408929D01*
X145229159Y-71408929D02*
X145181540Y-71361310D01*
X145181540Y-71361310D02*
X145086302Y-71313691D01*
X145086302Y-71313691D02*
X144895826Y-71313691D01*
X144895826Y-71313691D02*
X144800588Y-71361310D01*
X144800588Y-71361310D02*
X144752969Y-71408929D01*
X144752969Y-71408929D02*
X144705350Y-71504167D01*
X156447030Y-58280358D02*
X156351792Y-58232739D01*
X156351792Y-58232739D02*
X156208935Y-58232739D01*
X156208935Y-58232739D02*
X156066078Y-58280358D01*
X156066078Y-58280358D02*
X155970840Y-58375596D01*
X155970840Y-58375596D02*
X155923221Y-58470834D01*
X155923221Y-58470834D02*
X155875602Y-58661310D01*
X155875602Y-58661310D02*
X155875602Y-58804167D01*
X155875602Y-58804167D02*
X155923221Y-58994643D01*
X155923221Y-58994643D02*
X155970840Y-59089881D01*
X155970840Y-59089881D02*
X156066078Y-59185120D01*
X156066078Y-59185120D02*
X156208935Y-59232739D01*
X156208935Y-59232739D02*
X156304173Y-59232739D01*
X156304173Y-59232739D02*
X156447030Y-59185120D01*
X156447030Y-59185120D02*
X156494649Y-59137500D01*
X156494649Y-59137500D02*
X156494649Y-58804167D01*
X156494649Y-58804167D02*
X156304173Y-58804167D01*
X156923221Y-59232739D02*
X156923221Y-58232739D01*
X156923221Y-58232739D02*
X157304173Y-58232739D01*
X157304173Y-58232739D02*
X157399411Y-58280358D01*
X157399411Y-58280358D02*
X157447030Y-58327977D01*
X157447030Y-58327977D02*
X157494649Y-58423215D01*
X157494649Y-58423215D02*
X157494649Y-58566072D01*
X157494649Y-58566072D02*
X157447030Y-58661310D01*
X157447030Y-58661310D02*
X157399411Y-58708929D01*
X157399411Y-58708929D02*
X157304173Y-58756548D01*
X157304173Y-58756548D02*
X156923221Y-58756548D01*
X157923221Y-59232739D02*
X157923221Y-58232739D01*
X158589887Y-58232739D02*
X158780363Y-58232739D01*
X158780363Y-58232739D02*
X158875601Y-58280358D01*
X158875601Y-58280358D02*
X158970839Y-58375596D01*
X158970839Y-58375596D02*
X159018458Y-58566072D01*
X159018458Y-58566072D02*
X159018458Y-58899405D01*
X159018458Y-58899405D02*
X158970839Y-59089881D01*
X158970839Y-59089881D02*
X158875601Y-59185120D01*
X158875601Y-59185120D02*
X158780363Y-59232739D01*
X158780363Y-59232739D02*
X158589887Y-59232739D01*
X158589887Y-59232739D02*
X158494649Y-59185120D01*
X158494649Y-59185120D02*
X158399411Y-59089881D01*
X158399411Y-59089881D02*
X158351792Y-58899405D01*
X158351792Y-58899405D02*
X158351792Y-58566072D01*
X158351792Y-58566072D02*
X158399411Y-58375596D01*
X158399411Y-58375596D02*
X158494649Y-58280358D01*
X158494649Y-58280358D02*
X158589887Y-58232739D01*
X159970839Y-59232739D02*
X159399411Y-59232739D01*
X159685125Y-59232739D02*
X159685125Y-58232739D01*
X159685125Y-58232739D02*
X159589887Y-58375596D01*
X159589887Y-58375596D02*
X159494649Y-58470834D01*
X159494649Y-58470834D02*
X159399411Y-58518453D01*
X140171921Y-56166209D02*
X140505254Y-56166209D01*
X140648111Y-56690019D02*
X140171921Y-56690019D01*
X140171921Y-56690019D02*
X140171921Y-55690019D01*
X140171921Y-55690019D02*
X140648111Y-55690019D01*
X141076683Y-56690019D02*
X141076683Y-55690019D01*
X141076683Y-55690019D02*
X141648111Y-56690019D01*
X141648111Y-56690019D02*
X141648111Y-55690019D01*
X142838587Y-55642400D02*
X141981445Y-56928114D01*
X143743349Y-56690019D02*
X143410016Y-56213828D01*
X143171921Y-56690019D02*
X143171921Y-55690019D01*
X143171921Y-55690019D02*
X143552873Y-55690019D01*
X143552873Y-55690019D02*
X143648111Y-55737638D01*
X143648111Y-55737638D02*
X143695730Y-55785257D01*
X143695730Y-55785257D02*
X143743349Y-55880495D01*
X143743349Y-55880495D02*
X143743349Y-56023352D01*
X143743349Y-56023352D02*
X143695730Y-56118590D01*
X143695730Y-56118590D02*
X143648111Y-56166209D01*
X143648111Y-56166209D02*
X143552873Y-56213828D01*
X143552873Y-56213828D02*
X143171921Y-56213828D01*
X144171921Y-56166209D02*
X144505254Y-56166209D01*
X144648111Y-56690019D02*
X144171921Y-56690019D01*
X144171921Y-56690019D02*
X144171921Y-55690019D01*
X144171921Y-55690019D02*
X144648111Y-55690019D01*
X145029064Y-56642400D02*
X145171921Y-56690019D01*
X145171921Y-56690019D02*
X145410016Y-56690019D01*
X145410016Y-56690019D02*
X145505254Y-56642400D01*
X145505254Y-56642400D02*
X145552873Y-56594780D01*
X145552873Y-56594780D02*
X145600492Y-56499542D01*
X145600492Y-56499542D02*
X145600492Y-56404304D01*
X145600492Y-56404304D02*
X145552873Y-56309066D01*
X145552873Y-56309066D02*
X145505254Y-56261447D01*
X145505254Y-56261447D02*
X145410016Y-56213828D01*
X145410016Y-56213828D02*
X145219540Y-56166209D01*
X145219540Y-56166209D02*
X145124302Y-56118590D01*
X145124302Y-56118590D02*
X145076683Y-56070971D01*
X145076683Y-56070971D02*
X145029064Y-55975733D01*
X145029064Y-55975733D02*
X145029064Y-55880495D01*
X145029064Y-55880495D02*
X145076683Y-55785257D01*
X145076683Y-55785257D02*
X145124302Y-55737638D01*
X145124302Y-55737638D02*
X145219540Y-55690019D01*
X145219540Y-55690019D02*
X145457635Y-55690019D01*
X145457635Y-55690019D02*
X145600492Y-55737638D01*
X146029064Y-56166209D02*
X146362397Y-56166209D01*
X146505254Y-56690019D02*
X146029064Y-56690019D01*
X146029064Y-56690019D02*
X146029064Y-55690019D01*
X146029064Y-55690019D02*
X146505254Y-55690019D01*
X146790969Y-55690019D02*
X147362397Y-55690019D01*
X147076683Y-56690019D02*
X147076683Y-55690019D01*
X140800588Y-68440358D02*
X140705350Y-68392739D01*
X140705350Y-68392739D02*
X140562493Y-68392739D01*
X140562493Y-68392739D02*
X140419636Y-68440358D01*
X140419636Y-68440358D02*
X140324398Y-68535596D01*
X140324398Y-68535596D02*
X140276779Y-68630834D01*
X140276779Y-68630834D02*
X140229160Y-68821310D01*
X140229160Y-68821310D02*
X140229160Y-68964167D01*
X140229160Y-68964167D02*
X140276779Y-69154643D01*
X140276779Y-69154643D02*
X140324398Y-69249881D01*
X140324398Y-69249881D02*
X140419636Y-69345120D01*
X140419636Y-69345120D02*
X140562493Y-69392739D01*
X140562493Y-69392739D02*
X140657731Y-69392739D01*
X140657731Y-69392739D02*
X140800588Y-69345120D01*
X140800588Y-69345120D02*
X140848207Y-69297500D01*
X140848207Y-69297500D02*
X140848207Y-68964167D01*
X140848207Y-68964167D02*
X140657731Y-68964167D01*
X141276779Y-69392739D02*
X141276779Y-68392739D01*
X141276779Y-68392739D02*
X141657731Y-68392739D01*
X141657731Y-68392739D02*
X141752969Y-68440358D01*
X141752969Y-68440358D02*
X141800588Y-68487977D01*
X141800588Y-68487977D02*
X141848207Y-68583215D01*
X141848207Y-68583215D02*
X141848207Y-68726072D01*
X141848207Y-68726072D02*
X141800588Y-68821310D01*
X141800588Y-68821310D02*
X141752969Y-68868929D01*
X141752969Y-68868929D02*
X141657731Y-68916548D01*
X141657731Y-68916548D02*
X141276779Y-68916548D01*
X142276779Y-69392739D02*
X142276779Y-68392739D01*
X142943445Y-68392739D02*
X143133921Y-68392739D01*
X143133921Y-68392739D02*
X143229159Y-68440358D01*
X143229159Y-68440358D02*
X143324397Y-68535596D01*
X143324397Y-68535596D02*
X143372016Y-68726072D01*
X143372016Y-68726072D02*
X143372016Y-69059405D01*
X143372016Y-69059405D02*
X143324397Y-69249881D01*
X143324397Y-69249881D02*
X143229159Y-69345120D01*
X143229159Y-69345120D02*
X143133921Y-69392739D01*
X143133921Y-69392739D02*
X142943445Y-69392739D01*
X142943445Y-69392739D02*
X142848207Y-69345120D01*
X142848207Y-69345120D02*
X142752969Y-69249881D01*
X142752969Y-69249881D02*
X142705350Y-69059405D01*
X142705350Y-69059405D02*
X142705350Y-68726072D01*
X142705350Y-68726072D02*
X142752969Y-68535596D01*
X142752969Y-68535596D02*
X142848207Y-68440358D01*
X142848207Y-68440358D02*
X142943445Y-68392739D01*
X144324397Y-69392739D02*
X143752969Y-69392739D01*
X144038683Y-69392739D02*
X144038683Y-68392739D01*
X144038683Y-68392739D02*
X143943445Y-68535596D01*
X143943445Y-68535596D02*
X143848207Y-68630834D01*
X143848207Y-68630834D02*
X143752969Y-68678453D01*
X145229159Y-68392739D02*
X144752969Y-68392739D01*
X144752969Y-68392739D02*
X144705350Y-68868929D01*
X144705350Y-68868929D02*
X144752969Y-68821310D01*
X144752969Y-68821310D02*
X144848207Y-68773691D01*
X144848207Y-68773691D02*
X145086302Y-68773691D01*
X145086302Y-68773691D02*
X145181540Y-68821310D01*
X145181540Y-68821310D02*
X145229159Y-68868929D01*
X145229159Y-68868929D02*
X145276778Y-68964167D01*
X145276778Y-68964167D02*
X145276778Y-69202262D01*
X145276778Y-69202262D02*
X145229159Y-69297500D01*
X145229159Y-69297500D02*
X145181540Y-69345120D01*
X145181540Y-69345120D02*
X145086302Y-69392739D01*
X145086302Y-69392739D02*
X144848207Y-69392739D01*
X144848207Y-69392739D02*
X144752969Y-69345120D01*
X144752969Y-69345120D02*
X144705350Y-69297500D01*
X157875601Y-104000358D02*
X157780363Y-103952739D01*
X157780363Y-103952739D02*
X157637506Y-103952739D01*
X157637506Y-103952739D02*
X157494649Y-104000358D01*
X157494649Y-104000358D02*
X157399411Y-104095596D01*
X157399411Y-104095596D02*
X157351792Y-104190834D01*
X157351792Y-104190834D02*
X157304173Y-104381310D01*
X157304173Y-104381310D02*
X157304173Y-104524167D01*
X157304173Y-104524167D02*
X157351792Y-104714643D01*
X157351792Y-104714643D02*
X157399411Y-104809881D01*
X157399411Y-104809881D02*
X157494649Y-104905120D01*
X157494649Y-104905120D02*
X157637506Y-104952739D01*
X157637506Y-104952739D02*
X157732744Y-104952739D01*
X157732744Y-104952739D02*
X157875601Y-104905120D01*
X157875601Y-104905120D02*
X157923220Y-104857500D01*
X157923220Y-104857500D02*
X157923220Y-104524167D01*
X157923220Y-104524167D02*
X157732744Y-104524167D01*
X158351792Y-104952739D02*
X158351792Y-103952739D01*
X158351792Y-103952739D02*
X158923220Y-104952739D01*
X158923220Y-104952739D02*
X158923220Y-103952739D01*
X159399411Y-104952739D02*
X159399411Y-103952739D01*
X159399411Y-103952739D02*
X159637506Y-103952739D01*
X159637506Y-103952739D02*
X159780363Y-104000358D01*
X159780363Y-104000358D02*
X159875601Y-104095596D01*
X159875601Y-104095596D02*
X159923220Y-104190834D01*
X159923220Y-104190834D02*
X159970839Y-104381310D01*
X159970839Y-104381310D02*
X159970839Y-104524167D01*
X159970839Y-104524167D02*
X159923220Y-104714643D01*
X159923220Y-104714643D02*
X159875601Y-104809881D01*
X159875601Y-104809881D02*
X159780363Y-104905120D01*
X159780363Y-104905120D02*
X159637506Y-104952739D01*
X159637506Y-104952739D02*
X159399411Y-104952739D01*
X155494649Y-78600358D02*
X155399411Y-78552739D01*
X155399411Y-78552739D02*
X155256554Y-78552739D01*
X155256554Y-78552739D02*
X155113697Y-78600358D01*
X155113697Y-78600358D02*
X155018459Y-78695596D01*
X155018459Y-78695596D02*
X154970840Y-78790834D01*
X154970840Y-78790834D02*
X154923221Y-78981310D01*
X154923221Y-78981310D02*
X154923221Y-79124167D01*
X154923221Y-79124167D02*
X154970840Y-79314643D01*
X154970840Y-79314643D02*
X155018459Y-79409881D01*
X155018459Y-79409881D02*
X155113697Y-79505120D01*
X155113697Y-79505120D02*
X155256554Y-79552739D01*
X155256554Y-79552739D02*
X155351792Y-79552739D01*
X155351792Y-79552739D02*
X155494649Y-79505120D01*
X155494649Y-79505120D02*
X155542268Y-79457500D01*
X155542268Y-79457500D02*
X155542268Y-79124167D01*
X155542268Y-79124167D02*
X155351792Y-79124167D01*
X155970840Y-79552739D02*
X155970840Y-78552739D01*
X155970840Y-78552739D02*
X156351792Y-78552739D01*
X156351792Y-78552739D02*
X156447030Y-78600358D01*
X156447030Y-78600358D02*
X156494649Y-78647977D01*
X156494649Y-78647977D02*
X156542268Y-78743215D01*
X156542268Y-78743215D02*
X156542268Y-78886072D01*
X156542268Y-78886072D02*
X156494649Y-78981310D01*
X156494649Y-78981310D02*
X156447030Y-79028929D01*
X156447030Y-79028929D02*
X156351792Y-79076548D01*
X156351792Y-79076548D02*
X155970840Y-79076548D01*
X156970840Y-79552739D02*
X156970840Y-78552739D01*
X157637506Y-78552739D02*
X157827982Y-78552739D01*
X157827982Y-78552739D02*
X157923220Y-78600358D01*
X157923220Y-78600358D02*
X158018458Y-78695596D01*
X158018458Y-78695596D02*
X158066077Y-78886072D01*
X158066077Y-78886072D02*
X158066077Y-79219405D01*
X158066077Y-79219405D02*
X158018458Y-79409881D01*
X158018458Y-79409881D02*
X157923220Y-79505120D01*
X157923220Y-79505120D02*
X157827982Y-79552739D01*
X157827982Y-79552739D02*
X157637506Y-79552739D01*
X157637506Y-79552739D02*
X157542268Y-79505120D01*
X157542268Y-79505120D02*
X157447030Y-79409881D01*
X157447030Y-79409881D02*
X157399411Y-79219405D01*
X157399411Y-79219405D02*
X157399411Y-78886072D01*
X157399411Y-78886072D02*
X157447030Y-78695596D01*
X157447030Y-78695596D02*
X157542268Y-78600358D01*
X157542268Y-78600358D02*
X157637506Y-78552739D01*
X158399411Y-78552739D02*
X159018458Y-78552739D01*
X159018458Y-78552739D02*
X158685125Y-78933691D01*
X158685125Y-78933691D02*
X158827982Y-78933691D01*
X158827982Y-78933691D02*
X158923220Y-78981310D01*
X158923220Y-78981310D02*
X158970839Y-79028929D01*
X158970839Y-79028929D02*
X159018458Y-79124167D01*
X159018458Y-79124167D02*
X159018458Y-79362262D01*
X159018458Y-79362262D02*
X158970839Y-79457500D01*
X158970839Y-79457500D02*
X158923220Y-79505120D01*
X158923220Y-79505120D02*
X158827982Y-79552739D01*
X158827982Y-79552739D02*
X158542268Y-79552739D01*
X158542268Y-79552739D02*
X158447030Y-79505120D01*
X158447030Y-79505120D02*
X158399411Y-79457500D01*
X159875601Y-78552739D02*
X159685125Y-78552739D01*
X159685125Y-78552739D02*
X159589887Y-78600358D01*
X159589887Y-78600358D02*
X159542268Y-78647977D01*
X159542268Y-78647977D02*
X159447030Y-78790834D01*
X159447030Y-78790834D02*
X159399411Y-78981310D01*
X159399411Y-78981310D02*
X159399411Y-79362262D01*
X159399411Y-79362262D02*
X159447030Y-79457500D01*
X159447030Y-79457500D02*
X159494649Y-79505120D01*
X159494649Y-79505120D02*
X159589887Y-79552739D01*
X159589887Y-79552739D02*
X159780363Y-79552739D01*
X159780363Y-79552739D02*
X159875601Y-79505120D01*
X159875601Y-79505120D02*
X159923220Y-79457500D01*
X159923220Y-79457500D02*
X159970839Y-79362262D01*
X159970839Y-79362262D02*
X159970839Y-79124167D01*
X159970839Y-79124167D02*
X159923220Y-79028929D01*
X159923220Y-79028929D02*
X159875601Y-78981310D01*
X159875601Y-78981310D02*
X159780363Y-78933691D01*
X159780363Y-78933691D02*
X159589887Y-78933691D01*
X159589887Y-78933691D02*
X159494649Y-78981310D01*
X159494649Y-78981310D02*
X159447030Y-79028929D01*
X159447030Y-79028929D02*
X159399411Y-79124167D01*
X140800588Y-86220358D02*
X140705350Y-86172739D01*
X140705350Y-86172739D02*
X140562493Y-86172739D01*
X140562493Y-86172739D02*
X140419636Y-86220358D01*
X140419636Y-86220358D02*
X140324398Y-86315596D01*
X140324398Y-86315596D02*
X140276779Y-86410834D01*
X140276779Y-86410834D02*
X140229160Y-86601310D01*
X140229160Y-86601310D02*
X140229160Y-86744167D01*
X140229160Y-86744167D02*
X140276779Y-86934643D01*
X140276779Y-86934643D02*
X140324398Y-87029881D01*
X140324398Y-87029881D02*
X140419636Y-87125120D01*
X140419636Y-87125120D02*
X140562493Y-87172739D01*
X140562493Y-87172739D02*
X140657731Y-87172739D01*
X140657731Y-87172739D02*
X140800588Y-87125120D01*
X140800588Y-87125120D02*
X140848207Y-87077500D01*
X140848207Y-87077500D02*
X140848207Y-86744167D01*
X140848207Y-86744167D02*
X140657731Y-86744167D01*
X141276779Y-87172739D02*
X141276779Y-86172739D01*
X141276779Y-86172739D02*
X141657731Y-86172739D01*
X141657731Y-86172739D02*
X141752969Y-86220358D01*
X141752969Y-86220358D02*
X141800588Y-86267977D01*
X141800588Y-86267977D02*
X141848207Y-86363215D01*
X141848207Y-86363215D02*
X141848207Y-86506072D01*
X141848207Y-86506072D02*
X141800588Y-86601310D01*
X141800588Y-86601310D02*
X141752969Y-86648929D01*
X141752969Y-86648929D02*
X141657731Y-86696548D01*
X141657731Y-86696548D02*
X141276779Y-86696548D01*
X142276779Y-87172739D02*
X142276779Y-86172739D01*
X142943445Y-86172739D02*
X143133921Y-86172739D01*
X143133921Y-86172739D02*
X143229159Y-86220358D01*
X143229159Y-86220358D02*
X143324397Y-86315596D01*
X143324397Y-86315596D02*
X143372016Y-86506072D01*
X143372016Y-86506072D02*
X143372016Y-86839405D01*
X143372016Y-86839405D02*
X143324397Y-87029881D01*
X143324397Y-87029881D02*
X143229159Y-87125120D01*
X143229159Y-87125120D02*
X143133921Y-87172739D01*
X143133921Y-87172739D02*
X142943445Y-87172739D01*
X142943445Y-87172739D02*
X142848207Y-87125120D01*
X142848207Y-87125120D02*
X142752969Y-87029881D01*
X142752969Y-87029881D02*
X142705350Y-86839405D01*
X142705350Y-86839405D02*
X142705350Y-86506072D01*
X142705350Y-86506072D02*
X142752969Y-86315596D01*
X142752969Y-86315596D02*
X142848207Y-86220358D01*
X142848207Y-86220358D02*
X142943445Y-86172739D01*
X143848207Y-87172739D02*
X144038683Y-87172739D01*
X144038683Y-87172739D02*
X144133921Y-87125120D01*
X144133921Y-87125120D02*
X144181540Y-87077500D01*
X144181540Y-87077500D02*
X144276778Y-86934643D01*
X144276778Y-86934643D02*
X144324397Y-86744167D01*
X144324397Y-86744167D02*
X144324397Y-86363215D01*
X144324397Y-86363215D02*
X144276778Y-86267977D01*
X144276778Y-86267977D02*
X144229159Y-86220358D01*
X144229159Y-86220358D02*
X144133921Y-86172739D01*
X144133921Y-86172739D02*
X143943445Y-86172739D01*
X143943445Y-86172739D02*
X143848207Y-86220358D01*
X143848207Y-86220358D02*
X143800588Y-86267977D01*
X143800588Y-86267977D02*
X143752969Y-86363215D01*
X143752969Y-86363215D02*
X143752969Y-86601310D01*
X143752969Y-86601310D02*
X143800588Y-86696548D01*
X143800588Y-86696548D02*
X143848207Y-86744167D01*
X143848207Y-86744167D02*
X143943445Y-86791786D01*
X143943445Y-86791786D02*
X144133921Y-86791786D01*
X144133921Y-86791786D02*
X144229159Y-86744167D01*
X144229159Y-86744167D02*
X144276778Y-86696548D01*
X144276778Y-86696548D02*
X144324397Y-86601310D01*
X155494649Y-73520358D02*
X155399411Y-73472739D01*
X155399411Y-73472739D02*
X155256554Y-73472739D01*
X155256554Y-73472739D02*
X155113697Y-73520358D01*
X155113697Y-73520358D02*
X155018459Y-73615596D01*
X155018459Y-73615596D02*
X154970840Y-73710834D01*
X154970840Y-73710834D02*
X154923221Y-73901310D01*
X154923221Y-73901310D02*
X154923221Y-74044167D01*
X154923221Y-74044167D02*
X154970840Y-74234643D01*
X154970840Y-74234643D02*
X155018459Y-74329881D01*
X155018459Y-74329881D02*
X155113697Y-74425120D01*
X155113697Y-74425120D02*
X155256554Y-74472739D01*
X155256554Y-74472739D02*
X155351792Y-74472739D01*
X155351792Y-74472739D02*
X155494649Y-74425120D01*
X155494649Y-74425120D02*
X155542268Y-74377500D01*
X155542268Y-74377500D02*
X155542268Y-74044167D01*
X155542268Y-74044167D02*
X155351792Y-74044167D01*
X155970840Y-74472739D02*
X155970840Y-73472739D01*
X155970840Y-73472739D02*
X156351792Y-73472739D01*
X156351792Y-73472739D02*
X156447030Y-73520358D01*
X156447030Y-73520358D02*
X156494649Y-73567977D01*
X156494649Y-73567977D02*
X156542268Y-73663215D01*
X156542268Y-73663215D02*
X156542268Y-73806072D01*
X156542268Y-73806072D02*
X156494649Y-73901310D01*
X156494649Y-73901310D02*
X156447030Y-73948929D01*
X156447030Y-73948929D02*
X156351792Y-73996548D01*
X156351792Y-73996548D02*
X155970840Y-73996548D01*
X156970840Y-74472739D02*
X156970840Y-73472739D01*
X157637506Y-73472739D02*
X157827982Y-73472739D01*
X157827982Y-73472739D02*
X157923220Y-73520358D01*
X157923220Y-73520358D02*
X158018458Y-73615596D01*
X158018458Y-73615596D02*
X158066077Y-73806072D01*
X158066077Y-73806072D02*
X158066077Y-74139405D01*
X158066077Y-74139405D02*
X158018458Y-74329881D01*
X158018458Y-74329881D02*
X157923220Y-74425120D01*
X157923220Y-74425120D02*
X157827982Y-74472739D01*
X157827982Y-74472739D02*
X157637506Y-74472739D01*
X157637506Y-74472739D02*
X157542268Y-74425120D01*
X157542268Y-74425120D02*
X157447030Y-74329881D01*
X157447030Y-74329881D02*
X157399411Y-74139405D01*
X157399411Y-74139405D02*
X157399411Y-73806072D01*
X157399411Y-73806072D02*
X157447030Y-73615596D01*
X157447030Y-73615596D02*
X157542268Y-73520358D01*
X157542268Y-73520358D02*
X157637506Y-73472739D01*
X158399411Y-73472739D02*
X159018458Y-73472739D01*
X159018458Y-73472739D02*
X158685125Y-73853691D01*
X158685125Y-73853691D02*
X158827982Y-73853691D01*
X158827982Y-73853691D02*
X158923220Y-73901310D01*
X158923220Y-73901310D02*
X158970839Y-73948929D01*
X158970839Y-73948929D02*
X159018458Y-74044167D01*
X159018458Y-74044167D02*
X159018458Y-74282262D01*
X159018458Y-74282262D02*
X158970839Y-74377500D01*
X158970839Y-74377500D02*
X158923220Y-74425120D01*
X158923220Y-74425120D02*
X158827982Y-74472739D01*
X158827982Y-74472739D02*
X158542268Y-74472739D01*
X158542268Y-74472739D02*
X158447030Y-74425120D01*
X158447030Y-74425120D02*
X158399411Y-74377500D01*
X159589887Y-73901310D02*
X159494649Y-73853691D01*
X159494649Y-73853691D02*
X159447030Y-73806072D01*
X159447030Y-73806072D02*
X159399411Y-73710834D01*
X159399411Y-73710834D02*
X159399411Y-73663215D01*
X159399411Y-73663215D02*
X159447030Y-73567977D01*
X159447030Y-73567977D02*
X159494649Y-73520358D01*
X159494649Y-73520358D02*
X159589887Y-73472739D01*
X159589887Y-73472739D02*
X159780363Y-73472739D01*
X159780363Y-73472739D02*
X159875601Y-73520358D01*
X159875601Y-73520358D02*
X159923220Y-73567977D01*
X159923220Y-73567977D02*
X159970839Y-73663215D01*
X159970839Y-73663215D02*
X159970839Y-73710834D01*
X159970839Y-73710834D02*
X159923220Y-73806072D01*
X159923220Y-73806072D02*
X159875601Y-73853691D01*
X159875601Y-73853691D02*
X159780363Y-73901310D01*
X159780363Y-73901310D02*
X159589887Y-73901310D01*
X159589887Y-73901310D02*
X159494649Y-73948929D01*
X159494649Y-73948929D02*
X159447030Y-73996548D01*
X159447030Y-73996548D02*
X159399411Y-74091786D01*
X159399411Y-74091786D02*
X159399411Y-74282262D01*
X159399411Y-74282262D02*
X159447030Y-74377500D01*
X159447030Y-74377500D02*
X159494649Y-74425120D01*
X159494649Y-74425120D02*
X159589887Y-74472739D01*
X159589887Y-74472739D02*
X159780363Y-74472739D01*
X159780363Y-74472739D02*
X159875601Y-74425120D01*
X159875601Y-74425120D02*
X159923220Y-74377500D01*
X159923220Y-74377500D02*
X159970839Y-74282262D01*
X159970839Y-74282262D02*
X159970839Y-74091786D01*
X159970839Y-74091786D02*
X159923220Y-73996548D01*
X159923220Y-73996548D02*
X159875601Y-73948929D01*
X159875601Y-73948929D02*
X159780363Y-73901310D01*
X141050908Y-103997638D02*
X140955670Y-103950019D01*
X140955670Y-103950019D02*
X140812813Y-103950019D01*
X140812813Y-103950019D02*
X140669956Y-103997638D01*
X140669956Y-103997638D02*
X140574718Y-104092876D01*
X140574718Y-104092876D02*
X140527099Y-104188114D01*
X140527099Y-104188114D02*
X140479480Y-104378590D01*
X140479480Y-104378590D02*
X140479480Y-104521447D01*
X140479480Y-104521447D02*
X140527099Y-104711923D01*
X140527099Y-104711923D02*
X140574718Y-104807161D01*
X140574718Y-104807161D02*
X140669956Y-104902400D01*
X140669956Y-104902400D02*
X140812813Y-104950019D01*
X140812813Y-104950019D02*
X140908051Y-104950019D01*
X140908051Y-104950019D02*
X141050908Y-104902400D01*
X141050908Y-104902400D02*
X141098527Y-104854780D01*
X141098527Y-104854780D02*
X141098527Y-104521447D01*
X141098527Y-104521447D02*
X140908051Y-104521447D01*
X141527099Y-104950019D02*
X141527099Y-103950019D01*
X141527099Y-103950019D02*
X142098527Y-104950019D01*
X142098527Y-104950019D02*
X142098527Y-103950019D01*
X142574718Y-104950019D02*
X142574718Y-103950019D01*
X142574718Y-103950019D02*
X142812813Y-103950019D01*
X142812813Y-103950019D02*
X142955670Y-103997638D01*
X142955670Y-103997638D02*
X143050908Y-104092876D01*
X143050908Y-104092876D02*
X143098527Y-104188114D01*
X143098527Y-104188114D02*
X143146146Y-104378590D01*
X143146146Y-104378590D02*
X143146146Y-104521447D01*
X143146146Y-104521447D02*
X143098527Y-104711923D01*
X143098527Y-104711923D02*
X143050908Y-104807161D01*
X143050908Y-104807161D02*
X142955670Y-104902400D01*
X142955670Y-104902400D02*
X142812813Y-104950019D01*
X142812813Y-104950019D02*
X142574718Y-104950019D01*
X140800588Y-76060358D02*
X140705350Y-76012739D01*
X140705350Y-76012739D02*
X140562493Y-76012739D01*
X140562493Y-76012739D02*
X140419636Y-76060358D01*
X140419636Y-76060358D02*
X140324398Y-76155596D01*
X140324398Y-76155596D02*
X140276779Y-76250834D01*
X140276779Y-76250834D02*
X140229160Y-76441310D01*
X140229160Y-76441310D02*
X140229160Y-76584167D01*
X140229160Y-76584167D02*
X140276779Y-76774643D01*
X140276779Y-76774643D02*
X140324398Y-76869881D01*
X140324398Y-76869881D02*
X140419636Y-76965120D01*
X140419636Y-76965120D02*
X140562493Y-77012739D01*
X140562493Y-77012739D02*
X140657731Y-77012739D01*
X140657731Y-77012739D02*
X140800588Y-76965120D01*
X140800588Y-76965120D02*
X140848207Y-76917500D01*
X140848207Y-76917500D02*
X140848207Y-76584167D01*
X140848207Y-76584167D02*
X140657731Y-76584167D01*
X141276779Y-77012739D02*
X141276779Y-76012739D01*
X141276779Y-76012739D02*
X141657731Y-76012739D01*
X141657731Y-76012739D02*
X141752969Y-76060358D01*
X141752969Y-76060358D02*
X141800588Y-76107977D01*
X141800588Y-76107977D02*
X141848207Y-76203215D01*
X141848207Y-76203215D02*
X141848207Y-76346072D01*
X141848207Y-76346072D02*
X141800588Y-76441310D01*
X141800588Y-76441310D02*
X141752969Y-76488929D01*
X141752969Y-76488929D02*
X141657731Y-76536548D01*
X141657731Y-76536548D02*
X141276779Y-76536548D01*
X142276779Y-77012739D02*
X142276779Y-76012739D01*
X142943445Y-76012739D02*
X143133921Y-76012739D01*
X143133921Y-76012739D02*
X143229159Y-76060358D01*
X143229159Y-76060358D02*
X143324397Y-76155596D01*
X143324397Y-76155596D02*
X143372016Y-76346072D01*
X143372016Y-76346072D02*
X143372016Y-76679405D01*
X143372016Y-76679405D02*
X143324397Y-76869881D01*
X143324397Y-76869881D02*
X143229159Y-76965120D01*
X143229159Y-76965120D02*
X143133921Y-77012739D01*
X143133921Y-77012739D02*
X142943445Y-77012739D01*
X142943445Y-77012739D02*
X142848207Y-76965120D01*
X142848207Y-76965120D02*
X142752969Y-76869881D01*
X142752969Y-76869881D02*
X142705350Y-76679405D01*
X142705350Y-76679405D02*
X142705350Y-76346072D01*
X142705350Y-76346072D02*
X142752969Y-76155596D01*
X142752969Y-76155596D02*
X142848207Y-76060358D01*
X142848207Y-76060358D02*
X142943445Y-76012739D01*
X144324397Y-77012739D02*
X143752969Y-77012739D01*
X144038683Y-77012739D02*
X144038683Y-76012739D01*
X144038683Y-76012739D02*
X143943445Y-76155596D01*
X143943445Y-76155596D02*
X143848207Y-76250834D01*
X143848207Y-76250834D02*
X143752969Y-76298453D01*
X144895826Y-76441310D02*
X144800588Y-76393691D01*
X144800588Y-76393691D02*
X144752969Y-76346072D01*
X144752969Y-76346072D02*
X144705350Y-76250834D01*
X144705350Y-76250834D02*
X144705350Y-76203215D01*
X144705350Y-76203215D02*
X144752969Y-76107977D01*
X144752969Y-76107977D02*
X144800588Y-76060358D01*
X144800588Y-76060358D02*
X144895826Y-76012739D01*
X144895826Y-76012739D02*
X145086302Y-76012739D01*
X145086302Y-76012739D02*
X145181540Y-76060358D01*
X145181540Y-76060358D02*
X145229159Y-76107977D01*
X145229159Y-76107977D02*
X145276778Y-76203215D01*
X145276778Y-76203215D02*
X145276778Y-76250834D01*
X145276778Y-76250834D02*
X145229159Y-76346072D01*
X145229159Y-76346072D02*
X145181540Y-76393691D01*
X145181540Y-76393691D02*
X145086302Y-76441310D01*
X145086302Y-76441310D02*
X144895826Y-76441310D01*
X144895826Y-76441310D02*
X144800588Y-76488929D01*
X144800588Y-76488929D02*
X144752969Y-76536548D01*
X144752969Y-76536548D02*
X144705350Y-76631786D01*
X144705350Y-76631786D02*
X144705350Y-76822262D01*
X144705350Y-76822262D02*
X144752969Y-76917500D01*
X144752969Y-76917500D02*
X144800588Y-76965120D01*
X144800588Y-76965120D02*
X144895826Y-77012739D01*
X144895826Y-77012739D02*
X145086302Y-77012739D01*
X145086302Y-77012739D02*
X145181540Y-76965120D01*
X145181540Y-76965120D02*
X145229159Y-76917500D01*
X145229159Y-76917500D02*
X145276778Y-76822262D01*
X145276778Y-76822262D02*
X145276778Y-76631786D01*
X145276778Y-76631786D02*
X145229159Y-76536548D01*
X145229159Y-76536548D02*
X145181540Y-76488929D01*
X145181540Y-76488929D02*
X145086302Y-76441310D01*
X157875601Y-50660358D02*
X157780363Y-50612739D01*
X157780363Y-50612739D02*
X157637506Y-50612739D01*
X157637506Y-50612739D02*
X157494649Y-50660358D01*
X157494649Y-50660358D02*
X157399411Y-50755596D01*
X157399411Y-50755596D02*
X157351792Y-50850834D01*
X157351792Y-50850834D02*
X157304173Y-51041310D01*
X157304173Y-51041310D02*
X157304173Y-51184167D01*
X157304173Y-51184167D02*
X157351792Y-51374643D01*
X157351792Y-51374643D02*
X157399411Y-51469881D01*
X157399411Y-51469881D02*
X157494649Y-51565120D01*
X157494649Y-51565120D02*
X157637506Y-51612739D01*
X157637506Y-51612739D02*
X157732744Y-51612739D01*
X157732744Y-51612739D02*
X157875601Y-51565120D01*
X157875601Y-51565120D02*
X157923220Y-51517500D01*
X157923220Y-51517500D02*
X157923220Y-51184167D01*
X157923220Y-51184167D02*
X157732744Y-51184167D01*
X158351792Y-51612739D02*
X158351792Y-50612739D01*
X158351792Y-50612739D02*
X158923220Y-51612739D01*
X158923220Y-51612739D02*
X158923220Y-50612739D01*
X159399411Y-51612739D02*
X159399411Y-50612739D01*
X159399411Y-50612739D02*
X159637506Y-50612739D01*
X159637506Y-50612739D02*
X159780363Y-50660358D01*
X159780363Y-50660358D02*
X159875601Y-50755596D01*
X159875601Y-50755596D02*
X159923220Y-50850834D01*
X159923220Y-50850834D02*
X159970839Y-51041310D01*
X159970839Y-51041310D02*
X159970839Y-51184167D01*
X159970839Y-51184167D02*
X159923220Y-51374643D01*
X159923220Y-51374643D02*
X159875601Y-51469881D01*
X159875601Y-51469881D02*
X159780363Y-51565120D01*
X159780363Y-51565120D02*
X159637506Y-51612739D01*
X159637506Y-51612739D02*
X159399411Y-51612739D01*
X150494649Y-68440358D02*
X150399411Y-68392739D01*
X150399411Y-68392739D02*
X150256554Y-68392739D01*
X150256554Y-68392739D02*
X150113697Y-68440358D01*
X150113697Y-68440358D02*
X150018459Y-68535596D01*
X150018459Y-68535596D02*
X149970840Y-68630834D01*
X149970840Y-68630834D02*
X149923221Y-68821310D01*
X149923221Y-68821310D02*
X149923221Y-68964167D01*
X149923221Y-68964167D02*
X149970840Y-69154643D01*
X149970840Y-69154643D02*
X150018459Y-69249881D01*
X150018459Y-69249881D02*
X150113697Y-69345120D01*
X150113697Y-69345120D02*
X150256554Y-69392739D01*
X150256554Y-69392739D02*
X150351792Y-69392739D01*
X150351792Y-69392739D02*
X150494649Y-69345120D01*
X150494649Y-69345120D02*
X150542268Y-69297500D01*
X150542268Y-69297500D02*
X150542268Y-68964167D01*
X150542268Y-68964167D02*
X150351792Y-68964167D01*
X150970840Y-69392739D02*
X150970840Y-68392739D01*
X150970840Y-68392739D02*
X151351792Y-68392739D01*
X151351792Y-68392739D02*
X151447030Y-68440358D01*
X151447030Y-68440358D02*
X151494649Y-68487977D01*
X151494649Y-68487977D02*
X151542268Y-68583215D01*
X151542268Y-68583215D02*
X151542268Y-68726072D01*
X151542268Y-68726072D02*
X151494649Y-68821310D01*
X151494649Y-68821310D02*
X151447030Y-68868929D01*
X151447030Y-68868929D02*
X151351792Y-68916548D01*
X151351792Y-68916548D02*
X150970840Y-68916548D01*
X151970840Y-69392739D02*
X151970840Y-68392739D01*
X152637506Y-68392739D02*
X152827982Y-68392739D01*
X152827982Y-68392739D02*
X152923220Y-68440358D01*
X152923220Y-68440358D02*
X153018458Y-68535596D01*
X153018458Y-68535596D02*
X153066077Y-68726072D01*
X153066077Y-68726072D02*
X153066077Y-69059405D01*
X153066077Y-69059405D02*
X153018458Y-69249881D01*
X153018458Y-69249881D02*
X152923220Y-69345120D01*
X152923220Y-69345120D02*
X152827982Y-69392739D01*
X152827982Y-69392739D02*
X152637506Y-69392739D01*
X152637506Y-69392739D02*
X152542268Y-69345120D01*
X152542268Y-69345120D02*
X152447030Y-69249881D01*
X152447030Y-69249881D02*
X152399411Y-69059405D01*
X152399411Y-69059405D02*
X152399411Y-68726072D01*
X152399411Y-68726072D02*
X152447030Y-68535596D01*
X152447030Y-68535596D02*
X152542268Y-68440358D01*
X152542268Y-68440358D02*
X152637506Y-68392739D01*
X153923220Y-68726072D02*
X153923220Y-69392739D01*
X153685125Y-68345120D02*
X153447030Y-69059405D01*
X153447030Y-69059405D02*
X154066077Y-69059405D01*
X154637506Y-68392739D02*
X154732744Y-68392739D01*
X154732744Y-68392739D02*
X154827982Y-68440358D01*
X154827982Y-68440358D02*
X154875601Y-68487977D01*
X154875601Y-68487977D02*
X154923220Y-68583215D01*
X154923220Y-68583215D02*
X154970839Y-68773691D01*
X154970839Y-68773691D02*
X154970839Y-69011786D01*
X154970839Y-69011786D02*
X154923220Y-69202262D01*
X154923220Y-69202262D02*
X154875601Y-69297500D01*
X154875601Y-69297500D02*
X154827982Y-69345120D01*
X154827982Y-69345120D02*
X154732744Y-69392739D01*
X154732744Y-69392739D02*
X154637506Y-69392739D01*
X154637506Y-69392739D02*
X154542268Y-69345120D01*
X154542268Y-69345120D02*
X154494649Y-69297500D01*
X154494649Y-69297500D02*
X154447030Y-69202262D01*
X154447030Y-69202262D02*
X154399411Y-69011786D01*
X154399411Y-69011786D02*
X154399411Y-68773691D01*
X154399411Y-68773691D02*
X154447030Y-68583215D01*
X154447030Y-68583215D02*
X154494649Y-68487977D01*
X154494649Y-68487977D02*
X154542268Y-68440358D01*
X154542268Y-68440358D02*
X154637506Y-68392739D01*
X156113696Y-68345120D02*
X155256554Y-69630834D01*
X156447030Y-69392739D02*
X156447030Y-68392739D01*
X156447030Y-68392739D02*
X156780363Y-69107024D01*
X156780363Y-69107024D02*
X157113696Y-68392739D01*
X157113696Y-68392739D02*
X157113696Y-69392739D01*
X157447030Y-68392739D02*
X158018458Y-68392739D01*
X157732744Y-69392739D02*
X157732744Y-68392739D01*
X158351792Y-69392739D02*
X158351792Y-68392739D01*
X158351792Y-68392739D02*
X158589887Y-68392739D01*
X158589887Y-68392739D02*
X158732744Y-68440358D01*
X158732744Y-68440358D02*
X158827982Y-68535596D01*
X158827982Y-68535596D02*
X158875601Y-68630834D01*
X158875601Y-68630834D02*
X158923220Y-68821310D01*
X158923220Y-68821310D02*
X158923220Y-68964167D01*
X158923220Y-68964167D02*
X158875601Y-69154643D01*
X158875601Y-69154643D02*
X158827982Y-69249881D01*
X158827982Y-69249881D02*
X158732744Y-69345120D01*
X158732744Y-69345120D02*
X158589887Y-69392739D01*
X158589887Y-69392739D02*
X158351792Y-69392739D01*
X159542268Y-68392739D02*
X159732744Y-68392739D01*
X159732744Y-68392739D02*
X159827982Y-68440358D01*
X159827982Y-68440358D02*
X159923220Y-68535596D01*
X159923220Y-68535596D02*
X159970839Y-68726072D01*
X159970839Y-68726072D02*
X159970839Y-69059405D01*
X159970839Y-69059405D02*
X159923220Y-69249881D01*
X159923220Y-69249881D02*
X159827982Y-69345120D01*
X159827982Y-69345120D02*
X159732744Y-69392739D01*
X159732744Y-69392739D02*
X159542268Y-69392739D01*
X159542268Y-69392739D02*
X159447030Y-69345120D01*
X159447030Y-69345120D02*
X159351792Y-69249881D01*
X159351792Y-69249881D02*
X159304173Y-69059405D01*
X159304173Y-69059405D02*
X159304173Y-68726072D01*
X159304173Y-68726072D02*
X159351792Y-68535596D01*
X159351792Y-68535596D02*
X159447030Y-68440358D01*
X159447030Y-68440358D02*
X159542268Y-68392739D01*
X140800588Y-83680358D02*
X140705350Y-83632739D01*
X140705350Y-83632739D02*
X140562493Y-83632739D01*
X140562493Y-83632739D02*
X140419636Y-83680358D01*
X140419636Y-83680358D02*
X140324398Y-83775596D01*
X140324398Y-83775596D02*
X140276779Y-83870834D01*
X140276779Y-83870834D02*
X140229160Y-84061310D01*
X140229160Y-84061310D02*
X140229160Y-84204167D01*
X140229160Y-84204167D02*
X140276779Y-84394643D01*
X140276779Y-84394643D02*
X140324398Y-84489881D01*
X140324398Y-84489881D02*
X140419636Y-84585120D01*
X140419636Y-84585120D02*
X140562493Y-84632739D01*
X140562493Y-84632739D02*
X140657731Y-84632739D01*
X140657731Y-84632739D02*
X140800588Y-84585120D01*
X140800588Y-84585120D02*
X140848207Y-84537500D01*
X140848207Y-84537500D02*
X140848207Y-84204167D01*
X140848207Y-84204167D02*
X140657731Y-84204167D01*
X141276779Y-84632739D02*
X141276779Y-83632739D01*
X141276779Y-83632739D02*
X141657731Y-83632739D01*
X141657731Y-83632739D02*
X141752969Y-83680358D01*
X141752969Y-83680358D02*
X141800588Y-83727977D01*
X141800588Y-83727977D02*
X141848207Y-83823215D01*
X141848207Y-83823215D02*
X141848207Y-83966072D01*
X141848207Y-83966072D02*
X141800588Y-84061310D01*
X141800588Y-84061310D02*
X141752969Y-84108929D01*
X141752969Y-84108929D02*
X141657731Y-84156548D01*
X141657731Y-84156548D02*
X141276779Y-84156548D01*
X142276779Y-84632739D02*
X142276779Y-83632739D01*
X142943445Y-83632739D02*
X143133921Y-83632739D01*
X143133921Y-83632739D02*
X143229159Y-83680358D01*
X143229159Y-83680358D02*
X143324397Y-83775596D01*
X143324397Y-83775596D02*
X143372016Y-83966072D01*
X143372016Y-83966072D02*
X143372016Y-84299405D01*
X143372016Y-84299405D02*
X143324397Y-84489881D01*
X143324397Y-84489881D02*
X143229159Y-84585120D01*
X143229159Y-84585120D02*
X143133921Y-84632739D01*
X143133921Y-84632739D02*
X142943445Y-84632739D01*
X142943445Y-84632739D02*
X142848207Y-84585120D01*
X142848207Y-84585120D02*
X142752969Y-84489881D01*
X142752969Y-84489881D02*
X142705350Y-84299405D01*
X142705350Y-84299405D02*
X142705350Y-83966072D01*
X142705350Y-83966072D02*
X142752969Y-83775596D01*
X142752969Y-83775596D02*
X142848207Y-83680358D01*
X142848207Y-83680358D02*
X142943445Y-83632739D01*
X144229159Y-83966072D02*
X144229159Y-84632739D01*
X143991064Y-83585120D02*
X143752969Y-84299405D01*
X143752969Y-84299405D02*
X144372016Y-84299405D01*
X145181540Y-83632739D02*
X144991064Y-83632739D01*
X144991064Y-83632739D02*
X144895826Y-83680358D01*
X144895826Y-83680358D02*
X144848207Y-83727977D01*
X144848207Y-83727977D02*
X144752969Y-83870834D01*
X144752969Y-83870834D02*
X144705350Y-84061310D01*
X144705350Y-84061310D02*
X144705350Y-84442262D01*
X144705350Y-84442262D02*
X144752969Y-84537500D01*
X144752969Y-84537500D02*
X144800588Y-84585120D01*
X144800588Y-84585120D02*
X144895826Y-84632739D01*
X144895826Y-84632739D02*
X145086302Y-84632739D01*
X145086302Y-84632739D02*
X145181540Y-84585120D01*
X145181540Y-84585120D02*
X145229159Y-84537500D01*
X145229159Y-84537500D02*
X145276778Y-84442262D01*
X145276778Y-84442262D02*
X145276778Y-84204167D01*
X145276778Y-84204167D02*
X145229159Y-84108929D01*
X145229159Y-84108929D02*
X145181540Y-84061310D01*
X145181540Y-84061310D02*
X145086302Y-84013691D01*
X145086302Y-84013691D02*
X144895826Y-84013691D01*
X144895826Y-84013691D02*
X144800588Y-84061310D01*
X144800588Y-84061310D02*
X144752969Y-84108929D01*
X144752969Y-84108929D02*
X144705350Y-84204167D01*
X151066078Y-65900358D02*
X150970840Y-65852739D01*
X150970840Y-65852739D02*
X150827983Y-65852739D01*
X150827983Y-65852739D02*
X150685126Y-65900358D01*
X150685126Y-65900358D02*
X150589888Y-65995596D01*
X150589888Y-65995596D02*
X150542269Y-66090834D01*
X150542269Y-66090834D02*
X150494650Y-66281310D01*
X150494650Y-66281310D02*
X150494650Y-66424167D01*
X150494650Y-66424167D02*
X150542269Y-66614643D01*
X150542269Y-66614643D02*
X150589888Y-66709881D01*
X150589888Y-66709881D02*
X150685126Y-66805120D01*
X150685126Y-66805120D02*
X150827983Y-66852739D01*
X150827983Y-66852739D02*
X150923221Y-66852739D01*
X150923221Y-66852739D02*
X151066078Y-66805120D01*
X151066078Y-66805120D02*
X151113697Y-66757500D01*
X151113697Y-66757500D02*
X151113697Y-66424167D01*
X151113697Y-66424167D02*
X150923221Y-66424167D01*
X151542269Y-66852739D02*
X151542269Y-65852739D01*
X151542269Y-65852739D02*
X151923221Y-65852739D01*
X151923221Y-65852739D02*
X152018459Y-65900358D01*
X152018459Y-65900358D02*
X152066078Y-65947977D01*
X152066078Y-65947977D02*
X152113697Y-66043215D01*
X152113697Y-66043215D02*
X152113697Y-66186072D01*
X152113697Y-66186072D02*
X152066078Y-66281310D01*
X152066078Y-66281310D02*
X152018459Y-66328929D01*
X152018459Y-66328929D02*
X151923221Y-66376548D01*
X151923221Y-66376548D02*
X151542269Y-66376548D01*
X152542269Y-66852739D02*
X152542269Y-65852739D01*
X153208935Y-65852739D02*
X153399411Y-65852739D01*
X153399411Y-65852739D02*
X153494649Y-65900358D01*
X153494649Y-65900358D02*
X153589887Y-65995596D01*
X153589887Y-65995596D02*
X153637506Y-66186072D01*
X153637506Y-66186072D02*
X153637506Y-66519405D01*
X153637506Y-66519405D02*
X153589887Y-66709881D01*
X153589887Y-66709881D02*
X153494649Y-66805120D01*
X153494649Y-66805120D02*
X153399411Y-66852739D01*
X153399411Y-66852739D02*
X153208935Y-66852739D01*
X153208935Y-66852739D02*
X153113697Y-66805120D01*
X153113697Y-66805120D02*
X153018459Y-66709881D01*
X153018459Y-66709881D02*
X152970840Y-66519405D01*
X152970840Y-66519405D02*
X152970840Y-66186072D01*
X152970840Y-66186072D02*
X153018459Y-65995596D01*
X153018459Y-65995596D02*
X153113697Y-65900358D01*
X153113697Y-65900358D02*
X153208935Y-65852739D01*
X154494649Y-66186072D02*
X154494649Y-66852739D01*
X154256554Y-65805120D02*
X154018459Y-66519405D01*
X154018459Y-66519405D02*
X154637506Y-66519405D01*
X155542268Y-66852739D02*
X154970840Y-66852739D01*
X155256554Y-66852739D02*
X155256554Y-65852739D01*
X155256554Y-65852739D02*
X155161316Y-65995596D01*
X155161316Y-65995596D02*
X155066078Y-66090834D01*
X155066078Y-66090834D02*
X154970840Y-66138453D01*
X156685125Y-65805120D02*
X155827983Y-67090834D01*
X157018459Y-66852739D02*
X157018459Y-65852739D01*
X157018459Y-65852739D02*
X157351792Y-66567024D01*
X157351792Y-66567024D02*
X157685125Y-65852739D01*
X157685125Y-65852739D02*
X157685125Y-66852739D01*
X158018459Y-65852739D02*
X158589887Y-65852739D01*
X158304173Y-66852739D02*
X158304173Y-65852739D01*
X158923221Y-66852739D02*
X158923221Y-65852739D01*
X158923221Y-65852739D02*
X159161316Y-65852739D01*
X159161316Y-65852739D02*
X159304173Y-65900358D01*
X159304173Y-65900358D02*
X159399411Y-65995596D01*
X159399411Y-65995596D02*
X159447030Y-66090834D01*
X159447030Y-66090834D02*
X159494649Y-66281310D01*
X159494649Y-66281310D02*
X159494649Y-66424167D01*
X159494649Y-66424167D02*
X159447030Y-66614643D01*
X159447030Y-66614643D02*
X159399411Y-66709881D01*
X159399411Y-66709881D02*
X159304173Y-66805120D01*
X159304173Y-66805120D02*
X159161316Y-66852739D01*
X159161316Y-66852739D02*
X158923221Y-66852739D01*
X159923221Y-66852739D02*
X159923221Y-65852739D01*
X140800588Y-65900358D02*
X140705350Y-65852739D01*
X140705350Y-65852739D02*
X140562493Y-65852739D01*
X140562493Y-65852739D02*
X140419636Y-65900358D01*
X140419636Y-65900358D02*
X140324398Y-65995596D01*
X140324398Y-65995596D02*
X140276779Y-66090834D01*
X140276779Y-66090834D02*
X140229160Y-66281310D01*
X140229160Y-66281310D02*
X140229160Y-66424167D01*
X140229160Y-66424167D02*
X140276779Y-66614643D01*
X140276779Y-66614643D02*
X140324398Y-66709881D01*
X140324398Y-66709881D02*
X140419636Y-66805120D01*
X140419636Y-66805120D02*
X140562493Y-66852739D01*
X140562493Y-66852739D02*
X140657731Y-66852739D01*
X140657731Y-66852739D02*
X140800588Y-66805120D01*
X140800588Y-66805120D02*
X140848207Y-66757500D01*
X140848207Y-66757500D02*
X140848207Y-66424167D01*
X140848207Y-66424167D02*
X140657731Y-66424167D01*
X141276779Y-66852739D02*
X141276779Y-65852739D01*
X141276779Y-65852739D02*
X141657731Y-65852739D01*
X141657731Y-65852739D02*
X141752969Y-65900358D01*
X141752969Y-65900358D02*
X141800588Y-65947977D01*
X141800588Y-65947977D02*
X141848207Y-66043215D01*
X141848207Y-66043215D02*
X141848207Y-66186072D01*
X141848207Y-66186072D02*
X141800588Y-66281310D01*
X141800588Y-66281310D02*
X141752969Y-66328929D01*
X141752969Y-66328929D02*
X141657731Y-66376548D01*
X141657731Y-66376548D02*
X141276779Y-66376548D01*
X142276779Y-66852739D02*
X142276779Y-65852739D01*
X142943445Y-65852739D02*
X143133921Y-65852739D01*
X143133921Y-65852739D02*
X143229159Y-65900358D01*
X143229159Y-65900358D02*
X143324397Y-65995596D01*
X143324397Y-65995596D02*
X143372016Y-66186072D01*
X143372016Y-66186072D02*
X143372016Y-66519405D01*
X143372016Y-66519405D02*
X143324397Y-66709881D01*
X143324397Y-66709881D02*
X143229159Y-66805120D01*
X143229159Y-66805120D02*
X143133921Y-66852739D01*
X143133921Y-66852739D02*
X142943445Y-66852739D01*
X142943445Y-66852739D02*
X142848207Y-66805120D01*
X142848207Y-66805120D02*
X142752969Y-66709881D01*
X142752969Y-66709881D02*
X142705350Y-66519405D01*
X142705350Y-66519405D02*
X142705350Y-66186072D01*
X142705350Y-66186072D02*
X142752969Y-65995596D01*
X142752969Y-65995596D02*
X142848207Y-65900358D01*
X142848207Y-65900358D02*
X142943445Y-65852739D01*
X143705350Y-65852739D02*
X144372016Y-65852739D01*
X144372016Y-65852739D02*
X143943445Y-66852739D01*
X155494649Y-91300358D02*
X155399411Y-91252739D01*
X155399411Y-91252739D02*
X155256554Y-91252739D01*
X155256554Y-91252739D02*
X155113697Y-91300358D01*
X155113697Y-91300358D02*
X155018459Y-91395596D01*
X155018459Y-91395596D02*
X154970840Y-91490834D01*
X154970840Y-91490834D02*
X154923221Y-91681310D01*
X154923221Y-91681310D02*
X154923221Y-91824167D01*
X154923221Y-91824167D02*
X154970840Y-92014643D01*
X154970840Y-92014643D02*
X155018459Y-92109881D01*
X155018459Y-92109881D02*
X155113697Y-92205120D01*
X155113697Y-92205120D02*
X155256554Y-92252739D01*
X155256554Y-92252739D02*
X155351792Y-92252739D01*
X155351792Y-92252739D02*
X155494649Y-92205120D01*
X155494649Y-92205120D02*
X155542268Y-92157500D01*
X155542268Y-92157500D02*
X155542268Y-91824167D01*
X155542268Y-91824167D02*
X155351792Y-91824167D01*
X155970840Y-92252739D02*
X155970840Y-91252739D01*
X155970840Y-91252739D02*
X156351792Y-91252739D01*
X156351792Y-91252739D02*
X156447030Y-91300358D01*
X156447030Y-91300358D02*
X156494649Y-91347977D01*
X156494649Y-91347977D02*
X156542268Y-91443215D01*
X156542268Y-91443215D02*
X156542268Y-91586072D01*
X156542268Y-91586072D02*
X156494649Y-91681310D01*
X156494649Y-91681310D02*
X156447030Y-91728929D01*
X156447030Y-91728929D02*
X156351792Y-91776548D01*
X156351792Y-91776548D02*
X155970840Y-91776548D01*
X156970840Y-92252739D02*
X156970840Y-91252739D01*
X157637506Y-91252739D02*
X157827982Y-91252739D01*
X157827982Y-91252739D02*
X157923220Y-91300358D01*
X157923220Y-91300358D02*
X158018458Y-91395596D01*
X158018458Y-91395596D02*
X158066077Y-91586072D01*
X158066077Y-91586072D02*
X158066077Y-91919405D01*
X158066077Y-91919405D02*
X158018458Y-92109881D01*
X158018458Y-92109881D02*
X157923220Y-92205120D01*
X157923220Y-92205120D02*
X157827982Y-92252739D01*
X157827982Y-92252739D02*
X157637506Y-92252739D01*
X157637506Y-92252739D02*
X157542268Y-92205120D01*
X157542268Y-92205120D02*
X157447030Y-92109881D01*
X157447030Y-92109881D02*
X157399411Y-91919405D01*
X157399411Y-91919405D02*
X157399411Y-91586072D01*
X157399411Y-91586072D02*
X157447030Y-91395596D01*
X157447030Y-91395596D02*
X157542268Y-91300358D01*
X157542268Y-91300358D02*
X157637506Y-91252739D01*
X158923220Y-91586072D02*
X158923220Y-92252739D01*
X158685125Y-91205120D02*
X158447030Y-91919405D01*
X158447030Y-91919405D02*
X159066077Y-91919405D01*
X159351792Y-91252739D02*
X160018458Y-91252739D01*
X160018458Y-91252739D02*
X159589887Y-92252739D01*
X150447030Y-63360358D02*
X150351792Y-63312739D01*
X150351792Y-63312739D02*
X150208935Y-63312739D01*
X150208935Y-63312739D02*
X150066078Y-63360358D01*
X150066078Y-63360358D02*
X149970840Y-63455596D01*
X149970840Y-63455596D02*
X149923221Y-63550834D01*
X149923221Y-63550834D02*
X149875602Y-63741310D01*
X149875602Y-63741310D02*
X149875602Y-63884167D01*
X149875602Y-63884167D02*
X149923221Y-64074643D01*
X149923221Y-64074643D02*
X149970840Y-64169881D01*
X149970840Y-64169881D02*
X150066078Y-64265120D01*
X150066078Y-64265120D02*
X150208935Y-64312739D01*
X150208935Y-64312739D02*
X150304173Y-64312739D01*
X150304173Y-64312739D02*
X150447030Y-64265120D01*
X150447030Y-64265120D02*
X150494649Y-64217500D01*
X150494649Y-64217500D02*
X150494649Y-63884167D01*
X150494649Y-63884167D02*
X150304173Y-63884167D01*
X150923221Y-64312739D02*
X150923221Y-63312739D01*
X150923221Y-63312739D02*
X151304173Y-63312739D01*
X151304173Y-63312739D02*
X151399411Y-63360358D01*
X151399411Y-63360358D02*
X151447030Y-63407977D01*
X151447030Y-63407977D02*
X151494649Y-63503215D01*
X151494649Y-63503215D02*
X151494649Y-63646072D01*
X151494649Y-63646072D02*
X151447030Y-63741310D01*
X151447030Y-63741310D02*
X151399411Y-63788929D01*
X151399411Y-63788929D02*
X151304173Y-63836548D01*
X151304173Y-63836548D02*
X150923221Y-63836548D01*
X151923221Y-64312739D02*
X151923221Y-63312739D01*
X152589887Y-63312739D02*
X152780363Y-63312739D01*
X152780363Y-63312739D02*
X152875601Y-63360358D01*
X152875601Y-63360358D02*
X152970839Y-63455596D01*
X152970839Y-63455596D02*
X153018458Y-63646072D01*
X153018458Y-63646072D02*
X153018458Y-63979405D01*
X153018458Y-63979405D02*
X152970839Y-64169881D01*
X152970839Y-64169881D02*
X152875601Y-64265120D01*
X152875601Y-64265120D02*
X152780363Y-64312739D01*
X152780363Y-64312739D02*
X152589887Y-64312739D01*
X152589887Y-64312739D02*
X152494649Y-64265120D01*
X152494649Y-64265120D02*
X152399411Y-64169881D01*
X152399411Y-64169881D02*
X152351792Y-63979405D01*
X152351792Y-63979405D02*
X152351792Y-63646072D01*
X152351792Y-63646072D02*
X152399411Y-63455596D01*
X152399411Y-63455596D02*
X152494649Y-63360358D01*
X152494649Y-63360358D02*
X152589887Y-63312739D01*
X153875601Y-63646072D02*
X153875601Y-64312739D01*
X153637506Y-63265120D02*
X153399411Y-63979405D01*
X153399411Y-63979405D02*
X154018458Y-63979405D01*
X154351792Y-63407977D02*
X154399411Y-63360358D01*
X154399411Y-63360358D02*
X154494649Y-63312739D01*
X154494649Y-63312739D02*
X154732744Y-63312739D01*
X154732744Y-63312739D02*
X154827982Y-63360358D01*
X154827982Y-63360358D02*
X154875601Y-63407977D01*
X154875601Y-63407977D02*
X154923220Y-63503215D01*
X154923220Y-63503215D02*
X154923220Y-63598453D01*
X154923220Y-63598453D02*
X154875601Y-63741310D01*
X154875601Y-63741310D02*
X154304173Y-64312739D01*
X154304173Y-64312739D02*
X154923220Y-64312739D01*
X156066077Y-63265120D02*
X155208935Y-64550834D01*
X156399411Y-64312739D02*
X156399411Y-63312739D01*
X156399411Y-63312739D02*
X156732744Y-64027024D01*
X156732744Y-64027024D02*
X157066077Y-63312739D01*
X157066077Y-63312739D02*
X157066077Y-64312739D01*
X157399411Y-63312739D02*
X157970839Y-63312739D01*
X157685125Y-64312739D02*
X157685125Y-63312739D01*
X158304173Y-64312739D02*
X158304173Y-63312739D01*
X158304173Y-63312739D02*
X158637506Y-64027024D01*
X158637506Y-64027024D02*
X158970839Y-63312739D01*
X158970839Y-63312739D02*
X158970839Y-64312739D01*
X159399411Y-64265120D02*
X159542268Y-64312739D01*
X159542268Y-64312739D02*
X159780363Y-64312739D01*
X159780363Y-64312739D02*
X159875601Y-64265120D01*
X159875601Y-64265120D02*
X159923220Y-64217500D01*
X159923220Y-64217500D02*
X159970839Y-64122262D01*
X159970839Y-64122262D02*
X159970839Y-64027024D01*
X159970839Y-64027024D02*
X159923220Y-63931786D01*
X159923220Y-63931786D02*
X159875601Y-63884167D01*
X159875601Y-63884167D02*
X159780363Y-63836548D01*
X159780363Y-63836548D02*
X159589887Y-63788929D01*
X159589887Y-63788929D02*
X159494649Y-63741310D01*
X159494649Y-63741310D02*
X159447030Y-63693691D01*
X159447030Y-63693691D02*
X159399411Y-63598453D01*
X159399411Y-63598453D02*
X159399411Y-63503215D01*
X159399411Y-63503215D02*
X159447030Y-63407977D01*
X159447030Y-63407977D02*
X159494649Y-63360358D01*
X159494649Y-63360358D02*
X159589887Y-63312739D01*
X159589887Y-63312739D02*
X159827982Y-63312739D01*
X159827982Y-63312739D02*
X159970839Y-63360358D01*
X141003289Y-101410019D02*
X140527099Y-101410019D01*
X140527099Y-101410019D02*
X140479480Y-101886209D01*
X140479480Y-101886209D02*
X140527099Y-101838590D01*
X140527099Y-101838590D02*
X140622337Y-101790971D01*
X140622337Y-101790971D02*
X140860432Y-101790971D01*
X140860432Y-101790971D02*
X140955670Y-101838590D01*
X140955670Y-101838590D02*
X141003289Y-101886209D01*
X141003289Y-101886209D02*
X141050908Y-101981447D01*
X141050908Y-101981447D02*
X141050908Y-102219542D01*
X141050908Y-102219542D02*
X141003289Y-102314780D01*
X141003289Y-102314780D02*
X140955670Y-102362400D01*
X140955670Y-102362400D02*
X140860432Y-102410019D01*
X140860432Y-102410019D02*
X140622337Y-102410019D01*
X140622337Y-102410019D02*
X140527099Y-102362400D01*
X140527099Y-102362400D02*
X140479480Y-102314780D01*
X141336623Y-101410019D02*
X141669956Y-102410019D01*
X141669956Y-102410019D02*
X142003289Y-101410019D01*
X155494649Y-81140358D02*
X155399411Y-81092739D01*
X155399411Y-81092739D02*
X155256554Y-81092739D01*
X155256554Y-81092739D02*
X155113697Y-81140358D01*
X155113697Y-81140358D02*
X155018459Y-81235596D01*
X155018459Y-81235596D02*
X154970840Y-81330834D01*
X154970840Y-81330834D02*
X154923221Y-81521310D01*
X154923221Y-81521310D02*
X154923221Y-81664167D01*
X154923221Y-81664167D02*
X154970840Y-81854643D01*
X154970840Y-81854643D02*
X155018459Y-81949881D01*
X155018459Y-81949881D02*
X155113697Y-82045120D01*
X155113697Y-82045120D02*
X155256554Y-82092739D01*
X155256554Y-82092739D02*
X155351792Y-82092739D01*
X155351792Y-82092739D02*
X155494649Y-82045120D01*
X155494649Y-82045120D02*
X155542268Y-81997500D01*
X155542268Y-81997500D02*
X155542268Y-81664167D01*
X155542268Y-81664167D02*
X155351792Y-81664167D01*
X155970840Y-82092739D02*
X155970840Y-81092739D01*
X155970840Y-81092739D02*
X156351792Y-81092739D01*
X156351792Y-81092739D02*
X156447030Y-81140358D01*
X156447030Y-81140358D02*
X156494649Y-81187977D01*
X156494649Y-81187977D02*
X156542268Y-81283215D01*
X156542268Y-81283215D02*
X156542268Y-81426072D01*
X156542268Y-81426072D02*
X156494649Y-81521310D01*
X156494649Y-81521310D02*
X156447030Y-81568929D01*
X156447030Y-81568929D02*
X156351792Y-81616548D01*
X156351792Y-81616548D02*
X155970840Y-81616548D01*
X156970840Y-82092739D02*
X156970840Y-81092739D01*
X157637506Y-81092739D02*
X157827982Y-81092739D01*
X157827982Y-81092739D02*
X157923220Y-81140358D01*
X157923220Y-81140358D02*
X158018458Y-81235596D01*
X158018458Y-81235596D02*
X158066077Y-81426072D01*
X158066077Y-81426072D02*
X158066077Y-81759405D01*
X158066077Y-81759405D02*
X158018458Y-81949881D01*
X158018458Y-81949881D02*
X157923220Y-82045120D01*
X157923220Y-82045120D02*
X157827982Y-82092739D01*
X157827982Y-82092739D02*
X157637506Y-82092739D01*
X157637506Y-82092739D02*
X157542268Y-82045120D01*
X157542268Y-82045120D02*
X157447030Y-81949881D01*
X157447030Y-81949881D02*
X157399411Y-81759405D01*
X157399411Y-81759405D02*
X157399411Y-81426072D01*
X157399411Y-81426072D02*
X157447030Y-81235596D01*
X157447030Y-81235596D02*
X157542268Y-81140358D01*
X157542268Y-81140358D02*
X157637506Y-81092739D01*
X158399411Y-81092739D02*
X159018458Y-81092739D01*
X159018458Y-81092739D02*
X158685125Y-81473691D01*
X158685125Y-81473691D02*
X158827982Y-81473691D01*
X158827982Y-81473691D02*
X158923220Y-81521310D01*
X158923220Y-81521310D02*
X158970839Y-81568929D01*
X158970839Y-81568929D02*
X159018458Y-81664167D01*
X159018458Y-81664167D02*
X159018458Y-81902262D01*
X159018458Y-81902262D02*
X158970839Y-81997500D01*
X158970839Y-81997500D02*
X158923220Y-82045120D01*
X158923220Y-82045120D02*
X158827982Y-82092739D01*
X158827982Y-82092739D02*
X158542268Y-82092739D01*
X158542268Y-82092739D02*
X158447030Y-82045120D01*
X158447030Y-82045120D02*
X158399411Y-81997500D01*
X159923220Y-81092739D02*
X159447030Y-81092739D01*
X159447030Y-81092739D02*
X159399411Y-81568929D01*
X159399411Y-81568929D02*
X159447030Y-81521310D01*
X159447030Y-81521310D02*
X159542268Y-81473691D01*
X159542268Y-81473691D02*
X159780363Y-81473691D01*
X159780363Y-81473691D02*
X159875601Y-81521310D01*
X159875601Y-81521310D02*
X159923220Y-81568929D01*
X159923220Y-81568929D02*
X159970839Y-81664167D01*
X159970839Y-81664167D02*
X159970839Y-81902262D01*
X159970839Y-81902262D02*
X159923220Y-81997500D01*
X159923220Y-81997500D02*
X159875601Y-82045120D01*
X159875601Y-82045120D02*
X159780363Y-82092739D01*
X159780363Y-82092739D02*
X159542268Y-82092739D01*
X159542268Y-82092739D02*
X159447030Y-82045120D01*
X159447030Y-82045120D02*
X159399411Y-81997500D01*
X140800588Y-60820358D02*
X140705350Y-60772739D01*
X140705350Y-60772739D02*
X140562493Y-60772739D01*
X140562493Y-60772739D02*
X140419636Y-60820358D01*
X140419636Y-60820358D02*
X140324398Y-60915596D01*
X140324398Y-60915596D02*
X140276779Y-61010834D01*
X140276779Y-61010834D02*
X140229160Y-61201310D01*
X140229160Y-61201310D02*
X140229160Y-61344167D01*
X140229160Y-61344167D02*
X140276779Y-61534643D01*
X140276779Y-61534643D02*
X140324398Y-61629881D01*
X140324398Y-61629881D02*
X140419636Y-61725120D01*
X140419636Y-61725120D02*
X140562493Y-61772739D01*
X140562493Y-61772739D02*
X140657731Y-61772739D01*
X140657731Y-61772739D02*
X140800588Y-61725120D01*
X140800588Y-61725120D02*
X140848207Y-61677500D01*
X140848207Y-61677500D02*
X140848207Y-61344167D01*
X140848207Y-61344167D02*
X140657731Y-61344167D01*
X141276779Y-61772739D02*
X141276779Y-60772739D01*
X141276779Y-60772739D02*
X141657731Y-60772739D01*
X141657731Y-60772739D02*
X141752969Y-60820358D01*
X141752969Y-60820358D02*
X141800588Y-60867977D01*
X141800588Y-60867977D02*
X141848207Y-60963215D01*
X141848207Y-60963215D02*
X141848207Y-61106072D01*
X141848207Y-61106072D02*
X141800588Y-61201310D01*
X141800588Y-61201310D02*
X141752969Y-61248929D01*
X141752969Y-61248929D02*
X141657731Y-61296548D01*
X141657731Y-61296548D02*
X141276779Y-61296548D01*
X142276779Y-61772739D02*
X142276779Y-60772739D01*
X142943445Y-60772739D02*
X143133921Y-60772739D01*
X143133921Y-60772739D02*
X143229159Y-60820358D01*
X143229159Y-60820358D02*
X143324397Y-60915596D01*
X143324397Y-60915596D02*
X143372016Y-61106072D01*
X143372016Y-61106072D02*
X143372016Y-61439405D01*
X143372016Y-61439405D02*
X143324397Y-61629881D01*
X143324397Y-61629881D02*
X143229159Y-61725120D01*
X143229159Y-61725120D02*
X143133921Y-61772739D01*
X143133921Y-61772739D02*
X142943445Y-61772739D01*
X142943445Y-61772739D02*
X142848207Y-61725120D01*
X142848207Y-61725120D02*
X142752969Y-61629881D01*
X142752969Y-61629881D02*
X142705350Y-61439405D01*
X142705350Y-61439405D02*
X142705350Y-61106072D01*
X142705350Y-61106072D02*
X142752969Y-60915596D01*
X142752969Y-60915596D02*
X142848207Y-60820358D01*
X142848207Y-60820358D02*
X142943445Y-60772739D01*
X144276778Y-60772739D02*
X143800588Y-60772739D01*
X143800588Y-60772739D02*
X143752969Y-61248929D01*
X143752969Y-61248929D02*
X143800588Y-61201310D01*
X143800588Y-61201310D02*
X143895826Y-61153691D01*
X143895826Y-61153691D02*
X144133921Y-61153691D01*
X144133921Y-61153691D02*
X144229159Y-61201310D01*
X144229159Y-61201310D02*
X144276778Y-61248929D01*
X144276778Y-61248929D02*
X144324397Y-61344167D01*
X144324397Y-61344167D02*
X144324397Y-61582262D01*
X144324397Y-61582262D02*
X144276778Y-61677500D01*
X144276778Y-61677500D02*
X144229159Y-61725120D01*
X144229159Y-61725120D02*
X144133921Y-61772739D01*
X144133921Y-61772739D02*
X143895826Y-61772739D01*
X143895826Y-61772739D02*
X143800588Y-61725120D01*
X143800588Y-61725120D02*
X143752969Y-61677500D01*
X157875601Y-101460358D02*
X157780363Y-101412739D01*
X157780363Y-101412739D02*
X157637506Y-101412739D01*
X157637506Y-101412739D02*
X157494649Y-101460358D01*
X157494649Y-101460358D02*
X157399411Y-101555596D01*
X157399411Y-101555596D02*
X157351792Y-101650834D01*
X157351792Y-101650834D02*
X157304173Y-101841310D01*
X157304173Y-101841310D02*
X157304173Y-101984167D01*
X157304173Y-101984167D02*
X157351792Y-102174643D01*
X157351792Y-102174643D02*
X157399411Y-102269881D01*
X157399411Y-102269881D02*
X157494649Y-102365120D01*
X157494649Y-102365120D02*
X157637506Y-102412739D01*
X157637506Y-102412739D02*
X157732744Y-102412739D01*
X157732744Y-102412739D02*
X157875601Y-102365120D01*
X157875601Y-102365120D02*
X157923220Y-102317500D01*
X157923220Y-102317500D02*
X157923220Y-101984167D01*
X157923220Y-101984167D02*
X157732744Y-101984167D01*
X158351792Y-102412739D02*
X158351792Y-101412739D01*
X158351792Y-101412739D02*
X158923220Y-102412739D01*
X158923220Y-102412739D02*
X158923220Y-101412739D01*
X159399411Y-102412739D02*
X159399411Y-101412739D01*
X159399411Y-101412739D02*
X159637506Y-101412739D01*
X159637506Y-101412739D02*
X159780363Y-101460358D01*
X159780363Y-101460358D02*
X159875601Y-101555596D01*
X159875601Y-101555596D02*
X159923220Y-101650834D01*
X159923220Y-101650834D02*
X159970839Y-101841310D01*
X159970839Y-101841310D02*
X159970839Y-101984167D01*
X159970839Y-101984167D02*
X159923220Y-102174643D01*
X159923220Y-102174643D02*
X159875601Y-102269881D01*
X159875601Y-102269881D02*
X159780363Y-102365120D01*
X159780363Y-102365120D02*
X159637506Y-102412739D01*
X159637506Y-102412739D02*
X159399411Y-102412739D01*
X156447030Y-83680358D02*
X156351792Y-83632739D01*
X156351792Y-83632739D02*
X156208935Y-83632739D01*
X156208935Y-83632739D02*
X156066078Y-83680358D01*
X156066078Y-83680358D02*
X155970840Y-83775596D01*
X155970840Y-83775596D02*
X155923221Y-83870834D01*
X155923221Y-83870834D02*
X155875602Y-84061310D01*
X155875602Y-84061310D02*
X155875602Y-84204167D01*
X155875602Y-84204167D02*
X155923221Y-84394643D01*
X155923221Y-84394643D02*
X155970840Y-84489881D01*
X155970840Y-84489881D02*
X156066078Y-84585120D01*
X156066078Y-84585120D02*
X156208935Y-84632739D01*
X156208935Y-84632739D02*
X156304173Y-84632739D01*
X156304173Y-84632739D02*
X156447030Y-84585120D01*
X156447030Y-84585120D02*
X156494649Y-84537500D01*
X156494649Y-84537500D02*
X156494649Y-84204167D01*
X156494649Y-84204167D02*
X156304173Y-84204167D01*
X156923221Y-84632739D02*
X156923221Y-83632739D01*
X156923221Y-83632739D02*
X157304173Y-83632739D01*
X157304173Y-83632739D02*
X157399411Y-83680358D01*
X157399411Y-83680358D02*
X157447030Y-83727977D01*
X157447030Y-83727977D02*
X157494649Y-83823215D01*
X157494649Y-83823215D02*
X157494649Y-83966072D01*
X157494649Y-83966072D02*
X157447030Y-84061310D01*
X157447030Y-84061310D02*
X157399411Y-84108929D01*
X157399411Y-84108929D02*
X157304173Y-84156548D01*
X157304173Y-84156548D02*
X156923221Y-84156548D01*
X157923221Y-84632739D02*
X157923221Y-83632739D01*
X158589887Y-83632739D02*
X158780363Y-83632739D01*
X158780363Y-83632739D02*
X158875601Y-83680358D01*
X158875601Y-83680358D02*
X158970839Y-83775596D01*
X158970839Y-83775596D02*
X159018458Y-83966072D01*
X159018458Y-83966072D02*
X159018458Y-84299405D01*
X159018458Y-84299405D02*
X158970839Y-84489881D01*
X158970839Y-84489881D02*
X158875601Y-84585120D01*
X158875601Y-84585120D02*
X158780363Y-84632739D01*
X158780363Y-84632739D02*
X158589887Y-84632739D01*
X158589887Y-84632739D02*
X158494649Y-84585120D01*
X158494649Y-84585120D02*
X158399411Y-84489881D01*
X158399411Y-84489881D02*
X158351792Y-84299405D01*
X158351792Y-84299405D02*
X158351792Y-83966072D01*
X158351792Y-83966072D02*
X158399411Y-83775596D01*
X158399411Y-83775596D02*
X158494649Y-83680358D01*
X158494649Y-83680358D02*
X158589887Y-83632739D01*
X159637506Y-83632739D02*
X159732744Y-83632739D01*
X159732744Y-83632739D02*
X159827982Y-83680358D01*
X159827982Y-83680358D02*
X159875601Y-83727977D01*
X159875601Y-83727977D02*
X159923220Y-83823215D01*
X159923220Y-83823215D02*
X159970839Y-84013691D01*
X159970839Y-84013691D02*
X159970839Y-84251786D01*
X159970839Y-84251786D02*
X159923220Y-84442262D01*
X159923220Y-84442262D02*
X159875601Y-84537500D01*
X159875601Y-84537500D02*
X159827982Y-84585120D01*
X159827982Y-84585120D02*
X159732744Y-84632739D01*
X159732744Y-84632739D02*
X159637506Y-84632739D01*
X159637506Y-84632739D02*
X159542268Y-84585120D01*
X159542268Y-84585120D02*
X159494649Y-84537500D01*
X159494649Y-84537500D02*
X159447030Y-84442262D01*
X159447030Y-84442262D02*
X159399411Y-84251786D01*
X159399411Y-84251786D02*
X159399411Y-84013691D01*
X159399411Y-84013691D02*
X159447030Y-83823215D01*
X159447030Y-83823215D02*
X159494649Y-83727977D01*
X159494649Y-83727977D02*
X159542268Y-83680358D01*
X159542268Y-83680358D02*
X159637506Y-83632739D01*
X155494649Y-98920358D02*
X155399411Y-98872739D01*
X155399411Y-98872739D02*
X155256554Y-98872739D01*
X155256554Y-98872739D02*
X155113697Y-98920358D01*
X155113697Y-98920358D02*
X155018459Y-99015596D01*
X155018459Y-99015596D02*
X154970840Y-99110834D01*
X154970840Y-99110834D02*
X154923221Y-99301310D01*
X154923221Y-99301310D02*
X154923221Y-99444167D01*
X154923221Y-99444167D02*
X154970840Y-99634643D01*
X154970840Y-99634643D02*
X155018459Y-99729881D01*
X155018459Y-99729881D02*
X155113697Y-99825120D01*
X155113697Y-99825120D02*
X155256554Y-99872739D01*
X155256554Y-99872739D02*
X155351792Y-99872739D01*
X155351792Y-99872739D02*
X155494649Y-99825120D01*
X155494649Y-99825120D02*
X155542268Y-99777500D01*
X155542268Y-99777500D02*
X155542268Y-99444167D01*
X155542268Y-99444167D02*
X155351792Y-99444167D01*
X155970840Y-99872739D02*
X155970840Y-98872739D01*
X155970840Y-98872739D02*
X156351792Y-98872739D01*
X156351792Y-98872739D02*
X156447030Y-98920358D01*
X156447030Y-98920358D02*
X156494649Y-98967977D01*
X156494649Y-98967977D02*
X156542268Y-99063215D01*
X156542268Y-99063215D02*
X156542268Y-99206072D01*
X156542268Y-99206072D02*
X156494649Y-99301310D01*
X156494649Y-99301310D02*
X156447030Y-99348929D01*
X156447030Y-99348929D02*
X156351792Y-99396548D01*
X156351792Y-99396548D02*
X155970840Y-99396548D01*
X156970840Y-99872739D02*
X156970840Y-98872739D01*
X157637506Y-98872739D02*
X157827982Y-98872739D01*
X157827982Y-98872739D02*
X157923220Y-98920358D01*
X157923220Y-98920358D02*
X158018458Y-99015596D01*
X158018458Y-99015596D02*
X158066077Y-99206072D01*
X158066077Y-99206072D02*
X158066077Y-99539405D01*
X158066077Y-99539405D02*
X158018458Y-99729881D01*
X158018458Y-99729881D02*
X157923220Y-99825120D01*
X157923220Y-99825120D02*
X157827982Y-99872739D01*
X157827982Y-99872739D02*
X157637506Y-99872739D01*
X157637506Y-99872739D02*
X157542268Y-99825120D01*
X157542268Y-99825120D02*
X157447030Y-99729881D01*
X157447030Y-99729881D02*
X157399411Y-99539405D01*
X157399411Y-99539405D02*
X157399411Y-99206072D01*
X157399411Y-99206072D02*
X157447030Y-99015596D01*
X157447030Y-99015596D02*
X157542268Y-98920358D01*
X157542268Y-98920358D02*
X157637506Y-98872739D01*
X159018458Y-99872739D02*
X158447030Y-99872739D01*
X158732744Y-99872739D02*
X158732744Y-98872739D01*
X158732744Y-98872739D02*
X158637506Y-99015596D01*
X158637506Y-99015596D02*
X158542268Y-99110834D01*
X158542268Y-99110834D02*
X158447030Y-99158453D01*
X159494649Y-99872739D02*
X159685125Y-99872739D01*
X159685125Y-99872739D02*
X159780363Y-99825120D01*
X159780363Y-99825120D02*
X159827982Y-99777500D01*
X159827982Y-99777500D02*
X159923220Y-99634643D01*
X159923220Y-99634643D02*
X159970839Y-99444167D01*
X159970839Y-99444167D02*
X159970839Y-99063215D01*
X159970839Y-99063215D02*
X159923220Y-98967977D01*
X159923220Y-98967977D02*
X159875601Y-98920358D01*
X159875601Y-98920358D02*
X159780363Y-98872739D01*
X159780363Y-98872739D02*
X159589887Y-98872739D01*
X159589887Y-98872739D02*
X159494649Y-98920358D01*
X159494649Y-98920358D02*
X159447030Y-98967977D01*
X159447030Y-98967977D02*
X159399411Y-99063215D01*
X159399411Y-99063215D02*
X159399411Y-99301310D01*
X159399411Y-99301310D02*
X159447030Y-99396548D01*
X159447030Y-99396548D02*
X159494649Y-99444167D01*
X159494649Y-99444167D02*
X159589887Y-99491786D01*
X159589887Y-99491786D02*
X159780363Y-99491786D01*
X159780363Y-99491786D02*
X159875601Y-99444167D01*
X159875601Y-99444167D02*
X159923220Y-99396548D01*
X159923220Y-99396548D02*
X159970839Y-99301310D01*
X155494649Y-96380358D02*
X155399411Y-96332739D01*
X155399411Y-96332739D02*
X155256554Y-96332739D01*
X155256554Y-96332739D02*
X155113697Y-96380358D01*
X155113697Y-96380358D02*
X155018459Y-96475596D01*
X155018459Y-96475596D02*
X154970840Y-96570834D01*
X154970840Y-96570834D02*
X154923221Y-96761310D01*
X154923221Y-96761310D02*
X154923221Y-96904167D01*
X154923221Y-96904167D02*
X154970840Y-97094643D01*
X154970840Y-97094643D02*
X155018459Y-97189881D01*
X155018459Y-97189881D02*
X155113697Y-97285120D01*
X155113697Y-97285120D02*
X155256554Y-97332739D01*
X155256554Y-97332739D02*
X155351792Y-97332739D01*
X155351792Y-97332739D02*
X155494649Y-97285120D01*
X155494649Y-97285120D02*
X155542268Y-97237500D01*
X155542268Y-97237500D02*
X155542268Y-96904167D01*
X155542268Y-96904167D02*
X155351792Y-96904167D01*
X155970840Y-97332739D02*
X155970840Y-96332739D01*
X155970840Y-96332739D02*
X156351792Y-96332739D01*
X156351792Y-96332739D02*
X156447030Y-96380358D01*
X156447030Y-96380358D02*
X156494649Y-96427977D01*
X156494649Y-96427977D02*
X156542268Y-96523215D01*
X156542268Y-96523215D02*
X156542268Y-96666072D01*
X156542268Y-96666072D02*
X156494649Y-96761310D01*
X156494649Y-96761310D02*
X156447030Y-96808929D01*
X156447030Y-96808929D02*
X156351792Y-96856548D01*
X156351792Y-96856548D02*
X155970840Y-96856548D01*
X156970840Y-97332739D02*
X156970840Y-96332739D01*
X157637506Y-96332739D02*
X157827982Y-96332739D01*
X157827982Y-96332739D02*
X157923220Y-96380358D01*
X157923220Y-96380358D02*
X158018458Y-96475596D01*
X158018458Y-96475596D02*
X158066077Y-96666072D01*
X158066077Y-96666072D02*
X158066077Y-96999405D01*
X158066077Y-96999405D02*
X158018458Y-97189881D01*
X158018458Y-97189881D02*
X157923220Y-97285120D01*
X157923220Y-97285120D02*
X157827982Y-97332739D01*
X157827982Y-97332739D02*
X157637506Y-97332739D01*
X157637506Y-97332739D02*
X157542268Y-97285120D01*
X157542268Y-97285120D02*
X157447030Y-97189881D01*
X157447030Y-97189881D02*
X157399411Y-96999405D01*
X157399411Y-96999405D02*
X157399411Y-96666072D01*
X157399411Y-96666072D02*
X157447030Y-96475596D01*
X157447030Y-96475596D02*
X157542268Y-96380358D01*
X157542268Y-96380358D02*
X157637506Y-96332739D01*
X158447030Y-96427977D02*
X158494649Y-96380358D01*
X158494649Y-96380358D02*
X158589887Y-96332739D01*
X158589887Y-96332739D02*
X158827982Y-96332739D01*
X158827982Y-96332739D02*
X158923220Y-96380358D01*
X158923220Y-96380358D02*
X158970839Y-96427977D01*
X158970839Y-96427977D02*
X159018458Y-96523215D01*
X159018458Y-96523215D02*
X159018458Y-96618453D01*
X159018458Y-96618453D02*
X158970839Y-96761310D01*
X158970839Y-96761310D02*
X158399411Y-97332739D01*
X158399411Y-97332739D02*
X159018458Y-97332739D01*
X159637506Y-96332739D02*
X159732744Y-96332739D01*
X159732744Y-96332739D02*
X159827982Y-96380358D01*
X159827982Y-96380358D02*
X159875601Y-96427977D01*
X159875601Y-96427977D02*
X159923220Y-96523215D01*
X159923220Y-96523215D02*
X159970839Y-96713691D01*
X159970839Y-96713691D02*
X159970839Y-96951786D01*
X159970839Y-96951786D02*
X159923220Y-97142262D01*
X159923220Y-97142262D02*
X159875601Y-97237500D01*
X159875601Y-97237500D02*
X159827982Y-97285120D01*
X159827982Y-97285120D02*
X159732744Y-97332739D01*
X159732744Y-97332739D02*
X159637506Y-97332739D01*
X159637506Y-97332739D02*
X159542268Y-97285120D01*
X159542268Y-97285120D02*
X159494649Y-97237500D01*
X159494649Y-97237500D02*
X159447030Y-97142262D01*
X159447030Y-97142262D02*
X159399411Y-96951786D01*
X159399411Y-96951786D02*
X159399411Y-96713691D01*
X159399411Y-96713691D02*
X159447030Y-96523215D01*
X159447030Y-96523215D02*
X159494649Y-96427977D01*
X159494649Y-96427977D02*
X159542268Y-96380358D01*
X159542268Y-96380358D02*
X159637506Y-96332739D01*
X140800588Y-81140358D02*
X140705350Y-81092739D01*
X140705350Y-81092739D02*
X140562493Y-81092739D01*
X140562493Y-81092739D02*
X140419636Y-81140358D01*
X140419636Y-81140358D02*
X140324398Y-81235596D01*
X140324398Y-81235596D02*
X140276779Y-81330834D01*
X140276779Y-81330834D02*
X140229160Y-81521310D01*
X140229160Y-81521310D02*
X140229160Y-81664167D01*
X140229160Y-81664167D02*
X140276779Y-81854643D01*
X140276779Y-81854643D02*
X140324398Y-81949881D01*
X140324398Y-81949881D02*
X140419636Y-82045120D01*
X140419636Y-82045120D02*
X140562493Y-82092739D01*
X140562493Y-82092739D02*
X140657731Y-82092739D01*
X140657731Y-82092739D02*
X140800588Y-82045120D01*
X140800588Y-82045120D02*
X140848207Y-81997500D01*
X140848207Y-81997500D02*
X140848207Y-81664167D01*
X140848207Y-81664167D02*
X140657731Y-81664167D01*
X141276779Y-82092739D02*
X141276779Y-81092739D01*
X141276779Y-81092739D02*
X141657731Y-81092739D01*
X141657731Y-81092739D02*
X141752969Y-81140358D01*
X141752969Y-81140358D02*
X141800588Y-81187977D01*
X141800588Y-81187977D02*
X141848207Y-81283215D01*
X141848207Y-81283215D02*
X141848207Y-81426072D01*
X141848207Y-81426072D02*
X141800588Y-81521310D01*
X141800588Y-81521310D02*
X141752969Y-81568929D01*
X141752969Y-81568929D02*
X141657731Y-81616548D01*
X141657731Y-81616548D02*
X141276779Y-81616548D01*
X142276779Y-82092739D02*
X142276779Y-81092739D01*
X142943445Y-81092739D02*
X143133921Y-81092739D01*
X143133921Y-81092739D02*
X143229159Y-81140358D01*
X143229159Y-81140358D02*
X143324397Y-81235596D01*
X143324397Y-81235596D02*
X143372016Y-81426072D01*
X143372016Y-81426072D02*
X143372016Y-81759405D01*
X143372016Y-81759405D02*
X143324397Y-81949881D01*
X143324397Y-81949881D02*
X143229159Y-82045120D01*
X143229159Y-82045120D02*
X143133921Y-82092739D01*
X143133921Y-82092739D02*
X142943445Y-82092739D01*
X142943445Y-82092739D02*
X142848207Y-82045120D01*
X142848207Y-82045120D02*
X142752969Y-81949881D01*
X142752969Y-81949881D02*
X142705350Y-81759405D01*
X142705350Y-81759405D02*
X142705350Y-81426072D01*
X142705350Y-81426072D02*
X142752969Y-81235596D01*
X142752969Y-81235596D02*
X142848207Y-81140358D01*
X142848207Y-81140358D02*
X142943445Y-81092739D01*
X143705350Y-81092739D02*
X144324397Y-81092739D01*
X144324397Y-81092739D02*
X143991064Y-81473691D01*
X143991064Y-81473691D02*
X144133921Y-81473691D01*
X144133921Y-81473691D02*
X144229159Y-81521310D01*
X144229159Y-81521310D02*
X144276778Y-81568929D01*
X144276778Y-81568929D02*
X144324397Y-81664167D01*
X144324397Y-81664167D02*
X144324397Y-81902262D01*
X144324397Y-81902262D02*
X144276778Y-81997500D01*
X144276778Y-81997500D02*
X144229159Y-82045120D01*
X144229159Y-82045120D02*
X144133921Y-82092739D01*
X144133921Y-82092739D02*
X143848207Y-82092739D01*
X143848207Y-82092739D02*
X143752969Y-82045120D01*
X143752969Y-82045120D02*
X143705350Y-81997500D01*
X140800588Y-63360358D02*
X140705350Y-63312739D01*
X140705350Y-63312739D02*
X140562493Y-63312739D01*
X140562493Y-63312739D02*
X140419636Y-63360358D01*
X140419636Y-63360358D02*
X140324398Y-63455596D01*
X140324398Y-63455596D02*
X140276779Y-63550834D01*
X140276779Y-63550834D02*
X140229160Y-63741310D01*
X140229160Y-63741310D02*
X140229160Y-63884167D01*
X140229160Y-63884167D02*
X140276779Y-64074643D01*
X140276779Y-64074643D02*
X140324398Y-64169881D01*
X140324398Y-64169881D02*
X140419636Y-64265120D01*
X140419636Y-64265120D02*
X140562493Y-64312739D01*
X140562493Y-64312739D02*
X140657731Y-64312739D01*
X140657731Y-64312739D02*
X140800588Y-64265120D01*
X140800588Y-64265120D02*
X140848207Y-64217500D01*
X140848207Y-64217500D02*
X140848207Y-63884167D01*
X140848207Y-63884167D02*
X140657731Y-63884167D01*
X141276779Y-64312739D02*
X141276779Y-63312739D01*
X141276779Y-63312739D02*
X141657731Y-63312739D01*
X141657731Y-63312739D02*
X141752969Y-63360358D01*
X141752969Y-63360358D02*
X141800588Y-63407977D01*
X141800588Y-63407977D02*
X141848207Y-63503215D01*
X141848207Y-63503215D02*
X141848207Y-63646072D01*
X141848207Y-63646072D02*
X141800588Y-63741310D01*
X141800588Y-63741310D02*
X141752969Y-63788929D01*
X141752969Y-63788929D02*
X141657731Y-63836548D01*
X141657731Y-63836548D02*
X141276779Y-63836548D01*
X142276779Y-64312739D02*
X142276779Y-63312739D01*
X142943445Y-63312739D02*
X143133921Y-63312739D01*
X143133921Y-63312739D02*
X143229159Y-63360358D01*
X143229159Y-63360358D02*
X143324397Y-63455596D01*
X143324397Y-63455596D02*
X143372016Y-63646072D01*
X143372016Y-63646072D02*
X143372016Y-63979405D01*
X143372016Y-63979405D02*
X143324397Y-64169881D01*
X143324397Y-64169881D02*
X143229159Y-64265120D01*
X143229159Y-64265120D02*
X143133921Y-64312739D01*
X143133921Y-64312739D02*
X142943445Y-64312739D01*
X142943445Y-64312739D02*
X142848207Y-64265120D01*
X142848207Y-64265120D02*
X142752969Y-64169881D01*
X142752969Y-64169881D02*
X142705350Y-63979405D01*
X142705350Y-63979405D02*
X142705350Y-63646072D01*
X142705350Y-63646072D02*
X142752969Y-63455596D01*
X142752969Y-63455596D02*
X142848207Y-63360358D01*
X142848207Y-63360358D02*
X142943445Y-63312739D01*
X144229159Y-63312739D02*
X144038683Y-63312739D01*
X144038683Y-63312739D02*
X143943445Y-63360358D01*
X143943445Y-63360358D02*
X143895826Y-63407977D01*
X143895826Y-63407977D02*
X143800588Y-63550834D01*
X143800588Y-63550834D02*
X143752969Y-63741310D01*
X143752969Y-63741310D02*
X143752969Y-64122262D01*
X143752969Y-64122262D02*
X143800588Y-64217500D01*
X143800588Y-64217500D02*
X143848207Y-64265120D01*
X143848207Y-64265120D02*
X143943445Y-64312739D01*
X143943445Y-64312739D02*
X144133921Y-64312739D01*
X144133921Y-64312739D02*
X144229159Y-64265120D01*
X144229159Y-64265120D02*
X144276778Y-64217500D01*
X144276778Y-64217500D02*
X144324397Y-64122262D01*
X144324397Y-64122262D02*
X144324397Y-63884167D01*
X144324397Y-63884167D02*
X144276778Y-63788929D01*
X144276778Y-63788929D02*
X144229159Y-63741310D01*
X144229159Y-63741310D02*
X144133921Y-63693691D01*
X144133921Y-63693691D02*
X143943445Y-63693691D01*
X143943445Y-63693691D02*
X143848207Y-63741310D01*
X143848207Y-63741310D02*
X143800588Y-63788929D01*
X143800588Y-63788929D02*
X143752969Y-63884167D01*
X140800588Y-91300358D02*
X140705350Y-91252739D01*
X140705350Y-91252739D02*
X140562493Y-91252739D01*
X140562493Y-91252739D02*
X140419636Y-91300358D01*
X140419636Y-91300358D02*
X140324398Y-91395596D01*
X140324398Y-91395596D02*
X140276779Y-91490834D01*
X140276779Y-91490834D02*
X140229160Y-91681310D01*
X140229160Y-91681310D02*
X140229160Y-91824167D01*
X140229160Y-91824167D02*
X140276779Y-92014643D01*
X140276779Y-92014643D02*
X140324398Y-92109881D01*
X140324398Y-92109881D02*
X140419636Y-92205120D01*
X140419636Y-92205120D02*
X140562493Y-92252739D01*
X140562493Y-92252739D02*
X140657731Y-92252739D01*
X140657731Y-92252739D02*
X140800588Y-92205120D01*
X140800588Y-92205120D02*
X140848207Y-92157500D01*
X140848207Y-92157500D02*
X140848207Y-91824167D01*
X140848207Y-91824167D02*
X140657731Y-91824167D01*
X141276779Y-92252739D02*
X141276779Y-91252739D01*
X141276779Y-91252739D02*
X141657731Y-91252739D01*
X141657731Y-91252739D02*
X141752969Y-91300358D01*
X141752969Y-91300358D02*
X141800588Y-91347977D01*
X141800588Y-91347977D02*
X141848207Y-91443215D01*
X141848207Y-91443215D02*
X141848207Y-91586072D01*
X141848207Y-91586072D02*
X141800588Y-91681310D01*
X141800588Y-91681310D02*
X141752969Y-91728929D01*
X141752969Y-91728929D02*
X141657731Y-91776548D01*
X141657731Y-91776548D02*
X141276779Y-91776548D01*
X142276779Y-92252739D02*
X142276779Y-91252739D01*
X142943445Y-91252739D02*
X143133921Y-91252739D01*
X143133921Y-91252739D02*
X143229159Y-91300358D01*
X143229159Y-91300358D02*
X143324397Y-91395596D01*
X143324397Y-91395596D02*
X143372016Y-91586072D01*
X143372016Y-91586072D02*
X143372016Y-91919405D01*
X143372016Y-91919405D02*
X143324397Y-92109881D01*
X143324397Y-92109881D02*
X143229159Y-92205120D01*
X143229159Y-92205120D02*
X143133921Y-92252739D01*
X143133921Y-92252739D02*
X142943445Y-92252739D01*
X142943445Y-92252739D02*
X142848207Y-92205120D01*
X142848207Y-92205120D02*
X142752969Y-92109881D01*
X142752969Y-92109881D02*
X142705350Y-91919405D01*
X142705350Y-91919405D02*
X142705350Y-91586072D01*
X142705350Y-91586072D02*
X142752969Y-91395596D01*
X142752969Y-91395596D02*
X142848207Y-91300358D01*
X142848207Y-91300358D02*
X142943445Y-91252739D01*
X144324397Y-92252739D02*
X143752969Y-92252739D01*
X144038683Y-92252739D02*
X144038683Y-91252739D01*
X144038683Y-91252739D02*
X143943445Y-91395596D01*
X143943445Y-91395596D02*
X143848207Y-91490834D01*
X143848207Y-91490834D02*
X143752969Y-91538453D01*
X145276778Y-92252739D02*
X144705350Y-92252739D01*
X144991064Y-92252739D02*
X144991064Y-91252739D01*
X144991064Y-91252739D02*
X144895826Y-91395596D01*
X144895826Y-91395596D02*
X144800588Y-91490834D01*
X144800588Y-91490834D02*
X144705350Y-91538453D01*
X140800588Y-88760358D02*
X140705350Y-88712739D01*
X140705350Y-88712739D02*
X140562493Y-88712739D01*
X140562493Y-88712739D02*
X140419636Y-88760358D01*
X140419636Y-88760358D02*
X140324398Y-88855596D01*
X140324398Y-88855596D02*
X140276779Y-88950834D01*
X140276779Y-88950834D02*
X140229160Y-89141310D01*
X140229160Y-89141310D02*
X140229160Y-89284167D01*
X140229160Y-89284167D02*
X140276779Y-89474643D01*
X140276779Y-89474643D02*
X140324398Y-89569881D01*
X140324398Y-89569881D02*
X140419636Y-89665120D01*
X140419636Y-89665120D02*
X140562493Y-89712739D01*
X140562493Y-89712739D02*
X140657731Y-89712739D01*
X140657731Y-89712739D02*
X140800588Y-89665120D01*
X140800588Y-89665120D02*
X140848207Y-89617500D01*
X140848207Y-89617500D02*
X140848207Y-89284167D01*
X140848207Y-89284167D02*
X140657731Y-89284167D01*
X141276779Y-89712739D02*
X141276779Y-88712739D01*
X141276779Y-88712739D02*
X141657731Y-88712739D01*
X141657731Y-88712739D02*
X141752969Y-88760358D01*
X141752969Y-88760358D02*
X141800588Y-88807977D01*
X141800588Y-88807977D02*
X141848207Y-88903215D01*
X141848207Y-88903215D02*
X141848207Y-89046072D01*
X141848207Y-89046072D02*
X141800588Y-89141310D01*
X141800588Y-89141310D02*
X141752969Y-89188929D01*
X141752969Y-89188929D02*
X141657731Y-89236548D01*
X141657731Y-89236548D02*
X141276779Y-89236548D01*
X142276779Y-89712739D02*
X142276779Y-88712739D01*
X142943445Y-88712739D02*
X143133921Y-88712739D01*
X143133921Y-88712739D02*
X143229159Y-88760358D01*
X143229159Y-88760358D02*
X143324397Y-88855596D01*
X143324397Y-88855596D02*
X143372016Y-89046072D01*
X143372016Y-89046072D02*
X143372016Y-89379405D01*
X143372016Y-89379405D02*
X143324397Y-89569881D01*
X143324397Y-89569881D02*
X143229159Y-89665120D01*
X143229159Y-89665120D02*
X143133921Y-89712739D01*
X143133921Y-89712739D02*
X142943445Y-89712739D01*
X142943445Y-89712739D02*
X142848207Y-89665120D01*
X142848207Y-89665120D02*
X142752969Y-89569881D01*
X142752969Y-89569881D02*
X142705350Y-89379405D01*
X142705350Y-89379405D02*
X142705350Y-89046072D01*
X142705350Y-89046072D02*
X142752969Y-88855596D01*
X142752969Y-88855596D02*
X142848207Y-88760358D01*
X142848207Y-88760358D02*
X142943445Y-88712739D01*
X144324397Y-89712739D02*
X143752969Y-89712739D01*
X144038683Y-89712739D02*
X144038683Y-88712739D01*
X144038683Y-88712739D02*
X143943445Y-88855596D01*
X143943445Y-88855596D02*
X143848207Y-88950834D01*
X143848207Y-88950834D02*
X143752969Y-88998453D01*
X144943445Y-88712739D02*
X145038683Y-88712739D01*
X145038683Y-88712739D02*
X145133921Y-88760358D01*
X145133921Y-88760358D02*
X145181540Y-88807977D01*
X145181540Y-88807977D02*
X145229159Y-88903215D01*
X145229159Y-88903215D02*
X145276778Y-89093691D01*
X145276778Y-89093691D02*
X145276778Y-89331786D01*
X145276778Y-89331786D02*
X145229159Y-89522262D01*
X145229159Y-89522262D02*
X145181540Y-89617500D01*
X145181540Y-89617500D02*
X145133921Y-89665120D01*
X145133921Y-89665120D02*
X145038683Y-89712739D01*
X145038683Y-89712739D02*
X144943445Y-89712739D01*
X144943445Y-89712739D02*
X144848207Y-89665120D01*
X144848207Y-89665120D02*
X144800588Y-89617500D01*
X144800588Y-89617500D02*
X144752969Y-89522262D01*
X144752969Y-89522262D02*
X144705350Y-89331786D01*
X144705350Y-89331786D02*
X144705350Y-89093691D01*
X144705350Y-89093691D02*
X144752969Y-88903215D01*
X144752969Y-88903215D02*
X144800588Y-88807977D01*
X144800588Y-88807977D02*
X144848207Y-88760358D01*
X144848207Y-88760358D02*
X144943445Y-88712739D01*
X140181541Y-53152739D02*
X140800588Y-53152739D01*
X140800588Y-53152739D02*
X140467255Y-53533691D01*
X140467255Y-53533691D02*
X140610112Y-53533691D01*
X140610112Y-53533691D02*
X140705350Y-53581310D01*
X140705350Y-53581310D02*
X140752969Y-53628929D01*
X140752969Y-53628929D02*
X140800588Y-53724167D01*
X140800588Y-53724167D02*
X140800588Y-53962262D01*
X140800588Y-53962262D02*
X140752969Y-54057500D01*
X140752969Y-54057500D02*
X140705350Y-54105120D01*
X140705350Y-54105120D02*
X140610112Y-54152739D01*
X140610112Y-54152739D02*
X140324398Y-54152739D01*
X140324398Y-54152739D02*
X140229160Y-54105120D01*
X140229160Y-54105120D02*
X140181541Y-54057500D01*
X141086303Y-53152739D02*
X141419636Y-54152739D01*
X141419636Y-54152739D02*
X141752969Y-53152739D01*
X141991065Y-53152739D02*
X142610112Y-53152739D01*
X142610112Y-53152739D02*
X142276779Y-53533691D01*
X142276779Y-53533691D02*
X142419636Y-53533691D01*
X142419636Y-53533691D02*
X142514874Y-53581310D01*
X142514874Y-53581310D02*
X142562493Y-53628929D01*
X142562493Y-53628929D02*
X142610112Y-53724167D01*
X142610112Y-53724167D02*
X142610112Y-53962262D01*
X142610112Y-53962262D02*
X142562493Y-54057500D01*
X142562493Y-54057500D02*
X142514874Y-54105120D01*
X142514874Y-54105120D02*
X142419636Y-54152739D01*
X142419636Y-54152739D02*
X142133922Y-54152739D01*
X142133922Y-54152739D02*
X142038684Y-54105120D01*
X142038684Y-54105120D02*
X141991065Y-54057500D01*
X156447030Y-60820358D02*
X156351792Y-60772739D01*
X156351792Y-60772739D02*
X156208935Y-60772739D01*
X156208935Y-60772739D02*
X156066078Y-60820358D01*
X156066078Y-60820358D02*
X155970840Y-60915596D01*
X155970840Y-60915596D02*
X155923221Y-61010834D01*
X155923221Y-61010834D02*
X155875602Y-61201310D01*
X155875602Y-61201310D02*
X155875602Y-61344167D01*
X155875602Y-61344167D02*
X155923221Y-61534643D01*
X155923221Y-61534643D02*
X155970840Y-61629881D01*
X155970840Y-61629881D02*
X156066078Y-61725120D01*
X156066078Y-61725120D02*
X156208935Y-61772739D01*
X156208935Y-61772739D02*
X156304173Y-61772739D01*
X156304173Y-61772739D02*
X156447030Y-61725120D01*
X156447030Y-61725120D02*
X156494649Y-61677500D01*
X156494649Y-61677500D02*
X156494649Y-61344167D01*
X156494649Y-61344167D02*
X156304173Y-61344167D01*
X156923221Y-61772739D02*
X156923221Y-60772739D01*
X156923221Y-60772739D02*
X157304173Y-60772739D01*
X157304173Y-60772739D02*
X157399411Y-60820358D01*
X157399411Y-60820358D02*
X157447030Y-60867977D01*
X157447030Y-60867977D02*
X157494649Y-60963215D01*
X157494649Y-60963215D02*
X157494649Y-61106072D01*
X157494649Y-61106072D02*
X157447030Y-61201310D01*
X157447030Y-61201310D02*
X157399411Y-61248929D01*
X157399411Y-61248929D02*
X157304173Y-61296548D01*
X157304173Y-61296548D02*
X156923221Y-61296548D01*
X157923221Y-61772739D02*
X157923221Y-60772739D01*
X158589887Y-60772739D02*
X158780363Y-60772739D01*
X158780363Y-60772739D02*
X158875601Y-60820358D01*
X158875601Y-60820358D02*
X158970839Y-60915596D01*
X158970839Y-60915596D02*
X159018458Y-61106072D01*
X159018458Y-61106072D02*
X159018458Y-61439405D01*
X159018458Y-61439405D02*
X158970839Y-61629881D01*
X158970839Y-61629881D02*
X158875601Y-61725120D01*
X158875601Y-61725120D02*
X158780363Y-61772739D01*
X158780363Y-61772739D02*
X158589887Y-61772739D01*
X158589887Y-61772739D02*
X158494649Y-61725120D01*
X158494649Y-61725120D02*
X158399411Y-61629881D01*
X158399411Y-61629881D02*
X158351792Y-61439405D01*
X158351792Y-61439405D02*
X158351792Y-61106072D01*
X158351792Y-61106072D02*
X158399411Y-60915596D01*
X158399411Y-60915596D02*
X158494649Y-60820358D01*
X158494649Y-60820358D02*
X158589887Y-60772739D01*
X159399411Y-60867977D02*
X159447030Y-60820358D01*
X159447030Y-60820358D02*
X159542268Y-60772739D01*
X159542268Y-60772739D02*
X159780363Y-60772739D01*
X159780363Y-60772739D02*
X159875601Y-60820358D01*
X159875601Y-60820358D02*
X159923220Y-60867977D01*
X159923220Y-60867977D02*
X159970839Y-60963215D01*
X159970839Y-60963215D02*
X159970839Y-61058453D01*
X159970839Y-61058453D02*
X159923220Y-61201310D01*
X159923220Y-61201310D02*
X159351792Y-61772739D01*
X159351792Y-61772739D02*
X159970839Y-61772739D01*
X155494649Y-88760358D02*
X155399411Y-88712739D01*
X155399411Y-88712739D02*
X155256554Y-88712739D01*
X155256554Y-88712739D02*
X155113697Y-88760358D01*
X155113697Y-88760358D02*
X155018459Y-88855596D01*
X155018459Y-88855596D02*
X154970840Y-88950834D01*
X154970840Y-88950834D02*
X154923221Y-89141310D01*
X154923221Y-89141310D02*
X154923221Y-89284167D01*
X154923221Y-89284167D02*
X154970840Y-89474643D01*
X154970840Y-89474643D02*
X155018459Y-89569881D01*
X155018459Y-89569881D02*
X155113697Y-89665120D01*
X155113697Y-89665120D02*
X155256554Y-89712739D01*
X155256554Y-89712739D02*
X155351792Y-89712739D01*
X155351792Y-89712739D02*
X155494649Y-89665120D01*
X155494649Y-89665120D02*
X155542268Y-89617500D01*
X155542268Y-89617500D02*
X155542268Y-89284167D01*
X155542268Y-89284167D02*
X155351792Y-89284167D01*
X155970840Y-89712739D02*
X155970840Y-88712739D01*
X155970840Y-88712739D02*
X156351792Y-88712739D01*
X156351792Y-88712739D02*
X156447030Y-88760358D01*
X156447030Y-88760358D02*
X156494649Y-88807977D01*
X156494649Y-88807977D02*
X156542268Y-88903215D01*
X156542268Y-88903215D02*
X156542268Y-89046072D01*
X156542268Y-89046072D02*
X156494649Y-89141310D01*
X156494649Y-89141310D02*
X156447030Y-89188929D01*
X156447030Y-89188929D02*
X156351792Y-89236548D01*
X156351792Y-89236548D02*
X155970840Y-89236548D01*
X156970840Y-89712739D02*
X156970840Y-88712739D01*
X157637506Y-88712739D02*
X157827982Y-88712739D01*
X157827982Y-88712739D02*
X157923220Y-88760358D01*
X157923220Y-88760358D02*
X158018458Y-88855596D01*
X158018458Y-88855596D02*
X158066077Y-89046072D01*
X158066077Y-89046072D02*
X158066077Y-89379405D01*
X158066077Y-89379405D02*
X158018458Y-89569881D01*
X158018458Y-89569881D02*
X157923220Y-89665120D01*
X157923220Y-89665120D02*
X157827982Y-89712739D01*
X157827982Y-89712739D02*
X157637506Y-89712739D01*
X157637506Y-89712739D02*
X157542268Y-89665120D01*
X157542268Y-89665120D02*
X157447030Y-89569881D01*
X157447030Y-89569881D02*
X157399411Y-89379405D01*
X157399411Y-89379405D02*
X157399411Y-89046072D01*
X157399411Y-89046072D02*
X157447030Y-88855596D01*
X157447030Y-88855596D02*
X157542268Y-88760358D01*
X157542268Y-88760358D02*
X157637506Y-88712739D01*
X158923220Y-89046072D02*
X158923220Y-89712739D01*
X158685125Y-88665120D02*
X158447030Y-89379405D01*
X158447030Y-89379405D02*
X159066077Y-89379405D01*
X159589887Y-89141310D02*
X159494649Y-89093691D01*
X159494649Y-89093691D02*
X159447030Y-89046072D01*
X159447030Y-89046072D02*
X159399411Y-88950834D01*
X159399411Y-88950834D02*
X159399411Y-88903215D01*
X159399411Y-88903215D02*
X159447030Y-88807977D01*
X159447030Y-88807977D02*
X159494649Y-88760358D01*
X159494649Y-88760358D02*
X159589887Y-88712739D01*
X159589887Y-88712739D02*
X159780363Y-88712739D01*
X159780363Y-88712739D02*
X159875601Y-88760358D01*
X159875601Y-88760358D02*
X159923220Y-88807977D01*
X159923220Y-88807977D02*
X159970839Y-88903215D01*
X159970839Y-88903215D02*
X159970839Y-88950834D01*
X159970839Y-88950834D02*
X159923220Y-89046072D01*
X159923220Y-89046072D02*
X159875601Y-89093691D01*
X159875601Y-89093691D02*
X159780363Y-89141310D01*
X159780363Y-89141310D02*
X159589887Y-89141310D01*
X159589887Y-89141310D02*
X159494649Y-89188929D01*
X159494649Y-89188929D02*
X159447030Y-89236548D01*
X159447030Y-89236548D02*
X159399411Y-89331786D01*
X159399411Y-89331786D02*
X159399411Y-89522262D01*
X159399411Y-89522262D02*
X159447030Y-89617500D01*
X159447030Y-89617500D02*
X159494649Y-89665120D01*
X159494649Y-89665120D02*
X159589887Y-89712739D01*
X159589887Y-89712739D02*
X159780363Y-89712739D01*
X159780363Y-89712739D02*
X159875601Y-89665120D01*
X159875601Y-89665120D02*
X159923220Y-89617500D01*
X159923220Y-89617500D02*
X159970839Y-89522262D01*
X159970839Y-89522262D02*
X159970839Y-89331786D01*
X159970839Y-89331786D02*
X159923220Y-89236548D01*
X159923220Y-89236548D02*
X159875601Y-89188929D01*
X159875601Y-89188929D02*
X159780363Y-89141310D01*
X155494649Y-86220358D02*
X155399411Y-86172739D01*
X155399411Y-86172739D02*
X155256554Y-86172739D01*
X155256554Y-86172739D02*
X155113697Y-86220358D01*
X155113697Y-86220358D02*
X155018459Y-86315596D01*
X155018459Y-86315596D02*
X154970840Y-86410834D01*
X154970840Y-86410834D02*
X154923221Y-86601310D01*
X154923221Y-86601310D02*
X154923221Y-86744167D01*
X154923221Y-86744167D02*
X154970840Y-86934643D01*
X154970840Y-86934643D02*
X155018459Y-87029881D01*
X155018459Y-87029881D02*
X155113697Y-87125120D01*
X155113697Y-87125120D02*
X155256554Y-87172739D01*
X155256554Y-87172739D02*
X155351792Y-87172739D01*
X155351792Y-87172739D02*
X155494649Y-87125120D01*
X155494649Y-87125120D02*
X155542268Y-87077500D01*
X155542268Y-87077500D02*
X155542268Y-86744167D01*
X155542268Y-86744167D02*
X155351792Y-86744167D01*
X155970840Y-87172739D02*
X155970840Y-86172739D01*
X155970840Y-86172739D02*
X156351792Y-86172739D01*
X156351792Y-86172739D02*
X156447030Y-86220358D01*
X156447030Y-86220358D02*
X156494649Y-86267977D01*
X156494649Y-86267977D02*
X156542268Y-86363215D01*
X156542268Y-86363215D02*
X156542268Y-86506072D01*
X156542268Y-86506072D02*
X156494649Y-86601310D01*
X156494649Y-86601310D02*
X156447030Y-86648929D01*
X156447030Y-86648929D02*
X156351792Y-86696548D01*
X156351792Y-86696548D02*
X155970840Y-86696548D01*
X156970840Y-87172739D02*
X156970840Y-86172739D01*
X157637506Y-86172739D02*
X157827982Y-86172739D01*
X157827982Y-86172739D02*
X157923220Y-86220358D01*
X157923220Y-86220358D02*
X158018458Y-86315596D01*
X158018458Y-86315596D02*
X158066077Y-86506072D01*
X158066077Y-86506072D02*
X158066077Y-86839405D01*
X158066077Y-86839405D02*
X158018458Y-87029881D01*
X158018458Y-87029881D02*
X157923220Y-87125120D01*
X157923220Y-87125120D02*
X157827982Y-87172739D01*
X157827982Y-87172739D02*
X157637506Y-87172739D01*
X157637506Y-87172739D02*
X157542268Y-87125120D01*
X157542268Y-87125120D02*
X157447030Y-87029881D01*
X157447030Y-87029881D02*
X157399411Y-86839405D01*
X157399411Y-86839405D02*
X157399411Y-86506072D01*
X157399411Y-86506072D02*
X157447030Y-86315596D01*
X157447030Y-86315596D02*
X157542268Y-86220358D01*
X157542268Y-86220358D02*
X157637506Y-86172739D01*
X158923220Y-86506072D02*
X158923220Y-87172739D01*
X158685125Y-86125120D02*
X158447030Y-86839405D01*
X158447030Y-86839405D02*
X159066077Y-86839405D01*
X159923220Y-86172739D02*
X159447030Y-86172739D01*
X159447030Y-86172739D02*
X159399411Y-86648929D01*
X159399411Y-86648929D02*
X159447030Y-86601310D01*
X159447030Y-86601310D02*
X159542268Y-86553691D01*
X159542268Y-86553691D02*
X159780363Y-86553691D01*
X159780363Y-86553691D02*
X159875601Y-86601310D01*
X159875601Y-86601310D02*
X159923220Y-86648929D01*
X159923220Y-86648929D02*
X159970839Y-86744167D01*
X159970839Y-86744167D02*
X159970839Y-86982262D01*
X159970839Y-86982262D02*
X159923220Y-87077500D01*
X159923220Y-87077500D02*
X159875601Y-87125120D01*
X159875601Y-87125120D02*
X159780363Y-87172739D01*
X159780363Y-87172739D02*
X159542268Y-87172739D01*
X159542268Y-87172739D02*
X159447030Y-87125120D01*
X159447030Y-87125120D02*
X159399411Y-87077500D01*
X140800588Y-96380358D02*
X140705350Y-96332739D01*
X140705350Y-96332739D02*
X140562493Y-96332739D01*
X140562493Y-96332739D02*
X140419636Y-96380358D01*
X140419636Y-96380358D02*
X140324398Y-96475596D01*
X140324398Y-96475596D02*
X140276779Y-96570834D01*
X140276779Y-96570834D02*
X140229160Y-96761310D01*
X140229160Y-96761310D02*
X140229160Y-96904167D01*
X140229160Y-96904167D02*
X140276779Y-97094643D01*
X140276779Y-97094643D02*
X140324398Y-97189881D01*
X140324398Y-97189881D02*
X140419636Y-97285120D01*
X140419636Y-97285120D02*
X140562493Y-97332739D01*
X140562493Y-97332739D02*
X140657731Y-97332739D01*
X140657731Y-97332739D02*
X140800588Y-97285120D01*
X140800588Y-97285120D02*
X140848207Y-97237500D01*
X140848207Y-97237500D02*
X140848207Y-96904167D01*
X140848207Y-96904167D02*
X140657731Y-96904167D01*
X141276779Y-97332739D02*
X141276779Y-96332739D01*
X141276779Y-96332739D02*
X141657731Y-96332739D01*
X141657731Y-96332739D02*
X141752969Y-96380358D01*
X141752969Y-96380358D02*
X141800588Y-96427977D01*
X141800588Y-96427977D02*
X141848207Y-96523215D01*
X141848207Y-96523215D02*
X141848207Y-96666072D01*
X141848207Y-96666072D02*
X141800588Y-96761310D01*
X141800588Y-96761310D02*
X141752969Y-96808929D01*
X141752969Y-96808929D02*
X141657731Y-96856548D01*
X141657731Y-96856548D02*
X141276779Y-96856548D01*
X142276779Y-97332739D02*
X142276779Y-96332739D01*
X142943445Y-96332739D02*
X143133921Y-96332739D01*
X143133921Y-96332739D02*
X143229159Y-96380358D01*
X143229159Y-96380358D02*
X143324397Y-96475596D01*
X143324397Y-96475596D02*
X143372016Y-96666072D01*
X143372016Y-96666072D02*
X143372016Y-96999405D01*
X143372016Y-96999405D02*
X143324397Y-97189881D01*
X143324397Y-97189881D02*
X143229159Y-97285120D01*
X143229159Y-97285120D02*
X143133921Y-97332739D01*
X143133921Y-97332739D02*
X142943445Y-97332739D01*
X142943445Y-97332739D02*
X142848207Y-97285120D01*
X142848207Y-97285120D02*
X142752969Y-97189881D01*
X142752969Y-97189881D02*
X142705350Y-96999405D01*
X142705350Y-96999405D02*
X142705350Y-96666072D01*
X142705350Y-96666072D02*
X142752969Y-96475596D01*
X142752969Y-96475596D02*
X142848207Y-96380358D01*
X142848207Y-96380358D02*
X142943445Y-96332739D01*
X144324397Y-97332739D02*
X143752969Y-97332739D01*
X144038683Y-97332739D02*
X144038683Y-96332739D01*
X144038683Y-96332739D02*
X143943445Y-96475596D01*
X143943445Y-96475596D02*
X143848207Y-96570834D01*
X143848207Y-96570834D02*
X143752969Y-96618453D01*
X144657731Y-96332739D02*
X145276778Y-96332739D01*
X145276778Y-96332739D02*
X144943445Y-96713691D01*
X144943445Y-96713691D02*
X145086302Y-96713691D01*
X145086302Y-96713691D02*
X145181540Y-96761310D01*
X145181540Y-96761310D02*
X145229159Y-96808929D01*
X145229159Y-96808929D02*
X145276778Y-96904167D01*
X145276778Y-96904167D02*
X145276778Y-97142262D01*
X145276778Y-97142262D02*
X145229159Y-97237500D01*
X145229159Y-97237500D02*
X145181540Y-97285120D01*
X145181540Y-97285120D02*
X145086302Y-97332739D01*
X145086302Y-97332739D02*
X144800588Y-97332739D01*
X144800588Y-97332739D02*
X144705350Y-97285120D01*
X144705350Y-97285120D02*
X144657731Y-97237500D01*
X150542268Y-70980358D02*
X150447030Y-70932739D01*
X150447030Y-70932739D02*
X150304173Y-70932739D01*
X150304173Y-70932739D02*
X150161316Y-70980358D01*
X150161316Y-70980358D02*
X150066078Y-71075596D01*
X150066078Y-71075596D02*
X150018459Y-71170834D01*
X150018459Y-71170834D02*
X149970840Y-71361310D01*
X149970840Y-71361310D02*
X149970840Y-71504167D01*
X149970840Y-71504167D02*
X150018459Y-71694643D01*
X150018459Y-71694643D02*
X150066078Y-71789881D01*
X150066078Y-71789881D02*
X150161316Y-71885120D01*
X150161316Y-71885120D02*
X150304173Y-71932739D01*
X150304173Y-71932739D02*
X150399411Y-71932739D01*
X150399411Y-71932739D02*
X150542268Y-71885120D01*
X150542268Y-71885120D02*
X150589887Y-71837500D01*
X150589887Y-71837500D02*
X150589887Y-71504167D01*
X150589887Y-71504167D02*
X150399411Y-71504167D01*
X151018459Y-71932739D02*
X151018459Y-70932739D01*
X151018459Y-70932739D02*
X151399411Y-70932739D01*
X151399411Y-70932739D02*
X151494649Y-70980358D01*
X151494649Y-70980358D02*
X151542268Y-71027977D01*
X151542268Y-71027977D02*
X151589887Y-71123215D01*
X151589887Y-71123215D02*
X151589887Y-71266072D01*
X151589887Y-71266072D02*
X151542268Y-71361310D01*
X151542268Y-71361310D02*
X151494649Y-71408929D01*
X151494649Y-71408929D02*
X151399411Y-71456548D01*
X151399411Y-71456548D02*
X151018459Y-71456548D01*
X152018459Y-71932739D02*
X152018459Y-70932739D01*
X152685125Y-70932739D02*
X152875601Y-70932739D01*
X152875601Y-70932739D02*
X152970839Y-70980358D01*
X152970839Y-70980358D02*
X153066077Y-71075596D01*
X153066077Y-71075596D02*
X153113696Y-71266072D01*
X153113696Y-71266072D02*
X153113696Y-71599405D01*
X153113696Y-71599405D02*
X153066077Y-71789881D01*
X153066077Y-71789881D02*
X152970839Y-71885120D01*
X152970839Y-71885120D02*
X152875601Y-71932739D01*
X152875601Y-71932739D02*
X152685125Y-71932739D01*
X152685125Y-71932739D02*
X152589887Y-71885120D01*
X152589887Y-71885120D02*
X152494649Y-71789881D01*
X152494649Y-71789881D02*
X152447030Y-71599405D01*
X152447030Y-71599405D02*
X152447030Y-71266072D01*
X152447030Y-71266072D02*
X152494649Y-71075596D01*
X152494649Y-71075596D02*
X152589887Y-70980358D01*
X152589887Y-70980358D02*
X152685125Y-70932739D01*
X153447030Y-70932739D02*
X154066077Y-70932739D01*
X154066077Y-70932739D02*
X153732744Y-71313691D01*
X153732744Y-71313691D02*
X153875601Y-71313691D01*
X153875601Y-71313691D02*
X153970839Y-71361310D01*
X153970839Y-71361310D02*
X154018458Y-71408929D01*
X154018458Y-71408929D02*
X154066077Y-71504167D01*
X154066077Y-71504167D02*
X154066077Y-71742262D01*
X154066077Y-71742262D02*
X154018458Y-71837500D01*
X154018458Y-71837500D02*
X153970839Y-71885120D01*
X153970839Y-71885120D02*
X153875601Y-71932739D01*
X153875601Y-71932739D02*
X153589887Y-71932739D01*
X153589887Y-71932739D02*
X153494649Y-71885120D01*
X153494649Y-71885120D02*
X153447030Y-71837500D01*
X154542268Y-71932739D02*
X154732744Y-71932739D01*
X154732744Y-71932739D02*
X154827982Y-71885120D01*
X154827982Y-71885120D02*
X154875601Y-71837500D01*
X154875601Y-71837500D02*
X154970839Y-71694643D01*
X154970839Y-71694643D02*
X155018458Y-71504167D01*
X155018458Y-71504167D02*
X155018458Y-71123215D01*
X155018458Y-71123215D02*
X154970839Y-71027977D01*
X154970839Y-71027977D02*
X154923220Y-70980358D01*
X154923220Y-70980358D02*
X154827982Y-70932739D01*
X154827982Y-70932739D02*
X154637506Y-70932739D01*
X154637506Y-70932739D02*
X154542268Y-70980358D01*
X154542268Y-70980358D02*
X154494649Y-71027977D01*
X154494649Y-71027977D02*
X154447030Y-71123215D01*
X154447030Y-71123215D02*
X154447030Y-71361310D01*
X154447030Y-71361310D02*
X154494649Y-71456548D01*
X154494649Y-71456548D02*
X154542268Y-71504167D01*
X154542268Y-71504167D02*
X154637506Y-71551786D01*
X154637506Y-71551786D02*
X154827982Y-71551786D01*
X154827982Y-71551786D02*
X154923220Y-71504167D01*
X154923220Y-71504167D02*
X154970839Y-71456548D01*
X154970839Y-71456548D02*
X155018458Y-71361310D01*
X156161315Y-70885120D02*
X155304173Y-72170834D01*
X156494649Y-71932739D02*
X156494649Y-70932739D01*
X156494649Y-70932739D02*
X156827982Y-71647024D01*
X156827982Y-71647024D02*
X157161315Y-70932739D01*
X157161315Y-70932739D02*
X157161315Y-71932739D01*
X157494649Y-70932739D02*
X158066077Y-70932739D01*
X157780363Y-71932739D02*
X157780363Y-70932739D01*
X158970839Y-71837500D02*
X158923220Y-71885120D01*
X158923220Y-71885120D02*
X158780363Y-71932739D01*
X158780363Y-71932739D02*
X158685125Y-71932739D01*
X158685125Y-71932739D02*
X158542268Y-71885120D01*
X158542268Y-71885120D02*
X158447030Y-71789881D01*
X158447030Y-71789881D02*
X158399411Y-71694643D01*
X158399411Y-71694643D02*
X158351792Y-71504167D01*
X158351792Y-71504167D02*
X158351792Y-71361310D01*
X158351792Y-71361310D02*
X158399411Y-71170834D01*
X158399411Y-71170834D02*
X158447030Y-71075596D01*
X158447030Y-71075596D02*
X158542268Y-70980358D01*
X158542268Y-70980358D02*
X158685125Y-70932739D01*
X158685125Y-70932739D02*
X158780363Y-70932739D01*
X158780363Y-70932739D02*
X158923220Y-70980358D01*
X158923220Y-70980358D02*
X158970839Y-71027977D01*
X159399411Y-71932739D02*
X159399411Y-70932739D01*
X159970839Y-71932739D02*
X159542268Y-71361310D01*
X159970839Y-70932739D02*
X159399411Y-71504167D01*
X140800588Y-93840358D02*
X140705350Y-93792739D01*
X140705350Y-93792739D02*
X140562493Y-93792739D01*
X140562493Y-93792739D02*
X140419636Y-93840358D01*
X140419636Y-93840358D02*
X140324398Y-93935596D01*
X140324398Y-93935596D02*
X140276779Y-94030834D01*
X140276779Y-94030834D02*
X140229160Y-94221310D01*
X140229160Y-94221310D02*
X140229160Y-94364167D01*
X140229160Y-94364167D02*
X140276779Y-94554643D01*
X140276779Y-94554643D02*
X140324398Y-94649881D01*
X140324398Y-94649881D02*
X140419636Y-94745120D01*
X140419636Y-94745120D02*
X140562493Y-94792739D01*
X140562493Y-94792739D02*
X140657731Y-94792739D01*
X140657731Y-94792739D02*
X140800588Y-94745120D01*
X140800588Y-94745120D02*
X140848207Y-94697500D01*
X140848207Y-94697500D02*
X140848207Y-94364167D01*
X140848207Y-94364167D02*
X140657731Y-94364167D01*
X141276779Y-94792739D02*
X141276779Y-93792739D01*
X141276779Y-93792739D02*
X141657731Y-93792739D01*
X141657731Y-93792739D02*
X141752969Y-93840358D01*
X141752969Y-93840358D02*
X141800588Y-93887977D01*
X141800588Y-93887977D02*
X141848207Y-93983215D01*
X141848207Y-93983215D02*
X141848207Y-94126072D01*
X141848207Y-94126072D02*
X141800588Y-94221310D01*
X141800588Y-94221310D02*
X141752969Y-94268929D01*
X141752969Y-94268929D02*
X141657731Y-94316548D01*
X141657731Y-94316548D02*
X141276779Y-94316548D01*
X142276779Y-94792739D02*
X142276779Y-93792739D01*
X142943445Y-93792739D02*
X143133921Y-93792739D01*
X143133921Y-93792739D02*
X143229159Y-93840358D01*
X143229159Y-93840358D02*
X143324397Y-93935596D01*
X143324397Y-93935596D02*
X143372016Y-94126072D01*
X143372016Y-94126072D02*
X143372016Y-94459405D01*
X143372016Y-94459405D02*
X143324397Y-94649881D01*
X143324397Y-94649881D02*
X143229159Y-94745120D01*
X143229159Y-94745120D02*
X143133921Y-94792739D01*
X143133921Y-94792739D02*
X142943445Y-94792739D01*
X142943445Y-94792739D02*
X142848207Y-94745120D01*
X142848207Y-94745120D02*
X142752969Y-94649881D01*
X142752969Y-94649881D02*
X142705350Y-94459405D01*
X142705350Y-94459405D02*
X142705350Y-94126072D01*
X142705350Y-94126072D02*
X142752969Y-93935596D01*
X142752969Y-93935596D02*
X142848207Y-93840358D01*
X142848207Y-93840358D02*
X142943445Y-93792739D01*
X144324397Y-94792739D02*
X143752969Y-94792739D01*
X144038683Y-94792739D02*
X144038683Y-93792739D01*
X144038683Y-93792739D02*
X143943445Y-93935596D01*
X143943445Y-93935596D02*
X143848207Y-94030834D01*
X143848207Y-94030834D02*
X143752969Y-94078453D01*
X144705350Y-93887977D02*
X144752969Y-93840358D01*
X144752969Y-93840358D02*
X144848207Y-93792739D01*
X144848207Y-93792739D02*
X145086302Y-93792739D01*
X145086302Y-93792739D02*
X145181540Y-93840358D01*
X145181540Y-93840358D02*
X145229159Y-93887977D01*
X145229159Y-93887977D02*
X145276778Y-93983215D01*
X145276778Y-93983215D02*
X145276778Y-94078453D01*
X145276778Y-94078453D02*
X145229159Y-94221310D01*
X145229159Y-94221310D02*
X144657731Y-94792739D01*
X144657731Y-94792739D02*
X145276778Y-94792739D01*
X140800588Y-73520358D02*
X140705350Y-73472739D01*
X140705350Y-73472739D02*
X140562493Y-73472739D01*
X140562493Y-73472739D02*
X140419636Y-73520358D01*
X140419636Y-73520358D02*
X140324398Y-73615596D01*
X140324398Y-73615596D02*
X140276779Y-73710834D01*
X140276779Y-73710834D02*
X140229160Y-73901310D01*
X140229160Y-73901310D02*
X140229160Y-74044167D01*
X140229160Y-74044167D02*
X140276779Y-74234643D01*
X140276779Y-74234643D02*
X140324398Y-74329881D01*
X140324398Y-74329881D02*
X140419636Y-74425120D01*
X140419636Y-74425120D02*
X140562493Y-74472739D01*
X140562493Y-74472739D02*
X140657731Y-74472739D01*
X140657731Y-74472739D02*
X140800588Y-74425120D01*
X140800588Y-74425120D02*
X140848207Y-74377500D01*
X140848207Y-74377500D02*
X140848207Y-74044167D01*
X140848207Y-74044167D02*
X140657731Y-74044167D01*
X141276779Y-74472739D02*
X141276779Y-73472739D01*
X141276779Y-73472739D02*
X141657731Y-73472739D01*
X141657731Y-73472739D02*
X141752969Y-73520358D01*
X141752969Y-73520358D02*
X141800588Y-73567977D01*
X141800588Y-73567977D02*
X141848207Y-73663215D01*
X141848207Y-73663215D02*
X141848207Y-73806072D01*
X141848207Y-73806072D02*
X141800588Y-73901310D01*
X141800588Y-73901310D02*
X141752969Y-73948929D01*
X141752969Y-73948929D02*
X141657731Y-73996548D01*
X141657731Y-73996548D02*
X141276779Y-73996548D01*
X142276779Y-74472739D02*
X142276779Y-73472739D01*
X142943445Y-73472739D02*
X143133921Y-73472739D01*
X143133921Y-73472739D02*
X143229159Y-73520358D01*
X143229159Y-73520358D02*
X143324397Y-73615596D01*
X143324397Y-73615596D02*
X143372016Y-73806072D01*
X143372016Y-73806072D02*
X143372016Y-74139405D01*
X143372016Y-74139405D02*
X143324397Y-74329881D01*
X143324397Y-74329881D02*
X143229159Y-74425120D01*
X143229159Y-74425120D02*
X143133921Y-74472739D01*
X143133921Y-74472739D02*
X142943445Y-74472739D01*
X142943445Y-74472739D02*
X142848207Y-74425120D01*
X142848207Y-74425120D02*
X142752969Y-74329881D01*
X142752969Y-74329881D02*
X142705350Y-74139405D01*
X142705350Y-74139405D02*
X142705350Y-73806072D01*
X142705350Y-73806072D02*
X142752969Y-73615596D01*
X142752969Y-73615596D02*
X142848207Y-73520358D01*
X142848207Y-73520358D02*
X142943445Y-73472739D01*
X144324397Y-74472739D02*
X143752969Y-74472739D01*
X144038683Y-74472739D02*
X144038683Y-73472739D01*
X144038683Y-73472739D02*
X143943445Y-73615596D01*
X143943445Y-73615596D02*
X143848207Y-73710834D01*
X143848207Y-73710834D02*
X143752969Y-73758453D01*
X144657731Y-73472739D02*
X145324397Y-73472739D01*
X145324397Y-73472739D02*
X144895826Y-74472739D01*
X155494649Y-76060358D02*
X155399411Y-76012739D01*
X155399411Y-76012739D02*
X155256554Y-76012739D01*
X155256554Y-76012739D02*
X155113697Y-76060358D01*
X155113697Y-76060358D02*
X155018459Y-76155596D01*
X155018459Y-76155596D02*
X154970840Y-76250834D01*
X154970840Y-76250834D02*
X154923221Y-76441310D01*
X154923221Y-76441310D02*
X154923221Y-76584167D01*
X154923221Y-76584167D02*
X154970840Y-76774643D01*
X154970840Y-76774643D02*
X155018459Y-76869881D01*
X155018459Y-76869881D02*
X155113697Y-76965120D01*
X155113697Y-76965120D02*
X155256554Y-77012739D01*
X155256554Y-77012739D02*
X155351792Y-77012739D01*
X155351792Y-77012739D02*
X155494649Y-76965120D01*
X155494649Y-76965120D02*
X155542268Y-76917500D01*
X155542268Y-76917500D02*
X155542268Y-76584167D01*
X155542268Y-76584167D02*
X155351792Y-76584167D01*
X155970840Y-77012739D02*
X155970840Y-76012739D01*
X155970840Y-76012739D02*
X156351792Y-76012739D01*
X156351792Y-76012739D02*
X156447030Y-76060358D01*
X156447030Y-76060358D02*
X156494649Y-76107977D01*
X156494649Y-76107977D02*
X156542268Y-76203215D01*
X156542268Y-76203215D02*
X156542268Y-76346072D01*
X156542268Y-76346072D02*
X156494649Y-76441310D01*
X156494649Y-76441310D02*
X156447030Y-76488929D01*
X156447030Y-76488929D02*
X156351792Y-76536548D01*
X156351792Y-76536548D02*
X155970840Y-76536548D01*
X156970840Y-77012739D02*
X156970840Y-76012739D01*
X157637506Y-76012739D02*
X157827982Y-76012739D01*
X157827982Y-76012739D02*
X157923220Y-76060358D01*
X157923220Y-76060358D02*
X158018458Y-76155596D01*
X158018458Y-76155596D02*
X158066077Y-76346072D01*
X158066077Y-76346072D02*
X158066077Y-76679405D01*
X158066077Y-76679405D02*
X158018458Y-76869881D01*
X158018458Y-76869881D02*
X157923220Y-76965120D01*
X157923220Y-76965120D02*
X157827982Y-77012739D01*
X157827982Y-77012739D02*
X157637506Y-77012739D01*
X157637506Y-77012739D02*
X157542268Y-76965120D01*
X157542268Y-76965120D02*
X157447030Y-76869881D01*
X157447030Y-76869881D02*
X157399411Y-76679405D01*
X157399411Y-76679405D02*
X157399411Y-76346072D01*
X157399411Y-76346072D02*
X157447030Y-76155596D01*
X157447030Y-76155596D02*
X157542268Y-76060358D01*
X157542268Y-76060358D02*
X157637506Y-76012739D01*
X158399411Y-76012739D02*
X159018458Y-76012739D01*
X159018458Y-76012739D02*
X158685125Y-76393691D01*
X158685125Y-76393691D02*
X158827982Y-76393691D01*
X158827982Y-76393691D02*
X158923220Y-76441310D01*
X158923220Y-76441310D02*
X158970839Y-76488929D01*
X158970839Y-76488929D02*
X159018458Y-76584167D01*
X159018458Y-76584167D02*
X159018458Y-76822262D01*
X159018458Y-76822262D02*
X158970839Y-76917500D01*
X158970839Y-76917500D02*
X158923220Y-76965120D01*
X158923220Y-76965120D02*
X158827982Y-77012739D01*
X158827982Y-77012739D02*
X158542268Y-77012739D01*
X158542268Y-77012739D02*
X158447030Y-76965120D01*
X158447030Y-76965120D02*
X158399411Y-76917500D01*
X159351792Y-76012739D02*
X160018458Y-76012739D01*
X160018458Y-76012739D02*
X159589887Y-77012739D01*
X155494649Y-93840358D02*
X155399411Y-93792739D01*
X155399411Y-93792739D02*
X155256554Y-93792739D01*
X155256554Y-93792739D02*
X155113697Y-93840358D01*
X155113697Y-93840358D02*
X155018459Y-93935596D01*
X155018459Y-93935596D02*
X154970840Y-94030834D01*
X154970840Y-94030834D02*
X154923221Y-94221310D01*
X154923221Y-94221310D02*
X154923221Y-94364167D01*
X154923221Y-94364167D02*
X154970840Y-94554643D01*
X154970840Y-94554643D02*
X155018459Y-94649881D01*
X155018459Y-94649881D02*
X155113697Y-94745120D01*
X155113697Y-94745120D02*
X155256554Y-94792739D01*
X155256554Y-94792739D02*
X155351792Y-94792739D01*
X155351792Y-94792739D02*
X155494649Y-94745120D01*
X155494649Y-94745120D02*
X155542268Y-94697500D01*
X155542268Y-94697500D02*
X155542268Y-94364167D01*
X155542268Y-94364167D02*
X155351792Y-94364167D01*
X155970840Y-94792739D02*
X155970840Y-93792739D01*
X155970840Y-93792739D02*
X156351792Y-93792739D01*
X156351792Y-93792739D02*
X156447030Y-93840358D01*
X156447030Y-93840358D02*
X156494649Y-93887977D01*
X156494649Y-93887977D02*
X156542268Y-93983215D01*
X156542268Y-93983215D02*
X156542268Y-94126072D01*
X156542268Y-94126072D02*
X156494649Y-94221310D01*
X156494649Y-94221310D02*
X156447030Y-94268929D01*
X156447030Y-94268929D02*
X156351792Y-94316548D01*
X156351792Y-94316548D02*
X155970840Y-94316548D01*
X156970840Y-94792739D02*
X156970840Y-93792739D01*
X157637506Y-93792739D02*
X157827982Y-93792739D01*
X157827982Y-93792739D02*
X157923220Y-93840358D01*
X157923220Y-93840358D02*
X158018458Y-93935596D01*
X158018458Y-93935596D02*
X158066077Y-94126072D01*
X158066077Y-94126072D02*
X158066077Y-94459405D01*
X158066077Y-94459405D02*
X158018458Y-94649881D01*
X158018458Y-94649881D02*
X157923220Y-94745120D01*
X157923220Y-94745120D02*
X157827982Y-94792739D01*
X157827982Y-94792739D02*
X157637506Y-94792739D01*
X157637506Y-94792739D02*
X157542268Y-94745120D01*
X157542268Y-94745120D02*
X157447030Y-94649881D01*
X157447030Y-94649881D02*
X157399411Y-94459405D01*
X157399411Y-94459405D02*
X157399411Y-94126072D01*
X157399411Y-94126072D02*
X157447030Y-93935596D01*
X157447030Y-93935596D02*
X157542268Y-93840358D01*
X157542268Y-93840358D02*
X157637506Y-93792739D01*
X158447030Y-93887977D02*
X158494649Y-93840358D01*
X158494649Y-93840358D02*
X158589887Y-93792739D01*
X158589887Y-93792739D02*
X158827982Y-93792739D01*
X158827982Y-93792739D02*
X158923220Y-93840358D01*
X158923220Y-93840358D02*
X158970839Y-93887977D01*
X158970839Y-93887977D02*
X159018458Y-93983215D01*
X159018458Y-93983215D02*
X159018458Y-94078453D01*
X159018458Y-94078453D02*
X158970839Y-94221310D01*
X158970839Y-94221310D02*
X158399411Y-94792739D01*
X158399411Y-94792739D02*
X159018458Y-94792739D01*
X159970839Y-94792739D02*
X159399411Y-94792739D01*
X159685125Y-94792739D02*
X159685125Y-93792739D01*
X159685125Y-93792739D02*
X159589887Y-93935596D01*
X159589887Y-93935596D02*
X159494649Y-94030834D01*
X159494649Y-94030834D02*
X159399411Y-94078453D01*
X140800588Y-58280358D02*
X140705350Y-58232739D01*
X140705350Y-58232739D02*
X140562493Y-58232739D01*
X140562493Y-58232739D02*
X140419636Y-58280358D01*
X140419636Y-58280358D02*
X140324398Y-58375596D01*
X140324398Y-58375596D02*
X140276779Y-58470834D01*
X140276779Y-58470834D02*
X140229160Y-58661310D01*
X140229160Y-58661310D02*
X140229160Y-58804167D01*
X140229160Y-58804167D02*
X140276779Y-58994643D01*
X140276779Y-58994643D02*
X140324398Y-59089881D01*
X140324398Y-59089881D02*
X140419636Y-59185120D01*
X140419636Y-59185120D02*
X140562493Y-59232739D01*
X140562493Y-59232739D02*
X140657731Y-59232739D01*
X140657731Y-59232739D02*
X140800588Y-59185120D01*
X140800588Y-59185120D02*
X140848207Y-59137500D01*
X140848207Y-59137500D02*
X140848207Y-58804167D01*
X140848207Y-58804167D02*
X140657731Y-58804167D01*
X141276779Y-59232739D02*
X141276779Y-58232739D01*
X141276779Y-58232739D02*
X141657731Y-58232739D01*
X141657731Y-58232739D02*
X141752969Y-58280358D01*
X141752969Y-58280358D02*
X141800588Y-58327977D01*
X141800588Y-58327977D02*
X141848207Y-58423215D01*
X141848207Y-58423215D02*
X141848207Y-58566072D01*
X141848207Y-58566072D02*
X141800588Y-58661310D01*
X141800588Y-58661310D02*
X141752969Y-58708929D01*
X141752969Y-58708929D02*
X141657731Y-58756548D01*
X141657731Y-58756548D02*
X141276779Y-58756548D01*
X142276779Y-59232739D02*
X142276779Y-58232739D01*
X142943445Y-58232739D02*
X143133921Y-58232739D01*
X143133921Y-58232739D02*
X143229159Y-58280358D01*
X143229159Y-58280358D02*
X143324397Y-58375596D01*
X143324397Y-58375596D02*
X143372016Y-58566072D01*
X143372016Y-58566072D02*
X143372016Y-58899405D01*
X143372016Y-58899405D02*
X143324397Y-59089881D01*
X143324397Y-59089881D02*
X143229159Y-59185120D01*
X143229159Y-59185120D02*
X143133921Y-59232739D01*
X143133921Y-59232739D02*
X142943445Y-59232739D01*
X142943445Y-59232739D02*
X142848207Y-59185120D01*
X142848207Y-59185120D02*
X142752969Y-59089881D01*
X142752969Y-59089881D02*
X142705350Y-58899405D01*
X142705350Y-58899405D02*
X142705350Y-58566072D01*
X142705350Y-58566072D02*
X142752969Y-58375596D01*
X142752969Y-58375596D02*
X142848207Y-58280358D01*
X142848207Y-58280358D02*
X142943445Y-58232739D01*
X144229159Y-58566072D02*
X144229159Y-59232739D01*
X143991064Y-58185120D02*
X143752969Y-58899405D01*
X143752969Y-58899405D02*
X144372016Y-58899405D01*
X123354819Y-96333333D02*
X124069104Y-96333333D01*
X124069104Y-96333333D02*
X124211961Y-96380952D01*
X124211961Y-96380952D02*
X124307200Y-96476190D01*
X124307200Y-96476190D02*
X124354819Y-96619047D01*
X124354819Y-96619047D02*
X124354819Y-96714285D01*
X123450057Y-95904761D02*
X123402438Y-95857142D01*
X123402438Y-95857142D02*
X123354819Y-95761904D01*
X123354819Y-95761904D02*
X123354819Y-95523809D01*
X123354819Y-95523809D02*
X123402438Y-95428571D01*
X123402438Y-95428571D02*
X123450057Y-95380952D01*
X123450057Y-95380952D02*
X123545295Y-95333333D01*
X123545295Y-95333333D02*
X123640533Y-95333333D01*
X123640533Y-95333333D02*
X123783390Y-95380952D01*
X123783390Y-95380952D02*
X124354819Y-95952380D01*
X124354819Y-95952380D02*
X124354819Y-95333333D01*
X133833333Y-89104819D02*
X133500000Y-88628628D01*
X133261905Y-89104819D02*
X133261905Y-88104819D01*
X133261905Y-88104819D02*
X133642857Y-88104819D01*
X133642857Y-88104819D02*
X133738095Y-88152438D01*
X133738095Y-88152438D02*
X133785714Y-88200057D01*
X133785714Y-88200057D02*
X133833333Y-88295295D01*
X133833333Y-88295295D02*
X133833333Y-88438152D01*
X133833333Y-88438152D02*
X133785714Y-88533390D01*
X133785714Y-88533390D02*
X133738095Y-88581009D01*
X133738095Y-88581009D02*
X133642857Y-88628628D01*
X133642857Y-88628628D02*
X133261905Y-88628628D01*
X134690476Y-88438152D02*
X134690476Y-89104819D01*
X134452381Y-88057200D02*
X134214286Y-88771485D01*
X134214286Y-88771485D02*
X134833333Y-88771485D01*
D11*
G04 #@! TO.C,R3*
X134227064Y-78265000D02*
X133772936Y-78265000D01*
X134227064Y-79735000D02*
X133772936Y-79735000D01*
G04 #@! TO.C,J1*
X123990000Y-77310000D02*
X123990000Y-87690000D01*
X123990000Y-79490000D02*
X124590000Y-79490000D01*
X123990000Y-82030000D02*
X124590000Y-82030000D01*
X123990000Y-84570000D02*
X124590000Y-84570000D01*
X123990000Y-87110000D02*
X124590000Y-87110000D01*
X123990000Y-87690000D02*
X130010000Y-87690000D01*
X124590000Y-77890000D02*
X123990000Y-77890000D01*
X124590000Y-79490000D02*
X124590000Y-77890000D01*
X124590000Y-80430000D02*
X123990000Y-80430000D01*
X124590000Y-82030000D02*
X124590000Y-80430000D01*
X124590000Y-82970000D02*
X123990000Y-82970000D01*
X124590000Y-84570000D02*
X124590000Y-82970000D01*
X124590000Y-85510000D02*
X123990000Y-85510000D01*
X124590000Y-87110000D02*
X124590000Y-85510000D01*
X125020000Y-87980000D02*
X129020000Y-87980000D01*
X128480000Y-78940000D02*
X129010000Y-78690000D01*
X128480000Y-86060000D02*
X128480000Y-78940000D01*
X129010000Y-78690000D02*
X130010000Y-78690000D01*
X129010000Y-86310000D02*
X128480000Y-86060000D01*
X129010000Y-86310000D02*
X129010000Y-78690000D01*
X130010000Y-77310000D02*
X123990000Y-77310000D01*
X130010000Y-78940000D02*
X129010000Y-78940000D01*
X130010000Y-86060000D02*
X129010000Y-86060000D01*
X130010000Y-86310000D02*
X129010000Y-86310000D01*
X130010000Y-87690000D02*
X130010000Y-77310000D01*
G04 #@! TO.C,U1*
X137170000Y-113955200D02*
X163029999Y-113955200D01*
X137170001Y-50057920D02*
X137170000Y-113955200D01*
X141130120Y-44144800D02*
X159113320Y-44144800D01*
X141130120Y-50037600D02*
X141130120Y-44144800D01*
X159113320Y-44144800D02*
X159113320Y-50037600D01*
X163029999Y-113955200D02*
X163030000Y-50057920D01*
X163030000Y-50057920D02*
X137170001Y-50057920D01*
G04 #@! TO.C,J2*
X124990000Y-93350000D02*
X124990000Y-98650000D01*
X124990000Y-95530000D02*
X125590000Y-95530000D01*
X124990000Y-98070000D02*
X125590000Y-98070000D01*
X124990000Y-98650000D02*
X131010000Y-98650000D01*
X125590000Y-93930000D02*
X124990000Y-93930000D01*
X125590000Y-95530000D02*
X125590000Y-93930000D01*
X125590000Y-96470000D02*
X124990000Y-96470000D01*
X125590000Y-98070000D02*
X125590000Y-96470000D01*
X126020000Y-98940000D02*
X130020000Y-98940000D01*
X129480000Y-94980000D02*
X130010000Y-94730000D01*
X129480000Y-97020000D02*
X129480000Y-94980000D01*
X130010000Y-94730000D02*
X131010000Y-94730000D01*
X130010000Y-97270000D02*
X129480000Y-97020000D01*
X130010000Y-97270000D02*
X130010000Y-94730000D01*
X131010000Y-93350000D02*
X124990000Y-93350000D01*
X131010000Y-94980000D02*
X130010000Y-94980000D01*
X131010000Y-97020000D02*
X130010000Y-97020000D01*
X131010000Y-97270000D02*
X130010000Y-97270000D01*
X131010000Y-98650000D02*
X131010000Y-93350000D01*
G04 #@! TO.C,R4*
X134227064Y-86265000D02*
X133772936Y-86265000D01*
X134227064Y-87735000D02*
X133772936Y-87735000D01*
G04 #@! TD*
%LPC*%
D12*
G04 #@! TO.C,REF\u002A\u002A*
X126750000Y-116750000D03*
G04 #@! TD*
D13*
G04 #@! TO.C,R3*
X134912500Y-79000000D03*
X133087500Y-79000000D03*
G04 #@! TD*
D12*
G04 #@! TO.C,REF\u002A\u002A*
X162000000Y-117000000D03*
G04 #@! TD*
G04 #@! TO.C,REF\u002A\u002A*
X126500000Y-52500000D03*
G04 #@! TD*
D14*
G04 #@! TO.C,J1*
X127020000Y-86310000D03*
D15*
X127020000Y-83770000D03*
X127020000Y-81230000D03*
X127020000Y-78690000D03*
G04 #@! TD*
D16*
G04 #@! TO.C,U1*
X138670000Y-51157920D03*
D17*
X138670000Y-53697920D03*
X138670000Y-56237920D03*
X138670000Y-58777920D03*
X138670000Y-61317920D03*
X138670000Y-63857920D03*
X138670000Y-66397920D03*
X138670000Y-68937920D03*
X138670000Y-71477920D03*
X138670000Y-74017920D03*
X138670000Y-76557920D03*
X138670000Y-79097920D03*
X138670000Y-81637920D03*
X138670000Y-84177920D03*
X138670000Y-86717920D03*
X138670000Y-89257920D03*
X138670000Y-91797920D03*
X138670000Y-94337920D03*
X138670000Y-96877920D03*
X138666320Y-99415200D03*
X138666320Y-101955200D03*
X138666320Y-104495200D03*
X161530000Y-104497920D03*
X161530000Y-101957920D03*
X161530000Y-99417920D03*
X161530000Y-96877920D03*
X161530000Y-94337920D03*
X161530000Y-91797920D03*
X161530000Y-89257920D03*
X161530000Y-86717920D03*
X161530000Y-84177920D03*
X161530000Y-81637920D03*
X161530000Y-79097920D03*
X161530000Y-76557920D03*
X161530000Y-74017920D03*
X161530000Y-71477920D03*
X161530000Y-68937920D03*
X161530000Y-66397920D03*
X161530000Y-63857920D03*
X161530000Y-61317920D03*
X161530000Y-58777920D03*
X161530000Y-56237920D03*
X161530000Y-53697920D03*
X161530000Y-51157920D03*
G04 #@! TD*
D14*
G04 #@! TO.C,J2*
X128020000Y-97270000D03*
D15*
X128020000Y-94730000D03*
G04 #@! TD*
D13*
G04 #@! TO.C,R4*
X134912500Y-87000000D03*
X133087500Y-87000000D03*
G04 #@! TD*
%LPD*%
M02*
